G04 #@! TF.GenerationSoftware,KiCad,Pcbnew,(5.1.5)-2*
G04 #@! TF.CreationDate,2020-04-17T01:02:57-04:00*
G04 #@! TF.ProjectId,va4,7661342e-6b69-4636-9164-5f7063625858,rev?*
G04 #@! TF.SameCoordinates,Original*
G04 #@! TF.FileFunction,Copper,L2,Bot*
G04 #@! TF.FilePolarity,Positive*
%FSLAX46Y46*%
G04 Gerber Fmt 4.6, Leading zero omitted, Abs format (unit mm)*
G04 Created by KiCad (PCBNEW (5.1.5)-2) date 2020-04-17 01:02:57*
%MOMM*%
%LPD*%
G04 APERTURE LIST*
%ADD10C,5.000000*%
%ADD11C,2.286000*%
%ADD12C,2.800000*%
%ADD13C,1.524000*%
%ADD14R,0.797560X1.198880*%
%ADD15R,1.198880X0.797560*%
%ADD16C,1.700000*%
%ADD17C,1.250000*%
%ADD18C,2.200000*%
%ADD19C,2.400000*%
%ADD20C,1.550000*%
%ADD21C,0.100000*%
%ADD22C,1.397000*%
%ADD23R,1.397000X1.397000*%
%ADD24R,1.300000X0.950000*%
%ADD25C,2.000000*%
%ADD26C,0.800000*%
%ADD27C,0.500000*%
%ADD28C,0.250000*%
%ADD29C,0.254000*%
G04 APERTURE END LIST*
D10*
X128800000Y-81700000D03*
X118400000Y-97600000D03*
X86500000Y-70100000D03*
X47100000Y-83300000D03*
X45400000Y-63800000D03*
D11*
X118229557Y-88904705D03*
X111460295Y-87929409D03*
X115859705Y-90469409D03*
X111630443Y-85094705D03*
D12*
X121887659Y-87448686D02*
X121337659Y-88401314D01*
X111062341Y-81198686D02*
X110512341Y-82151314D01*
D13*
X121865064Y-79987822D03*
X117534936Y-77487822D03*
X112450000Y-91295191D03*
X110284936Y-90045191D03*
X114615064Y-92545191D03*
D14*
X105510840Y-89990000D03*
X107309160Y-89990000D03*
D15*
X104050000Y-86549160D03*
X104050000Y-84750840D03*
D16*
X123226408Y-66514415D02*
X122429452Y-66444691D01*
X124354646Y-70829167D02*
X123557690Y-70759443D01*
X128339424Y-71177790D02*
X127542468Y-71108066D01*
X131328008Y-71439257D02*
X130531052Y-71369533D01*
X128858001Y-65250431D02*
X128061045Y-65180707D01*
X131846585Y-65511898D02*
X131049629Y-65442174D01*
X123012876Y-68955092D02*
X122215920Y-68885368D01*
X124873222Y-64901808D02*
X124076266Y-64832084D01*
D17*
X51305324Y-77963871D02*
X50694676Y-77236129D01*
X61505324Y-77236129D02*
X60894676Y-77963871D01*
D18*
X56100000Y-79600000D03*
D19*
X53560000Y-78780000D03*
D20*
X60311742Y-75761222D02*
X59508258Y-76718778D01*
D19*
X58640000Y-78780000D03*
D20*
X52691742Y-76718778D02*
X51888258Y-75761222D01*
D19*
X53560000Y-78200000D03*
X53560000Y-77700000D03*
X58640000Y-77700000D03*
X58640000Y-78200000D03*
G04 #@! TA.AperFunction,SMDPad,CuDef*
D21*
G36*
X120476027Y-75213638D02*
G01*
X120001027Y-76036362D01*
X118875193Y-75386362D01*
X119350193Y-74563638D01*
X120476027Y-75213638D01*
G37*
G04 #@! TD.AperFunction*
G04 #@! TA.AperFunction,SMDPad,CuDef*
G36*
X123550417Y-76988638D02*
G01*
X123075417Y-77811362D01*
X121949583Y-77161362D01*
X122424583Y-76338638D01*
X123550417Y-76988638D01*
G37*
G04 #@! TD.AperFunction*
G04 #@! TA.AperFunction,ComponentPad*
G36*
X125466531Y-77836831D02*
G01*
X124768031Y-79046669D01*
X123558193Y-78348169D01*
X124256693Y-77138331D01*
X125466531Y-77836831D01*
G37*
G04 #@! TD.AperFunction*
D22*
X117913248Y-74282500D03*
G04 #@! TA.AperFunction,SMDPad,CuDef*
D21*
G36*
X97036273Y-68050014D02*
G01*
X96790395Y-68967643D01*
X95534691Y-68631178D01*
X95780569Y-67713549D01*
X97036273Y-68050014D01*
G37*
G04 #@! TD.AperFunction*
G04 #@! TA.AperFunction,SMDPad,CuDef*
G36*
X100465309Y-68968822D02*
G01*
X100219431Y-69886451D01*
X98963727Y-69549986D01*
X99209605Y-68632357D01*
X100465309Y-68968822D01*
G37*
G04 #@! TD.AperFunction*
G04 #@! TA.AperFunction,ComponentPad*
G36*
X102535661Y-69292188D02*
G01*
X102174091Y-70641586D01*
X100824693Y-70280016D01*
X101186263Y-68930618D01*
X102535661Y-69292188D01*
G37*
G04 #@! TD.AperFunction*
D22*
X94319823Y-67813898D03*
X71390000Y-65800000D03*
D23*
X79010000Y-65800000D03*
D24*
X76975000Y-65800000D03*
X73425000Y-65800000D03*
X54225000Y-65800000D03*
X57775000Y-65800000D03*
D23*
X59810000Y-65800000D03*
D22*
X52190000Y-65800000D03*
D17*
X90665128Y-79377630D02*
X90263640Y-78516638D01*
X100705924Y-81314639D02*
X99927730Y-81859537D01*
D18*
X94872968Y-82198962D03*
D19*
X92631748Y-80749503D03*
D20*
X99934747Y-79581067D02*
X98910807Y-80298037D01*
D19*
X97538651Y-82064304D03*
D20*
X92326558Y-78533793D02*
X91798286Y-77400909D01*
D19*
X92781863Y-80189266D03*
X92911272Y-79706303D03*
X97818175Y-81021104D03*
X97688766Y-81504067D03*
D17*
X70405324Y-77963871D02*
X69794676Y-77236129D01*
X80605324Y-77236129D02*
X79994676Y-77963871D01*
D18*
X75200000Y-79600000D03*
D19*
X72660000Y-78780000D03*
D20*
X79411742Y-75761222D02*
X78608258Y-76718778D01*
D19*
X77740000Y-78780000D03*
D20*
X71791742Y-76718778D02*
X70988258Y-75761222D01*
D19*
X72660000Y-78200000D03*
X72660000Y-77700000D03*
X77740000Y-77700000D03*
X77740000Y-78200000D03*
D13*
X119127023Y-32117882D03*
X118905647Y-34648217D03*
X118684271Y-37178551D03*
X118462896Y-39708886D03*
X118241520Y-42239220D03*
X118020145Y-44769555D03*
X117798769Y-47299889D03*
X117577396Y-49830224D03*
X117356018Y-52360558D03*
X117134642Y-54890893D03*
X116913267Y-57421227D03*
X116691891Y-59951562D03*
X131853974Y-61278072D03*
X132075350Y-58747738D03*
X132296726Y-56217403D03*
X132518101Y-53687069D03*
X132739477Y-51156734D03*
X132960852Y-48626400D03*
X133182228Y-46096065D03*
X133403604Y-43565731D03*
X133624979Y-41035396D03*
X133846355Y-38505061D03*
X134067730Y-35974727D03*
X134289106Y-33444392D03*
X117694982Y-33267446D03*
X117473607Y-35797780D03*
X117252231Y-38328115D03*
X117030855Y-40858449D03*
X116809480Y-43388784D03*
X116588104Y-45919119D03*
X116366729Y-48449453D03*
X116145353Y-50979788D03*
X115923976Y-53510122D03*
X115702602Y-56040457D03*
X115481226Y-58570791D03*
X115259851Y-61101126D03*
X130441858Y-62429379D03*
X130663236Y-59899045D03*
X130884609Y-57368710D03*
X131105985Y-54838376D03*
X131327360Y-52308041D03*
X131548736Y-49777707D03*
X131770111Y-47247372D03*
X131991487Y-44717038D03*
X132212863Y-42186703D03*
X132434238Y-39656368D03*
X132655614Y-37126034D03*
X132876989Y-34595699D03*
D25*
X113562367Y-65516744D03*
X120037633Y-66083256D03*
G04 #@! TA.AperFunction,SMDPad,CuDef*
D21*
G36*
X120553357Y-70468264D02*
G01*
X119035156Y-70335439D01*
X119167981Y-68817238D01*
X120686182Y-68950063D01*
X120553357Y-70468264D01*
G37*
G04 #@! TD.AperFunction*
G04 #@! TA.AperFunction,SMDPad,CuDef*
G36*
X118023024Y-70246889D02*
G01*
X116504823Y-70114064D01*
X116637648Y-68595863D01*
X118155849Y-68728688D01*
X118023024Y-70246889D01*
G37*
G04 #@! TD.AperFunction*
G04 #@! TA.AperFunction,SMDPad,CuDef*
G36*
X115492688Y-70025513D02*
G01*
X113974487Y-69892688D01*
X114107312Y-68374487D01*
X115625513Y-68507312D01*
X115492688Y-70025513D01*
G37*
G04 #@! TD.AperFunction*
D26*
X125800000Y-61000000D03*
X125800000Y-58000000D03*
X125800000Y-49400000D03*
X125800006Y-54600000D03*
X125800000Y-45400004D03*
X114300000Y-75400000D03*
X115350000Y-72250000D03*
X122600010Y-33400000D03*
X124200000Y-49400000D03*
X124200000Y-58000000D03*
X124200006Y-61000000D03*
X124200000Y-54599998D03*
X124200000Y-45400010D03*
X124200000Y-40000002D03*
X124200000Y-36600000D03*
X118400002Y-67600000D03*
X96700000Y-70800000D03*
X122600000Y-58000000D03*
X122600000Y-49400000D03*
X122600000Y-45400000D03*
X122600000Y-39800000D03*
X122600000Y-36600000D03*
X122600000Y-54600002D03*
X113600000Y-78000000D03*
X115600000Y-75400000D03*
X46200000Y-71700000D03*
X119600000Y-78800000D03*
X116950000Y-80900000D03*
X121000000Y-40000000D03*
X121000000Y-45400000D03*
X121000000Y-49400000D03*
X121000000Y-54600000D03*
X121000000Y-58000000D03*
X82600000Y-66600000D03*
X114800000Y-63600000D03*
X115637342Y-65837338D03*
X127200000Y-54600000D03*
X127200000Y-58000000D03*
X127200000Y-61000000D03*
X127200000Y-51200008D03*
X119800000Y-49400000D03*
X119800000Y-54600002D03*
X119800000Y-58000000D03*
X119800000Y-61000004D03*
X107600000Y-72100000D03*
X128200000Y-61000000D03*
X128200000Y-58000000D03*
X128200000Y-54600000D03*
X128200000Y-49400000D03*
X128200000Y-45400000D03*
X128200000Y-42400000D03*
X106800000Y-68800000D03*
X109050000Y-67000000D03*
X112850000Y-63800000D03*
X113225010Y-61400000D03*
X105650000Y-86550000D03*
X110050000Y-68875000D03*
X113374990Y-59875000D03*
X108000000Y-74500000D03*
X108000000Y-86500000D03*
X110050000Y-72450004D03*
D27*
X125800000Y-62800000D02*
X125800000Y-61000000D01*
X124474744Y-64866946D02*
X124474744Y-64125256D01*
X124474744Y-64125256D02*
X125800000Y-62800000D01*
X125800000Y-58000000D02*
X125800000Y-54600006D01*
X125800000Y-54600006D02*
X125800006Y-54600000D01*
X125800000Y-49400000D02*
X125800000Y-45400004D01*
X124600000Y-70150473D02*
X123956168Y-70794305D01*
X124600000Y-65945449D02*
X124600000Y-70150473D01*
X124474744Y-64866946D02*
X124474744Y-65820193D01*
X124474744Y-65820193D02*
X124600000Y-65945449D01*
X122610924Y-70794305D02*
X123956168Y-70794305D01*
X114778624Y-68978624D02*
X114800000Y-69000000D01*
X114800000Y-69000000D02*
X114800000Y-69800000D01*
X114800000Y-69800000D02*
X116200000Y-71200000D01*
X116200000Y-71200000D02*
X122205229Y-71200000D01*
X122205229Y-71200000D02*
X122610924Y-70794305D01*
D28*
X116200000Y-71302900D02*
X116200000Y-71200000D01*
X116200000Y-71302900D02*
X116197100Y-71302900D01*
D27*
X104100000Y-83200000D02*
X104100000Y-84700000D01*
X109300000Y-78000000D02*
X104100000Y-83200000D01*
X114300000Y-75400000D02*
X111700000Y-78000000D01*
X111700000Y-78000000D02*
X109300000Y-78000000D01*
X104500000Y-90000000D02*
X105500000Y-90000000D01*
X102400000Y-86000000D02*
X102400000Y-87900000D01*
X102400000Y-87900000D02*
X104500000Y-90000000D01*
D28*
X104050000Y-84750840D02*
X103649160Y-84750840D01*
D27*
X103649160Y-84750840D02*
X102400000Y-86000000D01*
D28*
X116200000Y-71400000D02*
X116200000Y-71200000D01*
X115350000Y-72250000D02*
X116200000Y-71400000D01*
X134112160Y-33267446D02*
X134289106Y-33444392D01*
X132332554Y-33267446D02*
X134112160Y-33267446D01*
X131800000Y-33800000D02*
X132332554Y-33267446D01*
X120000000Y-33800000D02*
X131800000Y-33800000D01*
X117694982Y-33267446D02*
X119467446Y-33267446D01*
X119467446Y-33267446D02*
X120000000Y-33800000D01*
X117694982Y-33267446D02*
X122467456Y-33267446D01*
X122467456Y-33267446D02*
X122600010Y-33400000D01*
X124200000Y-58000000D02*
X124200000Y-54599998D01*
X124200000Y-49400000D02*
X124200000Y-45400010D01*
X124200000Y-36600000D02*
X124200000Y-40000002D01*
X118400002Y-65436408D02*
X118400002Y-67034315D01*
X118400002Y-67034315D02*
X118400002Y-67600000D01*
X124200006Y-61000000D02*
X122836410Y-61000000D01*
X122836410Y-61000000D02*
X118400002Y-65436408D01*
X117330335Y-68669665D02*
X117330335Y-69421376D01*
X118400002Y-67600000D02*
X118400000Y-67600000D01*
X118400000Y-67600000D02*
X117330335Y-68669665D01*
D27*
X122600000Y-49400000D02*
X122600000Y-45400000D01*
X122600000Y-39800000D02*
X122600000Y-36600000D01*
X122600000Y-58000000D02*
X122600000Y-54600002D01*
X120037633Y-69362367D02*
X119800000Y-69600000D01*
X120037633Y-66083256D02*
X120037633Y-69362367D01*
D28*
X113600000Y-78000000D02*
X113600000Y-77400000D01*
X113600000Y-77400000D02*
X115600000Y-75400000D01*
X118684271Y-37178551D02*
X121000000Y-39494280D01*
X121000000Y-39494280D02*
X121000000Y-40000000D01*
X121000000Y-45400000D02*
X121000000Y-49400000D01*
X121000000Y-54600000D02*
X121000000Y-58000000D01*
X116200000Y-42000000D02*
X118002300Y-42000000D01*
X114100000Y-44100000D02*
X116200000Y-42000000D01*
X110625000Y-69925000D02*
X113425000Y-67125000D01*
X113425000Y-67125000D02*
X115375000Y-67125000D01*
X114100000Y-61900000D02*
X114100000Y-44100000D01*
X82600000Y-66600000D02*
X101000001Y-66600001D01*
X104325000Y-69925000D02*
X110625000Y-69925000D01*
X115375000Y-67125000D02*
X117200000Y-65300000D01*
X117200000Y-65300000D02*
X117200000Y-63400000D01*
X101000001Y-66600001D02*
X104325000Y-69925000D01*
X117200000Y-63400000D02*
X116600000Y-62800000D01*
X116600000Y-62800000D02*
X115000000Y-62800000D01*
X115000000Y-62800000D02*
X114100000Y-61900000D01*
X115637342Y-64437342D02*
X114800000Y-63600000D01*
X115637342Y-65837338D02*
X115637342Y-64437342D01*
X127200000Y-54600000D02*
X127200000Y-58000000D01*
X128000008Y-50400000D02*
X127200000Y-51200008D01*
X130200000Y-50400000D02*
X128000008Y-50400000D01*
X131548736Y-49777707D02*
X130822293Y-49777707D01*
X130822293Y-49777707D02*
X130200000Y-50400000D01*
X100719263Y-79939552D02*
X99422777Y-79939552D01*
X103960448Y-79939552D02*
X100719263Y-79939552D01*
X116125000Y-74175000D02*
X109725000Y-74175000D01*
X117175000Y-73125000D02*
X116125000Y-74175000D01*
X120825000Y-73125000D02*
X117175000Y-73125000D01*
X121950000Y-74250000D02*
X120825000Y-73125000D01*
X125800000Y-73000000D02*
X124550000Y-74250000D01*
X124550000Y-74250000D02*
X121950000Y-74250000D01*
X125800000Y-70360523D02*
X125800000Y-73000000D01*
X126400000Y-64400000D02*
X126400000Y-65600000D01*
X126400000Y-65600000D02*
X127600000Y-66800000D01*
X127200000Y-63600000D02*
X126400000Y-64400000D01*
X127200000Y-61000000D02*
X127200000Y-63600000D01*
X127600000Y-66800000D02*
X127600000Y-68560523D01*
X109725000Y-74175000D02*
X103960448Y-79939552D01*
X127600000Y-68560523D02*
X125800000Y-70360523D01*
X115627063Y-91350179D02*
X115627063Y-91272937D01*
X118229557Y-87070443D02*
X118229557Y-88904705D01*
X119700000Y-85600000D02*
X118229557Y-87070443D01*
X117784936Y-77054809D02*
X117780127Y-77050000D01*
X117086558Y-90047704D02*
X116352296Y-90047704D01*
X118229557Y-88904705D02*
X117086558Y-90047704D01*
X116352296Y-90047704D02*
X115900000Y-90500000D01*
X119700000Y-80730516D02*
X119700000Y-85600000D01*
X117534936Y-78565452D02*
X119700000Y-80730516D01*
X117534936Y-77487822D02*
X117534936Y-78565452D01*
X120500000Y-85600000D02*
X119700000Y-85600000D01*
X126250011Y-70546923D02*
X126250011Y-79849989D01*
X126996934Y-69800000D02*
X126250011Y-70546923D01*
X127800000Y-69800000D02*
X126996934Y-69800000D01*
X133800000Y-59000000D02*
X133200000Y-59600000D01*
X126250011Y-79849989D02*
X120500000Y-85600000D01*
X129600000Y-68000000D02*
X127800000Y-69800000D01*
X133800000Y-53000000D02*
X133800000Y-59000000D01*
X131327360Y-52308041D02*
X133108041Y-52308041D01*
X132800000Y-62200000D02*
X132800000Y-63800000D01*
X133108041Y-52308041D02*
X133800000Y-53000000D01*
X133400000Y-64400000D02*
X133400000Y-65800000D01*
X132800000Y-63800000D02*
X133400000Y-64400000D01*
X133200000Y-59600000D02*
X133200000Y-61800000D01*
X133400000Y-65800000D02*
X131200000Y-68000000D01*
X133200000Y-61800000D02*
X132800000Y-62200000D01*
X131200000Y-68000000D02*
X129600000Y-68000000D01*
X130997720Y-58747738D02*
X132075350Y-58747738D01*
X129652262Y-58747738D02*
X130997720Y-58747738D01*
X128749990Y-59650010D02*
X129652262Y-58747738D01*
X118450010Y-59650010D02*
X128749990Y-59650010D01*
X115481226Y-58570791D02*
X117370791Y-58570791D01*
X117370791Y-58570791D02*
X118450010Y-59650010D01*
X130182597Y-56217403D02*
X131219096Y-56217403D01*
X129200000Y-57200000D02*
X130182597Y-56217403D01*
X129200000Y-58200000D02*
X129200000Y-57200000D01*
X117240457Y-56040457D02*
X118200000Y-57000000D01*
X115702602Y-56040457D02*
X117240457Y-56040457D01*
X118200000Y-57000000D02*
X118200000Y-58200000D01*
X118200000Y-58200000D02*
X119200000Y-59200000D01*
X131219096Y-56217403D02*
X132296726Y-56217403D01*
X119200000Y-59200000D02*
X128200000Y-59200000D01*
X128200000Y-59200000D02*
X129200000Y-58200000D01*
X129712931Y-53687069D02*
X132518101Y-53687069D01*
X128625862Y-52600000D02*
X129712931Y-53687069D01*
X118820244Y-52600000D02*
X128625862Y-52600000D01*
X115923977Y-53510122D02*
X117910122Y-53510122D01*
X117910122Y-53510122D02*
X118820244Y-52600000D01*
X131661847Y-51156734D02*
X132739477Y-51156734D01*
X130556734Y-51156734D02*
X131661847Y-51156734D01*
X117243195Y-51000000D02*
X119000000Y-51000000D01*
X119000000Y-51000000D02*
X120000000Y-52000000D01*
X120000000Y-52000000D02*
X129713468Y-52000000D01*
X129713468Y-52000000D02*
X130556734Y-51156734D01*
X117222983Y-50979788D02*
X117243195Y-51000000D01*
X116145353Y-50979788D02*
X117222983Y-50979788D01*
X57775000Y-65800000D02*
X59810000Y-65800000D01*
X79010000Y-65800000D02*
X76975000Y-65800000D01*
X78061500Y-65800000D02*
X79010000Y-65800000D01*
X77037999Y-66823501D02*
X78061500Y-65800000D01*
X61782001Y-66823501D02*
X77037999Y-66823501D01*
X60758500Y-65800000D02*
X61782001Y-66823501D01*
X59810000Y-65800000D02*
X60758500Y-65800000D01*
X101753480Y-69059404D02*
X102280177Y-69586101D01*
X100314518Y-69059404D02*
X101753480Y-69059404D01*
X116366729Y-48449453D02*
X118477543Y-48449453D01*
X118477543Y-48449453D02*
X118849453Y-48449453D01*
X118849453Y-48449453D02*
X119800000Y-49400000D01*
X119800000Y-54600002D02*
X119800000Y-58000000D01*
X99266278Y-72600000D02*
X102280177Y-69586101D01*
X90000000Y-72600000D02*
X99266278Y-72600000D01*
X89000000Y-73600000D02*
X90000000Y-72600000D01*
X79010000Y-65800000D02*
X80010000Y-66800000D01*
X81000000Y-66800000D02*
X82800000Y-68600000D01*
X80010000Y-66800000D02*
X81000000Y-66800000D01*
X82800000Y-68600000D02*
X82800000Y-72200000D01*
X82800000Y-72200000D02*
X84200000Y-73600000D01*
X84200000Y-73600000D02*
X89000000Y-73600000D01*
X131883222Y-48626400D02*
X132960852Y-48626400D01*
X131426400Y-48626400D02*
X131883222Y-48626400D01*
X129400000Y-44600000D02*
X130400000Y-45600000D01*
X119600000Y-47326996D02*
X119600000Y-45600000D01*
X118477543Y-48449453D02*
X119600000Y-47326996D01*
X119600000Y-45600000D02*
X121200000Y-44000000D01*
X130400000Y-47600000D02*
X131426400Y-48626400D01*
X130400000Y-45600000D02*
X130400000Y-47600000D01*
X121200000Y-44000000D02*
X126800000Y-44000000D01*
X126800000Y-44000000D02*
X127400000Y-44600000D01*
X127400000Y-44600000D02*
X129400000Y-44600000D01*
X123296543Y-77621543D02*
X124196543Y-77621543D01*
X122750000Y-77075000D02*
X123296543Y-77621543D01*
X103169076Y-70475000D02*
X102280177Y-69586101D01*
X117800000Y-63000004D02*
X117800000Y-65600000D01*
X117800000Y-65600000D02*
X115650000Y-67750000D01*
X115650000Y-67750000D02*
X113650000Y-67750000D01*
X119800000Y-61000004D02*
X117800000Y-63000004D01*
X113650000Y-67750000D02*
X110925000Y-70475000D01*
X110925000Y-70475000D02*
X107600000Y-70475000D01*
X107600000Y-70475000D02*
X103169076Y-70475000D01*
X107600000Y-70475000D02*
X107600000Y-72100000D01*
X131532476Y-46096065D02*
X132104598Y-46096065D01*
X118480881Y-45919119D02*
X121000000Y-43400000D01*
X132104598Y-46096065D02*
X133182228Y-46096065D01*
X116588104Y-45919119D02*
X118480881Y-45919119D01*
X121000000Y-43400000D02*
X126963590Y-43400000D01*
X126963590Y-43400000D02*
X127713579Y-44149989D01*
X127713579Y-44149989D02*
X129586400Y-44149989D01*
X129586400Y-44149989D02*
X131532476Y-46096065D01*
X127765731Y-43565731D02*
X133403604Y-43565731D01*
X127000000Y-42800000D02*
X127765731Y-43565731D01*
X120800000Y-42800000D02*
X127000000Y-42800000D01*
X116809480Y-43388784D02*
X120211216Y-43388784D01*
X120211216Y-43388784D02*
X120800000Y-42800000D01*
X133890783Y-35797780D02*
X134067730Y-35974727D01*
X132397780Y-35797780D02*
X133890783Y-35797780D01*
X121000000Y-34400000D02*
X131000000Y-34400000D01*
X117473607Y-35797780D02*
X119602220Y-35797780D01*
X119602220Y-35797780D02*
X121000000Y-34400000D01*
X131448107Y-65477036D02*
X128200000Y-62228929D01*
X128200000Y-62228929D02*
X128200000Y-61000000D01*
X128200000Y-58000000D02*
X128200000Y-54600000D01*
X128200000Y-49400000D02*
X128200000Y-45400000D01*
X131000000Y-34400000D02*
X132200000Y-35600000D01*
X132200000Y-35600000D02*
X132397780Y-35797780D01*
X128200000Y-41834315D02*
X128200000Y-42400000D01*
X128200000Y-39600000D02*
X128200000Y-41834315D01*
X132200000Y-35600000D02*
X128200000Y-39600000D01*
X54225000Y-65800000D02*
X52190000Y-65800000D01*
X73425000Y-65800000D02*
X71390000Y-65800000D01*
X95446520Y-68140596D02*
X94919823Y-67613899D01*
X96885482Y-68140596D02*
X95446520Y-68140596D01*
X130776344Y-61278072D02*
X131853974Y-61278072D01*
X130078072Y-61278072D02*
X130776344Y-61278072D01*
X128900021Y-60100021D02*
X130078072Y-61278072D01*
X118499979Y-60100021D02*
X128900021Y-60100021D01*
X115259851Y-61101126D02*
X117498874Y-61101126D01*
X117498874Y-61101126D02*
X118499979Y-60100021D01*
X106800000Y-68800000D02*
X106800000Y-67650000D01*
X106800000Y-67650000D02*
X107450000Y-67000000D01*
X107450000Y-67000000D02*
X109050000Y-67000000D01*
X112850000Y-61775010D02*
X113225010Y-61400000D01*
X112850000Y-63800000D02*
X112850000Y-61775010D01*
X104050000Y-86549160D02*
X105649160Y-86549160D01*
X105649160Y-86549160D02*
X105650000Y-86550000D01*
X113349990Y-59900000D02*
X113374990Y-59875000D01*
X110050000Y-66425000D02*
X112000000Y-64475000D01*
X110050000Y-68875000D02*
X110050000Y-66425000D01*
X112000000Y-64475000D02*
X112000000Y-61005669D01*
X112000000Y-61005669D02*
X112020457Y-60779543D01*
X112020457Y-60779543D02*
X112900000Y-59900000D01*
X112900000Y-59900000D02*
X113349990Y-59900000D01*
X110049994Y-72450004D02*
X110050000Y-72450004D01*
X108000000Y-74500000D02*
X110049994Y-72450004D01*
X114615064Y-92545191D02*
X109045191Y-92545191D01*
X107320000Y-90820000D02*
X107320000Y-90100000D01*
X109045191Y-92545191D02*
X107320000Y-90820000D01*
X108000000Y-86500000D02*
X107400000Y-87100000D01*
X107400000Y-87100000D02*
X107400000Y-89700000D01*
X119675610Y-75300000D02*
X119675000Y-75300610D01*
X119280999Y-74980999D02*
X119700000Y-75400000D01*
X111460295Y-86312963D02*
X111600000Y-86173258D01*
X111460295Y-87929409D02*
X111460295Y-86312963D01*
X111600000Y-86173258D02*
X111600000Y-85100000D01*
X111630443Y-85094705D02*
X114900000Y-81825148D01*
X114900000Y-81825148D02*
X114900000Y-77300000D01*
X114900000Y-77300000D02*
X117900000Y-74300000D01*
X118611747Y-74980999D02*
X119380999Y-74980999D01*
X117913248Y-74282500D02*
X118611747Y-74980999D01*
X119380999Y-74980999D02*
X119690000Y-75290000D01*
D29*
G36*
X46235217Y-59864408D02*
G01*
X49006904Y-60018987D01*
X52926705Y-60240953D01*
X57534365Y-60505843D01*
X62365644Y-60788969D01*
X66958151Y-61065738D01*
X70849805Y-61311579D01*
X73568261Y-61501183D01*
X73571276Y-61501674D01*
X73596673Y-61503287D01*
X73600147Y-61503819D01*
X73618443Y-61504806D01*
X73627133Y-61505439D01*
X73628764Y-61505673D01*
X73632803Y-61505852D01*
X73636463Y-61506119D01*
X73637959Y-61506081D01*
X73646987Y-61506482D01*
X73655637Y-61507031D01*
X73657267Y-61507249D01*
X73661265Y-61507388D01*
X73665229Y-61507640D01*
X73666862Y-61507583D01*
X73675601Y-61507888D01*
X73683922Y-61508336D01*
X73685485Y-61508531D01*
X73689396Y-61508632D01*
X73693892Y-61508874D01*
X73695703Y-61508794D01*
X73703759Y-61509001D01*
X73712110Y-61509371D01*
X73713568Y-61509540D01*
X73717358Y-61509604D01*
X73722422Y-61509829D01*
X73724381Y-61509723D01*
X73732016Y-61509853D01*
X73740090Y-61510134D01*
X73741475Y-61510283D01*
X73745338Y-61510317D01*
X73750962Y-61510513D01*
X73752987Y-61510385D01*
X73759974Y-61510446D01*
X73779335Y-61510944D01*
X73782553Y-61510710D01*
X73785924Y-61510768D01*
X76668003Y-61662515D01*
X80530516Y-62060229D01*
X85043530Y-62649782D01*
X89866788Y-63374930D01*
X94663985Y-64179469D01*
X99099041Y-65006995D01*
X102832446Y-65800061D01*
X105545562Y-66505324D01*
X106333857Y-66720702D01*
X106343103Y-66725004D01*
X106403602Y-66739757D01*
X106428676Y-66746608D01*
X106438663Y-66748307D01*
X106448516Y-66750710D01*
X106474274Y-66754366D01*
X106535641Y-66764808D01*
X106545832Y-66764524D01*
X106602614Y-66772585D01*
X106288998Y-67086201D01*
X106260000Y-67109999D01*
X106236202Y-67138997D01*
X106236201Y-67138998D01*
X106165026Y-67225724D01*
X106094454Y-67357754D01*
X106070658Y-67436201D01*
X106050998Y-67501014D01*
X106045907Y-67552701D01*
X106036324Y-67650000D01*
X106040001Y-67687332D01*
X106040001Y-68096288D01*
X105996063Y-68140226D01*
X105882795Y-68309744D01*
X105804774Y-68498102D01*
X105765000Y-68698061D01*
X105765000Y-68901939D01*
X105804774Y-69101898D01*
X105830912Y-69165000D01*
X104639802Y-69165000D01*
X101563800Y-66088999D01*
X101540002Y-66060001D01*
X101499956Y-66027136D01*
X101424277Y-65965027D01*
X101292247Y-65894455D01*
X101189763Y-65863368D01*
X101148987Y-65850999D01*
X101037334Y-65840002D01*
X101000001Y-65836325D01*
X100962669Y-65840002D01*
X83303711Y-65840000D01*
X83259774Y-65796063D01*
X83090256Y-65682795D01*
X82901898Y-65604774D01*
X82701939Y-65565000D01*
X82498061Y-65565000D01*
X82298102Y-65604774D01*
X82109744Y-65682795D01*
X81940226Y-65796063D01*
X81796063Y-65940226D01*
X81682795Y-66109744D01*
X81604774Y-66298102D01*
X81599486Y-66324685D01*
X81563803Y-66289002D01*
X81540001Y-66259999D01*
X81424276Y-66165026D01*
X81292247Y-66094454D01*
X81148986Y-66050997D01*
X81037333Y-66040000D01*
X81037322Y-66040000D01*
X81000000Y-66036324D01*
X80962678Y-66040000D01*
X80346572Y-66040000D01*
X80346572Y-65101500D01*
X80334312Y-64977018D01*
X80298002Y-64857320D01*
X80239037Y-64747006D01*
X80159685Y-64650315D01*
X80062994Y-64570963D01*
X79952680Y-64511998D01*
X79832982Y-64475688D01*
X79708500Y-64463428D01*
X78311500Y-64463428D01*
X78187018Y-64475688D01*
X78067320Y-64511998D01*
X77957006Y-64570963D01*
X77860315Y-64650315D01*
X77806109Y-64716366D01*
X77749482Y-64699188D01*
X77625000Y-64686928D01*
X76325000Y-64686928D01*
X76200518Y-64699188D01*
X76080820Y-64735498D01*
X75970506Y-64794463D01*
X75873815Y-64873815D01*
X75794463Y-64970506D01*
X75735498Y-65080820D01*
X75699188Y-65200518D01*
X75686928Y-65325000D01*
X75686928Y-66063501D01*
X74713072Y-66063501D01*
X74713072Y-65325000D01*
X74700812Y-65200518D01*
X74664502Y-65080820D01*
X74605537Y-64970506D01*
X74526185Y-64873815D01*
X74429494Y-64794463D01*
X74319180Y-64735498D01*
X74199482Y-64699188D01*
X74075000Y-64686928D01*
X72775000Y-64686928D01*
X72650518Y-64699188D01*
X72530820Y-64735498D01*
X72420506Y-64794463D01*
X72338015Y-64862161D01*
X72240057Y-64764203D01*
X72021649Y-64618268D01*
X71778968Y-64517746D01*
X71521338Y-64466500D01*
X71258662Y-64466500D01*
X71001032Y-64517746D01*
X70758351Y-64618268D01*
X70539943Y-64764203D01*
X70354203Y-64949943D01*
X70208268Y-65168351D01*
X70107746Y-65411032D01*
X70056500Y-65668662D01*
X70056500Y-65931338D01*
X70082789Y-66063501D01*
X62096803Y-66063501D01*
X61322304Y-65289002D01*
X61298501Y-65259999D01*
X61182776Y-65165026D01*
X61146572Y-65145674D01*
X61146572Y-65101500D01*
X61134312Y-64977018D01*
X61098002Y-64857320D01*
X61039037Y-64747006D01*
X60959685Y-64650315D01*
X60862994Y-64570963D01*
X60752680Y-64511998D01*
X60632982Y-64475688D01*
X60508500Y-64463428D01*
X59111500Y-64463428D01*
X58987018Y-64475688D01*
X58867320Y-64511998D01*
X58757006Y-64570963D01*
X58660315Y-64650315D01*
X58606109Y-64716366D01*
X58549482Y-64699188D01*
X58425000Y-64686928D01*
X57125000Y-64686928D01*
X57000518Y-64699188D01*
X56880820Y-64735498D01*
X56770506Y-64794463D01*
X56673815Y-64873815D01*
X56594463Y-64970506D01*
X56535498Y-65080820D01*
X56499188Y-65200518D01*
X56486928Y-65325000D01*
X56486928Y-66275000D01*
X56499188Y-66399482D01*
X56535498Y-66519180D01*
X56594463Y-66629494D01*
X56673815Y-66726185D01*
X56770506Y-66805537D01*
X56880820Y-66864502D01*
X57000518Y-66900812D01*
X57125000Y-66913072D01*
X58425000Y-66913072D01*
X58549482Y-66900812D01*
X58606109Y-66883634D01*
X58660315Y-66949685D01*
X58757006Y-67029037D01*
X58867320Y-67088002D01*
X58987018Y-67124312D01*
X59111500Y-67136572D01*
X60508500Y-67136572D01*
X60632982Y-67124312D01*
X60752680Y-67088002D01*
X60862994Y-67029037D01*
X60890314Y-67006616D01*
X61218202Y-67334504D01*
X61242000Y-67363502D01*
X61270998Y-67387300D01*
X61357724Y-67458475D01*
X61467599Y-67517205D01*
X61489754Y-67529047D01*
X61633015Y-67572504D01*
X61744668Y-67583501D01*
X61744678Y-67583501D01*
X61782001Y-67587177D01*
X61819323Y-67583501D01*
X77000677Y-67583501D01*
X77037999Y-67587177D01*
X77075321Y-67583501D01*
X77075332Y-67583501D01*
X77186985Y-67572504D01*
X77330246Y-67529047D01*
X77462275Y-67458475D01*
X77578000Y-67363502D01*
X77601803Y-67334499D01*
X77929686Y-67006616D01*
X77957006Y-67029037D01*
X78067320Y-67088002D01*
X78187018Y-67124312D01*
X78311500Y-67136572D01*
X79271770Y-67136572D01*
X79446200Y-67311002D01*
X79469999Y-67340001D01*
X79498997Y-67363799D01*
X79585724Y-67434974D01*
X79717753Y-67505546D01*
X79861014Y-67549003D01*
X80010000Y-67563677D01*
X80047333Y-67560000D01*
X80685199Y-67560000D01*
X82040000Y-68914803D01*
X82040001Y-72162668D01*
X82036324Y-72200000D01*
X82050998Y-72348985D01*
X82094454Y-72492246D01*
X82165026Y-72624276D01*
X82236201Y-72711002D01*
X82260000Y-72740001D01*
X82288998Y-72763799D01*
X83636201Y-74111003D01*
X83659999Y-74140001D01*
X83688997Y-74163799D01*
X83775723Y-74234974D01*
X83897377Y-74300000D01*
X83907753Y-74305546D01*
X84051014Y-74349003D01*
X84162667Y-74360000D01*
X84162677Y-74360000D01*
X84200000Y-74363676D01*
X84237322Y-74360000D01*
X88962678Y-74360000D01*
X89000000Y-74363676D01*
X89037322Y-74360000D01*
X89037333Y-74360000D01*
X89148986Y-74349003D01*
X89292247Y-74305546D01*
X89424276Y-74234974D01*
X89540001Y-74140001D01*
X89563804Y-74110998D01*
X90314802Y-73360000D01*
X99228956Y-73360000D01*
X99266278Y-73363676D01*
X99303600Y-73360000D01*
X99303611Y-73360000D01*
X99415264Y-73349003D01*
X99558525Y-73305546D01*
X99690554Y-73234974D01*
X99806279Y-73140001D01*
X99830082Y-73110997D01*
X101752010Y-71189070D01*
X102008946Y-71257916D01*
X102132359Y-71278292D01*
X102257376Y-71274199D01*
X102379193Y-71245796D01*
X102493127Y-71194173D01*
X102594801Y-71121314D01*
X102665996Y-71045301D01*
X102744799Y-71109974D01*
X102843380Y-71162667D01*
X102876829Y-71180546D01*
X103020090Y-71224003D01*
X103131743Y-71235000D01*
X103131753Y-71235000D01*
X103169075Y-71238676D01*
X103206398Y-71235000D01*
X106840000Y-71235000D01*
X106840001Y-71396288D01*
X106796063Y-71440226D01*
X106682795Y-71609744D01*
X106604774Y-71798102D01*
X106565000Y-71998061D01*
X106565000Y-72201939D01*
X106604774Y-72401898D01*
X106682795Y-72590256D01*
X106796063Y-72759774D01*
X106940226Y-72903937D01*
X107109744Y-73017205D01*
X107298102Y-73095226D01*
X107498061Y-73135000D01*
X107701939Y-73135000D01*
X107901898Y-73095226D01*
X108090256Y-73017205D01*
X108259774Y-72903937D01*
X108403937Y-72759774D01*
X108517205Y-72590256D01*
X108595226Y-72401898D01*
X108635000Y-72201939D01*
X108635000Y-71998061D01*
X108595226Y-71798102D01*
X108517205Y-71609744D01*
X108403937Y-71440226D01*
X108360000Y-71396289D01*
X108360000Y-71235000D01*
X110887678Y-71235000D01*
X110925000Y-71238676D01*
X110962322Y-71235000D01*
X110962333Y-71235000D01*
X111073986Y-71224003D01*
X111217247Y-71180546D01*
X111349276Y-71109974D01*
X111465001Y-71015001D01*
X111488804Y-70985997D01*
X113406064Y-69068738D01*
X113338843Y-69837077D01*
X113340208Y-69962153D01*
X113365947Y-70084560D01*
X113415072Y-70199594D01*
X113485696Y-70302833D01*
X113575103Y-70390311D01*
X113679858Y-70458665D01*
X113795936Y-70505269D01*
X113918876Y-70528332D01*
X114311066Y-70562644D01*
X115016348Y-71267927D01*
X114859744Y-71332795D01*
X114690226Y-71446063D01*
X114546063Y-71590226D01*
X114432795Y-71759744D01*
X114354774Y-71948102D01*
X114315000Y-72148061D01*
X114315000Y-72351939D01*
X114354774Y-72551898D01*
X114432795Y-72740256D01*
X114546063Y-72909774D01*
X114690226Y-73053937D01*
X114859744Y-73167205D01*
X115048102Y-73245226D01*
X115248061Y-73285000D01*
X115451939Y-73285000D01*
X115651898Y-73245226D01*
X115840256Y-73167205D01*
X116009774Y-73053937D01*
X116153937Y-72909774D01*
X116267205Y-72740256D01*
X116345226Y-72551898D01*
X116385000Y-72351939D01*
X116385000Y-72289802D01*
X116589802Y-72085000D01*
X122161760Y-72085000D01*
X122205229Y-72089281D01*
X122248698Y-72085000D01*
X122248706Y-72085000D01*
X122378719Y-72072195D01*
X122545542Y-72021589D01*
X122671413Y-71954310D01*
X122868678Y-72083027D01*
X123140135Y-72192015D01*
X123355593Y-72232434D01*
X124297893Y-72314874D01*
X124517096Y-72312482D01*
X124803355Y-72252288D01*
X125040001Y-72151228D01*
X125040001Y-72685197D01*
X124235199Y-73490000D01*
X122264802Y-73490000D01*
X121388804Y-72614002D01*
X121365001Y-72584999D01*
X121249276Y-72490026D01*
X121117247Y-72419454D01*
X120973986Y-72375997D01*
X120862333Y-72365000D01*
X120862322Y-72365000D01*
X120825000Y-72361324D01*
X120787678Y-72365000D01*
X117212322Y-72365000D01*
X117174999Y-72361324D01*
X117137676Y-72365000D01*
X117137667Y-72365000D01*
X117026014Y-72375997D01*
X116882753Y-72419454D01*
X116750724Y-72490026D01*
X116634999Y-72584999D01*
X116611201Y-72613997D01*
X115810199Y-73415000D01*
X110424879Y-73415000D01*
X110540256Y-73367209D01*
X110709774Y-73253941D01*
X110853937Y-73109778D01*
X110967205Y-72940260D01*
X111045226Y-72751902D01*
X111085000Y-72551943D01*
X111085000Y-72348065D01*
X111045226Y-72148106D01*
X110967205Y-71959748D01*
X110853937Y-71790230D01*
X110709774Y-71646067D01*
X110540256Y-71532799D01*
X110351898Y-71454778D01*
X110151939Y-71415004D01*
X109948061Y-71415004D01*
X109748102Y-71454778D01*
X109559744Y-71532799D01*
X109390226Y-71646067D01*
X109246063Y-71790230D01*
X109132795Y-71959748D01*
X109054774Y-72148106D01*
X109015000Y-72348065D01*
X109015000Y-72410197D01*
X107960198Y-73465000D01*
X107898061Y-73465000D01*
X107698102Y-73504774D01*
X107509744Y-73582795D01*
X107340226Y-73696063D01*
X107196063Y-73840226D01*
X107082795Y-74009744D01*
X107004774Y-74198102D01*
X106965000Y-74398061D01*
X106965000Y-74601939D01*
X107004774Y-74801898D01*
X107082795Y-74990256D01*
X107196063Y-75159774D01*
X107340226Y-75303937D01*
X107448749Y-75376449D01*
X103645647Y-79179552D01*
X102685710Y-79179552D01*
X102722971Y-79154655D01*
X102943742Y-78933884D01*
X103117201Y-78674284D01*
X103236681Y-78385832D01*
X103297592Y-78079614D01*
X103297592Y-77767396D01*
X103236681Y-77461178D01*
X103117201Y-77172726D01*
X102943742Y-76913126D01*
X102722971Y-76692355D01*
X102463371Y-76518896D01*
X102174919Y-76399416D01*
X101868701Y-76338505D01*
X101556483Y-76338505D01*
X101526702Y-76344429D01*
X101453163Y-76329801D01*
X101160643Y-76329801D01*
X100873745Y-76386869D01*
X100603492Y-76498811D01*
X100360271Y-76661326D01*
X100153428Y-76868169D01*
X99990913Y-77111390D01*
X99878971Y-77381643D01*
X99821903Y-77668541D01*
X99821903Y-77961061D01*
X99863357Y-78169464D01*
X99628091Y-78197830D01*
X99364127Y-78284234D01*
X99182742Y-78386334D01*
X98045327Y-79182761D01*
X98033426Y-79192970D01*
X97998907Y-79186104D01*
X97637443Y-79186104D01*
X97282925Y-79256622D01*
X96948976Y-79394948D01*
X96648431Y-79595766D01*
X96392837Y-79851360D01*
X96192019Y-80151905D01*
X96053693Y-80485854D01*
X95988430Y-80813956D01*
X95974263Y-80848157D01*
X95694799Y-80661425D01*
X95379049Y-80530637D01*
X95043851Y-80463962D01*
X94702085Y-80463962D01*
X94593892Y-80485483D01*
X94611608Y-80396414D01*
X94675754Y-80241553D01*
X94746272Y-79887035D01*
X94746272Y-79525571D01*
X94675754Y-79171053D01*
X94537428Y-78837104D01*
X94336610Y-78536559D01*
X94081016Y-78280965D01*
X93780471Y-78080147D01*
X93641416Y-78022549D01*
X93633724Y-78000676D01*
X93046907Y-76742244D01*
X92940874Y-76563130D01*
X92755477Y-76356319D01*
X92601048Y-76240475D01*
X93765000Y-76240475D01*
X93765000Y-76759525D01*
X93866261Y-77268601D01*
X94064893Y-77748141D01*
X94353262Y-78179715D01*
X94720285Y-78546738D01*
X95151859Y-78835107D01*
X95631399Y-79033739D01*
X96140475Y-79135000D01*
X96659525Y-79135000D01*
X97168601Y-79033739D01*
X97648141Y-78835107D01*
X98079715Y-78546738D01*
X98446738Y-78179715D01*
X98735107Y-77748141D01*
X98933739Y-77268601D01*
X99035000Y-76759525D01*
X99035000Y-76240475D01*
X98933739Y-75731399D01*
X98735107Y-75251859D01*
X98446738Y-74820285D01*
X98079715Y-74453262D01*
X97648141Y-74164893D01*
X97168601Y-73966261D01*
X96659525Y-73865000D01*
X96140475Y-73865000D01*
X95631399Y-73966261D01*
X95151859Y-74164893D01*
X94720285Y-74453262D01*
X94353262Y-74820285D01*
X94064893Y-75251859D01*
X93866261Y-75731399D01*
X93765000Y-76240475D01*
X92601048Y-76240475D01*
X92564982Y-76213421D01*
X92646572Y-76131831D01*
X92809087Y-75888610D01*
X92921029Y-75618357D01*
X92978097Y-75331459D01*
X92978097Y-75038939D01*
X92921029Y-74752041D01*
X92809087Y-74481788D01*
X92646572Y-74238567D01*
X92439729Y-74031724D01*
X92196508Y-73869209D01*
X92030741Y-73800546D01*
X91853862Y-73682359D01*
X101394173Y-73682359D01*
X101394173Y-73905935D01*
X101437790Y-74125214D01*
X101523349Y-74331771D01*
X101647561Y-74517667D01*
X101805653Y-74675759D01*
X101991549Y-74799971D01*
X102198106Y-74885530D01*
X102417385Y-74929147D01*
X102640961Y-74929147D01*
X102860240Y-74885530D01*
X103066797Y-74799971D01*
X103252693Y-74675759D01*
X103410785Y-74517667D01*
X103534997Y-74331771D01*
X103620556Y-74125214D01*
X103664173Y-73905935D01*
X103664173Y-73682359D01*
X103620556Y-73463080D01*
X103534997Y-73256523D01*
X103410785Y-73070627D01*
X103252693Y-72912535D01*
X103066797Y-72788323D01*
X102860240Y-72702764D01*
X102640961Y-72659147D01*
X102417385Y-72659147D01*
X102198106Y-72702764D01*
X101991549Y-72788323D01*
X101805653Y-72912535D01*
X101647561Y-73070627D01*
X101523349Y-73256523D01*
X101437790Y-73463080D01*
X101394173Y-73682359D01*
X91853862Y-73682359D01*
X91838187Y-73671886D01*
X91549735Y-73552406D01*
X91243517Y-73491495D01*
X90931299Y-73491495D01*
X90625081Y-73552406D01*
X90336629Y-73671886D01*
X90077029Y-73845345D01*
X89856258Y-74066116D01*
X89682799Y-74325716D01*
X89563319Y-74614168D01*
X89502408Y-74920386D01*
X89502408Y-75232604D01*
X89563319Y-75538822D01*
X89682799Y-75827274D01*
X89856258Y-76086874D01*
X90077029Y-76307645D01*
X90336629Y-76481104D01*
X90625081Y-76600584D01*
X90634604Y-76602478D01*
X90587029Y-76665900D01*
X90466910Y-76916328D01*
X90397955Y-77185377D01*
X90393779Y-77261868D01*
X90208413Y-77251748D01*
X89962706Y-77286827D01*
X89728564Y-77369166D01*
X89514985Y-77495603D01*
X89330176Y-77661277D01*
X89181240Y-77859823D01*
X89073899Y-78083609D01*
X89012280Y-78324037D01*
X88998750Y-78571865D01*
X89033829Y-78817572D01*
X89095536Y-78993043D01*
X89549338Y-79966224D01*
X89644093Y-80126285D01*
X89809767Y-80311094D01*
X90008313Y-80460030D01*
X90232099Y-80567371D01*
X90472526Y-80628990D01*
X90720355Y-80642520D01*
X90796748Y-80631614D01*
X90796748Y-80930235D01*
X90867266Y-81284753D01*
X91005592Y-81618702D01*
X91206410Y-81919247D01*
X91462004Y-82174841D01*
X91762549Y-82375659D01*
X92096498Y-82513985D01*
X92451016Y-82584503D01*
X92812480Y-82584503D01*
X93166653Y-82514054D01*
X93204643Y-82705043D01*
X93335431Y-83020793D01*
X93525305Y-83304960D01*
X93766970Y-83546625D01*
X94051137Y-83736499D01*
X94366887Y-83867287D01*
X94702085Y-83933962D01*
X95043851Y-83933962D01*
X95379049Y-83867287D01*
X95694799Y-83736499D01*
X95978966Y-83546625D01*
X96202428Y-83323163D01*
X96368907Y-83489642D01*
X96669452Y-83690460D01*
X97003401Y-83828786D01*
X97357919Y-83899304D01*
X97719383Y-83899304D01*
X98073901Y-83828786D01*
X98407850Y-83690460D01*
X98708395Y-83489642D01*
X98963989Y-83234048D01*
X99164807Y-82933503D01*
X99187007Y-82879909D01*
X99247458Y-82927351D01*
X99468850Y-83039548D01*
X99707876Y-83106398D01*
X99955350Y-83125331D01*
X100201763Y-83095621D01*
X100437646Y-83018408D01*
X100599737Y-82927168D01*
X101479330Y-82311269D01*
X101620506Y-82190160D01*
X101773738Y-81994910D01*
X101885935Y-81773520D01*
X101952785Y-81534494D01*
X101971718Y-81287019D01*
X101942008Y-81040605D01*
X101864795Y-80804723D01*
X101805595Y-80699552D01*
X103923126Y-80699552D01*
X103960448Y-80703228D01*
X103997770Y-80699552D01*
X103997781Y-80699552D01*
X104109434Y-80688555D01*
X104252695Y-80645098D01*
X104384724Y-80574526D01*
X104500449Y-80479553D01*
X104524252Y-80450549D01*
X110039802Y-74935000D01*
X113372334Y-74935000D01*
X113304774Y-75098102D01*
X113293465Y-75154956D01*
X111333422Y-77115000D01*
X109343469Y-77115000D01*
X109300000Y-77110719D01*
X109256531Y-77115000D01*
X109256523Y-77115000D01*
X109126510Y-77127805D01*
X108959686Y-77178411D01*
X108805941Y-77260589D01*
X108704953Y-77343468D01*
X108704951Y-77343470D01*
X108671183Y-77371183D01*
X108643470Y-77404951D01*
X103504956Y-82543466D01*
X103471183Y-82571183D01*
X103360589Y-82705942D01*
X103278411Y-82859688D01*
X103245617Y-82967794D01*
X103227805Y-83026510D01*
X103226934Y-83035357D01*
X103215000Y-83156524D01*
X103215000Y-83156531D01*
X103210719Y-83200000D01*
X103215000Y-83243470D01*
X103215000Y-83759943D01*
X103206380Y-83762558D01*
X103096066Y-83821523D01*
X102999375Y-83900875D01*
X102920023Y-83997566D01*
X102861058Y-84107880D01*
X102824748Y-84227578D01*
X102814250Y-84334171D01*
X101804956Y-85343466D01*
X101771183Y-85371183D01*
X101660589Y-85505942D01*
X101578411Y-85659688D01*
X101554315Y-85739122D01*
X101527805Y-85826510D01*
X101527386Y-85830761D01*
X101515000Y-85956524D01*
X101515000Y-85956531D01*
X101510719Y-86000000D01*
X101515000Y-86043469D01*
X101515001Y-87856521D01*
X101510719Y-87900000D01*
X101527805Y-88073490D01*
X101578412Y-88240313D01*
X101660590Y-88394059D01*
X101743468Y-88495046D01*
X101743471Y-88495049D01*
X101771184Y-88528817D01*
X101804951Y-88556529D01*
X103843470Y-90595049D01*
X103871183Y-90628817D01*
X103904951Y-90656530D01*
X103904953Y-90656532D01*
X103974883Y-90713922D01*
X104005941Y-90739411D01*
X104159687Y-90821589D01*
X104326510Y-90872195D01*
X104456523Y-90885000D01*
X104456533Y-90885000D01*
X104499999Y-90889281D01*
X104543465Y-90885000D01*
X104550022Y-90885000D01*
X104581523Y-90943934D01*
X104660875Y-91040625D01*
X104757566Y-91119977D01*
X104867880Y-91178942D01*
X104987578Y-91215252D01*
X105112060Y-91227512D01*
X105909620Y-91227512D01*
X106034102Y-91215252D01*
X106153800Y-91178942D01*
X106264114Y-91119977D01*
X106360805Y-91040625D01*
X106410000Y-90980681D01*
X106459195Y-91040625D01*
X106555886Y-91119977D01*
X106643666Y-91166897D01*
X106685026Y-91244276D01*
X106710540Y-91275364D01*
X106779999Y-91360001D01*
X106809003Y-91383804D01*
X108481392Y-93056194D01*
X108505190Y-93085192D01*
X108534188Y-93108990D01*
X108620915Y-93180165D01*
X108752944Y-93250737D01*
X108896205Y-93294194D01*
X109045191Y-93308868D01*
X109082524Y-93305191D01*
X113442723Y-93305191D01*
X113529944Y-93435726D01*
X113724529Y-93630311D01*
X113953337Y-93783196D01*
X114207574Y-93888505D01*
X114477472Y-93942191D01*
X114752656Y-93942191D01*
X115022554Y-93888505D01*
X115276791Y-93783196D01*
X115505599Y-93630311D01*
X115700184Y-93435726D01*
X115853069Y-93206918D01*
X115958378Y-92952681D01*
X116012064Y-92682783D01*
X116012064Y-92407599D01*
X115980200Y-92247409D01*
X116034823Y-92247409D01*
X116378328Y-92179081D01*
X116701904Y-92045052D01*
X116993114Y-91850472D01*
X117240768Y-91602818D01*
X117435348Y-91311608D01*
X117569377Y-90988032D01*
X117637705Y-90644527D01*
X117637705Y-90584045D01*
X117710934Y-90614377D01*
X118054439Y-90682705D01*
X118404675Y-90682705D01*
X118748180Y-90614377D01*
X119071756Y-90480348D01*
X119362966Y-90285768D01*
X119610620Y-90038114D01*
X119805200Y-89746904D01*
X119806596Y-89743533D01*
X119989399Y-89938710D01*
X120315237Y-90172202D01*
X120680366Y-90337640D01*
X121070754Y-90428665D01*
X121471398Y-90441781D01*
X121866903Y-90376482D01*
X122242070Y-90235280D01*
X122582481Y-90023599D01*
X122875055Y-89749574D01*
X123050036Y-89505389D01*
X123700005Y-88379611D01*
X123823985Y-88105980D01*
X123915010Y-87715592D01*
X123928126Y-87314947D01*
X123862827Y-86919442D01*
X123721625Y-86544275D01*
X123509944Y-86203864D01*
X123235919Y-85911290D01*
X122910081Y-85677798D01*
X122544952Y-85512360D01*
X122154564Y-85421335D01*
X121766181Y-85408620D01*
X125665000Y-81509802D01*
X125665000Y-82008771D01*
X125785476Y-82614446D01*
X126021799Y-83184979D01*
X126364886Y-83698446D01*
X126801554Y-84135114D01*
X127315021Y-84478201D01*
X127885554Y-84714524D01*
X128491229Y-84835000D01*
X129108771Y-84835000D01*
X129714446Y-84714524D01*
X130284979Y-84478201D01*
X130654328Y-84231410D01*
X130013449Y-85358945D01*
X128458918Y-87934756D01*
X126798995Y-90590455D01*
X125151153Y-93173636D01*
X123651266Y-95503577D01*
X123650890Y-95504052D01*
X123631400Y-95534436D01*
X123612497Y-95563800D01*
X123612230Y-95564322D01*
X122370891Y-97499502D01*
X121766714Y-98326145D01*
X121269096Y-98865539D01*
X121414524Y-98514446D01*
X121535000Y-97908771D01*
X121535000Y-97291229D01*
X121414524Y-96685554D01*
X121178201Y-96115021D01*
X120835114Y-95601554D01*
X120398446Y-95164886D01*
X119884979Y-94821799D01*
X119314446Y-94585476D01*
X118708771Y-94465000D01*
X118091229Y-94465000D01*
X117485554Y-94585476D01*
X116915021Y-94821799D01*
X116401554Y-95164886D01*
X115964886Y-95601554D01*
X115621799Y-96115021D01*
X115385476Y-96685554D01*
X115265000Y-97291229D01*
X115265000Y-97908771D01*
X115385476Y-98514446D01*
X115621799Y-99084979D01*
X115964886Y-99598446D01*
X116363882Y-99997442D01*
X115633383Y-99671454D01*
X114153562Y-98816976D01*
X114153432Y-98816883D01*
X114121402Y-98798406D01*
X114091160Y-98780944D01*
X114091022Y-98780881D01*
X112489167Y-97856843D01*
X112489163Y-97856840D01*
X110730558Y-96842363D01*
X108982563Y-95833105D01*
X107278185Y-94847222D01*
X105666205Y-93911969D01*
X104201104Y-93057891D01*
X102936145Y-92314837D01*
X100066108Y-90620023D01*
X100037293Y-90602736D01*
X100034974Y-90601638D01*
X100032776Y-90600340D01*
X100002467Y-90586247D01*
X96975181Y-89152904D01*
X96946630Y-89138967D01*
X96942511Y-89137436D01*
X96938556Y-89135563D01*
X96908765Y-89124890D01*
X93731399Y-87943606D01*
X93703824Y-87932795D01*
X93697547Y-87931021D01*
X93691442Y-87928751D01*
X93662857Y-87921215D01*
X90343079Y-86982825D01*
X90316956Y-86974762D01*
X90308320Y-86973000D01*
X90299853Y-86970607D01*
X90272993Y-86965794D01*
X86818033Y-86261008D01*
X86793722Y-86255278D01*
X86782703Y-86253801D01*
X86771793Y-86251575D01*
X86746918Y-86249002D01*
X83163909Y-85768582D01*
X83141485Y-85764741D01*
X83128126Y-85763784D01*
X83114870Y-85762007D01*
X83092159Y-85761209D01*
X79387821Y-85495961D01*
X79367356Y-85493625D01*
X79351839Y-85493385D01*
X79336356Y-85492276D01*
X79315760Y-85492826D01*
X75512914Y-85433929D01*
X75510351Y-85433655D01*
X75476760Y-85433369D01*
X75443282Y-85432851D01*
X75440722Y-85433063D01*
X71528368Y-85399810D01*
X71519608Y-85399083D01*
X71492290Y-85399503D01*
X71464959Y-85399271D01*
X71456200Y-85400059D01*
X67066629Y-85467594D01*
X67061092Y-85467218D01*
X67030537Y-85468149D01*
X66999978Y-85468619D01*
X66994465Y-85469248D01*
X62445059Y-85607843D01*
X62441240Y-85607624D01*
X62408911Y-85608945D01*
X62376694Y-85609926D01*
X62372914Y-85610415D01*
X57970898Y-85790222D01*
X57968116Y-85790083D01*
X57934828Y-85791695D01*
X57901531Y-85793055D01*
X57898773Y-85793441D01*
X53952550Y-85984532D01*
X53950439Y-85984439D01*
X53916554Y-85986275D01*
X53882544Y-85987922D01*
X53880446Y-85988232D01*
X50698911Y-86160627D01*
X50697262Y-86160562D01*
X50662855Y-86162581D01*
X50628456Y-86164445D01*
X50626825Y-86164695D01*
X48519182Y-86288375D01*
X48517952Y-86288330D01*
X48483029Y-86290496D01*
X48448317Y-86292533D01*
X48447109Y-86292724D01*
X47977662Y-86321841D01*
X48014446Y-86314524D01*
X48584979Y-86078201D01*
X49098446Y-85735114D01*
X49535114Y-85298446D01*
X49878201Y-84784979D01*
X50114524Y-84214446D01*
X50235000Y-83608771D01*
X50235000Y-82991229D01*
X50114524Y-82385554D01*
X49878201Y-81815021D01*
X49535114Y-81301554D01*
X49098446Y-80864886D01*
X48584979Y-80521799D01*
X48014446Y-80285476D01*
X47408771Y-80165000D01*
X46791229Y-80165000D01*
X46185554Y-80285476D01*
X45615021Y-80521799D01*
X45101554Y-80864886D01*
X44664886Y-81301554D01*
X44321799Y-81815021D01*
X44085476Y-82385554D01*
X43976144Y-82935204D01*
X43813217Y-80897580D01*
X43813217Y-80897575D01*
X43604338Y-78285262D01*
X43604338Y-78285257D01*
X43395459Y-75672943D01*
X43395459Y-75672938D01*
X43225221Y-73543891D01*
X49015000Y-73543891D01*
X49015000Y-73856109D01*
X49075911Y-74162327D01*
X49195391Y-74450779D01*
X49368850Y-74710379D01*
X49589621Y-74931150D01*
X49849221Y-75104609D01*
X50137673Y-75224089D01*
X50443891Y-75285000D01*
X50560060Y-75285000D01*
X50528039Y-75364754D01*
X50476829Y-75637738D01*
X50479858Y-75915466D01*
X50495621Y-75990432D01*
X50313954Y-76028632D01*
X50085699Y-76126110D01*
X49880846Y-76266244D01*
X49707268Y-76443650D01*
X49571636Y-76651512D01*
X49479162Y-76881839D01*
X49433398Y-77125782D01*
X49436106Y-77373964D01*
X49487179Y-77616851D01*
X49584657Y-77845106D01*
X49689676Y-77998628D01*
X50379893Y-78821196D01*
X50512846Y-78951279D01*
X50720706Y-79086912D01*
X50951033Y-79179386D01*
X51194976Y-79225149D01*
X51443160Y-79222441D01*
X51686046Y-79171368D01*
X51760568Y-79139543D01*
X51795518Y-79315250D01*
X51933844Y-79649199D01*
X52134662Y-79949744D01*
X52390256Y-80205338D01*
X52690801Y-80406156D01*
X53024750Y-80544482D01*
X53379268Y-80615000D01*
X53740732Y-80615000D01*
X54095250Y-80544482D01*
X54429199Y-80406156D01*
X54528490Y-80339812D01*
X54562463Y-80421831D01*
X54752337Y-80705998D01*
X54994002Y-80947663D01*
X55278169Y-81137537D01*
X55593919Y-81268325D01*
X55929117Y-81335000D01*
X56270883Y-81335000D01*
X56606081Y-81268325D01*
X56921831Y-81137537D01*
X57205998Y-80947663D01*
X57447663Y-80705998D01*
X57637537Y-80421831D01*
X57671510Y-80339812D01*
X57770801Y-80406156D01*
X58104750Y-80544482D01*
X58459268Y-80615000D01*
X58820732Y-80615000D01*
X59175250Y-80544482D01*
X59509199Y-80406156D01*
X59809744Y-80205338D01*
X60065338Y-79949744D01*
X60266156Y-79649199D01*
X60404482Y-79315250D01*
X60439432Y-79139543D01*
X60513954Y-79171368D01*
X60756841Y-79222441D01*
X61005023Y-79225149D01*
X61248966Y-79179385D01*
X61479293Y-79086911D01*
X61687155Y-78951279D01*
X61820107Y-78821196D01*
X62510324Y-77998628D01*
X62615344Y-77845107D01*
X62712821Y-77616851D01*
X62763894Y-77373965D01*
X62766602Y-77125782D01*
X62720839Y-76881839D01*
X62628364Y-76651511D01*
X62492732Y-76443650D01*
X62319154Y-76266243D01*
X62114301Y-76126109D01*
X61886046Y-76028632D01*
X61704379Y-75990432D01*
X61720142Y-75915467D01*
X61723171Y-75637738D01*
X61671961Y-75364754D01*
X61639940Y-75285000D01*
X61756109Y-75285000D01*
X62062327Y-75224089D01*
X62350779Y-75104609D01*
X62610379Y-74931150D01*
X62831150Y-74710379D01*
X63004609Y-74450779D01*
X63124089Y-74162327D01*
X63185000Y-73856109D01*
X63185000Y-73543891D01*
X68115000Y-73543891D01*
X68115000Y-73856109D01*
X68175911Y-74162327D01*
X68295391Y-74450779D01*
X68468850Y-74710379D01*
X68689621Y-74931150D01*
X68949221Y-75104609D01*
X69237673Y-75224089D01*
X69543891Y-75285000D01*
X69660060Y-75285000D01*
X69628039Y-75364754D01*
X69576829Y-75637738D01*
X69579858Y-75915466D01*
X69595621Y-75990432D01*
X69413954Y-76028632D01*
X69185699Y-76126110D01*
X68980846Y-76266244D01*
X68807268Y-76443650D01*
X68671636Y-76651512D01*
X68579162Y-76881839D01*
X68533398Y-77125782D01*
X68536106Y-77373964D01*
X68587179Y-77616851D01*
X68684657Y-77845106D01*
X68789676Y-77998628D01*
X69479893Y-78821196D01*
X69612846Y-78951279D01*
X69820706Y-79086912D01*
X70051033Y-79179386D01*
X70294976Y-79225149D01*
X70543160Y-79222441D01*
X70786046Y-79171368D01*
X70860568Y-79139543D01*
X70895518Y-79315250D01*
X71033844Y-79649199D01*
X71234662Y-79949744D01*
X71490256Y-80205338D01*
X71790801Y-80406156D01*
X72124750Y-80544482D01*
X72479268Y-80615000D01*
X72840732Y-80615000D01*
X73195250Y-80544482D01*
X73529199Y-80406156D01*
X73628490Y-80339812D01*
X73662463Y-80421831D01*
X73852337Y-80705998D01*
X74094002Y-80947663D01*
X74378169Y-81137537D01*
X74693919Y-81268325D01*
X75029117Y-81335000D01*
X75370883Y-81335000D01*
X75706081Y-81268325D01*
X76021831Y-81137537D01*
X76305998Y-80947663D01*
X76547663Y-80705998D01*
X76737537Y-80421831D01*
X76771510Y-80339812D01*
X76870801Y-80406156D01*
X77204750Y-80544482D01*
X77559268Y-80615000D01*
X77920732Y-80615000D01*
X78275250Y-80544482D01*
X78609199Y-80406156D01*
X78909744Y-80205338D01*
X79165338Y-79949744D01*
X79366156Y-79649199D01*
X79504482Y-79315250D01*
X79539432Y-79139543D01*
X79613954Y-79171368D01*
X79856841Y-79222441D01*
X80105023Y-79225149D01*
X80348966Y-79179385D01*
X80579293Y-79086911D01*
X80787155Y-78951279D01*
X80920107Y-78821196D01*
X81610324Y-77998628D01*
X81715344Y-77845107D01*
X81812821Y-77616851D01*
X81863894Y-77373965D01*
X81866602Y-77125782D01*
X81820839Y-76881839D01*
X81728364Y-76651511D01*
X81592732Y-76443650D01*
X81419154Y-76266243D01*
X81214301Y-76126109D01*
X80986046Y-76028632D01*
X80804379Y-75990432D01*
X80820142Y-75915467D01*
X80823171Y-75637738D01*
X80771961Y-75364754D01*
X80739940Y-75285000D01*
X80856109Y-75285000D01*
X81162327Y-75224089D01*
X81450779Y-75104609D01*
X81710379Y-74931150D01*
X81931150Y-74710379D01*
X82104609Y-74450779D01*
X82224089Y-74162327D01*
X82285000Y-73856109D01*
X82285000Y-73543891D01*
X82224089Y-73237673D01*
X82104609Y-72949221D01*
X81931150Y-72689621D01*
X81710379Y-72468850D01*
X81450779Y-72295391D01*
X81162327Y-72175911D01*
X80856109Y-72115000D01*
X80543891Y-72115000D01*
X80237673Y-72175911D01*
X80143303Y-72215000D01*
X80133740Y-72215000D01*
X79846842Y-72272068D01*
X79576589Y-72384010D01*
X79333368Y-72546525D01*
X79126525Y-72753368D01*
X78964010Y-72996589D01*
X78852068Y-73266842D01*
X78795000Y-73553740D01*
X78795000Y-73846260D01*
X78852068Y-74133158D01*
X78964010Y-74403411D01*
X78973585Y-74417741D01*
X78757525Y-74504487D01*
X78524920Y-74656266D01*
X78376141Y-74801833D01*
X77483613Y-75865508D01*
X77472100Y-75882339D01*
X77204750Y-75935518D01*
X76870801Y-76073844D01*
X76570256Y-76274662D01*
X76314662Y-76530256D01*
X76113844Y-76830801D01*
X75975518Y-77164750D01*
X75905000Y-77519268D01*
X75905000Y-77880732D01*
X75918778Y-77950000D01*
X75905955Y-78014466D01*
X75706081Y-77931675D01*
X75370883Y-77865000D01*
X75029117Y-77865000D01*
X74693919Y-77931675D01*
X74494045Y-78014466D01*
X74481222Y-77950000D01*
X74495000Y-77880732D01*
X74495000Y-77519268D01*
X74424482Y-77164750D01*
X74286156Y-76830801D01*
X74085338Y-76530256D01*
X73829744Y-76274662D01*
X73529199Y-76073844D01*
X73195250Y-75935518D01*
X72927901Y-75882339D01*
X72916387Y-75865507D01*
X72023859Y-74801833D01*
X71875080Y-74656266D01*
X71642474Y-74504487D01*
X71426415Y-74417741D01*
X71435990Y-74403411D01*
X71547932Y-74133158D01*
X71605000Y-73846260D01*
X71605000Y-73553740D01*
X71582471Y-73440475D01*
X72565000Y-73440475D01*
X72565000Y-73959525D01*
X72666261Y-74468601D01*
X72864893Y-74948141D01*
X73153262Y-75379715D01*
X73520285Y-75746738D01*
X73951859Y-76035107D01*
X74431399Y-76233739D01*
X74940475Y-76335000D01*
X75459525Y-76335000D01*
X75968601Y-76233739D01*
X76448141Y-76035107D01*
X76879715Y-75746738D01*
X77246738Y-75379715D01*
X77535107Y-74948141D01*
X77733739Y-74468601D01*
X77835000Y-73959525D01*
X77835000Y-73440475D01*
X77733739Y-72931399D01*
X77535107Y-72451859D01*
X77246738Y-72020285D01*
X76879715Y-71653262D01*
X76448141Y-71364893D01*
X75968601Y-71166261D01*
X75459525Y-71065000D01*
X74940475Y-71065000D01*
X74431399Y-71166261D01*
X73951859Y-71364893D01*
X73520285Y-71653262D01*
X73153262Y-72020285D01*
X72864893Y-72451859D01*
X72666261Y-72931399D01*
X72565000Y-73440475D01*
X71582471Y-73440475D01*
X71547932Y-73266842D01*
X71435990Y-72996589D01*
X71273475Y-72753368D01*
X71066632Y-72546525D01*
X70823411Y-72384010D01*
X70553158Y-72272068D01*
X70266260Y-72215000D01*
X70256697Y-72215000D01*
X70162327Y-72175911D01*
X69856109Y-72115000D01*
X69543891Y-72115000D01*
X69237673Y-72175911D01*
X68949221Y-72295391D01*
X68689621Y-72468850D01*
X68468850Y-72689621D01*
X68295391Y-72949221D01*
X68175911Y-73237673D01*
X68115000Y-73543891D01*
X63185000Y-73543891D01*
X63124089Y-73237673D01*
X63004609Y-72949221D01*
X62831150Y-72689621D01*
X62610379Y-72468850D01*
X62350779Y-72295391D01*
X62062327Y-72175911D01*
X61756109Y-72115000D01*
X61443891Y-72115000D01*
X61137673Y-72175911D01*
X61043303Y-72215000D01*
X61033740Y-72215000D01*
X60746842Y-72272068D01*
X60476589Y-72384010D01*
X60233368Y-72546525D01*
X60026525Y-72753368D01*
X59864010Y-72996589D01*
X59752068Y-73266842D01*
X59695000Y-73553740D01*
X59695000Y-73846260D01*
X59752068Y-74133158D01*
X59864010Y-74403411D01*
X59873585Y-74417741D01*
X59657525Y-74504487D01*
X59424920Y-74656266D01*
X59276141Y-74801833D01*
X58383613Y-75865508D01*
X58372100Y-75882339D01*
X58104750Y-75935518D01*
X57770801Y-76073844D01*
X57470256Y-76274662D01*
X57214662Y-76530256D01*
X57013844Y-76830801D01*
X56875518Y-77164750D01*
X56805000Y-77519268D01*
X56805000Y-77880732D01*
X56818778Y-77950000D01*
X56805955Y-78014466D01*
X56606081Y-77931675D01*
X56270883Y-77865000D01*
X55929117Y-77865000D01*
X55593919Y-77931675D01*
X55394045Y-78014466D01*
X55381222Y-77950000D01*
X55395000Y-77880732D01*
X55395000Y-77519268D01*
X55324482Y-77164750D01*
X55186156Y-76830801D01*
X54985338Y-76530256D01*
X54729744Y-76274662D01*
X54429199Y-76073844D01*
X54095250Y-75935518D01*
X53827901Y-75882339D01*
X53816387Y-75865507D01*
X52923859Y-74801833D01*
X52775080Y-74656266D01*
X52542474Y-74504487D01*
X52326415Y-74417741D01*
X52335990Y-74403411D01*
X52447932Y-74133158D01*
X52505000Y-73846260D01*
X52505000Y-73553740D01*
X52482471Y-73440475D01*
X53465000Y-73440475D01*
X53465000Y-73959525D01*
X53566261Y-74468601D01*
X53764893Y-74948141D01*
X54053262Y-75379715D01*
X54420285Y-75746738D01*
X54851859Y-76035107D01*
X55331399Y-76233739D01*
X55840475Y-76335000D01*
X56359525Y-76335000D01*
X56868601Y-76233739D01*
X57348141Y-76035107D01*
X57779715Y-75746738D01*
X58146738Y-75379715D01*
X58435107Y-74948141D01*
X58633739Y-74468601D01*
X58735000Y-73959525D01*
X58735000Y-73440475D01*
X58633739Y-72931399D01*
X58435107Y-72451859D01*
X58146738Y-72020285D01*
X57779715Y-71653262D01*
X57348141Y-71364893D01*
X56868601Y-71166261D01*
X56359525Y-71065000D01*
X55840475Y-71065000D01*
X55331399Y-71166261D01*
X54851859Y-71364893D01*
X54420285Y-71653262D01*
X54053262Y-72020285D01*
X53764893Y-72451859D01*
X53566261Y-72931399D01*
X53465000Y-73440475D01*
X52482471Y-73440475D01*
X52447932Y-73266842D01*
X52335990Y-72996589D01*
X52173475Y-72753368D01*
X51966632Y-72546525D01*
X51723411Y-72384010D01*
X51453158Y-72272068D01*
X51166260Y-72215000D01*
X51156697Y-72215000D01*
X51062327Y-72175911D01*
X50756109Y-72115000D01*
X50443891Y-72115000D01*
X50137673Y-72175911D01*
X49849221Y-72295391D01*
X49589621Y-72468850D01*
X49368850Y-72689621D01*
X49195391Y-72949221D01*
X49075911Y-73237673D01*
X49015000Y-73543891D01*
X43225221Y-73543891D01*
X43186529Y-73059999D01*
X42977700Y-70448305D01*
X42977700Y-70448300D01*
X42892936Y-69388212D01*
X49745000Y-69388212D01*
X49745000Y-69611788D01*
X49788617Y-69831067D01*
X49874176Y-70037624D01*
X49998388Y-70223520D01*
X50156480Y-70381612D01*
X50342376Y-70505824D01*
X50548933Y-70591383D01*
X50768212Y-70635000D01*
X50991788Y-70635000D01*
X51211067Y-70591383D01*
X51417624Y-70505824D01*
X51603520Y-70381612D01*
X51761612Y-70223520D01*
X51885824Y-70037624D01*
X51971383Y-69831067D01*
X52015000Y-69611788D01*
X52015000Y-69388212D01*
X60185000Y-69388212D01*
X60185000Y-69611788D01*
X60228617Y-69831067D01*
X60314176Y-70037624D01*
X60438388Y-70223520D01*
X60596480Y-70381612D01*
X60782376Y-70505824D01*
X60988933Y-70591383D01*
X61208212Y-70635000D01*
X61431788Y-70635000D01*
X61651067Y-70591383D01*
X61857624Y-70505824D01*
X62043520Y-70381612D01*
X62201612Y-70223520D01*
X62325824Y-70037624D01*
X62411383Y-69831067D01*
X62455000Y-69611788D01*
X62455000Y-69388212D01*
X68845000Y-69388212D01*
X68845000Y-69611788D01*
X68888617Y-69831067D01*
X68974176Y-70037624D01*
X69098388Y-70223520D01*
X69256480Y-70381612D01*
X69442376Y-70505824D01*
X69648933Y-70591383D01*
X69868212Y-70635000D01*
X70091788Y-70635000D01*
X70311067Y-70591383D01*
X70517624Y-70505824D01*
X70703520Y-70381612D01*
X70861612Y-70223520D01*
X70985824Y-70037624D01*
X71071383Y-69831067D01*
X71115000Y-69611788D01*
X71115000Y-69388212D01*
X79285000Y-69388212D01*
X79285000Y-69611788D01*
X79328617Y-69831067D01*
X79414176Y-70037624D01*
X79538388Y-70223520D01*
X79696480Y-70381612D01*
X79882376Y-70505824D01*
X80088933Y-70591383D01*
X80308212Y-70635000D01*
X80531788Y-70635000D01*
X80751067Y-70591383D01*
X80957624Y-70505824D01*
X81143520Y-70381612D01*
X81301612Y-70223520D01*
X81425824Y-70037624D01*
X81511383Y-69831067D01*
X81555000Y-69611788D01*
X81555000Y-69388212D01*
X81511383Y-69168933D01*
X81425824Y-68962376D01*
X81301612Y-68776480D01*
X81143520Y-68618388D01*
X80957624Y-68494176D01*
X80751067Y-68408617D01*
X80531788Y-68365000D01*
X80308212Y-68365000D01*
X80088933Y-68408617D01*
X79882376Y-68494176D01*
X79696480Y-68618388D01*
X79538388Y-68776480D01*
X79414176Y-68962376D01*
X79328617Y-69168933D01*
X79285000Y-69388212D01*
X71115000Y-69388212D01*
X71071383Y-69168933D01*
X70985824Y-68962376D01*
X70861612Y-68776480D01*
X70703520Y-68618388D01*
X70517624Y-68494176D01*
X70311067Y-68408617D01*
X70091788Y-68365000D01*
X69868212Y-68365000D01*
X69648933Y-68408617D01*
X69442376Y-68494176D01*
X69256480Y-68618388D01*
X69098388Y-68776480D01*
X68974176Y-68962376D01*
X68888617Y-69168933D01*
X68845000Y-69388212D01*
X62455000Y-69388212D01*
X62411383Y-69168933D01*
X62325824Y-68962376D01*
X62201612Y-68776480D01*
X62043520Y-68618388D01*
X61857624Y-68494176D01*
X61651067Y-68408617D01*
X61431788Y-68365000D01*
X61208212Y-68365000D01*
X60988933Y-68408617D01*
X60782376Y-68494176D01*
X60596480Y-68618388D01*
X60438388Y-68776480D01*
X60314176Y-68962376D01*
X60228617Y-69168933D01*
X60185000Y-69388212D01*
X52015000Y-69388212D01*
X51971383Y-69168933D01*
X51885824Y-68962376D01*
X51761612Y-68776480D01*
X51603520Y-68618388D01*
X51417624Y-68494176D01*
X51211067Y-68408617D01*
X50991788Y-68365000D01*
X50768212Y-68365000D01*
X50548933Y-68408617D01*
X50342376Y-68494176D01*
X50156480Y-68618388D01*
X49998388Y-68776480D01*
X49874176Y-68962376D01*
X49788617Y-69168933D01*
X49745000Y-69388212D01*
X42892936Y-69388212D01*
X42768821Y-67835987D01*
X42768821Y-67835982D01*
X42559942Y-65223668D01*
X42559942Y-65223663D01*
X42551220Y-65114588D01*
X42621799Y-65284979D01*
X42964886Y-65798446D01*
X43401554Y-66235114D01*
X43915021Y-66578201D01*
X44485554Y-66814524D01*
X45091229Y-66935000D01*
X45708771Y-66935000D01*
X46314446Y-66814524D01*
X46884979Y-66578201D01*
X47398446Y-66235114D01*
X47835114Y-65798446D01*
X47921832Y-65668662D01*
X50856500Y-65668662D01*
X50856500Y-65931338D01*
X50907746Y-66188968D01*
X51008268Y-66431649D01*
X51154203Y-66650057D01*
X51339943Y-66835797D01*
X51558351Y-66981732D01*
X51801032Y-67082254D01*
X52058662Y-67133500D01*
X52321338Y-67133500D01*
X52578968Y-67082254D01*
X52821649Y-66981732D01*
X53040057Y-66835797D01*
X53138015Y-66737839D01*
X53220506Y-66805537D01*
X53330820Y-66864502D01*
X53450518Y-66900812D01*
X53575000Y-66913072D01*
X54875000Y-66913072D01*
X54999482Y-66900812D01*
X55119180Y-66864502D01*
X55229494Y-66805537D01*
X55326185Y-66726185D01*
X55405537Y-66629494D01*
X55464502Y-66519180D01*
X55500812Y-66399482D01*
X55513072Y-66275000D01*
X55513072Y-65325000D01*
X55500812Y-65200518D01*
X55464502Y-65080820D01*
X55405537Y-64970506D01*
X55326185Y-64873815D01*
X55229494Y-64794463D01*
X55119180Y-64735498D01*
X54999482Y-64699188D01*
X54875000Y-64686928D01*
X53575000Y-64686928D01*
X53450518Y-64699188D01*
X53330820Y-64735498D01*
X53220506Y-64794463D01*
X53138015Y-64862161D01*
X53040057Y-64764203D01*
X52821649Y-64618268D01*
X52578968Y-64517746D01*
X52321338Y-64466500D01*
X52058662Y-64466500D01*
X51801032Y-64517746D01*
X51558351Y-64618268D01*
X51339943Y-64764203D01*
X51154203Y-64949943D01*
X51008268Y-65168351D01*
X50907746Y-65411032D01*
X50856500Y-65668662D01*
X47921832Y-65668662D01*
X48178201Y-65284979D01*
X48414524Y-64714446D01*
X48535000Y-64108771D01*
X48535000Y-63491229D01*
X48414524Y-62885554D01*
X48178201Y-62315021D01*
X47835114Y-61801554D01*
X47398446Y-61364886D01*
X46884979Y-61021799D01*
X46314446Y-60785476D01*
X45708771Y-60665000D01*
X45091229Y-60665000D01*
X44485554Y-60785476D01*
X43915021Y-61021799D01*
X43401554Y-61364886D01*
X42964886Y-61801554D01*
X42621799Y-62315021D01*
X42385476Y-62885554D01*
X42376569Y-62930334D01*
X42354550Y-62654958D01*
X42415356Y-62212784D01*
X42595618Y-61736337D01*
X42891312Y-61242318D01*
X43279987Y-60774143D01*
X43732191Y-60369541D01*
X44213376Y-60060767D01*
X44684281Y-59871899D01*
X45147038Y-59805739D01*
X46235217Y-59864408D01*
G37*
X46235217Y-59864408D02*
X49006904Y-60018987D01*
X52926705Y-60240953D01*
X57534365Y-60505843D01*
X62365644Y-60788969D01*
X66958151Y-61065738D01*
X70849805Y-61311579D01*
X73568261Y-61501183D01*
X73571276Y-61501674D01*
X73596673Y-61503287D01*
X73600147Y-61503819D01*
X73618443Y-61504806D01*
X73627133Y-61505439D01*
X73628764Y-61505673D01*
X73632803Y-61505852D01*
X73636463Y-61506119D01*
X73637959Y-61506081D01*
X73646987Y-61506482D01*
X73655637Y-61507031D01*
X73657267Y-61507249D01*
X73661265Y-61507388D01*
X73665229Y-61507640D01*
X73666862Y-61507583D01*
X73675601Y-61507888D01*
X73683922Y-61508336D01*
X73685485Y-61508531D01*
X73689396Y-61508632D01*
X73693892Y-61508874D01*
X73695703Y-61508794D01*
X73703759Y-61509001D01*
X73712110Y-61509371D01*
X73713568Y-61509540D01*
X73717358Y-61509604D01*
X73722422Y-61509829D01*
X73724381Y-61509723D01*
X73732016Y-61509853D01*
X73740090Y-61510134D01*
X73741475Y-61510283D01*
X73745338Y-61510317D01*
X73750962Y-61510513D01*
X73752987Y-61510385D01*
X73759974Y-61510446D01*
X73779335Y-61510944D01*
X73782553Y-61510710D01*
X73785924Y-61510768D01*
X76668003Y-61662515D01*
X80530516Y-62060229D01*
X85043530Y-62649782D01*
X89866788Y-63374930D01*
X94663985Y-64179469D01*
X99099041Y-65006995D01*
X102832446Y-65800061D01*
X105545562Y-66505324D01*
X106333857Y-66720702D01*
X106343103Y-66725004D01*
X106403602Y-66739757D01*
X106428676Y-66746608D01*
X106438663Y-66748307D01*
X106448516Y-66750710D01*
X106474274Y-66754366D01*
X106535641Y-66764808D01*
X106545832Y-66764524D01*
X106602614Y-66772585D01*
X106288998Y-67086201D01*
X106260000Y-67109999D01*
X106236202Y-67138997D01*
X106236201Y-67138998D01*
X106165026Y-67225724D01*
X106094454Y-67357754D01*
X106070658Y-67436201D01*
X106050998Y-67501014D01*
X106045907Y-67552701D01*
X106036324Y-67650000D01*
X106040001Y-67687332D01*
X106040001Y-68096288D01*
X105996063Y-68140226D01*
X105882795Y-68309744D01*
X105804774Y-68498102D01*
X105765000Y-68698061D01*
X105765000Y-68901939D01*
X105804774Y-69101898D01*
X105830912Y-69165000D01*
X104639802Y-69165000D01*
X101563800Y-66088999D01*
X101540002Y-66060001D01*
X101499956Y-66027136D01*
X101424277Y-65965027D01*
X101292247Y-65894455D01*
X101189763Y-65863368D01*
X101148987Y-65850999D01*
X101037334Y-65840002D01*
X101000001Y-65836325D01*
X100962669Y-65840002D01*
X83303711Y-65840000D01*
X83259774Y-65796063D01*
X83090256Y-65682795D01*
X82901898Y-65604774D01*
X82701939Y-65565000D01*
X82498061Y-65565000D01*
X82298102Y-65604774D01*
X82109744Y-65682795D01*
X81940226Y-65796063D01*
X81796063Y-65940226D01*
X81682795Y-66109744D01*
X81604774Y-66298102D01*
X81599486Y-66324685D01*
X81563803Y-66289002D01*
X81540001Y-66259999D01*
X81424276Y-66165026D01*
X81292247Y-66094454D01*
X81148986Y-66050997D01*
X81037333Y-66040000D01*
X81037322Y-66040000D01*
X81000000Y-66036324D01*
X80962678Y-66040000D01*
X80346572Y-66040000D01*
X80346572Y-65101500D01*
X80334312Y-64977018D01*
X80298002Y-64857320D01*
X80239037Y-64747006D01*
X80159685Y-64650315D01*
X80062994Y-64570963D01*
X79952680Y-64511998D01*
X79832982Y-64475688D01*
X79708500Y-64463428D01*
X78311500Y-64463428D01*
X78187018Y-64475688D01*
X78067320Y-64511998D01*
X77957006Y-64570963D01*
X77860315Y-64650315D01*
X77806109Y-64716366D01*
X77749482Y-64699188D01*
X77625000Y-64686928D01*
X76325000Y-64686928D01*
X76200518Y-64699188D01*
X76080820Y-64735498D01*
X75970506Y-64794463D01*
X75873815Y-64873815D01*
X75794463Y-64970506D01*
X75735498Y-65080820D01*
X75699188Y-65200518D01*
X75686928Y-65325000D01*
X75686928Y-66063501D01*
X74713072Y-66063501D01*
X74713072Y-65325000D01*
X74700812Y-65200518D01*
X74664502Y-65080820D01*
X74605537Y-64970506D01*
X74526185Y-64873815D01*
X74429494Y-64794463D01*
X74319180Y-64735498D01*
X74199482Y-64699188D01*
X74075000Y-64686928D01*
X72775000Y-64686928D01*
X72650518Y-64699188D01*
X72530820Y-64735498D01*
X72420506Y-64794463D01*
X72338015Y-64862161D01*
X72240057Y-64764203D01*
X72021649Y-64618268D01*
X71778968Y-64517746D01*
X71521338Y-64466500D01*
X71258662Y-64466500D01*
X71001032Y-64517746D01*
X70758351Y-64618268D01*
X70539943Y-64764203D01*
X70354203Y-64949943D01*
X70208268Y-65168351D01*
X70107746Y-65411032D01*
X70056500Y-65668662D01*
X70056500Y-65931338D01*
X70082789Y-66063501D01*
X62096803Y-66063501D01*
X61322304Y-65289002D01*
X61298501Y-65259999D01*
X61182776Y-65165026D01*
X61146572Y-65145674D01*
X61146572Y-65101500D01*
X61134312Y-64977018D01*
X61098002Y-64857320D01*
X61039037Y-64747006D01*
X60959685Y-64650315D01*
X60862994Y-64570963D01*
X60752680Y-64511998D01*
X60632982Y-64475688D01*
X60508500Y-64463428D01*
X59111500Y-64463428D01*
X58987018Y-64475688D01*
X58867320Y-64511998D01*
X58757006Y-64570963D01*
X58660315Y-64650315D01*
X58606109Y-64716366D01*
X58549482Y-64699188D01*
X58425000Y-64686928D01*
X57125000Y-64686928D01*
X57000518Y-64699188D01*
X56880820Y-64735498D01*
X56770506Y-64794463D01*
X56673815Y-64873815D01*
X56594463Y-64970506D01*
X56535498Y-65080820D01*
X56499188Y-65200518D01*
X56486928Y-65325000D01*
X56486928Y-66275000D01*
X56499188Y-66399482D01*
X56535498Y-66519180D01*
X56594463Y-66629494D01*
X56673815Y-66726185D01*
X56770506Y-66805537D01*
X56880820Y-66864502D01*
X57000518Y-66900812D01*
X57125000Y-66913072D01*
X58425000Y-66913072D01*
X58549482Y-66900812D01*
X58606109Y-66883634D01*
X58660315Y-66949685D01*
X58757006Y-67029037D01*
X58867320Y-67088002D01*
X58987018Y-67124312D01*
X59111500Y-67136572D01*
X60508500Y-67136572D01*
X60632982Y-67124312D01*
X60752680Y-67088002D01*
X60862994Y-67029037D01*
X60890314Y-67006616D01*
X61218202Y-67334504D01*
X61242000Y-67363502D01*
X61270998Y-67387300D01*
X61357724Y-67458475D01*
X61467599Y-67517205D01*
X61489754Y-67529047D01*
X61633015Y-67572504D01*
X61744668Y-67583501D01*
X61744678Y-67583501D01*
X61782001Y-67587177D01*
X61819323Y-67583501D01*
X77000677Y-67583501D01*
X77037999Y-67587177D01*
X77075321Y-67583501D01*
X77075332Y-67583501D01*
X77186985Y-67572504D01*
X77330246Y-67529047D01*
X77462275Y-67458475D01*
X77578000Y-67363502D01*
X77601803Y-67334499D01*
X77929686Y-67006616D01*
X77957006Y-67029037D01*
X78067320Y-67088002D01*
X78187018Y-67124312D01*
X78311500Y-67136572D01*
X79271770Y-67136572D01*
X79446200Y-67311002D01*
X79469999Y-67340001D01*
X79498997Y-67363799D01*
X79585724Y-67434974D01*
X79717753Y-67505546D01*
X79861014Y-67549003D01*
X80010000Y-67563677D01*
X80047333Y-67560000D01*
X80685199Y-67560000D01*
X82040000Y-68914803D01*
X82040001Y-72162668D01*
X82036324Y-72200000D01*
X82050998Y-72348985D01*
X82094454Y-72492246D01*
X82165026Y-72624276D01*
X82236201Y-72711002D01*
X82260000Y-72740001D01*
X82288998Y-72763799D01*
X83636201Y-74111003D01*
X83659999Y-74140001D01*
X83688997Y-74163799D01*
X83775723Y-74234974D01*
X83897377Y-74300000D01*
X83907753Y-74305546D01*
X84051014Y-74349003D01*
X84162667Y-74360000D01*
X84162677Y-74360000D01*
X84200000Y-74363676D01*
X84237322Y-74360000D01*
X88962678Y-74360000D01*
X89000000Y-74363676D01*
X89037322Y-74360000D01*
X89037333Y-74360000D01*
X89148986Y-74349003D01*
X89292247Y-74305546D01*
X89424276Y-74234974D01*
X89540001Y-74140001D01*
X89563804Y-74110998D01*
X90314802Y-73360000D01*
X99228956Y-73360000D01*
X99266278Y-73363676D01*
X99303600Y-73360000D01*
X99303611Y-73360000D01*
X99415264Y-73349003D01*
X99558525Y-73305546D01*
X99690554Y-73234974D01*
X99806279Y-73140001D01*
X99830082Y-73110997D01*
X101752010Y-71189070D01*
X102008946Y-71257916D01*
X102132359Y-71278292D01*
X102257376Y-71274199D01*
X102379193Y-71245796D01*
X102493127Y-71194173D01*
X102594801Y-71121314D01*
X102665996Y-71045301D01*
X102744799Y-71109974D01*
X102843380Y-71162667D01*
X102876829Y-71180546D01*
X103020090Y-71224003D01*
X103131743Y-71235000D01*
X103131753Y-71235000D01*
X103169075Y-71238676D01*
X103206398Y-71235000D01*
X106840000Y-71235000D01*
X106840001Y-71396288D01*
X106796063Y-71440226D01*
X106682795Y-71609744D01*
X106604774Y-71798102D01*
X106565000Y-71998061D01*
X106565000Y-72201939D01*
X106604774Y-72401898D01*
X106682795Y-72590256D01*
X106796063Y-72759774D01*
X106940226Y-72903937D01*
X107109744Y-73017205D01*
X107298102Y-73095226D01*
X107498061Y-73135000D01*
X107701939Y-73135000D01*
X107901898Y-73095226D01*
X108090256Y-73017205D01*
X108259774Y-72903937D01*
X108403937Y-72759774D01*
X108517205Y-72590256D01*
X108595226Y-72401898D01*
X108635000Y-72201939D01*
X108635000Y-71998061D01*
X108595226Y-71798102D01*
X108517205Y-71609744D01*
X108403937Y-71440226D01*
X108360000Y-71396289D01*
X108360000Y-71235000D01*
X110887678Y-71235000D01*
X110925000Y-71238676D01*
X110962322Y-71235000D01*
X110962333Y-71235000D01*
X111073986Y-71224003D01*
X111217247Y-71180546D01*
X111349276Y-71109974D01*
X111465001Y-71015001D01*
X111488804Y-70985997D01*
X113406064Y-69068738D01*
X113338843Y-69837077D01*
X113340208Y-69962153D01*
X113365947Y-70084560D01*
X113415072Y-70199594D01*
X113485696Y-70302833D01*
X113575103Y-70390311D01*
X113679858Y-70458665D01*
X113795936Y-70505269D01*
X113918876Y-70528332D01*
X114311066Y-70562644D01*
X115016348Y-71267927D01*
X114859744Y-71332795D01*
X114690226Y-71446063D01*
X114546063Y-71590226D01*
X114432795Y-71759744D01*
X114354774Y-71948102D01*
X114315000Y-72148061D01*
X114315000Y-72351939D01*
X114354774Y-72551898D01*
X114432795Y-72740256D01*
X114546063Y-72909774D01*
X114690226Y-73053937D01*
X114859744Y-73167205D01*
X115048102Y-73245226D01*
X115248061Y-73285000D01*
X115451939Y-73285000D01*
X115651898Y-73245226D01*
X115840256Y-73167205D01*
X116009774Y-73053937D01*
X116153937Y-72909774D01*
X116267205Y-72740256D01*
X116345226Y-72551898D01*
X116385000Y-72351939D01*
X116385000Y-72289802D01*
X116589802Y-72085000D01*
X122161760Y-72085000D01*
X122205229Y-72089281D01*
X122248698Y-72085000D01*
X122248706Y-72085000D01*
X122378719Y-72072195D01*
X122545542Y-72021589D01*
X122671413Y-71954310D01*
X122868678Y-72083027D01*
X123140135Y-72192015D01*
X123355593Y-72232434D01*
X124297893Y-72314874D01*
X124517096Y-72312482D01*
X124803355Y-72252288D01*
X125040001Y-72151228D01*
X125040001Y-72685197D01*
X124235199Y-73490000D01*
X122264802Y-73490000D01*
X121388804Y-72614002D01*
X121365001Y-72584999D01*
X121249276Y-72490026D01*
X121117247Y-72419454D01*
X120973986Y-72375997D01*
X120862333Y-72365000D01*
X120862322Y-72365000D01*
X120825000Y-72361324D01*
X120787678Y-72365000D01*
X117212322Y-72365000D01*
X117174999Y-72361324D01*
X117137676Y-72365000D01*
X117137667Y-72365000D01*
X117026014Y-72375997D01*
X116882753Y-72419454D01*
X116750724Y-72490026D01*
X116634999Y-72584999D01*
X116611201Y-72613997D01*
X115810199Y-73415000D01*
X110424879Y-73415000D01*
X110540256Y-73367209D01*
X110709774Y-73253941D01*
X110853937Y-73109778D01*
X110967205Y-72940260D01*
X111045226Y-72751902D01*
X111085000Y-72551943D01*
X111085000Y-72348065D01*
X111045226Y-72148106D01*
X110967205Y-71959748D01*
X110853937Y-71790230D01*
X110709774Y-71646067D01*
X110540256Y-71532799D01*
X110351898Y-71454778D01*
X110151939Y-71415004D01*
X109948061Y-71415004D01*
X109748102Y-71454778D01*
X109559744Y-71532799D01*
X109390226Y-71646067D01*
X109246063Y-71790230D01*
X109132795Y-71959748D01*
X109054774Y-72148106D01*
X109015000Y-72348065D01*
X109015000Y-72410197D01*
X107960198Y-73465000D01*
X107898061Y-73465000D01*
X107698102Y-73504774D01*
X107509744Y-73582795D01*
X107340226Y-73696063D01*
X107196063Y-73840226D01*
X107082795Y-74009744D01*
X107004774Y-74198102D01*
X106965000Y-74398061D01*
X106965000Y-74601939D01*
X107004774Y-74801898D01*
X107082795Y-74990256D01*
X107196063Y-75159774D01*
X107340226Y-75303937D01*
X107448749Y-75376449D01*
X103645647Y-79179552D01*
X102685710Y-79179552D01*
X102722971Y-79154655D01*
X102943742Y-78933884D01*
X103117201Y-78674284D01*
X103236681Y-78385832D01*
X103297592Y-78079614D01*
X103297592Y-77767396D01*
X103236681Y-77461178D01*
X103117201Y-77172726D01*
X102943742Y-76913126D01*
X102722971Y-76692355D01*
X102463371Y-76518896D01*
X102174919Y-76399416D01*
X101868701Y-76338505D01*
X101556483Y-76338505D01*
X101526702Y-76344429D01*
X101453163Y-76329801D01*
X101160643Y-76329801D01*
X100873745Y-76386869D01*
X100603492Y-76498811D01*
X100360271Y-76661326D01*
X100153428Y-76868169D01*
X99990913Y-77111390D01*
X99878971Y-77381643D01*
X99821903Y-77668541D01*
X99821903Y-77961061D01*
X99863357Y-78169464D01*
X99628091Y-78197830D01*
X99364127Y-78284234D01*
X99182742Y-78386334D01*
X98045327Y-79182761D01*
X98033426Y-79192970D01*
X97998907Y-79186104D01*
X97637443Y-79186104D01*
X97282925Y-79256622D01*
X96948976Y-79394948D01*
X96648431Y-79595766D01*
X96392837Y-79851360D01*
X96192019Y-80151905D01*
X96053693Y-80485854D01*
X95988430Y-80813956D01*
X95974263Y-80848157D01*
X95694799Y-80661425D01*
X95379049Y-80530637D01*
X95043851Y-80463962D01*
X94702085Y-80463962D01*
X94593892Y-80485483D01*
X94611608Y-80396414D01*
X94675754Y-80241553D01*
X94746272Y-79887035D01*
X94746272Y-79525571D01*
X94675754Y-79171053D01*
X94537428Y-78837104D01*
X94336610Y-78536559D01*
X94081016Y-78280965D01*
X93780471Y-78080147D01*
X93641416Y-78022549D01*
X93633724Y-78000676D01*
X93046907Y-76742244D01*
X92940874Y-76563130D01*
X92755477Y-76356319D01*
X92601048Y-76240475D01*
X93765000Y-76240475D01*
X93765000Y-76759525D01*
X93866261Y-77268601D01*
X94064893Y-77748141D01*
X94353262Y-78179715D01*
X94720285Y-78546738D01*
X95151859Y-78835107D01*
X95631399Y-79033739D01*
X96140475Y-79135000D01*
X96659525Y-79135000D01*
X97168601Y-79033739D01*
X97648141Y-78835107D01*
X98079715Y-78546738D01*
X98446738Y-78179715D01*
X98735107Y-77748141D01*
X98933739Y-77268601D01*
X99035000Y-76759525D01*
X99035000Y-76240475D01*
X98933739Y-75731399D01*
X98735107Y-75251859D01*
X98446738Y-74820285D01*
X98079715Y-74453262D01*
X97648141Y-74164893D01*
X97168601Y-73966261D01*
X96659525Y-73865000D01*
X96140475Y-73865000D01*
X95631399Y-73966261D01*
X95151859Y-74164893D01*
X94720285Y-74453262D01*
X94353262Y-74820285D01*
X94064893Y-75251859D01*
X93866261Y-75731399D01*
X93765000Y-76240475D01*
X92601048Y-76240475D01*
X92564982Y-76213421D01*
X92646572Y-76131831D01*
X92809087Y-75888610D01*
X92921029Y-75618357D01*
X92978097Y-75331459D01*
X92978097Y-75038939D01*
X92921029Y-74752041D01*
X92809087Y-74481788D01*
X92646572Y-74238567D01*
X92439729Y-74031724D01*
X92196508Y-73869209D01*
X92030741Y-73800546D01*
X91853862Y-73682359D01*
X101394173Y-73682359D01*
X101394173Y-73905935D01*
X101437790Y-74125214D01*
X101523349Y-74331771D01*
X101647561Y-74517667D01*
X101805653Y-74675759D01*
X101991549Y-74799971D01*
X102198106Y-74885530D01*
X102417385Y-74929147D01*
X102640961Y-74929147D01*
X102860240Y-74885530D01*
X103066797Y-74799971D01*
X103252693Y-74675759D01*
X103410785Y-74517667D01*
X103534997Y-74331771D01*
X103620556Y-74125214D01*
X103664173Y-73905935D01*
X103664173Y-73682359D01*
X103620556Y-73463080D01*
X103534997Y-73256523D01*
X103410785Y-73070627D01*
X103252693Y-72912535D01*
X103066797Y-72788323D01*
X102860240Y-72702764D01*
X102640961Y-72659147D01*
X102417385Y-72659147D01*
X102198106Y-72702764D01*
X101991549Y-72788323D01*
X101805653Y-72912535D01*
X101647561Y-73070627D01*
X101523349Y-73256523D01*
X101437790Y-73463080D01*
X101394173Y-73682359D01*
X91853862Y-73682359D01*
X91838187Y-73671886D01*
X91549735Y-73552406D01*
X91243517Y-73491495D01*
X90931299Y-73491495D01*
X90625081Y-73552406D01*
X90336629Y-73671886D01*
X90077029Y-73845345D01*
X89856258Y-74066116D01*
X89682799Y-74325716D01*
X89563319Y-74614168D01*
X89502408Y-74920386D01*
X89502408Y-75232604D01*
X89563319Y-75538822D01*
X89682799Y-75827274D01*
X89856258Y-76086874D01*
X90077029Y-76307645D01*
X90336629Y-76481104D01*
X90625081Y-76600584D01*
X90634604Y-76602478D01*
X90587029Y-76665900D01*
X90466910Y-76916328D01*
X90397955Y-77185377D01*
X90393779Y-77261868D01*
X90208413Y-77251748D01*
X89962706Y-77286827D01*
X89728564Y-77369166D01*
X89514985Y-77495603D01*
X89330176Y-77661277D01*
X89181240Y-77859823D01*
X89073899Y-78083609D01*
X89012280Y-78324037D01*
X88998750Y-78571865D01*
X89033829Y-78817572D01*
X89095536Y-78993043D01*
X89549338Y-79966224D01*
X89644093Y-80126285D01*
X89809767Y-80311094D01*
X90008313Y-80460030D01*
X90232099Y-80567371D01*
X90472526Y-80628990D01*
X90720355Y-80642520D01*
X90796748Y-80631614D01*
X90796748Y-80930235D01*
X90867266Y-81284753D01*
X91005592Y-81618702D01*
X91206410Y-81919247D01*
X91462004Y-82174841D01*
X91762549Y-82375659D01*
X92096498Y-82513985D01*
X92451016Y-82584503D01*
X92812480Y-82584503D01*
X93166653Y-82514054D01*
X93204643Y-82705043D01*
X93335431Y-83020793D01*
X93525305Y-83304960D01*
X93766970Y-83546625D01*
X94051137Y-83736499D01*
X94366887Y-83867287D01*
X94702085Y-83933962D01*
X95043851Y-83933962D01*
X95379049Y-83867287D01*
X95694799Y-83736499D01*
X95978966Y-83546625D01*
X96202428Y-83323163D01*
X96368907Y-83489642D01*
X96669452Y-83690460D01*
X97003401Y-83828786D01*
X97357919Y-83899304D01*
X97719383Y-83899304D01*
X98073901Y-83828786D01*
X98407850Y-83690460D01*
X98708395Y-83489642D01*
X98963989Y-83234048D01*
X99164807Y-82933503D01*
X99187007Y-82879909D01*
X99247458Y-82927351D01*
X99468850Y-83039548D01*
X99707876Y-83106398D01*
X99955350Y-83125331D01*
X100201763Y-83095621D01*
X100437646Y-83018408D01*
X100599737Y-82927168D01*
X101479330Y-82311269D01*
X101620506Y-82190160D01*
X101773738Y-81994910D01*
X101885935Y-81773520D01*
X101952785Y-81534494D01*
X101971718Y-81287019D01*
X101942008Y-81040605D01*
X101864795Y-80804723D01*
X101805595Y-80699552D01*
X103923126Y-80699552D01*
X103960448Y-80703228D01*
X103997770Y-80699552D01*
X103997781Y-80699552D01*
X104109434Y-80688555D01*
X104252695Y-80645098D01*
X104384724Y-80574526D01*
X104500449Y-80479553D01*
X104524252Y-80450549D01*
X110039802Y-74935000D01*
X113372334Y-74935000D01*
X113304774Y-75098102D01*
X113293465Y-75154956D01*
X111333422Y-77115000D01*
X109343469Y-77115000D01*
X109300000Y-77110719D01*
X109256531Y-77115000D01*
X109256523Y-77115000D01*
X109126510Y-77127805D01*
X108959686Y-77178411D01*
X108805941Y-77260589D01*
X108704953Y-77343468D01*
X108704951Y-77343470D01*
X108671183Y-77371183D01*
X108643470Y-77404951D01*
X103504956Y-82543466D01*
X103471183Y-82571183D01*
X103360589Y-82705942D01*
X103278411Y-82859688D01*
X103245617Y-82967794D01*
X103227805Y-83026510D01*
X103226934Y-83035357D01*
X103215000Y-83156524D01*
X103215000Y-83156531D01*
X103210719Y-83200000D01*
X103215000Y-83243470D01*
X103215000Y-83759943D01*
X103206380Y-83762558D01*
X103096066Y-83821523D01*
X102999375Y-83900875D01*
X102920023Y-83997566D01*
X102861058Y-84107880D01*
X102824748Y-84227578D01*
X102814250Y-84334171D01*
X101804956Y-85343466D01*
X101771183Y-85371183D01*
X101660589Y-85505942D01*
X101578411Y-85659688D01*
X101554315Y-85739122D01*
X101527805Y-85826510D01*
X101527386Y-85830761D01*
X101515000Y-85956524D01*
X101515000Y-85956531D01*
X101510719Y-86000000D01*
X101515000Y-86043469D01*
X101515001Y-87856521D01*
X101510719Y-87900000D01*
X101527805Y-88073490D01*
X101578412Y-88240313D01*
X101660590Y-88394059D01*
X101743468Y-88495046D01*
X101743471Y-88495049D01*
X101771184Y-88528817D01*
X101804951Y-88556529D01*
X103843470Y-90595049D01*
X103871183Y-90628817D01*
X103904951Y-90656530D01*
X103904953Y-90656532D01*
X103974883Y-90713922D01*
X104005941Y-90739411D01*
X104159687Y-90821589D01*
X104326510Y-90872195D01*
X104456523Y-90885000D01*
X104456533Y-90885000D01*
X104499999Y-90889281D01*
X104543465Y-90885000D01*
X104550022Y-90885000D01*
X104581523Y-90943934D01*
X104660875Y-91040625D01*
X104757566Y-91119977D01*
X104867880Y-91178942D01*
X104987578Y-91215252D01*
X105112060Y-91227512D01*
X105909620Y-91227512D01*
X106034102Y-91215252D01*
X106153800Y-91178942D01*
X106264114Y-91119977D01*
X106360805Y-91040625D01*
X106410000Y-90980681D01*
X106459195Y-91040625D01*
X106555886Y-91119977D01*
X106643666Y-91166897D01*
X106685026Y-91244276D01*
X106710540Y-91275364D01*
X106779999Y-91360001D01*
X106809003Y-91383804D01*
X108481392Y-93056194D01*
X108505190Y-93085192D01*
X108534188Y-93108990D01*
X108620915Y-93180165D01*
X108752944Y-93250737D01*
X108896205Y-93294194D01*
X109045191Y-93308868D01*
X109082524Y-93305191D01*
X113442723Y-93305191D01*
X113529944Y-93435726D01*
X113724529Y-93630311D01*
X113953337Y-93783196D01*
X114207574Y-93888505D01*
X114477472Y-93942191D01*
X114752656Y-93942191D01*
X115022554Y-93888505D01*
X115276791Y-93783196D01*
X115505599Y-93630311D01*
X115700184Y-93435726D01*
X115853069Y-93206918D01*
X115958378Y-92952681D01*
X116012064Y-92682783D01*
X116012064Y-92407599D01*
X115980200Y-92247409D01*
X116034823Y-92247409D01*
X116378328Y-92179081D01*
X116701904Y-92045052D01*
X116993114Y-91850472D01*
X117240768Y-91602818D01*
X117435348Y-91311608D01*
X117569377Y-90988032D01*
X117637705Y-90644527D01*
X117637705Y-90584045D01*
X117710934Y-90614377D01*
X118054439Y-90682705D01*
X118404675Y-90682705D01*
X118748180Y-90614377D01*
X119071756Y-90480348D01*
X119362966Y-90285768D01*
X119610620Y-90038114D01*
X119805200Y-89746904D01*
X119806596Y-89743533D01*
X119989399Y-89938710D01*
X120315237Y-90172202D01*
X120680366Y-90337640D01*
X121070754Y-90428665D01*
X121471398Y-90441781D01*
X121866903Y-90376482D01*
X122242070Y-90235280D01*
X122582481Y-90023599D01*
X122875055Y-89749574D01*
X123050036Y-89505389D01*
X123700005Y-88379611D01*
X123823985Y-88105980D01*
X123915010Y-87715592D01*
X123928126Y-87314947D01*
X123862827Y-86919442D01*
X123721625Y-86544275D01*
X123509944Y-86203864D01*
X123235919Y-85911290D01*
X122910081Y-85677798D01*
X122544952Y-85512360D01*
X122154564Y-85421335D01*
X121766181Y-85408620D01*
X125665000Y-81509802D01*
X125665000Y-82008771D01*
X125785476Y-82614446D01*
X126021799Y-83184979D01*
X126364886Y-83698446D01*
X126801554Y-84135114D01*
X127315021Y-84478201D01*
X127885554Y-84714524D01*
X128491229Y-84835000D01*
X129108771Y-84835000D01*
X129714446Y-84714524D01*
X130284979Y-84478201D01*
X130654328Y-84231410D01*
X130013449Y-85358945D01*
X128458918Y-87934756D01*
X126798995Y-90590455D01*
X125151153Y-93173636D01*
X123651266Y-95503577D01*
X123650890Y-95504052D01*
X123631400Y-95534436D01*
X123612497Y-95563800D01*
X123612230Y-95564322D01*
X122370891Y-97499502D01*
X121766714Y-98326145D01*
X121269096Y-98865539D01*
X121414524Y-98514446D01*
X121535000Y-97908771D01*
X121535000Y-97291229D01*
X121414524Y-96685554D01*
X121178201Y-96115021D01*
X120835114Y-95601554D01*
X120398446Y-95164886D01*
X119884979Y-94821799D01*
X119314446Y-94585476D01*
X118708771Y-94465000D01*
X118091229Y-94465000D01*
X117485554Y-94585476D01*
X116915021Y-94821799D01*
X116401554Y-95164886D01*
X115964886Y-95601554D01*
X115621799Y-96115021D01*
X115385476Y-96685554D01*
X115265000Y-97291229D01*
X115265000Y-97908771D01*
X115385476Y-98514446D01*
X115621799Y-99084979D01*
X115964886Y-99598446D01*
X116363882Y-99997442D01*
X115633383Y-99671454D01*
X114153562Y-98816976D01*
X114153432Y-98816883D01*
X114121402Y-98798406D01*
X114091160Y-98780944D01*
X114091022Y-98780881D01*
X112489167Y-97856843D01*
X112489163Y-97856840D01*
X110730558Y-96842363D01*
X108982563Y-95833105D01*
X107278185Y-94847222D01*
X105666205Y-93911969D01*
X104201104Y-93057891D01*
X102936145Y-92314837D01*
X100066108Y-90620023D01*
X100037293Y-90602736D01*
X100034974Y-90601638D01*
X100032776Y-90600340D01*
X100002467Y-90586247D01*
X96975181Y-89152904D01*
X96946630Y-89138967D01*
X96942511Y-89137436D01*
X96938556Y-89135563D01*
X96908765Y-89124890D01*
X93731399Y-87943606D01*
X93703824Y-87932795D01*
X93697547Y-87931021D01*
X93691442Y-87928751D01*
X93662857Y-87921215D01*
X90343079Y-86982825D01*
X90316956Y-86974762D01*
X90308320Y-86973000D01*
X90299853Y-86970607D01*
X90272993Y-86965794D01*
X86818033Y-86261008D01*
X86793722Y-86255278D01*
X86782703Y-86253801D01*
X86771793Y-86251575D01*
X86746918Y-86249002D01*
X83163909Y-85768582D01*
X83141485Y-85764741D01*
X83128126Y-85763784D01*
X83114870Y-85762007D01*
X83092159Y-85761209D01*
X79387821Y-85495961D01*
X79367356Y-85493625D01*
X79351839Y-85493385D01*
X79336356Y-85492276D01*
X79315760Y-85492826D01*
X75512914Y-85433929D01*
X75510351Y-85433655D01*
X75476760Y-85433369D01*
X75443282Y-85432851D01*
X75440722Y-85433063D01*
X71528368Y-85399810D01*
X71519608Y-85399083D01*
X71492290Y-85399503D01*
X71464959Y-85399271D01*
X71456200Y-85400059D01*
X67066629Y-85467594D01*
X67061092Y-85467218D01*
X67030537Y-85468149D01*
X66999978Y-85468619D01*
X66994465Y-85469248D01*
X62445059Y-85607843D01*
X62441240Y-85607624D01*
X62408911Y-85608945D01*
X62376694Y-85609926D01*
X62372914Y-85610415D01*
X57970898Y-85790222D01*
X57968116Y-85790083D01*
X57934828Y-85791695D01*
X57901531Y-85793055D01*
X57898773Y-85793441D01*
X53952550Y-85984532D01*
X53950439Y-85984439D01*
X53916554Y-85986275D01*
X53882544Y-85987922D01*
X53880446Y-85988232D01*
X50698911Y-86160627D01*
X50697262Y-86160562D01*
X50662855Y-86162581D01*
X50628456Y-86164445D01*
X50626825Y-86164695D01*
X48519182Y-86288375D01*
X48517952Y-86288330D01*
X48483029Y-86290496D01*
X48448317Y-86292533D01*
X48447109Y-86292724D01*
X47977662Y-86321841D01*
X48014446Y-86314524D01*
X48584979Y-86078201D01*
X49098446Y-85735114D01*
X49535114Y-85298446D01*
X49878201Y-84784979D01*
X50114524Y-84214446D01*
X50235000Y-83608771D01*
X50235000Y-82991229D01*
X50114524Y-82385554D01*
X49878201Y-81815021D01*
X49535114Y-81301554D01*
X49098446Y-80864886D01*
X48584979Y-80521799D01*
X48014446Y-80285476D01*
X47408771Y-80165000D01*
X46791229Y-80165000D01*
X46185554Y-80285476D01*
X45615021Y-80521799D01*
X45101554Y-80864886D01*
X44664886Y-81301554D01*
X44321799Y-81815021D01*
X44085476Y-82385554D01*
X43976144Y-82935204D01*
X43813217Y-80897580D01*
X43813217Y-80897575D01*
X43604338Y-78285262D01*
X43604338Y-78285257D01*
X43395459Y-75672943D01*
X43395459Y-75672938D01*
X43225221Y-73543891D01*
X49015000Y-73543891D01*
X49015000Y-73856109D01*
X49075911Y-74162327D01*
X49195391Y-74450779D01*
X49368850Y-74710379D01*
X49589621Y-74931150D01*
X49849221Y-75104609D01*
X50137673Y-75224089D01*
X50443891Y-75285000D01*
X50560060Y-75285000D01*
X50528039Y-75364754D01*
X50476829Y-75637738D01*
X50479858Y-75915466D01*
X50495621Y-75990432D01*
X50313954Y-76028632D01*
X50085699Y-76126110D01*
X49880846Y-76266244D01*
X49707268Y-76443650D01*
X49571636Y-76651512D01*
X49479162Y-76881839D01*
X49433398Y-77125782D01*
X49436106Y-77373964D01*
X49487179Y-77616851D01*
X49584657Y-77845106D01*
X49689676Y-77998628D01*
X50379893Y-78821196D01*
X50512846Y-78951279D01*
X50720706Y-79086912D01*
X50951033Y-79179386D01*
X51194976Y-79225149D01*
X51443160Y-79222441D01*
X51686046Y-79171368D01*
X51760568Y-79139543D01*
X51795518Y-79315250D01*
X51933844Y-79649199D01*
X52134662Y-79949744D01*
X52390256Y-80205338D01*
X52690801Y-80406156D01*
X53024750Y-80544482D01*
X53379268Y-80615000D01*
X53740732Y-80615000D01*
X54095250Y-80544482D01*
X54429199Y-80406156D01*
X54528490Y-80339812D01*
X54562463Y-80421831D01*
X54752337Y-80705998D01*
X54994002Y-80947663D01*
X55278169Y-81137537D01*
X55593919Y-81268325D01*
X55929117Y-81335000D01*
X56270883Y-81335000D01*
X56606081Y-81268325D01*
X56921831Y-81137537D01*
X57205998Y-80947663D01*
X57447663Y-80705998D01*
X57637537Y-80421831D01*
X57671510Y-80339812D01*
X57770801Y-80406156D01*
X58104750Y-80544482D01*
X58459268Y-80615000D01*
X58820732Y-80615000D01*
X59175250Y-80544482D01*
X59509199Y-80406156D01*
X59809744Y-80205338D01*
X60065338Y-79949744D01*
X60266156Y-79649199D01*
X60404482Y-79315250D01*
X60439432Y-79139543D01*
X60513954Y-79171368D01*
X60756841Y-79222441D01*
X61005023Y-79225149D01*
X61248966Y-79179385D01*
X61479293Y-79086911D01*
X61687155Y-78951279D01*
X61820107Y-78821196D01*
X62510324Y-77998628D01*
X62615344Y-77845107D01*
X62712821Y-77616851D01*
X62763894Y-77373965D01*
X62766602Y-77125782D01*
X62720839Y-76881839D01*
X62628364Y-76651511D01*
X62492732Y-76443650D01*
X62319154Y-76266243D01*
X62114301Y-76126109D01*
X61886046Y-76028632D01*
X61704379Y-75990432D01*
X61720142Y-75915467D01*
X61723171Y-75637738D01*
X61671961Y-75364754D01*
X61639940Y-75285000D01*
X61756109Y-75285000D01*
X62062327Y-75224089D01*
X62350779Y-75104609D01*
X62610379Y-74931150D01*
X62831150Y-74710379D01*
X63004609Y-74450779D01*
X63124089Y-74162327D01*
X63185000Y-73856109D01*
X63185000Y-73543891D01*
X68115000Y-73543891D01*
X68115000Y-73856109D01*
X68175911Y-74162327D01*
X68295391Y-74450779D01*
X68468850Y-74710379D01*
X68689621Y-74931150D01*
X68949221Y-75104609D01*
X69237673Y-75224089D01*
X69543891Y-75285000D01*
X69660060Y-75285000D01*
X69628039Y-75364754D01*
X69576829Y-75637738D01*
X69579858Y-75915466D01*
X69595621Y-75990432D01*
X69413954Y-76028632D01*
X69185699Y-76126110D01*
X68980846Y-76266244D01*
X68807268Y-76443650D01*
X68671636Y-76651512D01*
X68579162Y-76881839D01*
X68533398Y-77125782D01*
X68536106Y-77373964D01*
X68587179Y-77616851D01*
X68684657Y-77845106D01*
X68789676Y-77998628D01*
X69479893Y-78821196D01*
X69612846Y-78951279D01*
X69820706Y-79086912D01*
X70051033Y-79179386D01*
X70294976Y-79225149D01*
X70543160Y-79222441D01*
X70786046Y-79171368D01*
X70860568Y-79139543D01*
X70895518Y-79315250D01*
X71033844Y-79649199D01*
X71234662Y-79949744D01*
X71490256Y-80205338D01*
X71790801Y-80406156D01*
X72124750Y-80544482D01*
X72479268Y-80615000D01*
X72840732Y-80615000D01*
X73195250Y-80544482D01*
X73529199Y-80406156D01*
X73628490Y-80339812D01*
X73662463Y-80421831D01*
X73852337Y-80705998D01*
X74094002Y-80947663D01*
X74378169Y-81137537D01*
X74693919Y-81268325D01*
X75029117Y-81335000D01*
X75370883Y-81335000D01*
X75706081Y-81268325D01*
X76021831Y-81137537D01*
X76305998Y-80947663D01*
X76547663Y-80705998D01*
X76737537Y-80421831D01*
X76771510Y-80339812D01*
X76870801Y-80406156D01*
X77204750Y-80544482D01*
X77559268Y-80615000D01*
X77920732Y-80615000D01*
X78275250Y-80544482D01*
X78609199Y-80406156D01*
X78909744Y-80205338D01*
X79165338Y-79949744D01*
X79366156Y-79649199D01*
X79504482Y-79315250D01*
X79539432Y-79139543D01*
X79613954Y-79171368D01*
X79856841Y-79222441D01*
X80105023Y-79225149D01*
X80348966Y-79179385D01*
X80579293Y-79086911D01*
X80787155Y-78951279D01*
X80920107Y-78821196D01*
X81610324Y-77998628D01*
X81715344Y-77845107D01*
X81812821Y-77616851D01*
X81863894Y-77373965D01*
X81866602Y-77125782D01*
X81820839Y-76881839D01*
X81728364Y-76651511D01*
X81592732Y-76443650D01*
X81419154Y-76266243D01*
X81214301Y-76126109D01*
X80986046Y-76028632D01*
X80804379Y-75990432D01*
X80820142Y-75915467D01*
X80823171Y-75637738D01*
X80771961Y-75364754D01*
X80739940Y-75285000D01*
X80856109Y-75285000D01*
X81162327Y-75224089D01*
X81450779Y-75104609D01*
X81710379Y-74931150D01*
X81931150Y-74710379D01*
X82104609Y-74450779D01*
X82224089Y-74162327D01*
X82285000Y-73856109D01*
X82285000Y-73543891D01*
X82224089Y-73237673D01*
X82104609Y-72949221D01*
X81931150Y-72689621D01*
X81710379Y-72468850D01*
X81450779Y-72295391D01*
X81162327Y-72175911D01*
X80856109Y-72115000D01*
X80543891Y-72115000D01*
X80237673Y-72175911D01*
X80143303Y-72215000D01*
X80133740Y-72215000D01*
X79846842Y-72272068D01*
X79576589Y-72384010D01*
X79333368Y-72546525D01*
X79126525Y-72753368D01*
X78964010Y-72996589D01*
X78852068Y-73266842D01*
X78795000Y-73553740D01*
X78795000Y-73846260D01*
X78852068Y-74133158D01*
X78964010Y-74403411D01*
X78973585Y-74417741D01*
X78757525Y-74504487D01*
X78524920Y-74656266D01*
X78376141Y-74801833D01*
X77483613Y-75865508D01*
X77472100Y-75882339D01*
X77204750Y-75935518D01*
X76870801Y-76073844D01*
X76570256Y-76274662D01*
X76314662Y-76530256D01*
X76113844Y-76830801D01*
X75975518Y-77164750D01*
X75905000Y-77519268D01*
X75905000Y-77880732D01*
X75918778Y-77950000D01*
X75905955Y-78014466D01*
X75706081Y-77931675D01*
X75370883Y-77865000D01*
X75029117Y-77865000D01*
X74693919Y-77931675D01*
X74494045Y-78014466D01*
X74481222Y-77950000D01*
X74495000Y-77880732D01*
X74495000Y-77519268D01*
X74424482Y-77164750D01*
X74286156Y-76830801D01*
X74085338Y-76530256D01*
X73829744Y-76274662D01*
X73529199Y-76073844D01*
X73195250Y-75935518D01*
X72927901Y-75882339D01*
X72916387Y-75865507D01*
X72023859Y-74801833D01*
X71875080Y-74656266D01*
X71642474Y-74504487D01*
X71426415Y-74417741D01*
X71435990Y-74403411D01*
X71547932Y-74133158D01*
X71605000Y-73846260D01*
X71605000Y-73553740D01*
X71582471Y-73440475D01*
X72565000Y-73440475D01*
X72565000Y-73959525D01*
X72666261Y-74468601D01*
X72864893Y-74948141D01*
X73153262Y-75379715D01*
X73520285Y-75746738D01*
X73951859Y-76035107D01*
X74431399Y-76233739D01*
X74940475Y-76335000D01*
X75459525Y-76335000D01*
X75968601Y-76233739D01*
X76448141Y-76035107D01*
X76879715Y-75746738D01*
X77246738Y-75379715D01*
X77535107Y-74948141D01*
X77733739Y-74468601D01*
X77835000Y-73959525D01*
X77835000Y-73440475D01*
X77733739Y-72931399D01*
X77535107Y-72451859D01*
X77246738Y-72020285D01*
X76879715Y-71653262D01*
X76448141Y-71364893D01*
X75968601Y-71166261D01*
X75459525Y-71065000D01*
X74940475Y-71065000D01*
X74431399Y-71166261D01*
X73951859Y-71364893D01*
X73520285Y-71653262D01*
X73153262Y-72020285D01*
X72864893Y-72451859D01*
X72666261Y-72931399D01*
X72565000Y-73440475D01*
X71582471Y-73440475D01*
X71547932Y-73266842D01*
X71435990Y-72996589D01*
X71273475Y-72753368D01*
X71066632Y-72546525D01*
X70823411Y-72384010D01*
X70553158Y-72272068D01*
X70266260Y-72215000D01*
X70256697Y-72215000D01*
X70162327Y-72175911D01*
X69856109Y-72115000D01*
X69543891Y-72115000D01*
X69237673Y-72175911D01*
X68949221Y-72295391D01*
X68689621Y-72468850D01*
X68468850Y-72689621D01*
X68295391Y-72949221D01*
X68175911Y-73237673D01*
X68115000Y-73543891D01*
X63185000Y-73543891D01*
X63124089Y-73237673D01*
X63004609Y-72949221D01*
X62831150Y-72689621D01*
X62610379Y-72468850D01*
X62350779Y-72295391D01*
X62062327Y-72175911D01*
X61756109Y-72115000D01*
X61443891Y-72115000D01*
X61137673Y-72175911D01*
X61043303Y-72215000D01*
X61033740Y-72215000D01*
X60746842Y-72272068D01*
X60476589Y-72384010D01*
X60233368Y-72546525D01*
X60026525Y-72753368D01*
X59864010Y-72996589D01*
X59752068Y-73266842D01*
X59695000Y-73553740D01*
X59695000Y-73846260D01*
X59752068Y-74133158D01*
X59864010Y-74403411D01*
X59873585Y-74417741D01*
X59657525Y-74504487D01*
X59424920Y-74656266D01*
X59276141Y-74801833D01*
X58383613Y-75865508D01*
X58372100Y-75882339D01*
X58104750Y-75935518D01*
X57770801Y-76073844D01*
X57470256Y-76274662D01*
X57214662Y-76530256D01*
X57013844Y-76830801D01*
X56875518Y-77164750D01*
X56805000Y-77519268D01*
X56805000Y-77880732D01*
X56818778Y-77950000D01*
X56805955Y-78014466D01*
X56606081Y-77931675D01*
X56270883Y-77865000D01*
X55929117Y-77865000D01*
X55593919Y-77931675D01*
X55394045Y-78014466D01*
X55381222Y-77950000D01*
X55395000Y-77880732D01*
X55395000Y-77519268D01*
X55324482Y-77164750D01*
X55186156Y-76830801D01*
X54985338Y-76530256D01*
X54729744Y-76274662D01*
X54429199Y-76073844D01*
X54095250Y-75935518D01*
X53827901Y-75882339D01*
X53816387Y-75865507D01*
X52923859Y-74801833D01*
X52775080Y-74656266D01*
X52542474Y-74504487D01*
X52326415Y-74417741D01*
X52335990Y-74403411D01*
X52447932Y-74133158D01*
X52505000Y-73846260D01*
X52505000Y-73553740D01*
X52482471Y-73440475D01*
X53465000Y-73440475D01*
X53465000Y-73959525D01*
X53566261Y-74468601D01*
X53764893Y-74948141D01*
X54053262Y-75379715D01*
X54420285Y-75746738D01*
X54851859Y-76035107D01*
X55331399Y-76233739D01*
X55840475Y-76335000D01*
X56359525Y-76335000D01*
X56868601Y-76233739D01*
X57348141Y-76035107D01*
X57779715Y-75746738D01*
X58146738Y-75379715D01*
X58435107Y-74948141D01*
X58633739Y-74468601D01*
X58735000Y-73959525D01*
X58735000Y-73440475D01*
X58633739Y-72931399D01*
X58435107Y-72451859D01*
X58146738Y-72020285D01*
X57779715Y-71653262D01*
X57348141Y-71364893D01*
X56868601Y-71166261D01*
X56359525Y-71065000D01*
X55840475Y-71065000D01*
X55331399Y-71166261D01*
X54851859Y-71364893D01*
X54420285Y-71653262D01*
X54053262Y-72020285D01*
X53764893Y-72451859D01*
X53566261Y-72931399D01*
X53465000Y-73440475D01*
X52482471Y-73440475D01*
X52447932Y-73266842D01*
X52335990Y-72996589D01*
X52173475Y-72753368D01*
X51966632Y-72546525D01*
X51723411Y-72384010D01*
X51453158Y-72272068D01*
X51166260Y-72215000D01*
X51156697Y-72215000D01*
X51062327Y-72175911D01*
X50756109Y-72115000D01*
X50443891Y-72115000D01*
X50137673Y-72175911D01*
X49849221Y-72295391D01*
X49589621Y-72468850D01*
X49368850Y-72689621D01*
X49195391Y-72949221D01*
X49075911Y-73237673D01*
X49015000Y-73543891D01*
X43225221Y-73543891D01*
X43186529Y-73059999D01*
X42977700Y-70448305D01*
X42977700Y-70448300D01*
X42892936Y-69388212D01*
X49745000Y-69388212D01*
X49745000Y-69611788D01*
X49788617Y-69831067D01*
X49874176Y-70037624D01*
X49998388Y-70223520D01*
X50156480Y-70381612D01*
X50342376Y-70505824D01*
X50548933Y-70591383D01*
X50768212Y-70635000D01*
X50991788Y-70635000D01*
X51211067Y-70591383D01*
X51417624Y-70505824D01*
X51603520Y-70381612D01*
X51761612Y-70223520D01*
X51885824Y-70037624D01*
X51971383Y-69831067D01*
X52015000Y-69611788D01*
X52015000Y-69388212D01*
X60185000Y-69388212D01*
X60185000Y-69611788D01*
X60228617Y-69831067D01*
X60314176Y-70037624D01*
X60438388Y-70223520D01*
X60596480Y-70381612D01*
X60782376Y-70505824D01*
X60988933Y-70591383D01*
X61208212Y-70635000D01*
X61431788Y-70635000D01*
X61651067Y-70591383D01*
X61857624Y-70505824D01*
X62043520Y-70381612D01*
X62201612Y-70223520D01*
X62325824Y-70037624D01*
X62411383Y-69831067D01*
X62455000Y-69611788D01*
X62455000Y-69388212D01*
X68845000Y-69388212D01*
X68845000Y-69611788D01*
X68888617Y-69831067D01*
X68974176Y-70037624D01*
X69098388Y-70223520D01*
X69256480Y-70381612D01*
X69442376Y-70505824D01*
X69648933Y-70591383D01*
X69868212Y-70635000D01*
X70091788Y-70635000D01*
X70311067Y-70591383D01*
X70517624Y-70505824D01*
X70703520Y-70381612D01*
X70861612Y-70223520D01*
X70985824Y-70037624D01*
X71071383Y-69831067D01*
X71115000Y-69611788D01*
X71115000Y-69388212D01*
X79285000Y-69388212D01*
X79285000Y-69611788D01*
X79328617Y-69831067D01*
X79414176Y-70037624D01*
X79538388Y-70223520D01*
X79696480Y-70381612D01*
X79882376Y-70505824D01*
X80088933Y-70591383D01*
X80308212Y-70635000D01*
X80531788Y-70635000D01*
X80751067Y-70591383D01*
X80957624Y-70505824D01*
X81143520Y-70381612D01*
X81301612Y-70223520D01*
X81425824Y-70037624D01*
X81511383Y-69831067D01*
X81555000Y-69611788D01*
X81555000Y-69388212D01*
X81511383Y-69168933D01*
X81425824Y-68962376D01*
X81301612Y-68776480D01*
X81143520Y-68618388D01*
X80957624Y-68494176D01*
X80751067Y-68408617D01*
X80531788Y-68365000D01*
X80308212Y-68365000D01*
X80088933Y-68408617D01*
X79882376Y-68494176D01*
X79696480Y-68618388D01*
X79538388Y-68776480D01*
X79414176Y-68962376D01*
X79328617Y-69168933D01*
X79285000Y-69388212D01*
X71115000Y-69388212D01*
X71071383Y-69168933D01*
X70985824Y-68962376D01*
X70861612Y-68776480D01*
X70703520Y-68618388D01*
X70517624Y-68494176D01*
X70311067Y-68408617D01*
X70091788Y-68365000D01*
X69868212Y-68365000D01*
X69648933Y-68408617D01*
X69442376Y-68494176D01*
X69256480Y-68618388D01*
X69098388Y-68776480D01*
X68974176Y-68962376D01*
X68888617Y-69168933D01*
X68845000Y-69388212D01*
X62455000Y-69388212D01*
X62411383Y-69168933D01*
X62325824Y-68962376D01*
X62201612Y-68776480D01*
X62043520Y-68618388D01*
X61857624Y-68494176D01*
X61651067Y-68408617D01*
X61431788Y-68365000D01*
X61208212Y-68365000D01*
X60988933Y-68408617D01*
X60782376Y-68494176D01*
X60596480Y-68618388D01*
X60438388Y-68776480D01*
X60314176Y-68962376D01*
X60228617Y-69168933D01*
X60185000Y-69388212D01*
X52015000Y-69388212D01*
X51971383Y-69168933D01*
X51885824Y-68962376D01*
X51761612Y-68776480D01*
X51603520Y-68618388D01*
X51417624Y-68494176D01*
X51211067Y-68408617D01*
X50991788Y-68365000D01*
X50768212Y-68365000D01*
X50548933Y-68408617D01*
X50342376Y-68494176D01*
X50156480Y-68618388D01*
X49998388Y-68776480D01*
X49874176Y-68962376D01*
X49788617Y-69168933D01*
X49745000Y-69388212D01*
X42892936Y-69388212D01*
X42768821Y-67835987D01*
X42768821Y-67835982D01*
X42559942Y-65223668D01*
X42559942Y-65223663D01*
X42551220Y-65114588D01*
X42621799Y-65284979D01*
X42964886Y-65798446D01*
X43401554Y-66235114D01*
X43915021Y-66578201D01*
X44485554Y-66814524D01*
X45091229Y-66935000D01*
X45708771Y-66935000D01*
X46314446Y-66814524D01*
X46884979Y-66578201D01*
X47398446Y-66235114D01*
X47835114Y-65798446D01*
X47921832Y-65668662D01*
X50856500Y-65668662D01*
X50856500Y-65931338D01*
X50907746Y-66188968D01*
X51008268Y-66431649D01*
X51154203Y-66650057D01*
X51339943Y-66835797D01*
X51558351Y-66981732D01*
X51801032Y-67082254D01*
X52058662Y-67133500D01*
X52321338Y-67133500D01*
X52578968Y-67082254D01*
X52821649Y-66981732D01*
X53040057Y-66835797D01*
X53138015Y-66737839D01*
X53220506Y-66805537D01*
X53330820Y-66864502D01*
X53450518Y-66900812D01*
X53575000Y-66913072D01*
X54875000Y-66913072D01*
X54999482Y-66900812D01*
X55119180Y-66864502D01*
X55229494Y-66805537D01*
X55326185Y-66726185D01*
X55405537Y-66629494D01*
X55464502Y-66519180D01*
X55500812Y-66399482D01*
X55513072Y-66275000D01*
X55513072Y-65325000D01*
X55500812Y-65200518D01*
X55464502Y-65080820D01*
X55405537Y-64970506D01*
X55326185Y-64873815D01*
X55229494Y-64794463D01*
X55119180Y-64735498D01*
X54999482Y-64699188D01*
X54875000Y-64686928D01*
X53575000Y-64686928D01*
X53450518Y-64699188D01*
X53330820Y-64735498D01*
X53220506Y-64794463D01*
X53138015Y-64862161D01*
X53040057Y-64764203D01*
X52821649Y-64618268D01*
X52578968Y-64517746D01*
X52321338Y-64466500D01*
X52058662Y-64466500D01*
X51801032Y-64517746D01*
X51558351Y-64618268D01*
X51339943Y-64764203D01*
X51154203Y-64949943D01*
X51008268Y-65168351D01*
X50907746Y-65411032D01*
X50856500Y-65668662D01*
X47921832Y-65668662D01*
X48178201Y-65284979D01*
X48414524Y-64714446D01*
X48535000Y-64108771D01*
X48535000Y-63491229D01*
X48414524Y-62885554D01*
X48178201Y-62315021D01*
X47835114Y-61801554D01*
X47398446Y-61364886D01*
X46884979Y-61021799D01*
X46314446Y-60785476D01*
X45708771Y-60665000D01*
X45091229Y-60665000D01*
X44485554Y-60785476D01*
X43915021Y-61021799D01*
X43401554Y-61364886D01*
X42964886Y-61801554D01*
X42621799Y-62315021D01*
X42385476Y-62885554D01*
X42376569Y-62930334D01*
X42354550Y-62654958D01*
X42415356Y-62212784D01*
X42595618Y-61736337D01*
X42891312Y-61242318D01*
X43279987Y-60774143D01*
X43732191Y-60369541D01*
X44213376Y-60060767D01*
X44684281Y-59871899D01*
X45147038Y-59805739D01*
X46235217Y-59864408D01*
G36*
X114388998Y-76736201D02*
G01*
X114360000Y-76759999D01*
X114336202Y-76788997D01*
X114336201Y-76788998D01*
X114265026Y-76875724D01*
X114194454Y-77007754D01*
X114174056Y-77075000D01*
X114150998Y-77151014D01*
X114143811Y-77223985D01*
X114136324Y-77300000D01*
X114140001Y-77337332D01*
X114140000Y-81510346D01*
X113286491Y-82363855D01*
X113286491Y-82113652D01*
X113229389Y-81826579D01*
X113117379Y-81556162D01*
X113081199Y-81502015D01*
X113089692Y-81465592D01*
X113102808Y-81064947D01*
X113037509Y-80669442D01*
X112896307Y-80294275D01*
X112684626Y-79953864D01*
X112410601Y-79661290D01*
X112084763Y-79427798D01*
X111719634Y-79262360D01*
X111329246Y-79171335D01*
X110928601Y-79158219D01*
X110533096Y-79223518D01*
X110157930Y-79364720D01*
X109817519Y-79576401D01*
X109524945Y-79850426D01*
X109349964Y-80094611D01*
X108699995Y-81220390D01*
X108576015Y-81494021D01*
X108484990Y-81884409D01*
X108471874Y-82285053D01*
X108537173Y-82680558D01*
X108678375Y-83055725D01*
X108890056Y-83396136D01*
X109164081Y-83688710D01*
X109489919Y-83922202D01*
X109855048Y-84087640D01*
X110123185Y-84150160D01*
X110054800Y-84252506D01*
X109920771Y-84576082D01*
X109852443Y-84919587D01*
X109852443Y-85269823D01*
X109920771Y-85613328D01*
X110054800Y-85936904D01*
X110249380Y-86228114D01*
X110472390Y-86451124D01*
X110326886Y-86548346D01*
X110079232Y-86796000D01*
X109884652Y-87087210D01*
X109750623Y-87410786D01*
X109682295Y-87754291D01*
X109682295Y-88104527D01*
X109750623Y-88448032D01*
X109858943Y-88709541D01*
X109623209Y-88807186D01*
X109394401Y-88960071D01*
X109199816Y-89154656D01*
X109046931Y-89383464D01*
X108941622Y-89637701D01*
X108887936Y-89907599D01*
X108887936Y-90182783D01*
X108941622Y-90452681D01*
X109046931Y-90706918D01*
X109199816Y-90935726D01*
X109394401Y-91130311D01*
X109623209Y-91283196D01*
X109877446Y-91388505D01*
X110147344Y-91442191D01*
X110422528Y-91442191D01*
X110692426Y-91388505D01*
X110946663Y-91283196D01*
X111049676Y-91214365D01*
X111046381Y-91315018D01*
X111220816Y-91493070D01*
X112204652Y-91229451D01*
X112256251Y-91281050D01*
X112435859Y-91101442D01*
X112204654Y-90870237D01*
X112006776Y-90131747D01*
X111765361Y-90069708D01*
X111681936Y-90127724D01*
X111681936Y-90066007D01*
X112252121Y-90066007D01*
X112539803Y-91139648D01*
X113613444Y-90851967D01*
X113675483Y-90610552D01*
X113518369Y-90384627D01*
X113320198Y-90193695D01*
X113088586Y-90045093D01*
X112832434Y-89944531D01*
X112561584Y-89895874D01*
X112430173Y-89891572D01*
X112252121Y-90066007D01*
X111681936Y-90066007D01*
X111681936Y-89907599D01*
X111641861Y-89706126D01*
X111978918Y-89639081D01*
X112302494Y-89505052D01*
X112593704Y-89310472D01*
X112841358Y-89062818D01*
X113035938Y-88771608D01*
X113169967Y-88448032D01*
X113238295Y-88104527D01*
X113238295Y-87754291D01*
X113169967Y-87410786D01*
X113035938Y-87087210D01*
X112841358Y-86796000D01*
X112618348Y-86572990D01*
X112763852Y-86475768D01*
X113011506Y-86228114D01*
X113206086Y-85936904D01*
X113340115Y-85613328D01*
X113408443Y-85269823D01*
X113408443Y-84919587D01*
X113340115Y-84576082D01*
X113306067Y-84493882D01*
X113648627Y-84151323D01*
X113571100Y-84541076D01*
X113571100Y-85058924D01*
X113672127Y-85566822D01*
X113870299Y-86045251D01*
X114158000Y-86475826D01*
X114524174Y-86842000D01*
X114954749Y-87129701D01*
X115433178Y-87327873D01*
X115941076Y-87428900D01*
X116458924Y-87428900D01*
X116966822Y-87327873D01*
X117445251Y-87129701D01*
X117469557Y-87113460D01*
X117469557Y-87295014D01*
X117387358Y-87329062D01*
X117096148Y-87523642D01*
X116848494Y-87771296D01*
X116653914Y-88062506D01*
X116519885Y-88386082D01*
X116451557Y-88729587D01*
X116451557Y-88790069D01*
X116378328Y-88759737D01*
X116034823Y-88691409D01*
X115684587Y-88691409D01*
X115341082Y-88759737D01*
X115017506Y-88893766D01*
X114726296Y-89088346D01*
X114478642Y-89336000D01*
X114284062Y-89627210D01*
X114150033Y-89950786D01*
X114081705Y-90294291D01*
X114081705Y-90644527D01*
X114150033Y-90988032D01*
X114236248Y-91196173D01*
X114207574Y-91201877D01*
X113953337Y-91307186D01*
X113850324Y-91376017D01*
X113853619Y-91275364D01*
X113679184Y-91097312D01*
X112695348Y-91360931D01*
X112643749Y-91309332D01*
X112464141Y-91488940D01*
X112695346Y-91720145D01*
X112712775Y-91785191D01*
X112449815Y-91785191D01*
X112384260Y-91540539D01*
X112435859Y-91488940D01*
X112256251Y-91309332D01*
X112025046Y-91540537D01*
X111286556Y-91738415D01*
X111274535Y-91785191D01*
X109359993Y-91785191D01*
X108323272Y-90748471D01*
X108333752Y-90713922D01*
X108346012Y-90589440D01*
X108346012Y-89390560D01*
X108333752Y-89266078D01*
X108297442Y-89146380D01*
X108238477Y-89036066D01*
X108160000Y-88940441D01*
X108160000Y-87523451D01*
X108301898Y-87495226D01*
X108490256Y-87417205D01*
X108659774Y-87303937D01*
X108803937Y-87159774D01*
X108917205Y-86990256D01*
X108995226Y-86801898D01*
X109035000Y-86601939D01*
X109035000Y-86398061D01*
X108995226Y-86198102D01*
X108917205Y-86009744D01*
X108803937Y-85840226D01*
X108659774Y-85696063D01*
X108490256Y-85582795D01*
X108301898Y-85504774D01*
X108101939Y-85465000D01*
X107898061Y-85465000D01*
X107698102Y-85504774D01*
X107509744Y-85582795D01*
X107340226Y-85696063D01*
X107196063Y-85840226D01*
X107082795Y-86009744D01*
X107004774Y-86198102D01*
X106965000Y-86398061D01*
X106965000Y-86460199D01*
X106889002Y-86536197D01*
X106859999Y-86559999D01*
X106818443Y-86610636D01*
X106765026Y-86675724D01*
X106720921Y-86758239D01*
X106694454Y-86807754D01*
X106650997Y-86951015D01*
X106640000Y-87062668D01*
X106640000Y-87062678D01*
X106636324Y-87100000D01*
X106640000Y-87137323D01*
X106640001Y-88815062D01*
X106555886Y-88860023D01*
X106459195Y-88939375D01*
X106410000Y-88999319D01*
X106360805Y-88939375D01*
X106264114Y-88860023D01*
X106153800Y-88801058D01*
X106034102Y-88764748D01*
X105909620Y-88752488D01*
X105112060Y-88752488D01*
X104987578Y-88764748D01*
X104867880Y-88801058D01*
X104757566Y-88860023D01*
X104677396Y-88925817D01*
X103325005Y-87573426D01*
X103326078Y-87573752D01*
X103450560Y-87586012D01*
X104649440Y-87586012D01*
X104773922Y-87573752D01*
X104893620Y-87537442D01*
X105003934Y-87478477D01*
X105081430Y-87414878D01*
X105159744Y-87467205D01*
X105348102Y-87545226D01*
X105548061Y-87585000D01*
X105751939Y-87585000D01*
X105951898Y-87545226D01*
X106140256Y-87467205D01*
X106309774Y-87353937D01*
X106453937Y-87209774D01*
X106567205Y-87040256D01*
X106645226Y-86851898D01*
X106685000Y-86651939D01*
X106685000Y-86448061D01*
X106645226Y-86248102D01*
X106567205Y-86059744D01*
X106453937Y-85890226D01*
X106309774Y-85746063D01*
X106140256Y-85632795D01*
X105951898Y-85554774D01*
X105751939Y-85515000D01*
X105548061Y-85515000D01*
X105348102Y-85554774D01*
X105159744Y-85632795D01*
X105082559Y-85684368D01*
X105040681Y-85650000D01*
X105100625Y-85600805D01*
X105179977Y-85504114D01*
X105238942Y-85393800D01*
X105275252Y-85274102D01*
X105287512Y-85149620D01*
X105287512Y-84352060D01*
X105275252Y-84227578D01*
X105238942Y-84107880D01*
X105179977Y-83997566D01*
X105100625Y-83900875D01*
X105003934Y-83821523D01*
X104985000Y-83811402D01*
X104985000Y-83566578D01*
X109666579Y-78885000D01*
X111656531Y-78885000D01*
X111700000Y-78889281D01*
X111743469Y-78885000D01*
X111743477Y-78885000D01*
X111873490Y-78872195D01*
X112040313Y-78821589D01*
X112194059Y-78739411D01*
X112328817Y-78628817D01*
X112356534Y-78595044D01*
X114545044Y-76406535D01*
X114601898Y-76395226D01*
X114790256Y-76317205D01*
X114843712Y-76281487D01*
X114388998Y-76736201D01*
G37*
X114388998Y-76736201D02*
X114360000Y-76759999D01*
X114336202Y-76788997D01*
X114336201Y-76788998D01*
X114265026Y-76875724D01*
X114194454Y-77007754D01*
X114174056Y-77075000D01*
X114150998Y-77151014D01*
X114143811Y-77223985D01*
X114136324Y-77300000D01*
X114140001Y-77337332D01*
X114140000Y-81510346D01*
X113286491Y-82363855D01*
X113286491Y-82113652D01*
X113229389Y-81826579D01*
X113117379Y-81556162D01*
X113081199Y-81502015D01*
X113089692Y-81465592D01*
X113102808Y-81064947D01*
X113037509Y-80669442D01*
X112896307Y-80294275D01*
X112684626Y-79953864D01*
X112410601Y-79661290D01*
X112084763Y-79427798D01*
X111719634Y-79262360D01*
X111329246Y-79171335D01*
X110928601Y-79158219D01*
X110533096Y-79223518D01*
X110157930Y-79364720D01*
X109817519Y-79576401D01*
X109524945Y-79850426D01*
X109349964Y-80094611D01*
X108699995Y-81220390D01*
X108576015Y-81494021D01*
X108484990Y-81884409D01*
X108471874Y-82285053D01*
X108537173Y-82680558D01*
X108678375Y-83055725D01*
X108890056Y-83396136D01*
X109164081Y-83688710D01*
X109489919Y-83922202D01*
X109855048Y-84087640D01*
X110123185Y-84150160D01*
X110054800Y-84252506D01*
X109920771Y-84576082D01*
X109852443Y-84919587D01*
X109852443Y-85269823D01*
X109920771Y-85613328D01*
X110054800Y-85936904D01*
X110249380Y-86228114D01*
X110472390Y-86451124D01*
X110326886Y-86548346D01*
X110079232Y-86796000D01*
X109884652Y-87087210D01*
X109750623Y-87410786D01*
X109682295Y-87754291D01*
X109682295Y-88104527D01*
X109750623Y-88448032D01*
X109858943Y-88709541D01*
X109623209Y-88807186D01*
X109394401Y-88960071D01*
X109199816Y-89154656D01*
X109046931Y-89383464D01*
X108941622Y-89637701D01*
X108887936Y-89907599D01*
X108887936Y-90182783D01*
X108941622Y-90452681D01*
X109046931Y-90706918D01*
X109199816Y-90935726D01*
X109394401Y-91130311D01*
X109623209Y-91283196D01*
X109877446Y-91388505D01*
X110147344Y-91442191D01*
X110422528Y-91442191D01*
X110692426Y-91388505D01*
X110946663Y-91283196D01*
X111049676Y-91214365D01*
X111046381Y-91315018D01*
X111220816Y-91493070D01*
X112204652Y-91229451D01*
X112256251Y-91281050D01*
X112435859Y-91101442D01*
X112204654Y-90870237D01*
X112006776Y-90131747D01*
X111765361Y-90069708D01*
X111681936Y-90127724D01*
X111681936Y-90066007D01*
X112252121Y-90066007D01*
X112539803Y-91139648D01*
X113613444Y-90851967D01*
X113675483Y-90610552D01*
X113518369Y-90384627D01*
X113320198Y-90193695D01*
X113088586Y-90045093D01*
X112832434Y-89944531D01*
X112561584Y-89895874D01*
X112430173Y-89891572D01*
X112252121Y-90066007D01*
X111681936Y-90066007D01*
X111681936Y-89907599D01*
X111641861Y-89706126D01*
X111978918Y-89639081D01*
X112302494Y-89505052D01*
X112593704Y-89310472D01*
X112841358Y-89062818D01*
X113035938Y-88771608D01*
X113169967Y-88448032D01*
X113238295Y-88104527D01*
X113238295Y-87754291D01*
X113169967Y-87410786D01*
X113035938Y-87087210D01*
X112841358Y-86796000D01*
X112618348Y-86572990D01*
X112763852Y-86475768D01*
X113011506Y-86228114D01*
X113206086Y-85936904D01*
X113340115Y-85613328D01*
X113408443Y-85269823D01*
X113408443Y-84919587D01*
X113340115Y-84576082D01*
X113306067Y-84493882D01*
X113648627Y-84151323D01*
X113571100Y-84541076D01*
X113571100Y-85058924D01*
X113672127Y-85566822D01*
X113870299Y-86045251D01*
X114158000Y-86475826D01*
X114524174Y-86842000D01*
X114954749Y-87129701D01*
X115433178Y-87327873D01*
X115941076Y-87428900D01*
X116458924Y-87428900D01*
X116966822Y-87327873D01*
X117445251Y-87129701D01*
X117469557Y-87113460D01*
X117469557Y-87295014D01*
X117387358Y-87329062D01*
X117096148Y-87523642D01*
X116848494Y-87771296D01*
X116653914Y-88062506D01*
X116519885Y-88386082D01*
X116451557Y-88729587D01*
X116451557Y-88790069D01*
X116378328Y-88759737D01*
X116034823Y-88691409D01*
X115684587Y-88691409D01*
X115341082Y-88759737D01*
X115017506Y-88893766D01*
X114726296Y-89088346D01*
X114478642Y-89336000D01*
X114284062Y-89627210D01*
X114150033Y-89950786D01*
X114081705Y-90294291D01*
X114081705Y-90644527D01*
X114150033Y-90988032D01*
X114236248Y-91196173D01*
X114207574Y-91201877D01*
X113953337Y-91307186D01*
X113850324Y-91376017D01*
X113853619Y-91275364D01*
X113679184Y-91097312D01*
X112695348Y-91360931D01*
X112643749Y-91309332D01*
X112464141Y-91488940D01*
X112695346Y-91720145D01*
X112712775Y-91785191D01*
X112449815Y-91785191D01*
X112384260Y-91540539D01*
X112435859Y-91488940D01*
X112256251Y-91309332D01*
X112025046Y-91540537D01*
X111286556Y-91738415D01*
X111274535Y-91785191D01*
X109359993Y-91785191D01*
X108323272Y-90748471D01*
X108333752Y-90713922D01*
X108346012Y-90589440D01*
X108346012Y-89390560D01*
X108333752Y-89266078D01*
X108297442Y-89146380D01*
X108238477Y-89036066D01*
X108160000Y-88940441D01*
X108160000Y-87523451D01*
X108301898Y-87495226D01*
X108490256Y-87417205D01*
X108659774Y-87303937D01*
X108803937Y-87159774D01*
X108917205Y-86990256D01*
X108995226Y-86801898D01*
X109035000Y-86601939D01*
X109035000Y-86398061D01*
X108995226Y-86198102D01*
X108917205Y-86009744D01*
X108803937Y-85840226D01*
X108659774Y-85696063D01*
X108490256Y-85582795D01*
X108301898Y-85504774D01*
X108101939Y-85465000D01*
X107898061Y-85465000D01*
X107698102Y-85504774D01*
X107509744Y-85582795D01*
X107340226Y-85696063D01*
X107196063Y-85840226D01*
X107082795Y-86009744D01*
X107004774Y-86198102D01*
X106965000Y-86398061D01*
X106965000Y-86460199D01*
X106889002Y-86536197D01*
X106859999Y-86559999D01*
X106818443Y-86610636D01*
X106765026Y-86675724D01*
X106720921Y-86758239D01*
X106694454Y-86807754D01*
X106650997Y-86951015D01*
X106640000Y-87062668D01*
X106640000Y-87062678D01*
X106636324Y-87100000D01*
X106640000Y-87137323D01*
X106640001Y-88815062D01*
X106555886Y-88860023D01*
X106459195Y-88939375D01*
X106410000Y-88999319D01*
X106360805Y-88939375D01*
X106264114Y-88860023D01*
X106153800Y-88801058D01*
X106034102Y-88764748D01*
X105909620Y-88752488D01*
X105112060Y-88752488D01*
X104987578Y-88764748D01*
X104867880Y-88801058D01*
X104757566Y-88860023D01*
X104677396Y-88925817D01*
X103325005Y-87573426D01*
X103326078Y-87573752D01*
X103450560Y-87586012D01*
X104649440Y-87586012D01*
X104773922Y-87573752D01*
X104893620Y-87537442D01*
X105003934Y-87478477D01*
X105081430Y-87414878D01*
X105159744Y-87467205D01*
X105348102Y-87545226D01*
X105548061Y-87585000D01*
X105751939Y-87585000D01*
X105951898Y-87545226D01*
X106140256Y-87467205D01*
X106309774Y-87353937D01*
X106453937Y-87209774D01*
X106567205Y-87040256D01*
X106645226Y-86851898D01*
X106685000Y-86651939D01*
X106685000Y-86448061D01*
X106645226Y-86248102D01*
X106567205Y-86059744D01*
X106453937Y-85890226D01*
X106309774Y-85746063D01*
X106140256Y-85632795D01*
X105951898Y-85554774D01*
X105751939Y-85515000D01*
X105548061Y-85515000D01*
X105348102Y-85554774D01*
X105159744Y-85632795D01*
X105082559Y-85684368D01*
X105040681Y-85650000D01*
X105100625Y-85600805D01*
X105179977Y-85504114D01*
X105238942Y-85393800D01*
X105275252Y-85274102D01*
X105287512Y-85149620D01*
X105287512Y-84352060D01*
X105275252Y-84227578D01*
X105238942Y-84107880D01*
X105179977Y-83997566D01*
X105100625Y-83900875D01*
X105003934Y-83821523D01*
X104985000Y-83811402D01*
X104985000Y-83566578D01*
X109666579Y-78885000D01*
X111656531Y-78885000D01*
X111700000Y-78889281D01*
X111743469Y-78885000D01*
X111743477Y-78885000D01*
X111873490Y-78872195D01*
X112040313Y-78821589D01*
X112194059Y-78739411D01*
X112328817Y-78628817D01*
X112356534Y-78595044D01*
X114545044Y-76406535D01*
X114601898Y-76395226D01*
X114790256Y-76317205D01*
X114843712Y-76281487D01*
X114388998Y-76736201D01*
G36*
X116137936Y-77350230D02*
G01*
X116137936Y-77625414D01*
X116191622Y-77895312D01*
X116296931Y-78149549D01*
X116449816Y-78378357D01*
X116644401Y-78572942D01*
X116780986Y-78664206D01*
X116783082Y-78685476D01*
X116785934Y-78714437D01*
X116829390Y-78857698D01*
X116899962Y-78989728D01*
X116965183Y-79069199D01*
X116994936Y-79105453D01*
X117023934Y-79129251D01*
X118940000Y-81045318D01*
X118940001Y-85285196D01*
X118745129Y-85480068D01*
X118828900Y-85058924D01*
X118828900Y-84541076D01*
X118727873Y-84033178D01*
X118529701Y-83554749D01*
X118242000Y-83124174D01*
X117875826Y-82758000D01*
X117445251Y-82470299D01*
X116966822Y-82272127D01*
X116458924Y-82171100D01*
X115941076Y-82171100D01*
X115532567Y-82252357D01*
X115534974Y-82249424D01*
X115605546Y-82117395D01*
X115649003Y-81974134D01*
X115660000Y-81862481D01*
X115660000Y-81862471D01*
X115663676Y-81825148D01*
X115660000Y-81787825D01*
X115660000Y-77614801D01*
X116190915Y-77083886D01*
X116137936Y-77350230D01*
G37*
X116137936Y-77350230D02*
X116137936Y-77625414D01*
X116191622Y-77895312D01*
X116296931Y-78149549D01*
X116449816Y-78378357D01*
X116644401Y-78572942D01*
X116780986Y-78664206D01*
X116783082Y-78685476D01*
X116785934Y-78714437D01*
X116829390Y-78857698D01*
X116899962Y-78989728D01*
X116965183Y-79069199D01*
X116994936Y-79105453D01*
X117023934Y-79129251D01*
X118940000Y-81045318D01*
X118940001Y-85285196D01*
X118745129Y-85480068D01*
X118828900Y-85058924D01*
X118828900Y-84541076D01*
X118727873Y-84033178D01*
X118529701Y-83554749D01*
X118242000Y-83124174D01*
X117875826Y-82758000D01*
X117445251Y-82470299D01*
X116966822Y-82272127D01*
X116458924Y-82171100D01*
X115941076Y-82171100D01*
X115532567Y-82252357D01*
X115534974Y-82249424D01*
X115605546Y-82117395D01*
X115649003Y-81974134D01*
X115660000Y-81862481D01*
X115660000Y-81862471D01*
X115663676Y-81825148D01*
X115660000Y-81787825D01*
X115660000Y-77614801D01*
X116190915Y-77083886D01*
X116137936Y-77350230D01*
G36*
X121386201Y-74761003D02*
G01*
X121409999Y-74790001D01*
X121525724Y-74884974D01*
X121657753Y-74955546D01*
X121801014Y-74999003D01*
X121912667Y-75010000D01*
X121912676Y-75010000D01*
X121949999Y-75013676D01*
X121987322Y-75010000D01*
X124512678Y-75010000D01*
X124550000Y-75013676D01*
X124587322Y-75010000D01*
X124587333Y-75010000D01*
X124698986Y-74999003D01*
X124842247Y-74955546D01*
X124974276Y-74884974D01*
X125090001Y-74790001D01*
X125113804Y-74760997D01*
X125490011Y-74384790D01*
X125490012Y-77113605D01*
X124575729Y-76585744D01*
X124461794Y-76534121D01*
X124339978Y-76505718D01*
X124214961Y-76501625D01*
X124091548Y-76522001D01*
X124011578Y-76552100D01*
X123971127Y-76508910D01*
X123869453Y-76436051D01*
X122743619Y-75786051D01*
X122629685Y-75734428D01*
X122507868Y-75706025D01*
X122382851Y-75701932D01*
X122259438Y-75722308D01*
X122142371Y-75766369D01*
X122036149Y-75832421D01*
X121944855Y-75917928D01*
X121871996Y-76019602D01*
X121396996Y-76842326D01*
X121345373Y-76956261D01*
X121316970Y-77078077D01*
X121312877Y-77203094D01*
X121333253Y-77326507D01*
X121377314Y-77443574D01*
X121443367Y-77549796D01*
X121528873Y-77641090D01*
X121630547Y-77713949D01*
X122756381Y-78363949D01*
X122870315Y-78415572D01*
X122927944Y-78429009D01*
X122941863Y-78513314D01*
X122985924Y-78630381D01*
X123051977Y-78736603D01*
X123137483Y-78827897D01*
X123239157Y-78900756D01*
X124448995Y-79599256D01*
X124562930Y-79650879D01*
X124684746Y-79679282D01*
X124809763Y-79683375D01*
X124933176Y-79662999D01*
X125050243Y-79618938D01*
X125156465Y-79552885D01*
X125247759Y-79467379D01*
X125320618Y-79365705D01*
X125490012Y-79072306D01*
X125490012Y-79535186D01*
X120460000Y-84565199D01*
X120460000Y-80767839D01*
X120463676Y-80730516D01*
X120460000Y-80693193D01*
X120460000Y-80693183D01*
X120449003Y-80581530D01*
X120405546Y-80438269D01*
X120334974Y-80306240D01*
X120240001Y-80190515D01*
X120211004Y-80166718D01*
X119894516Y-79850230D01*
X120468064Y-79850230D01*
X120468064Y-80125414D01*
X120521750Y-80395312D01*
X120627059Y-80649549D01*
X120779944Y-80878357D01*
X120974529Y-81072942D01*
X121203337Y-81225827D01*
X121457574Y-81331136D01*
X121727472Y-81384822D01*
X122002656Y-81384822D01*
X122272554Y-81331136D01*
X122526791Y-81225827D01*
X122755599Y-81072942D01*
X122950184Y-80878357D01*
X123103069Y-80649549D01*
X123208378Y-80395312D01*
X123262064Y-80125414D01*
X123262064Y-79850230D01*
X123208378Y-79580332D01*
X123103069Y-79326095D01*
X122950184Y-79097287D01*
X122755599Y-78902702D01*
X122526791Y-78749817D01*
X122272554Y-78644508D01*
X122002656Y-78590822D01*
X121727472Y-78590822D01*
X121457574Y-78644508D01*
X121203337Y-78749817D01*
X120974529Y-78902702D01*
X120779944Y-79097287D01*
X120627059Y-79326095D01*
X120521750Y-79580332D01*
X120468064Y-79850230D01*
X119894516Y-79850230D01*
X118521349Y-78477064D01*
X118620056Y-78378357D01*
X118772941Y-78149549D01*
X118878250Y-77895312D01*
X118931936Y-77625414D01*
X118931936Y-77350230D01*
X118878250Y-77080332D01*
X118772941Y-76826095D01*
X118620056Y-76597287D01*
X118425471Y-76402702D01*
X118196663Y-76249817D01*
X117942426Y-76144508D01*
X117672528Y-76090822D01*
X117397344Y-76090822D01*
X117131001Y-76143801D01*
X117679227Y-75595575D01*
X117781910Y-75616000D01*
X118044586Y-75616000D01*
X118159622Y-75593118D01*
X118187471Y-75615973D01*
X118311410Y-75682221D01*
X118368977Y-75774796D01*
X118454483Y-75866090D01*
X118556157Y-75938949D01*
X119681991Y-76588949D01*
X119795925Y-76640572D01*
X119917742Y-76668975D01*
X120042759Y-76673068D01*
X120166172Y-76652692D01*
X120283239Y-76608631D01*
X120389461Y-76542579D01*
X120480755Y-76457072D01*
X120553614Y-76355398D01*
X121028614Y-75532674D01*
X121080237Y-75418739D01*
X121108640Y-75296923D01*
X121112733Y-75171906D01*
X121092357Y-75048493D01*
X121048296Y-74931426D01*
X120982243Y-74825204D01*
X120896737Y-74733910D01*
X120795063Y-74661051D01*
X119669229Y-74011051D01*
X119555295Y-73959428D01*
X119433478Y-73931025D01*
X119308461Y-73926932D01*
X119205526Y-73943927D01*
X119195502Y-73893532D01*
X119191968Y-73885000D01*
X120510199Y-73885000D01*
X121386201Y-74761003D01*
G37*
X121386201Y-74761003D02*
X121409999Y-74790001D01*
X121525724Y-74884974D01*
X121657753Y-74955546D01*
X121801014Y-74999003D01*
X121912667Y-75010000D01*
X121912676Y-75010000D01*
X121949999Y-75013676D01*
X121987322Y-75010000D01*
X124512678Y-75010000D01*
X124550000Y-75013676D01*
X124587322Y-75010000D01*
X124587333Y-75010000D01*
X124698986Y-74999003D01*
X124842247Y-74955546D01*
X124974276Y-74884974D01*
X125090001Y-74790001D01*
X125113804Y-74760997D01*
X125490011Y-74384790D01*
X125490012Y-77113605D01*
X124575729Y-76585744D01*
X124461794Y-76534121D01*
X124339978Y-76505718D01*
X124214961Y-76501625D01*
X124091548Y-76522001D01*
X124011578Y-76552100D01*
X123971127Y-76508910D01*
X123869453Y-76436051D01*
X122743619Y-75786051D01*
X122629685Y-75734428D01*
X122507868Y-75706025D01*
X122382851Y-75701932D01*
X122259438Y-75722308D01*
X122142371Y-75766369D01*
X122036149Y-75832421D01*
X121944855Y-75917928D01*
X121871996Y-76019602D01*
X121396996Y-76842326D01*
X121345373Y-76956261D01*
X121316970Y-77078077D01*
X121312877Y-77203094D01*
X121333253Y-77326507D01*
X121377314Y-77443574D01*
X121443367Y-77549796D01*
X121528873Y-77641090D01*
X121630547Y-77713949D01*
X122756381Y-78363949D01*
X122870315Y-78415572D01*
X122927944Y-78429009D01*
X122941863Y-78513314D01*
X122985924Y-78630381D01*
X123051977Y-78736603D01*
X123137483Y-78827897D01*
X123239157Y-78900756D01*
X124448995Y-79599256D01*
X124562930Y-79650879D01*
X124684746Y-79679282D01*
X124809763Y-79683375D01*
X124933176Y-79662999D01*
X125050243Y-79618938D01*
X125156465Y-79552885D01*
X125247759Y-79467379D01*
X125320618Y-79365705D01*
X125490012Y-79072306D01*
X125490012Y-79535186D01*
X120460000Y-84565199D01*
X120460000Y-80767839D01*
X120463676Y-80730516D01*
X120460000Y-80693193D01*
X120460000Y-80693183D01*
X120449003Y-80581530D01*
X120405546Y-80438269D01*
X120334974Y-80306240D01*
X120240001Y-80190515D01*
X120211004Y-80166718D01*
X119894516Y-79850230D01*
X120468064Y-79850230D01*
X120468064Y-80125414D01*
X120521750Y-80395312D01*
X120627059Y-80649549D01*
X120779944Y-80878357D01*
X120974529Y-81072942D01*
X121203337Y-81225827D01*
X121457574Y-81331136D01*
X121727472Y-81384822D01*
X122002656Y-81384822D01*
X122272554Y-81331136D01*
X122526791Y-81225827D01*
X122755599Y-81072942D01*
X122950184Y-80878357D01*
X123103069Y-80649549D01*
X123208378Y-80395312D01*
X123262064Y-80125414D01*
X123262064Y-79850230D01*
X123208378Y-79580332D01*
X123103069Y-79326095D01*
X122950184Y-79097287D01*
X122755599Y-78902702D01*
X122526791Y-78749817D01*
X122272554Y-78644508D01*
X122002656Y-78590822D01*
X121727472Y-78590822D01*
X121457574Y-78644508D01*
X121203337Y-78749817D01*
X120974529Y-78902702D01*
X120779944Y-79097287D01*
X120627059Y-79326095D01*
X120521750Y-79580332D01*
X120468064Y-79850230D01*
X119894516Y-79850230D01*
X118521349Y-78477064D01*
X118620056Y-78378357D01*
X118772941Y-78149549D01*
X118878250Y-77895312D01*
X118931936Y-77625414D01*
X118931936Y-77350230D01*
X118878250Y-77080332D01*
X118772941Y-76826095D01*
X118620056Y-76597287D01*
X118425471Y-76402702D01*
X118196663Y-76249817D01*
X117942426Y-76144508D01*
X117672528Y-76090822D01*
X117397344Y-76090822D01*
X117131001Y-76143801D01*
X117679227Y-75595575D01*
X117781910Y-75616000D01*
X118044586Y-75616000D01*
X118159622Y-75593118D01*
X118187471Y-75615973D01*
X118311410Y-75682221D01*
X118368977Y-75774796D01*
X118454483Y-75866090D01*
X118556157Y-75938949D01*
X119681991Y-76588949D01*
X119795925Y-76640572D01*
X119917742Y-76668975D01*
X120042759Y-76673068D01*
X120166172Y-76652692D01*
X120283239Y-76608631D01*
X120389461Y-76542579D01*
X120480755Y-76457072D01*
X120553614Y-76355398D01*
X121028614Y-75532674D01*
X121080237Y-75418739D01*
X121108640Y-75296923D01*
X121112733Y-75171906D01*
X121092357Y-75048493D01*
X121048296Y-74931426D01*
X120982243Y-74825204D01*
X120896737Y-74733910D01*
X120795063Y-74661051D01*
X119669229Y-74011051D01*
X119555295Y-73959428D01*
X119433478Y-73931025D01*
X119308461Y-73926932D01*
X119205526Y-73943927D01*
X119195502Y-73893532D01*
X119191968Y-73885000D01*
X120510199Y-73885000D01*
X121386201Y-74761003D01*
G36*
X133186371Y-75946221D02*
G01*
X132884667Y-79474028D01*
X132880958Y-79512314D01*
X132876934Y-79548546D01*
X132872541Y-79583033D01*
X132867751Y-79615875D01*
X132862536Y-79647213D01*
X132856852Y-79677277D01*
X132852181Y-79699147D01*
X132326670Y-81080122D01*
X131935000Y-81852508D01*
X131935000Y-81391229D01*
X131814524Y-80785554D01*
X131578201Y-80215021D01*
X131235114Y-79701554D01*
X130798446Y-79264886D01*
X130284979Y-78921799D01*
X129714446Y-78685476D01*
X129108771Y-78565000D01*
X128491229Y-78565000D01*
X127885554Y-78685476D01*
X127315021Y-78921799D01*
X127010011Y-79125600D01*
X127010011Y-72499594D01*
X127286525Y-72576346D01*
X127685003Y-72611208D01*
X127803360Y-71258376D01*
X127783436Y-71256633D01*
X127805574Y-71003599D01*
X127825498Y-71005342D01*
X127827241Y-70985418D01*
X128080275Y-71007556D01*
X128078532Y-71027480D01*
X128098456Y-71029223D01*
X128076318Y-71282257D01*
X128056394Y-71280514D01*
X127938036Y-72633346D01*
X128336514Y-72668208D01*
X128627336Y-72640138D01*
X128907094Y-72555871D01*
X129165037Y-72418645D01*
X129347487Y-72269507D01*
X129387973Y-72328691D01*
X129597059Y-72533265D01*
X129842040Y-72693117D01*
X130113497Y-72802105D01*
X130328955Y-72842524D01*
X131271255Y-72924964D01*
X131490458Y-72922572D01*
X131776717Y-72862378D01*
X132045733Y-72747494D01*
X132287166Y-72582336D01*
X132491739Y-72373250D01*
X132651592Y-72128269D01*
X132760580Y-71856812D01*
X132814514Y-71569308D01*
X132811323Y-71276807D01*
X132751129Y-70990548D01*
X132636245Y-70721532D01*
X132599290Y-70667511D01*
X132784071Y-70704266D01*
X133027345Y-70704266D01*
X133265944Y-70656806D01*
X133490700Y-70563709D01*
X133640432Y-70463661D01*
X133186371Y-75946221D01*
G37*
X133186371Y-75946221D02*
X132884667Y-79474028D01*
X132880958Y-79512314D01*
X132876934Y-79548546D01*
X132872541Y-79583033D01*
X132867751Y-79615875D01*
X132862536Y-79647213D01*
X132856852Y-79677277D01*
X132852181Y-79699147D01*
X132326670Y-81080122D01*
X131935000Y-81852508D01*
X131935000Y-81391229D01*
X131814524Y-80785554D01*
X131578201Y-80215021D01*
X131235114Y-79701554D01*
X130798446Y-79264886D01*
X130284979Y-78921799D01*
X129714446Y-78685476D01*
X129108771Y-78565000D01*
X128491229Y-78565000D01*
X127885554Y-78685476D01*
X127315021Y-78921799D01*
X127010011Y-79125600D01*
X127010011Y-72499594D01*
X127286525Y-72576346D01*
X127685003Y-72611208D01*
X127803360Y-71258376D01*
X127783436Y-71256633D01*
X127805574Y-71003599D01*
X127825498Y-71005342D01*
X127827241Y-70985418D01*
X128080275Y-71007556D01*
X128078532Y-71027480D01*
X128098456Y-71029223D01*
X128076318Y-71282257D01*
X128056394Y-71280514D01*
X127938036Y-72633346D01*
X128336514Y-72668208D01*
X128627336Y-72640138D01*
X128907094Y-72555871D01*
X129165037Y-72418645D01*
X129347487Y-72269507D01*
X129387973Y-72328691D01*
X129597059Y-72533265D01*
X129842040Y-72693117D01*
X130113497Y-72802105D01*
X130328955Y-72842524D01*
X131271255Y-72924964D01*
X131490458Y-72922572D01*
X131776717Y-72862378D01*
X132045733Y-72747494D01*
X132287166Y-72582336D01*
X132491739Y-72373250D01*
X132651592Y-72128269D01*
X132760580Y-71856812D01*
X132814514Y-71569308D01*
X132811323Y-71276807D01*
X132751129Y-70990548D01*
X132636245Y-70721532D01*
X132599290Y-70667511D01*
X132784071Y-70704266D01*
X133027345Y-70704266D01*
X133265944Y-70656806D01*
X133490700Y-70563709D01*
X133640432Y-70463661D01*
X133186371Y-75946221D01*
G36*
X115181487Y-75943711D02*
G01*
X115217205Y-75890256D01*
X115295226Y-75701898D01*
X115335000Y-75501939D01*
X115335000Y-75298061D01*
X115295226Y-75098102D01*
X115227666Y-74935000D01*
X116087678Y-74935000D01*
X116125000Y-74938676D01*
X116162322Y-74935000D01*
X116162333Y-74935000D01*
X116193243Y-74931956D01*
X115181487Y-75943711D01*
G37*
X115181487Y-75943711D02*
X115217205Y-75890256D01*
X115295226Y-75701898D01*
X115335000Y-75501939D01*
X115335000Y-75298061D01*
X115295226Y-75098102D01*
X115227666Y-74935000D01*
X116087678Y-74935000D01*
X116125000Y-74938676D01*
X116162322Y-74935000D01*
X116162333Y-74935000D01*
X116193243Y-74931956D01*
X115181487Y-75943711D01*
G36*
X93037569Y-67424930D02*
G01*
X92986323Y-67682560D01*
X92986323Y-67945236D01*
X93037569Y-68202866D01*
X93138091Y-68445547D01*
X93284026Y-68663955D01*
X93469766Y-68849695D01*
X93688174Y-68995630D01*
X93930855Y-69096152D01*
X94188485Y-69147398D01*
X94451161Y-69147398D01*
X94708791Y-69096152D01*
X94951472Y-68995630D01*
X94994193Y-68967085D01*
X95054963Y-69051888D01*
X95146257Y-69137395D01*
X95252479Y-69203447D01*
X95369546Y-69247508D01*
X96625250Y-69583973D01*
X96748663Y-69604349D01*
X96873680Y-69600256D01*
X96995496Y-69571853D01*
X97109431Y-69520230D01*
X97211105Y-69447371D01*
X97296612Y-69356077D01*
X97362664Y-69249855D01*
X97406725Y-69132788D01*
X97618855Y-68341107D01*
X97634485Y-68289582D01*
X97635545Y-68278821D01*
X97652603Y-68215159D01*
X97672979Y-68091746D01*
X97668886Y-67966729D01*
X97640483Y-67844913D01*
X97588860Y-67730978D01*
X97516001Y-67629304D01*
X97424707Y-67543797D01*
X97318485Y-67477745D01*
X97201418Y-67433684D01*
X96926428Y-67360001D01*
X100685200Y-67360001D01*
X101624603Y-68299404D01*
X101261259Y-68299404D01*
X101227995Y-68293912D01*
X101102978Y-68298005D01*
X101096978Y-68299404D01*
X100432327Y-68299404D01*
X99374750Y-68016027D01*
X99251337Y-67995651D01*
X99126320Y-67999744D01*
X99004504Y-68028147D01*
X98890569Y-68079770D01*
X98788895Y-68152629D01*
X98703388Y-68243923D01*
X98637336Y-68350145D01*
X98593275Y-68467212D01*
X98347397Y-69384841D01*
X98327021Y-69508254D01*
X98331114Y-69633271D01*
X98359517Y-69755087D01*
X98411140Y-69869022D01*
X98483999Y-69970696D01*
X98575293Y-70056203D01*
X98681515Y-70122255D01*
X98798582Y-70166316D01*
X100054286Y-70502781D01*
X100177699Y-70523157D01*
X100236841Y-70521221D01*
X100247260Y-70544216D01*
X98951477Y-71840000D01*
X93302115Y-71840000D01*
X93326519Y-71815596D01*
X93450731Y-71629700D01*
X93536290Y-71423143D01*
X93579907Y-71203864D01*
X93579907Y-70980288D01*
X93536290Y-70761009D01*
X93450731Y-70554452D01*
X93326519Y-70368556D01*
X93168427Y-70210464D01*
X92982531Y-70086252D01*
X92775974Y-70000693D01*
X92556695Y-69957076D01*
X92333119Y-69957076D01*
X92113840Y-70000693D01*
X91907283Y-70086252D01*
X91721387Y-70210464D01*
X91563295Y-70368556D01*
X91439083Y-70554452D01*
X91353524Y-70761009D01*
X91309907Y-70980288D01*
X91309907Y-71203864D01*
X91353524Y-71423143D01*
X91439083Y-71629700D01*
X91563295Y-71815596D01*
X91587699Y-71840000D01*
X90037333Y-71840000D01*
X90000000Y-71836323D01*
X89962667Y-71840000D01*
X89851014Y-71850997D01*
X89707753Y-71894454D01*
X89575724Y-71965026D01*
X89459999Y-72059999D01*
X89436201Y-72088997D01*
X88685199Y-72840000D01*
X88042151Y-72840000D01*
X88498446Y-72535114D01*
X88935114Y-72098446D01*
X89278201Y-71584979D01*
X89514524Y-71014446D01*
X89635000Y-70408771D01*
X89635000Y-69791229D01*
X89514524Y-69185554D01*
X89278201Y-68615021D01*
X88935114Y-68101554D01*
X88498446Y-67664886D01*
X88042150Y-67360000D01*
X93064464Y-67360000D01*
X93037569Y-67424930D01*
G37*
X93037569Y-67424930D02*
X92986323Y-67682560D01*
X92986323Y-67945236D01*
X93037569Y-68202866D01*
X93138091Y-68445547D01*
X93284026Y-68663955D01*
X93469766Y-68849695D01*
X93688174Y-68995630D01*
X93930855Y-69096152D01*
X94188485Y-69147398D01*
X94451161Y-69147398D01*
X94708791Y-69096152D01*
X94951472Y-68995630D01*
X94994193Y-68967085D01*
X95054963Y-69051888D01*
X95146257Y-69137395D01*
X95252479Y-69203447D01*
X95369546Y-69247508D01*
X96625250Y-69583973D01*
X96748663Y-69604349D01*
X96873680Y-69600256D01*
X96995496Y-69571853D01*
X97109431Y-69520230D01*
X97211105Y-69447371D01*
X97296612Y-69356077D01*
X97362664Y-69249855D01*
X97406725Y-69132788D01*
X97618855Y-68341107D01*
X97634485Y-68289582D01*
X97635545Y-68278821D01*
X97652603Y-68215159D01*
X97672979Y-68091746D01*
X97668886Y-67966729D01*
X97640483Y-67844913D01*
X97588860Y-67730978D01*
X97516001Y-67629304D01*
X97424707Y-67543797D01*
X97318485Y-67477745D01*
X97201418Y-67433684D01*
X96926428Y-67360001D01*
X100685200Y-67360001D01*
X101624603Y-68299404D01*
X101261259Y-68299404D01*
X101227995Y-68293912D01*
X101102978Y-68298005D01*
X101096978Y-68299404D01*
X100432327Y-68299404D01*
X99374750Y-68016027D01*
X99251337Y-67995651D01*
X99126320Y-67999744D01*
X99004504Y-68028147D01*
X98890569Y-68079770D01*
X98788895Y-68152629D01*
X98703388Y-68243923D01*
X98637336Y-68350145D01*
X98593275Y-68467212D01*
X98347397Y-69384841D01*
X98327021Y-69508254D01*
X98331114Y-69633271D01*
X98359517Y-69755087D01*
X98411140Y-69869022D01*
X98483999Y-69970696D01*
X98575293Y-70056203D01*
X98681515Y-70122255D01*
X98798582Y-70166316D01*
X100054286Y-70502781D01*
X100177699Y-70523157D01*
X100236841Y-70521221D01*
X100247260Y-70544216D01*
X98951477Y-71840000D01*
X93302115Y-71840000D01*
X93326519Y-71815596D01*
X93450731Y-71629700D01*
X93536290Y-71423143D01*
X93579907Y-71203864D01*
X93579907Y-70980288D01*
X93536290Y-70761009D01*
X93450731Y-70554452D01*
X93326519Y-70368556D01*
X93168427Y-70210464D01*
X92982531Y-70086252D01*
X92775974Y-70000693D01*
X92556695Y-69957076D01*
X92333119Y-69957076D01*
X92113840Y-70000693D01*
X91907283Y-70086252D01*
X91721387Y-70210464D01*
X91563295Y-70368556D01*
X91439083Y-70554452D01*
X91353524Y-70761009D01*
X91309907Y-70980288D01*
X91309907Y-71203864D01*
X91353524Y-71423143D01*
X91439083Y-71629700D01*
X91563295Y-71815596D01*
X91587699Y-71840000D01*
X90037333Y-71840000D01*
X90000000Y-71836323D01*
X89962667Y-71840000D01*
X89851014Y-71850997D01*
X89707753Y-71894454D01*
X89575724Y-71965026D01*
X89459999Y-72059999D01*
X89436201Y-72088997D01*
X88685199Y-72840000D01*
X88042151Y-72840000D01*
X88498446Y-72535114D01*
X88935114Y-72098446D01*
X89278201Y-71584979D01*
X89514524Y-71014446D01*
X89635000Y-70408771D01*
X89635000Y-69791229D01*
X89514524Y-69185554D01*
X89278201Y-68615021D01*
X88935114Y-68101554D01*
X88498446Y-67664886D01*
X88042150Y-67360000D01*
X93064464Y-67360000D01*
X93037569Y-67424930D01*
G36*
X120053287Y-65904334D02*
G01*
X120060526Y-65898259D01*
X120231382Y-66069115D01*
X120576134Y-65724363D01*
X120611719Y-65767328D01*
X120216555Y-66098910D01*
X120222630Y-66106149D01*
X120051774Y-66277005D01*
X121109108Y-67334339D01*
X121186133Y-67257314D01*
X121286373Y-67403849D01*
X121477762Y-67591108D01*
X121256762Y-67742289D01*
X121052188Y-67951375D01*
X120892336Y-68196356D01*
X120837710Y-68332413D01*
X120741794Y-68314419D01*
X120267088Y-68275972D01*
X120095106Y-68420282D01*
X119998255Y-69527303D01*
X120018179Y-69529046D01*
X119996041Y-69782080D01*
X119976117Y-69780337D01*
X119974374Y-69800261D01*
X119721340Y-69778123D01*
X119723083Y-69758199D01*
X119703159Y-69756456D01*
X119725297Y-69503422D01*
X119745221Y-69505165D01*
X119842073Y-68398144D01*
X119697763Y-68226162D01*
X119254252Y-68184476D01*
X119317207Y-68090256D01*
X119395228Y-67901898D01*
X119435002Y-67701939D01*
X119435002Y-67604137D01*
X119638326Y-67676903D01*
X119956904Y-67724182D01*
X120278584Y-67708401D01*
X120591005Y-67630167D01*
X120772403Y-67552701D01*
X120890846Y-67297653D01*
X120021979Y-66262178D01*
X120014740Y-66268253D01*
X119843884Y-66097397D01*
X119160002Y-66781279D01*
X119160002Y-66653889D01*
X119858711Y-66067602D01*
X119852636Y-66060363D01*
X120023492Y-65889507D01*
X119522598Y-65388613D01*
X119575856Y-65335355D01*
X120053287Y-65904334D01*
G37*
X120053287Y-65904334D02*
X120060526Y-65898259D01*
X120231382Y-66069115D01*
X120576134Y-65724363D01*
X120611719Y-65767328D01*
X120216555Y-66098910D01*
X120222630Y-66106149D01*
X120051774Y-66277005D01*
X121109108Y-67334339D01*
X121186133Y-67257314D01*
X121286373Y-67403849D01*
X121477762Y-67591108D01*
X121256762Y-67742289D01*
X121052188Y-67951375D01*
X120892336Y-68196356D01*
X120837710Y-68332413D01*
X120741794Y-68314419D01*
X120267088Y-68275972D01*
X120095106Y-68420282D01*
X119998255Y-69527303D01*
X120018179Y-69529046D01*
X119996041Y-69782080D01*
X119976117Y-69780337D01*
X119974374Y-69800261D01*
X119721340Y-69778123D01*
X119723083Y-69758199D01*
X119703159Y-69756456D01*
X119725297Y-69503422D01*
X119745221Y-69505165D01*
X119842073Y-68398144D01*
X119697763Y-68226162D01*
X119254252Y-68184476D01*
X119317207Y-68090256D01*
X119395228Y-67901898D01*
X119435002Y-67701939D01*
X119435002Y-67604137D01*
X119638326Y-67676903D01*
X119956904Y-67724182D01*
X120278584Y-67708401D01*
X120591005Y-67630167D01*
X120772403Y-67552701D01*
X120890846Y-67297653D01*
X120021979Y-66262178D01*
X120014740Y-66268253D01*
X119843884Y-66097397D01*
X119160002Y-66781279D01*
X119160002Y-66653889D01*
X119858711Y-66067602D01*
X119852636Y-66060363D01*
X120023492Y-65889507D01*
X119522598Y-65388613D01*
X119575856Y-65335355D01*
X120053287Y-65904334D01*
G36*
X119408331Y-28922730D02*
G01*
X119408336Y-28922730D01*
X121555325Y-29103896D01*
X121555329Y-29103896D01*
X123702320Y-29285063D01*
X123702325Y-29285063D01*
X125849314Y-29466229D01*
X125849319Y-29466229D01*
X127996309Y-29647395D01*
X127996314Y-29647395D01*
X130143303Y-29828561D01*
X130143307Y-29828561D01*
X132290298Y-30009728D01*
X132290303Y-30009728D01*
X134395106Y-30187334D01*
X134917602Y-30240422D01*
X135339941Y-30372252D01*
X135723847Y-30581313D01*
X136059784Y-30858787D01*
X136337254Y-31194718D01*
X136546320Y-31578629D01*
X136678148Y-32000965D01*
X136725139Y-32463451D01*
X136585708Y-34212014D01*
X136197757Y-39026929D01*
X135640521Y-45919119D01*
X134986977Y-53977899D01*
X134311285Y-62277881D01*
X134149386Y-64254904D01*
X134149003Y-64251014D01*
X134105546Y-64107753D01*
X134096194Y-64090256D01*
X134034974Y-63975723D01*
X133963799Y-63888997D01*
X133940001Y-63859999D01*
X133911004Y-63836202D01*
X133560000Y-63485199D01*
X133560000Y-62514802D01*
X133711002Y-62363800D01*
X133740001Y-62340001D01*
X133834974Y-62224276D01*
X133905546Y-62092247D01*
X133949003Y-61948986D01*
X133960000Y-61837333D01*
X133960000Y-61837324D01*
X133963676Y-61800001D01*
X133960000Y-61762678D01*
X133960000Y-59914801D01*
X134311002Y-59563800D01*
X134340001Y-59540001D01*
X134379192Y-59492247D01*
X134434974Y-59424277D01*
X134505546Y-59292247D01*
X134527411Y-59220166D01*
X134549003Y-59148986D01*
X134560000Y-59037333D01*
X134560000Y-59037324D01*
X134563676Y-59000001D01*
X134560000Y-58962678D01*
X134560000Y-53037323D01*
X134563676Y-53000000D01*
X134560000Y-52962677D01*
X134560000Y-52962667D01*
X134549003Y-52851014D01*
X134505546Y-52707753D01*
X134434974Y-52575724D01*
X134340001Y-52459999D01*
X134311004Y-52436202D01*
X133863639Y-51988838D01*
X133977482Y-51818461D01*
X134082791Y-51564224D01*
X134136477Y-51294326D01*
X134136477Y-51019142D01*
X134082791Y-50749244D01*
X133977482Y-50495007D01*
X133824597Y-50266199D01*
X133630012Y-50071614D01*
X133435732Y-49941800D01*
X133622579Y-49864405D01*
X133851387Y-49711520D01*
X134045972Y-49516935D01*
X134198857Y-49288127D01*
X134304166Y-49033890D01*
X134357852Y-48763992D01*
X134357852Y-48488808D01*
X134304166Y-48218910D01*
X134198857Y-47964673D01*
X134045972Y-47735865D01*
X133851387Y-47541280D01*
X133657107Y-47411466D01*
X133843955Y-47334070D01*
X134072763Y-47181185D01*
X134267348Y-46986600D01*
X134420233Y-46757792D01*
X134525542Y-46503555D01*
X134579228Y-46233657D01*
X134579228Y-45958473D01*
X134525542Y-45688575D01*
X134420233Y-45434338D01*
X134267348Y-45205530D01*
X134072763Y-45010945D01*
X133878483Y-44881131D01*
X134065331Y-44803736D01*
X134294139Y-44650851D01*
X134488724Y-44456266D01*
X134641609Y-44227458D01*
X134746918Y-43973221D01*
X134800604Y-43703323D01*
X134800604Y-43428139D01*
X134746918Y-43158241D01*
X134641609Y-42904004D01*
X134488724Y-42675196D01*
X134294139Y-42480611D01*
X134104183Y-42353686D01*
X134115226Y-42350765D01*
X134236143Y-42299127D01*
X134323793Y-42065788D01*
X133609325Y-41214318D01*
X133602086Y-41220393D01*
X133432743Y-41051050D01*
X133803901Y-41051050D01*
X134518369Y-41902520D01*
X134763384Y-41856720D01*
X134901742Y-41618846D01*
X134991035Y-41358551D01*
X135027831Y-41085837D01*
X135010716Y-40811185D01*
X134940348Y-40545149D01*
X134888710Y-40424232D01*
X134655371Y-40336582D01*
X133803901Y-41051050D01*
X133432743Y-41051050D01*
X133431230Y-41049537D01*
X133241291Y-41239476D01*
X133215238Y-41213423D01*
X133446057Y-41019742D01*
X133439982Y-41012503D01*
X133610838Y-40841647D01*
X133417726Y-40648535D01*
X133444057Y-40622204D01*
X133640633Y-40856474D01*
X134492103Y-40142006D01*
X134446303Y-39896991D01*
X134321529Y-39824417D01*
X134336602Y-39820430D01*
X134457519Y-39768792D01*
X134545169Y-39535453D01*
X133830701Y-38683983D01*
X133823462Y-38690058D01*
X133654119Y-38520715D01*
X134025277Y-38520715D01*
X134739745Y-39372185D01*
X134984760Y-39326385D01*
X135123118Y-39088511D01*
X135212411Y-38828216D01*
X135249207Y-38555502D01*
X135232092Y-38280850D01*
X135161724Y-38014814D01*
X135110086Y-37893897D01*
X134876747Y-37806247D01*
X134025277Y-38520715D01*
X133654119Y-38520715D01*
X133652606Y-38519202D01*
X133462667Y-38709142D01*
X133436613Y-38683088D01*
X133667433Y-38489407D01*
X132952965Y-37637937D01*
X132923920Y-37643366D01*
X132798007Y-37493309D01*
X132835315Y-37097845D01*
X132849363Y-37111893D01*
X133039302Y-36921954D01*
X133065355Y-36948007D01*
X132834536Y-37141688D01*
X133549004Y-37993158D01*
X133578049Y-37987729D01*
X133862009Y-38326139D01*
X134713479Y-37611671D01*
X134667679Y-37366656D01*
X134538811Y-37291701D01*
X134729457Y-37212732D01*
X134958265Y-37059847D01*
X135152850Y-36865262D01*
X135305735Y-36636454D01*
X135411044Y-36382217D01*
X135464730Y-36112319D01*
X135464730Y-35837135D01*
X135411044Y-35567237D01*
X135305735Y-35313000D01*
X135152850Y-35084192D01*
X134958265Y-34889607D01*
X134763985Y-34759793D01*
X134950833Y-34682397D01*
X135179641Y-34529512D01*
X135374226Y-34334927D01*
X135527111Y-34106119D01*
X135632420Y-33851882D01*
X135686106Y-33581984D01*
X135686106Y-33306800D01*
X135632420Y-33036902D01*
X135527111Y-32782665D01*
X135374226Y-32553857D01*
X135179641Y-32359272D01*
X134950833Y-32206387D01*
X134696596Y-32101078D01*
X134426698Y-32047392D01*
X134151514Y-32047392D01*
X133881616Y-32101078D01*
X133627379Y-32206387D01*
X133398571Y-32359272D01*
X133250397Y-32507446D01*
X132369876Y-32507446D01*
X132332553Y-32503770D01*
X132295230Y-32507446D01*
X132295221Y-32507446D01*
X132183568Y-32518443D01*
X132066822Y-32553857D01*
X132040307Y-32561900D01*
X131908277Y-32632472D01*
X131824637Y-32701114D01*
X131792553Y-32727445D01*
X131768754Y-32756444D01*
X131485199Y-33040000D01*
X123571169Y-33040000D01*
X123517215Y-32909744D01*
X123403947Y-32740226D01*
X123259784Y-32596063D01*
X123090266Y-32482795D01*
X122901908Y-32404774D01*
X122701949Y-32365000D01*
X122498071Y-32365000D01*
X122298112Y-32404774D01*
X122109754Y-32482795D01*
X122072861Y-32507446D01*
X120473903Y-32507446D01*
X120524023Y-32255474D01*
X120524023Y-31980290D01*
X120470337Y-31710392D01*
X120365028Y-31456155D01*
X120212143Y-31227347D01*
X120017558Y-31032762D01*
X119788750Y-30879877D01*
X119534513Y-30774568D01*
X119264615Y-30720882D01*
X118989431Y-30720882D01*
X118719533Y-30774568D01*
X118465296Y-30879877D01*
X118236488Y-31032762D01*
X118041903Y-31227347D01*
X117889018Y-31456155D01*
X117783709Y-31710392D01*
X117751872Y-31870446D01*
X117557390Y-31870446D01*
X117287492Y-31924132D01*
X117033255Y-32029441D01*
X116804447Y-32182326D01*
X116609862Y-32376911D01*
X116456977Y-32605719D01*
X116351668Y-32859956D01*
X116297982Y-33129854D01*
X116297982Y-33405038D01*
X116351668Y-33674936D01*
X116456977Y-33929173D01*
X116609862Y-34157981D01*
X116804447Y-34352566D01*
X116998727Y-34482380D01*
X116811880Y-34559775D01*
X116583072Y-34712660D01*
X116388487Y-34907245D01*
X116235602Y-35136053D01*
X116130293Y-35390290D01*
X116076607Y-35660188D01*
X116076607Y-35935372D01*
X116130293Y-36205270D01*
X116235602Y-36459507D01*
X116388487Y-36688315D01*
X116583072Y-36882900D01*
X116773028Y-37009825D01*
X116761984Y-37012746D01*
X116641067Y-37064384D01*
X116553417Y-37297723D01*
X117267885Y-38149193D01*
X117275124Y-38143118D01*
X117445980Y-38313974D01*
X117645010Y-38114945D01*
X117671858Y-38141793D01*
X117431153Y-38343769D01*
X117437228Y-38351008D01*
X117266372Y-38521864D01*
X117470318Y-38725810D01*
X117443039Y-38753088D01*
X117236577Y-38507037D01*
X116385107Y-39221505D01*
X116430907Y-39466520D01*
X116555680Y-39539093D01*
X116540608Y-39543080D01*
X116419691Y-39594718D01*
X116332041Y-39828057D01*
X117046509Y-40679527D01*
X117053748Y-40673452D01*
X117224604Y-40844308D01*
X117423634Y-40645279D01*
X117450482Y-40672127D01*
X117209777Y-40874103D01*
X117215852Y-40881342D01*
X117044996Y-41052198D01*
X117232798Y-41240000D01*
X117185227Y-41240000D01*
X117015201Y-41037371D01*
X117007962Y-41043446D01*
X116837106Y-40872590D01*
X116469696Y-41240000D01*
X116378562Y-41240000D01*
X116851933Y-40842795D01*
X116137465Y-39991325D01*
X115892450Y-40037125D01*
X115754092Y-40274999D01*
X115664799Y-40535294D01*
X115628003Y-40808008D01*
X115645118Y-41082660D01*
X115715486Y-41348696D01*
X115736283Y-41397394D01*
X115688996Y-41436201D01*
X115688992Y-41436205D01*
X115659999Y-41459999D01*
X115636205Y-41488992D01*
X113921722Y-43203476D01*
X113931053Y-43100336D01*
X113931053Y-43100334D01*
X114294840Y-39079018D01*
X114294840Y-39079015D01*
X114367332Y-38277674D01*
X115849379Y-38277674D01*
X115866494Y-38552326D01*
X115936862Y-38818362D01*
X115988500Y-38939279D01*
X116221839Y-39026929D01*
X117073309Y-38312461D01*
X116358841Y-37460991D01*
X116113826Y-37506791D01*
X115975468Y-37744665D01*
X115886175Y-38004960D01*
X115849379Y-38277674D01*
X114367332Y-38277674D01*
X114658626Y-35057701D01*
X114658626Y-35057699D01*
X115018795Y-31076373D01*
X115072111Y-30551634D01*
X115203939Y-30129304D01*
X115413005Y-29745395D01*
X115690480Y-29409460D01*
X116026414Y-29131988D01*
X116410330Y-28922922D01*
X116832669Y-28791092D01*
X117293460Y-28744274D01*
X119408331Y-28922730D01*
G37*
X119408331Y-28922730D02*
X119408336Y-28922730D01*
X121555325Y-29103896D01*
X121555329Y-29103896D01*
X123702320Y-29285063D01*
X123702325Y-29285063D01*
X125849314Y-29466229D01*
X125849319Y-29466229D01*
X127996309Y-29647395D01*
X127996314Y-29647395D01*
X130143303Y-29828561D01*
X130143307Y-29828561D01*
X132290298Y-30009728D01*
X132290303Y-30009728D01*
X134395106Y-30187334D01*
X134917602Y-30240422D01*
X135339941Y-30372252D01*
X135723847Y-30581313D01*
X136059784Y-30858787D01*
X136337254Y-31194718D01*
X136546320Y-31578629D01*
X136678148Y-32000965D01*
X136725139Y-32463451D01*
X136585708Y-34212014D01*
X136197757Y-39026929D01*
X135640521Y-45919119D01*
X134986977Y-53977899D01*
X134311285Y-62277881D01*
X134149386Y-64254904D01*
X134149003Y-64251014D01*
X134105546Y-64107753D01*
X134096194Y-64090256D01*
X134034974Y-63975723D01*
X133963799Y-63888997D01*
X133940001Y-63859999D01*
X133911004Y-63836202D01*
X133560000Y-63485199D01*
X133560000Y-62514802D01*
X133711002Y-62363800D01*
X133740001Y-62340001D01*
X133834974Y-62224276D01*
X133905546Y-62092247D01*
X133949003Y-61948986D01*
X133960000Y-61837333D01*
X133960000Y-61837324D01*
X133963676Y-61800001D01*
X133960000Y-61762678D01*
X133960000Y-59914801D01*
X134311002Y-59563800D01*
X134340001Y-59540001D01*
X134379192Y-59492247D01*
X134434974Y-59424277D01*
X134505546Y-59292247D01*
X134527411Y-59220166D01*
X134549003Y-59148986D01*
X134560000Y-59037333D01*
X134560000Y-59037324D01*
X134563676Y-59000001D01*
X134560000Y-58962678D01*
X134560000Y-53037323D01*
X134563676Y-53000000D01*
X134560000Y-52962677D01*
X134560000Y-52962667D01*
X134549003Y-52851014D01*
X134505546Y-52707753D01*
X134434974Y-52575724D01*
X134340001Y-52459999D01*
X134311004Y-52436202D01*
X133863639Y-51988838D01*
X133977482Y-51818461D01*
X134082791Y-51564224D01*
X134136477Y-51294326D01*
X134136477Y-51019142D01*
X134082791Y-50749244D01*
X133977482Y-50495007D01*
X133824597Y-50266199D01*
X133630012Y-50071614D01*
X133435732Y-49941800D01*
X133622579Y-49864405D01*
X133851387Y-49711520D01*
X134045972Y-49516935D01*
X134198857Y-49288127D01*
X134304166Y-49033890D01*
X134357852Y-48763992D01*
X134357852Y-48488808D01*
X134304166Y-48218910D01*
X134198857Y-47964673D01*
X134045972Y-47735865D01*
X133851387Y-47541280D01*
X133657107Y-47411466D01*
X133843955Y-47334070D01*
X134072763Y-47181185D01*
X134267348Y-46986600D01*
X134420233Y-46757792D01*
X134525542Y-46503555D01*
X134579228Y-46233657D01*
X134579228Y-45958473D01*
X134525542Y-45688575D01*
X134420233Y-45434338D01*
X134267348Y-45205530D01*
X134072763Y-45010945D01*
X133878483Y-44881131D01*
X134065331Y-44803736D01*
X134294139Y-44650851D01*
X134488724Y-44456266D01*
X134641609Y-44227458D01*
X134746918Y-43973221D01*
X134800604Y-43703323D01*
X134800604Y-43428139D01*
X134746918Y-43158241D01*
X134641609Y-42904004D01*
X134488724Y-42675196D01*
X134294139Y-42480611D01*
X134104183Y-42353686D01*
X134115226Y-42350765D01*
X134236143Y-42299127D01*
X134323793Y-42065788D01*
X133609325Y-41214318D01*
X133602086Y-41220393D01*
X133432743Y-41051050D01*
X133803901Y-41051050D01*
X134518369Y-41902520D01*
X134763384Y-41856720D01*
X134901742Y-41618846D01*
X134991035Y-41358551D01*
X135027831Y-41085837D01*
X135010716Y-40811185D01*
X134940348Y-40545149D01*
X134888710Y-40424232D01*
X134655371Y-40336582D01*
X133803901Y-41051050D01*
X133432743Y-41051050D01*
X133431230Y-41049537D01*
X133241291Y-41239476D01*
X133215238Y-41213423D01*
X133446057Y-41019742D01*
X133439982Y-41012503D01*
X133610838Y-40841647D01*
X133417726Y-40648535D01*
X133444057Y-40622204D01*
X133640633Y-40856474D01*
X134492103Y-40142006D01*
X134446303Y-39896991D01*
X134321529Y-39824417D01*
X134336602Y-39820430D01*
X134457519Y-39768792D01*
X134545169Y-39535453D01*
X133830701Y-38683983D01*
X133823462Y-38690058D01*
X133654119Y-38520715D01*
X134025277Y-38520715D01*
X134739745Y-39372185D01*
X134984760Y-39326385D01*
X135123118Y-39088511D01*
X135212411Y-38828216D01*
X135249207Y-38555502D01*
X135232092Y-38280850D01*
X135161724Y-38014814D01*
X135110086Y-37893897D01*
X134876747Y-37806247D01*
X134025277Y-38520715D01*
X133654119Y-38520715D01*
X133652606Y-38519202D01*
X133462667Y-38709142D01*
X133436613Y-38683088D01*
X133667433Y-38489407D01*
X132952965Y-37637937D01*
X132923920Y-37643366D01*
X132798007Y-37493309D01*
X132835315Y-37097845D01*
X132849363Y-37111893D01*
X133039302Y-36921954D01*
X133065355Y-36948007D01*
X132834536Y-37141688D01*
X133549004Y-37993158D01*
X133578049Y-37987729D01*
X133862009Y-38326139D01*
X134713479Y-37611671D01*
X134667679Y-37366656D01*
X134538811Y-37291701D01*
X134729457Y-37212732D01*
X134958265Y-37059847D01*
X135152850Y-36865262D01*
X135305735Y-36636454D01*
X135411044Y-36382217D01*
X135464730Y-36112319D01*
X135464730Y-35837135D01*
X135411044Y-35567237D01*
X135305735Y-35313000D01*
X135152850Y-35084192D01*
X134958265Y-34889607D01*
X134763985Y-34759793D01*
X134950833Y-34682397D01*
X135179641Y-34529512D01*
X135374226Y-34334927D01*
X135527111Y-34106119D01*
X135632420Y-33851882D01*
X135686106Y-33581984D01*
X135686106Y-33306800D01*
X135632420Y-33036902D01*
X135527111Y-32782665D01*
X135374226Y-32553857D01*
X135179641Y-32359272D01*
X134950833Y-32206387D01*
X134696596Y-32101078D01*
X134426698Y-32047392D01*
X134151514Y-32047392D01*
X133881616Y-32101078D01*
X133627379Y-32206387D01*
X133398571Y-32359272D01*
X133250397Y-32507446D01*
X132369876Y-32507446D01*
X132332553Y-32503770D01*
X132295230Y-32507446D01*
X132295221Y-32507446D01*
X132183568Y-32518443D01*
X132066822Y-32553857D01*
X132040307Y-32561900D01*
X131908277Y-32632472D01*
X131824637Y-32701114D01*
X131792553Y-32727445D01*
X131768754Y-32756444D01*
X131485199Y-33040000D01*
X123571169Y-33040000D01*
X123517215Y-32909744D01*
X123403947Y-32740226D01*
X123259784Y-32596063D01*
X123090266Y-32482795D01*
X122901908Y-32404774D01*
X122701949Y-32365000D01*
X122498071Y-32365000D01*
X122298112Y-32404774D01*
X122109754Y-32482795D01*
X122072861Y-32507446D01*
X120473903Y-32507446D01*
X120524023Y-32255474D01*
X120524023Y-31980290D01*
X120470337Y-31710392D01*
X120365028Y-31456155D01*
X120212143Y-31227347D01*
X120017558Y-31032762D01*
X119788750Y-30879877D01*
X119534513Y-30774568D01*
X119264615Y-30720882D01*
X118989431Y-30720882D01*
X118719533Y-30774568D01*
X118465296Y-30879877D01*
X118236488Y-31032762D01*
X118041903Y-31227347D01*
X117889018Y-31456155D01*
X117783709Y-31710392D01*
X117751872Y-31870446D01*
X117557390Y-31870446D01*
X117287492Y-31924132D01*
X117033255Y-32029441D01*
X116804447Y-32182326D01*
X116609862Y-32376911D01*
X116456977Y-32605719D01*
X116351668Y-32859956D01*
X116297982Y-33129854D01*
X116297982Y-33405038D01*
X116351668Y-33674936D01*
X116456977Y-33929173D01*
X116609862Y-34157981D01*
X116804447Y-34352566D01*
X116998727Y-34482380D01*
X116811880Y-34559775D01*
X116583072Y-34712660D01*
X116388487Y-34907245D01*
X116235602Y-35136053D01*
X116130293Y-35390290D01*
X116076607Y-35660188D01*
X116076607Y-35935372D01*
X116130293Y-36205270D01*
X116235602Y-36459507D01*
X116388487Y-36688315D01*
X116583072Y-36882900D01*
X116773028Y-37009825D01*
X116761984Y-37012746D01*
X116641067Y-37064384D01*
X116553417Y-37297723D01*
X117267885Y-38149193D01*
X117275124Y-38143118D01*
X117445980Y-38313974D01*
X117645010Y-38114945D01*
X117671858Y-38141793D01*
X117431153Y-38343769D01*
X117437228Y-38351008D01*
X117266372Y-38521864D01*
X117470318Y-38725810D01*
X117443039Y-38753088D01*
X117236577Y-38507037D01*
X116385107Y-39221505D01*
X116430907Y-39466520D01*
X116555680Y-39539093D01*
X116540608Y-39543080D01*
X116419691Y-39594718D01*
X116332041Y-39828057D01*
X117046509Y-40679527D01*
X117053748Y-40673452D01*
X117224604Y-40844308D01*
X117423634Y-40645279D01*
X117450482Y-40672127D01*
X117209777Y-40874103D01*
X117215852Y-40881342D01*
X117044996Y-41052198D01*
X117232798Y-41240000D01*
X117185227Y-41240000D01*
X117015201Y-41037371D01*
X117007962Y-41043446D01*
X116837106Y-40872590D01*
X116469696Y-41240000D01*
X116378562Y-41240000D01*
X116851933Y-40842795D01*
X116137465Y-39991325D01*
X115892450Y-40037125D01*
X115754092Y-40274999D01*
X115664799Y-40535294D01*
X115628003Y-40808008D01*
X115645118Y-41082660D01*
X115715486Y-41348696D01*
X115736283Y-41397394D01*
X115688996Y-41436201D01*
X115688992Y-41436205D01*
X115659999Y-41459999D01*
X115636205Y-41488992D01*
X113921722Y-43203476D01*
X113931053Y-43100336D01*
X113931053Y-43100334D01*
X114294840Y-39079018D01*
X114294840Y-39079015D01*
X114367332Y-38277674D01*
X115849379Y-38277674D01*
X115866494Y-38552326D01*
X115936862Y-38818362D01*
X115988500Y-38939279D01*
X116221839Y-39026929D01*
X117073309Y-38312461D01*
X116358841Y-37460991D01*
X116113826Y-37506791D01*
X115975468Y-37744665D01*
X115886175Y-38004960D01*
X115849379Y-38277674D01*
X114367332Y-38277674D01*
X114658626Y-35057701D01*
X114658626Y-35057699D01*
X115018795Y-31076373D01*
X115072111Y-30551634D01*
X115203939Y-30129304D01*
X115413005Y-29745395D01*
X115690480Y-29409460D01*
X116026414Y-29131988D01*
X116410330Y-28922922D01*
X116832669Y-28791092D01*
X117293460Y-28744274D01*
X119408331Y-28922730D01*
M02*
