M48
; DRILL file {KiCad (5.1.5)-2} date 4/17/2020 1:03:06 AM
; FORMAT={-:-/ absolute / inch / decimal}
; #@! TF.CreationDate,2020-04-17T01:03:06-04:00
; #@! TF.GenerationSoftware,Kicad,Pcbnew,(5.1.5)-2
; #@! TF.FileFunction,Plated,1,2,PTH
FMAT,2
INCH
T1C0.0157
T2C0.0320
T3C0.0394
T4C0.0472
T5C0.0512
T6C0.0590
T7C0.0591
T8C0.0709
%
G90
G05
T1
X1.8189Y-2.8228
X3.252Y-2.622
X3.8071Y-2.7874
X4.1594Y-3.4075
X4.2047Y-2.7087
X4.2362Y-2.8386
X4.252Y-2.9331
X4.252Y-3.4055
X4.2933Y-2.6378
X4.3327Y-2.7116
X4.3327Y-2.8524
X4.4429Y-2.5118
X4.4577Y-2.4173
X4.4636Y-2.3573
X4.4724Y-3.0709
X4.5Y-2.9685
X4.5197Y-2.5039
X4.5413Y-2.8445
X4.5512Y-2.9685
X4.5527Y-2.592
X4.6043Y-3.185
X4.6614Y-2.6614
X4.7087Y-3.1024
X4.7165Y-1.9449
X4.7165Y-2.1496
X4.7165Y-2.2835
X4.7165Y-2.4016
X4.7638Y-1.5748
X4.7638Y-1.7874
X4.7638Y-1.9449
X4.7638Y-2.1496
X4.7638Y-2.2835
X4.8268Y-1.4409
X4.8268Y-1.5669
X4.8268Y-1.7874
X4.8268Y-1.9449
X4.8268Y-2.1496
X4.8268Y-2.2835
X4.8268Y-1.315
X4.8898Y-1.4409
X4.8898Y-1.5748
X4.8898Y-1.7874
X4.8898Y-1.9449
X4.8898Y-2.1496
X4.8898Y-2.2835
X4.8898Y-2.4016
X4.9528Y-1.7874
X4.9528Y-1.9449
X4.9528Y-2.2835
X4.9528Y-2.4016
X4.9528Y-2.1496
X5.0079Y-2.0157
X5.0079Y-2.1496
X5.0079Y-2.2835
X5.0079Y-2.4016
X5.0472Y-1.6693
X5.0472Y-1.7874
X5.0472Y-1.9449
X5.0472Y-2.1496
X5.0472Y-2.2835
X5.0472Y-2.4016
T2
X3.7134Y-2.6698
X4.0032Y-2.7475
X2.8106Y-2.5906
X3.1106Y-2.5906
X4.6423Y-2.9245
X4.9021Y-3.0745
X2.0547Y-2.5906
X2.3547Y-2.5906
X4.5378Y-2.4056
X4.5465Y-2.3059
X4.5552Y-2.2063
X4.5639Y-2.1067
X4.5727Y-2.0071
X4.5814Y-1.9075
X4.5901Y-1.8078
X4.5942Y-2.3603
X4.5988Y-1.7082
X4.6029Y-2.2607
X4.6075Y-1.6086
X4.6116Y-2.1611
X4.6162Y-1.509
X4.6203Y-2.0614
X4.6249Y-1.4094
X4.629Y-1.9618
X4.6337Y-1.3097
X4.6377Y-1.8622
X4.6465Y-1.7626
X4.6552Y-1.663
X4.6639Y-1.5633
X4.6726Y-1.4637
X4.6813Y-1.3641
X4.69Y-1.2645
X5.1355Y-2.4578
X5.1442Y-2.3582
X5.1529Y-2.2586
X5.1617Y-2.159
X5.1704Y-2.0594
X5.1791Y-1.9598
X5.1878Y-1.8601
X5.1911Y-2.4125
X5.1965Y-1.7605
X5.1998Y-2.3129
X5.2052Y-1.6609
X5.2085Y-2.2133
X5.2139Y-1.5613
X5.2172Y-2.1137
X5.2227Y-1.4617
X5.226Y-2.014
X5.2314Y-1.362
X5.2347Y-1.9144
X5.2434Y-1.8148
X5.2521Y-1.7152
X5.2608Y-1.6156
X5.2695Y-1.5159
X5.2783Y-1.4163
X5.287Y-1.3167
T3
X4.3419Y-3.5451
X4.4272Y-3.5943
X4.5124Y-3.6435
X4.6274Y-3.0507
X4.7978Y-3.1491
T4
X3.5616Y-3.1082
X3.7352Y-3.2362
X3.9495Y-3.2121
X2.7598Y-3.0551
X2.9606Y-3.1339
X3.1614Y-3.0551
X2.0079Y-3.0551
X2.2087Y-3.1339
X2.4094Y-3.0551
T5
X4.471Y-2.5794
X4.7259Y-2.6017
T6
X4.3882Y-3.4618
X4.3949Y-3.3502
X4.5614Y-3.5618
X4.6547Y-3.5002
T7
X2.0587Y-3.0016
X2.1087Y-3.0591
X2.1087Y-3.0787
X2.1087Y-3.1016
X2.3087Y-3.0591
X2.3087Y-3.0787
X2.3087Y-3.1016
X2.3587Y-3.0016
X3.6245Y-3.0696
X3.6469Y-3.1791
X3.6528Y-3.1571
X3.6579Y-3.138
X3.8401Y-3.2309
X3.846Y-3.2088
X3.8511Y-3.1898
X3.9143Y-3.1472
X2.8106Y-3.0016
X2.8606Y-3.0591
X2.8606Y-3.0787
X2.8606Y-3.1016
X3.0606Y-3.0591
X3.0606Y-3.0787
X3.0606Y-3.1016
X3.1106Y-3.0016
T3
G00X4.8371Y-2.7143
M15
G01X4.8175Y-2.7125
M16
G05
G00X4.8456Y-2.6182
M15
G01X4.8259Y-2.6164
M16
G05
G00X4.89Y-2.788
M15
G01X4.8704Y-2.7863
M16
G05
G00X4.9104Y-2.5547
M15
G01X4.8908Y-2.553
M16
G05
G00X5.0469Y-2.8018
M15
G01X5.0272Y-2.8
M16
G05
G00X5.0673Y-2.5684
M15
G01X5.0477Y-2.5667
M16
G05
G00X5.1645Y-2.8121
M15
G01X5.1449Y-2.8103
M16
G05
G00X5.1849Y-2.5787
M15
G01X5.1653Y-2.577
M16
G05
T8
G00X4.3725Y-3.1968
M15
G01X4.3509Y-3.2343
M16
G05
G00X4.7987Y-3.4429
M15
G01X4.7771Y-3.4804
M16
G05
T0
M30
