M48
; DRILL file {KiCad (5.1.5)-2} date 4/17/2020 1:03:06 AM
; FORMAT={-:-/ absolute / inch / decimal}
; #@! TF.CreationDate,2020-04-17T01:03:06-04:00
; #@! TF.GenerationSoftware,Kicad,Pcbnew,(5.1.5)-2
; #@! TF.FileFunction,NonPlated,1,2,NPTH
FMAT,2
INCH
T1C0.0394
T2C0.0472
T3C0.0669
T4C0.0670
T5C0.0748
T6C0.1570
T7C0.1575
T8C0.1890
%
G90
G05
T1
X2.0031Y-2.7362
X2.4142Y-2.7362
X3.6396Y-2.7989
X4.0366Y-2.9053
X2.7551Y-2.7362
X3.1661Y-2.7362
T2
X4.958Y-2.711
X4.964Y-2.6424
X5.2325Y-2.735
X5.2385Y-2.6664
T3
X2.7606Y-2.9016
X3.1606Y-2.9016
X2.0087Y-2.9016
X2.4087Y-2.9016
X3.6021Y-2.96
X3.9885Y-3.0636
T4
X4.4016Y-3.2386
X4.748Y-3.4386
T5
X2.7441Y-2.9016
X3.1772Y-2.9016
X1.9921Y-2.9016
X2.4252Y-2.9016
X3.5861Y-2.9558
X4.0044Y-3.0679
T6
X4.5748Y-3.3386
T7
X3.7953Y-3.0118
X2.9606Y-2.9016
X2.2087Y-2.9016
T8
X1.8543Y-3.2795
X1.7874Y-2.5118
X5.0709Y-3.2165
X3.4055Y-2.7598
X4.6614Y-3.8425
T0
M30
