G04 #@! TF.GenerationSoftware,KiCad,Pcbnew,(5.1.5)-2*
G04 #@! TF.CreationDate,2020-04-17T01:02:57-04:00*
G04 #@! TF.ProjectId,va4,7661342e-6b69-4636-9164-5f7063625858,rev?*
G04 #@! TF.SameCoordinates,Original*
G04 #@! TF.FileFunction,Copper,L1,Top*
G04 #@! TF.FilePolarity,Positive*
%FSLAX46Y46*%
G04 Gerber Fmt 4.6, Leading zero omitted, Abs format (unit mm)*
G04 Created by KiCad (PCBNEW (5.1.5)-2) date 2020-04-17 01:02:57*
%MOMM*%
%LPD*%
G04 APERTURE LIST*
%ADD10C,5.000000*%
%ADD11C,2.286000*%
%ADD12C,2.800000*%
%ADD13C,1.524000*%
%ADD14C,1.700000*%
%ADD15C,1.250000*%
%ADD16C,2.200000*%
%ADD17C,2.400000*%
%ADD18C,1.550000*%
%ADD19C,0.100000*%
%ADD20C,1.397000*%
%ADD21R,1.300000X0.950000*%
%ADD22R,1.397000X1.397000*%
%ADD23C,2.000000*%
%ADD24C,0.800000*%
%ADD25C,0.500000*%
%ADD26C,0.250000*%
%ADD27C,0.254000*%
G04 APERTURE END LIST*
D10*
X128800000Y-81700000D03*
X118400000Y-97600000D03*
X86500000Y-70100000D03*
X47100000Y-83300000D03*
X45400000Y-63800000D03*
D11*
X118229557Y-88904705D03*
X111460295Y-87929409D03*
X115859705Y-90469409D03*
X111630443Y-85094705D03*
D12*
X121887659Y-87448686D02*
X121337659Y-88401314D01*
X111062341Y-81198686D02*
X110512341Y-82151314D01*
D13*
X121865064Y-79987822D03*
X117534936Y-77487822D03*
X112450000Y-91295191D03*
X110284936Y-90045191D03*
X114615064Y-92545191D03*
D14*
X123226408Y-66514415D02*
X122429452Y-66444691D01*
X124354646Y-70829167D02*
X123557690Y-70759443D01*
X128339424Y-71177790D02*
X127542468Y-71108066D01*
X131328008Y-71439257D02*
X130531052Y-71369533D01*
X128858001Y-65250431D02*
X128061045Y-65180707D01*
X131846585Y-65511898D02*
X131049629Y-65442174D01*
X123012876Y-68955092D02*
X122215920Y-68885368D01*
X124873222Y-64901808D02*
X124076266Y-64832084D01*
D15*
X51305324Y-77963871D02*
X50694676Y-77236129D01*
X61505324Y-77236129D02*
X60894676Y-77963871D01*
D16*
X56100000Y-79600000D03*
D17*
X53560000Y-78780000D03*
D18*
X60311742Y-75761222D02*
X59508258Y-76718778D01*
D17*
X58640000Y-78780000D03*
D18*
X52691742Y-76718778D02*
X51888258Y-75761222D01*
D17*
X53560000Y-78200000D03*
X53560000Y-77700000D03*
X58640000Y-77700000D03*
X58640000Y-78200000D03*
G04 #@! TA.AperFunction,SMDPad,CuDef*
D19*
G36*
X123550417Y-76988638D02*
G01*
X123075417Y-77811362D01*
X121949583Y-77161362D01*
X122424583Y-76338638D01*
X123550417Y-76988638D01*
G37*
G04 #@! TD.AperFunction*
G04 #@! TA.AperFunction,ComponentPad*
G36*
X125466531Y-77836831D02*
G01*
X124768031Y-79046669D01*
X123558193Y-78348169D01*
X124256693Y-77138331D01*
X125466531Y-77836831D01*
G37*
G04 #@! TD.AperFunction*
D20*
X117913248Y-74282500D03*
G04 #@! TA.AperFunction,SMDPad,CuDef*
D19*
G36*
X120476027Y-75213638D02*
G01*
X120001027Y-76036362D01*
X118875193Y-75386362D01*
X119350193Y-74563638D01*
X120476027Y-75213638D01*
G37*
G04 #@! TD.AperFunction*
G04 #@! TA.AperFunction,SMDPad,CuDef*
G36*
X100465309Y-68968822D02*
G01*
X100219431Y-69886451D01*
X98963727Y-69549986D01*
X99209605Y-68632357D01*
X100465309Y-68968822D01*
G37*
G04 #@! TD.AperFunction*
G04 #@! TA.AperFunction,ComponentPad*
G36*
X102535661Y-69292188D02*
G01*
X102174091Y-70641586D01*
X100824693Y-70280016D01*
X101186263Y-68930618D01*
X102535661Y-69292188D01*
G37*
G04 #@! TD.AperFunction*
D20*
X94319823Y-67813898D03*
G04 #@! TA.AperFunction,SMDPad,CuDef*
D19*
G36*
X97036273Y-68050014D02*
G01*
X96790395Y-68967643D01*
X95534691Y-68631178D01*
X95780569Y-67713549D01*
X97036273Y-68050014D01*
G37*
G04 #@! TD.AperFunction*
D21*
X73425000Y-65800000D03*
D20*
X71390000Y-65800000D03*
D22*
X79010000Y-65800000D03*
D21*
X76975000Y-65800000D03*
X57775000Y-65800000D03*
D22*
X59810000Y-65800000D03*
D20*
X52190000Y-65800000D03*
D21*
X54225000Y-65800000D03*
D15*
X90665128Y-79377630D02*
X90263640Y-78516638D01*
X100705924Y-81314639D02*
X99927730Y-81859537D01*
D16*
X94872968Y-82198962D03*
D17*
X92631748Y-80749503D03*
D18*
X99934747Y-79581067D02*
X98910807Y-80298037D01*
D17*
X97538651Y-82064304D03*
D18*
X92326558Y-78533793D02*
X91798286Y-77400909D01*
D17*
X92781863Y-80189266D03*
X92911272Y-79706303D03*
X97818175Y-81021104D03*
X97688766Y-81504067D03*
D15*
X70405324Y-77963871D02*
X69794676Y-77236129D01*
X80605324Y-77236129D02*
X79994676Y-77963871D01*
D16*
X75200000Y-79600000D03*
D17*
X72660000Y-78780000D03*
D18*
X79411742Y-75761222D02*
X78608258Y-76718778D01*
D17*
X77740000Y-78780000D03*
D18*
X71791742Y-76718778D02*
X70988258Y-75761222D01*
D17*
X72660000Y-78200000D03*
X72660000Y-77700000D03*
X77740000Y-77700000D03*
X77740000Y-78200000D03*
D13*
X119127023Y-32117882D03*
X118905647Y-34648217D03*
X118684271Y-37178551D03*
X118462896Y-39708886D03*
X118241520Y-42239220D03*
X118020145Y-44769555D03*
X117798769Y-47299889D03*
X117577396Y-49830224D03*
X117356018Y-52360558D03*
X117134642Y-54890893D03*
X116913267Y-57421227D03*
X116691891Y-59951562D03*
X131853974Y-61278072D03*
X132075350Y-58747738D03*
X132296726Y-56217403D03*
X132518101Y-53687069D03*
X132739477Y-51156734D03*
X132960852Y-48626400D03*
X133182228Y-46096065D03*
X133403604Y-43565731D03*
X133624979Y-41035396D03*
X133846355Y-38505061D03*
X134067730Y-35974727D03*
X134289106Y-33444392D03*
X117694982Y-33267446D03*
X117473607Y-35797780D03*
X117252231Y-38328115D03*
X117030855Y-40858449D03*
X116809480Y-43388784D03*
X116588104Y-45919119D03*
X116366729Y-48449453D03*
X116145353Y-50979788D03*
X115923976Y-53510122D03*
X115702602Y-56040457D03*
X115481226Y-58570791D03*
X115259851Y-61101126D03*
X130441858Y-62429379D03*
X130663236Y-59899045D03*
X130884609Y-57368710D03*
X131105985Y-54838376D03*
X131327360Y-52308041D03*
X131548736Y-49777707D03*
X131770111Y-47247372D03*
X131991487Y-44717038D03*
X132212863Y-42186703D03*
X132434238Y-39656368D03*
X132655614Y-37126034D03*
X132876989Y-34595699D03*
D23*
X113562367Y-65516744D03*
X120037633Y-66083256D03*
G04 #@! TA.AperFunction,SMDPad,CuDef*
D19*
G36*
X120553357Y-70468264D02*
G01*
X119035156Y-70335439D01*
X119167981Y-68817238D01*
X120686182Y-68950063D01*
X120553357Y-70468264D01*
G37*
G04 #@! TD.AperFunction*
G04 #@! TA.AperFunction,SMDPad,CuDef*
G36*
X118023024Y-70246889D02*
G01*
X116504823Y-70114064D01*
X116637648Y-68595863D01*
X118155849Y-68728688D01*
X118023024Y-70246889D01*
G37*
G04 #@! TD.AperFunction*
G04 #@! TA.AperFunction,SMDPad,CuDef*
G36*
X115492688Y-70025513D02*
G01*
X113974487Y-69892688D01*
X114107312Y-68374487D01*
X115625513Y-68507312D01*
X115492688Y-70025513D01*
G37*
G04 #@! TD.AperFunction*
D24*
X125800000Y-61000000D03*
X125800000Y-58000000D03*
X125800000Y-49400000D03*
X125800006Y-54600000D03*
X125800000Y-45400004D03*
X114300000Y-75400000D03*
X115350000Y-72250000D03*
X122600010Y-33400000D03*
X124200000Y-49400000D03*
X124200000Y-58000000D03*
X124200006Y-61000000D03*
X124200000Y-54599998D03*
X124200000Y-45400010D03*
X124200000Y-40000002D03*
X124200000Y-36600000D03*
X118400002Y-67600000D03*
X96700000Y-70800000D03*
X122600000Y-58000000D03*
X122600000Y-49400000D03*
X122600000Y-45400000D03*
X122600000Y-39800000D03*
X122600000Y-36600000D03*
X122600000Y-54600002D03*
X113600000Y-78000000D03*
X115600000Y-75400000D03*
X46200000Y-71700000D03*
X119600000Y-78800000D03*
X116950000Y-80900000D03*
X121000000Y-40000000D03*
X121000000Y-45400000D03*
X121000000Y-49400000D03*
X121000000Y-54600000D03*
X121000000Y-58000000D03*
X82600000Y-66600000D03*
X114800000Y-63600000D03*
X115637342Y-65837338D03*
X127200000Y-54600000D03*
X127200000Y-58000000D03*
X127200000Y-61000000D03*
X127200000Y-51200008D03*
X119800000Y-49400000D03*
X119800000Y-54600002D03*
X119800000Y-58000000D03*
X119800000Y-61000004D03*
X107600000Y-72100000D03*
X128200000Y-61000000D03*
X128200000Y-58000000D03*
X128200000Y-54600000D03*
X128200000Y-49400000D03*
X128200000Y-45400000D03*
X128200000Y-42400000D03*
X106800000Y-68800000D03*
X109050000Y-67000000D03*
X112850000Y-63800000D03*
X113225010Y-61400000D03*
X105650000Y-86550000D03*
X110050000Y-68875000D03*
X113374990Y-59875000D03*
X108000000Y-74500000D03*
X108000000Y-86500000D03*
X110050000Y-72450004D03*
D25*
X125800000Y-61000000D02*
X125800000Y-58000000D01*
X125800000Y-49400000D02*
X125800000Y-54599994D01*
X125800000Y-54599994D02*
X125800006Y-54600000D01*
X131000000Y-40973840D02*
X132212863Y-42186703D01*
X131000000Y-39400000D02*
X131000000Y-40973840D01*
X130349998Y-38749998D02*
X131000000Y-39400000D01*
X118462896Y-39708886D02*
X119421784Y-38749998D01*
X119421784Y-38749998D02*
X130349998Y-38749998D01*
X123956168Y-70794305D02*
X121012223Y-70794305D01*
X121012223Y-70794305D02*
X119639293Y-69421375D01*
X125800000Y-42400000D02*
X125800000Y-45400004D01*
X127200000Y-41000000D02*
X125800000Y-42400000D01*
X132212863Y-42186703D02*
X131026160Y-41000000D01*
X131026160Y-41000000D02*
X127200000Y-41000000D01*
X114300000Y-75400000D02*
X114300000Y-73300000D01*
X114300000Y-73300000D02*
X115350000Y-72250000D01*
D26*
X124200000Y-60999994D02*
X124200006Y-61000000D01*
X124200000Y-58000000D02*
X124200000Y-60999994D01*
X124200000Y-49400000D02*
X124200000Y-54599998D01*
X124200000Y-45400010D02*
X124200000Y-40000002D01*
X122600010Y-33400000D02*
X124200000Y-34999990D01*
X124200000Y-34999990D02*
X124200000Y-36034315D01*
X124200000Y-36034315D02*
X124200000Y-36600000D01*
X117000000Y-69000002D02*
X118000003Y-67999999D01*
X118000003Y-67999999D02*
X118400002Y-67600000D01*
X117000000Y-69200000D02*
X117000000Y-69000002D01*
D25*
X120037633Y-66083256D02*
X122585581Y-63535308D01*
X132655614Y-37126034D02*
X133846355Y-38505061D01*
X133846355Y-38505061D02*
X133624979Y-41035396D01*
X128459523Y-65215569D02*
X127940946Y-71142928D01*
X116891846Y-34585779D02*
X116000000Y-35477625D01*
X118905647Y-34648217D02*
X118843209Y-34585779D01*
X118843209Y-34585779D02*
X116891846Y-34585779D01*
X116000000Y-37075884D02*
X117252231Y-38328115D01*
X116000000Y-35477625D02*
X116000000Y-37075884D01*
X117030855Y-38549491D02*
X117030855Y-40858449D01*
X117252231Y-38328115D02*
X117030855Y-38549491D01*
X131577984Y-37126034D02*
X132655614Y-37126034D01*
X131104040Y-37599978D02*
X131577984Y-37126034D01*
X120000000Y-36600000D02*
X120999978Y-37599978D01*
X118905647Y-34648217D02*
X120000000Y-35742570D01*
X120000000Y-35742570D02*
X120000000Y-36600000D01*
X122585581Y-63535308D02*
X122585581Y-58014419D01*
X122585581Y-58014419D02*
X122600000Y-58000000D01*
X122600000Y-45400000D02*
X122600000Y-39800000D01*
X120999978Y-37599978D02*
X122600000Y-37599978D01*
X122600000Y-37599978D02*
X131104040Y-37599978D01*
X122600000Y-49400000D02*
X122600000Y-54600002D01*
X121742570Y-35742570D02*
X122600000Y-36600000D01*
X120000000Y-35742570D02*
X121742570Y-35742570D01*
X118623420Y-66083256D02*
X120037633Y-66083256D01*
X116906676Y-67800000D02*
X118623420Y-66083256D01*
X115800000Y-67800000D02*
X116906676Y-67800000D01*
X114800000Y-69200000D02*
X114800000Y-68800000D01*
X114800000Y-68800000D02*
X115800000Y-67800000D01*
X127600983Y-64357029D02*
X128459523Y-65215569D01*
X126643954Y-63400000D02*
X127600983Y-64357029D01*
X122585581Y-62200000D02*
X123785581Y-63400000D01*
X123785581Y-63400000D02*
X126643954Y-63400000D01*
D26*
X112450000Y-91295191D02*
X113600000Y-90145191D01*
X113600000Y-90145191D02*
X113600000Y-78000000D01*
X115600000Y-75400000D02*
X116075002Y-74924998D01*
X116075002Y-70675002D02*
X114800000Y-69400000D01*
X116075002Y-74924998D02*
X116075002Y-70675002D01*
X121000000Y-40000000D02*
X121000000Y-45400000D01*
X121000000Y-49400000D02*
X121000000Y-54600000D01*
X118684271Y-37178551D02*
X119680708Y-38174988D01*
X130952858Y-38174988D02*
X131672239Y-38894369D01*
X119680708Y-38174988D02*
X130952858Y-38174988D01*
X131672239Y-38894369D02*
X132434238Y-39656368D01*
X121000000Y-58000000D02*
X121000000Y-61200000D01*
X118000000Y-61800000D02*
X114283256Y-65516744D01*
X120400000Y-61800000D02*
X118000000Y-61800000D01*
X114283256Y-65516744D02*
X113562367Y-65516744D01*
X121000000Y-61200000D02*
X120400000Y-61800000D01*
X130399172Y-32117882D02*
X132114990Y-33833700D01*
X132114990Y-33833700D02*
X132876989Y-34595699D01*
X119127023Y-32117882D02*
X130399172Y-32117882D01*
X61200000Y-77530000D02*
X59910000Y-76240000D01*
X61200000Y-77600000D02*
X61200000Y-77530000D01*
X59910000Y-76430000D02*
X58640000Y-77700000D01*
X59910000Y-76240000D02*
X59910000Y-76430000D01*
X129708525Y-47000000D02*
X131991487Y-44717038D01*
X120600000Y-47000000D02*
X129708525Y-47000000D01*
X119400000Y-45800000D02*
X120600000Y-47000000D01*
X119400000Y-44200000D02*
X119400000Y-45800000D01*
X118241520Y-42239220D02*
X118241520Y-43041520D01*
X118241520Y-43041520D02*
X119400000Y-44200000D01*
X118241520Y-42239220D02*
X118002300Y-42000000D01*
X58640000Y-80477056D02*
X58640000Y-78780000D01*
X57917056Y-81200000D02*
X58640000Y-80477056D01*
X53591517Y-81200000D02*
X57917056Y-81200000D01*
X51000000Y-77600000D02*
X51000000Y-78608483D01*
X51000000Y-78608483D02*
X53591517Y-81200000D01*
X82200000Y-66600000D02*
X82600000Y-66600000D01*
X64000000Y-74800000D02*
X64000000Y-71200000D01*
X61200000Y-77600000D02*
X64000000Y-74800000D01*
X70600000Y-64600000D02*
X80200000Y-64600000D01*
X64000000Y-71200000D02*
X70600000Y-64600000D01*
X80200000Y-64600000D02*
X82200000Y-66600000D01*
X80300000Y-77530000D02*
X79010000Y-76240000D01*
X80300000Y-77600000D02*
X80300000Y-77530000D01*
X79010000Y-76430000D02*
X77740000Y-77700000D01*
X79010000Y-76240000D02*
X79010000Y-76430000D01*
X130692481Y-47247372D02*
X131770111Y-47247372D01*
X130489842Y-47450011D02*
X130692481Y-47247372D01*
X120250011Y-47450011D02*
X130489842Y-47450011D01*
X118020145Y-44769555D02*
X118020145Y-45220145D01*
X118020145Y-45220145D02*
X120250011Y-47450011D01*
X77740000Y-80477056D02*
X77740000Y-78780000D01*
X77017056Y-81200000D02*
X77740000Y-80477056D01*
X72691517Y-81200000D02*
X77017056Y-81200000D01*
X70100000Y-77600000D02*
X70100000Y-78608483D01*
X70100000Y-78608483D02*
X72691517Y-81200000D01*
X115237343Y-66237337D02*
X115637342Y-65837338D01*
X113674680Y-67800000D02*
X115237343Y-66237337D01*
X97400000Y-66600000D02*
X98600000Y-67800000D01*
X84100000Y-77600000D02*
X91800000Y-69900000D01*
X98600000Y-67800000D02*
X113674680Y-67800000D01*
X80300000Y-77600000D02*
X84100000Y-77600000D01*
X93300000Y-66600000D02*
X97400000Y-66600000D01*
X91800000Y-69900000D02*
X91800000Y-68100000D01*
X91800000Y-68100000D02*
X93300000Y-66600000D01*
X113750000Y-63600000D02*
X114800000Y-63600000D01*
X112500000Y-62350000D02*
X113750000Y-63600000D01*
X112500000Y-59017025D02*
X112500000Y-62350000D01*
X114567541Y-56949484D02*
X112500000Y-59017025D01*
X118020145Y-44769555D02*
X115830445Y-44769555D01*
X115614213Y-44985786D02*
X115013736Y-45717469D01*
X114567541Y-46552240D02*
X114567541Y-56949484D01*
X115830445Y-44769555D02*
X115614213Y-44985786D01*
X115013736Y-45717469D02*
X114567541Y-46552240D01*
X99422777Y-80693038D02*
X100316827Y-81587088D01*
X99422777Y-79939552D02*
X99422777Y-80693038D01*
X98899727Y-79939552D02*
X97818175Y-81021104D01*
X99422777Y-79939552D02*
X98899727Y-79939552D01*
X119526499Y-47949989D02*
X129721018Y-47949989D01*
X118876399Y-47299889D02*
X119526499Y-47949989D01*
X129721018Y-47949989D02*
X130786737Y-49015708D01*
X117798769Y-47299889D02*
X118876399Y-47299889D01*
X130786737Y-49015708D02*
X131548736Y-49777707D01*
X127200000Y-58000000D02*
X127200000Y-61000000D01*
X127200000Y-54600000D02*
X127200000Y-51200008D01*
X96338652Y-83264303D02*
X97538651Y-82064304D01*
X95802955Y-83800000D02*
X96338652Y-83264303D01*
X93200000Y-83800000D02*
X95802955Y-83800000D01*
X90464384Y-78947134D02*
X90464384Y-81064384D01*
X90464384Y-81064384D02*
X93200000Y-83800000D01*
X131327360Y-51327360D02*
X131327360Y-52308041D01*
X128400000Y-48400000D02*
X131327360Y-51327360D01*
X117577394Y-49830224D02*
X119007618Y-48400000D01*
X119007618Y-48400000D02*
X128400000Y-48400000D01*
X130028355Y-54838376D02*
X131105985Y-54838376D01*
X117356018Y-52956018D02*
X118400000Y-54000000D01*
X117356018Y-52360558D02*
X117356018Y-52956018D01*
X118400000Y-54000000D02*
X118400000Y-55000000D01*
X118400000Y-55000000D02*
X119000000Y-55600000D01*
X119000000Y-55600000D02*
X129266731Y-55600000D01*
X129266731Y-55600000D02*
X130028355Y-54838376D01*
X129565910Y-56050011D02*
X130122610Y-56606711D01*
X118293760Y-56050011D02*
X129565910Y-56050011D01*
X117134642Y-54890893D02*
X118293760Y-56050011D01*
X130122610Y-56606711D02*
X130884609Y-57368710D01*
X128786400Y-56549989D02*
X129650011Y-57413600D01*
X129650011Y-58885822D02*
X129901235Y-59137046D01*
X116913267Y-57421227D02*
X117784505Y-56549989D01*
X129901235Y-59137046D02*
X130663234Y-59899045D01*
X129650011Y-57413600D02*
X129650011Y-58885822D01*
X117784505Y-56549989D02*
X128786400Y-56549989D01*
X57775000Y-65800000D02*
X59810000Y-65800000D01*
X76975000Y-65800000D02*
X79010000Y-65800000D01*
X119800000Y-49400000D02*
X119800000Y-54600002D01*
X119800000Y-58000000D02*
X119800000Y-61000004D01*
X100314518Y-69059404D02*
X101753480Y-69059404D01*
X101753480Y-69059404D02*
X102280177Y-69586101D01*
X123296543Y-77621543D02*
X124021543Y-77621543D01*
X122750000Y-77075000D02*
X123296543Y-77621543D01*
X124021543Y-77621543D02*
X124500000Y-78100000D01*
X122750000Y-77075000D02*
X120100000Y-79725000D01*
X116375000Y-79725000D02*
X109875003Y-73225003D01*
X108725003Y-73225003D02*
X107999999Y-72499999D01*
X109875003Y-73225003D02*
X108725003Y-73225003D01*
X120100000Y-79725000D02*
X116375000Y-79725000D01*
X107999999Y-72499999D02*
X107600000Y-72100000D01*
X123550000Y-79050000D02*
X124550000Y-78050000D01*
X121865064Y-79987822D02*
X122802886Y-79050000D01*
X122802886Y-79050000D02*
X123550000Y-79050000D01*
X131448107Y-65477036D02*
X130929530Y-71404395D01*
X130589567Y-64618496D02*
X130589567Y-64589567D01*
X131448107Y-65477036D02*
X130589567Y-64618496D01*
X128200000Y-61000000D02*
X128200000Y-58000000D01*
X128200000Y-54600000D02*
X128200000Y-49400000D01*
X128200000Y-45400000D02*
X128200000Y-42400000D01*
X52290000Y-76430000D02*
X53560000Y-77700000D01*
X52290000Y-76240000D02*
X52290000Y-76430000D01*
X54380000Y-79600000D02*
X53560000Y-78780000D01*
X56100000Y-79600000D02*
X54380000Y-79600000D01*
X52190000Y-65800000D02*
X54225000Y-65800000D01*
X52290000Y-75000026D02*
X52290000Y-76240000D01*
X53000000Y-74290026D02*
X52290000Y-75000026D01*
X53000000Y-67597828D02*
X53000000Y-74290026D01*
X52190000Y-65800000D02*
X52190000Y-66787828D01*
X52190000Y-66787828D02*
X53000000Y-67597828D01*
X71390000Y-65800000D02*
X73425000Y-65800000D01*
X71390000Y-76430000D02*
X72660000Y-77700000D01*
X71390000Y-76240000D02*
X71390000Y-76430000D01*
X73480000Y-79600000D02*
X72660000Y-78780000D01*
X75200000Y-79600000D02*
X73480000Y-79600000D01*
X72000000Y-75630000D02*
X71390000Y-76240000D01*
X72000000Y-67397828D02*
X72000000Y-75630000D01*
X71390000Y-65800000D02*
X71390000Y-66787828D01*
X71390000Y-66787828D02*
X72000000Y-67397828D01*
X92631748Y-81513376D02*
X92631748Y-80749503D01*
X93317334Y-82198962D02*
X92631748Y-81513376D01*
X94872968Y-82198962D02*
X93317334Y-82198962D01*
X92062422Y-78857453D02*
X92911272Y-79706303D01*
X92062422Y-77967351D02*
X92062422Y-78857453D01*
X96358785Y-67613899D02*
X96885482Y-68140596D01*
X94919823Y-67613899D02*
X96358785Y-67613899D01*
X93200000Y-76829773D02*
X92062422Y-77967351D01*
X93200000Y-73600000D02*
X93200000Y-76829773D01*
X93800000Y-73000000D02*
X93200000Y-73600000D01*
X94919823Y-67613899D02*
X93800000Y-68733722D01*
X93800000Y-68733722D02*
X93800000Y-73000000D01*
X122827930Y-68706698D02*
X122614398Y-68920230D01*
X122827930Y-66479553D02*
X122827930Y-68706698D01*
X109650000Y-67000000D02*
X112850000Y-63800000D01*
X109050000Y-67000000D02*
X109650000Y-67000000D01*
X115250000Y-61150000D02*
X115000000Y-61400000D01*
X113790695Y-61400000D02*
X113225010Y-61400000D01*
X115000000Y-61400000D02*
X113790695Y-61400000D01*
X106800000Y-73450000D02*
X106800000Y-68800000D01*
X106800000Y-86560255D02*
X106800000Y-73600000D01*
X110284936Y-90045191D02*
X106800000Y-86560255D01*
X106800000Y-73600000D02*
X106800000Y-73450000D01*
X106225940Y-86560255D02*
X106800000Y-86560255D01*
X105650000Y-86560000D02*
X106215685Y-86560000D01*
X129200000Y-61187521D02*
X130441858Y-62429379D01*
X129200000Y-57600000D02*
X129200000Y-61187521D01*
X128600000Y-57000000D02*
X129200000Y-57600000D01*
X119200000Y-57000000D02*
X128600000Y-57000000D01*
X116691891Y-59951562D02*
X116691891Y-59508109D01*
X116691891Y-59508109D02*
X119200000Y-57000000D01*
X116550000Y-59875000D02*
X113940675Y-59875000D01*
X116625000Y-59950000D02*
X116550000Y-59875000D01*
X113940675Y-59875000D02*
X113374990Y-59875000D01*
X108000000Y-74500000D02*
X108000000Y-86500000D01*
X110050000Y-68875000D02*
X110050000Y-72450004D01*
X111460295Y-88119845D02*
X111460295Y-87929409D01*
X111296935Y-88850179D02*
X111296935Y-87853065D01*
X118611747Y-74980999D02*
X119330999Y-74980999D01*
X117913248Y-74282500D02*
X118611747Y-74980999D01*
X119330999Y-74980999D02*
X119700000Y-75350000D01*
D27*
G36*
X119408331Y-28922730D02*
G01*
X119408336Y-28922730D01*
X121555325Y-29103896D01*
X121555329Y-29103896D01*
X123702320Y-29285063D01*
X123702325Y-29285063D01*
X125849314Y-29466229D01*
X125849319Y-29466229D01*
X127996309Y-29647395D01*
X127996314Y-29647395D01*
X130143303Y-29828561D01*
X130143307Y-29828561D01*
X132290298Y-30009728D01*
X132290303Y-30009728D01*
X134395106Y-30187334D01*
X134917602Y-30240422D01*
X135339941Y-30372252D01*
X135723847Y-30581313D01*
X136059784Y-30858787D01*
X136337254Y-31194718D01*
X136546320Y-31578629D01*
X136678148Y-32000965D01*
X136725139Y-32463451D01*
X136585708Y-34212014D01*
X136197757Y-39026929D01*
X135640371Y-45920967D01*
X134986977Y-53977899D01*
X134311285Y-62277881D01*
X133936266Y-66857407D01*
X133845498Y-66766639D01*
X133643223Y-66631483D01*
X133418467Y-66538386D01*
X133179868Y-66490926D01*
X132966253Y-66490926D01*
X133010316Y-66445891D01*
X133170169Y-66200910D01*
X133279157Y-65929453D01*
X133333091Y-65641949D01*
X133329900Y-65349448D01*
X133269706Y-65063189D01*
X133154822Y-64794173D01*
X132989663Y-64552740D01*
X132780577Y-64348166D01*
X132535597Y-64188314D01*
X132264140Y-64079326D01*
X132048682Y-64038907D01*
X131106381Y-63956467D01*
X131017311Y-63957439D01*
X131013843Y-63954593D01*
X130881814Y-63884021D01*
X130738553Y-63840564D01*
X130589567Y-63825890D01*
X130440582Y-63840564D01*
X130297321Y-63884021D01*
X130165292Y-63954593D01*
X130049566Y-64049566D01*
X129954593Y-64165291D01*
X129926388Y-64218058D01*
X129886543Y-64171794D01*
X129656348Y-63991862D01*
X129395473Y-63860295D01*
X129113944Y-63782151D01*
X128715466Y-63747289D01*
X128597109Y-65100121D01*
X128617033Y-65101864D01*
X128594895Y-65354898D01*
X128574971Y-65353155D01*
X128456613Y-66705987D01*
X128855091Y-66740849D01*
X129145913Y-66712779D01*
X129425671Y-66628512D01*
X129683614Y-66491286D01*
X129866064Y-66342148D01*
X129906550Y-66401332D01*
X130115636Y-66605906D01*
X130360617Y-66765758D01*
X130565267Y-66847924D01*
X130298155Y-69901031D01*
X130082343Y-69946412D01*
X129813327Y-70061296D01*
X129571894Y-70226454D01*
X129521747Y-70277707D01*
X129367966Y-70099153D01*
X129137771Y-69919221D01*
X128876896Y-69787654D01*
X128595367Y-69709510D01*
X128196889Y-69674648D01*
X128078532Y-71027480D01*
X128098456Y-71029223D01*
X128076318Y-71282257D01*
X128056394Y-71280514D01*
X127938036Y-72633346D01*
X128336514Y-72668208D01*
X128627336Y-72640138D01*
X128907094Y-72555871D01*
X129165037Y-72418645D01*
X129347487Y-72269507D01*
X129387973Y-72328691D01*
X129597059Y-72533265D01*
X129842040Y-72693117D01*
X130113497Y-72802105D01*
X130328955Y-72842524D01*
X131271255Y-72924964D01*
X131490458Y-72922572D01*
X131776717Y-72862378D01*
X132045733Y-72747494D01*
X132287166Y-72582336D01*
X132491739Y-72373250D01*
X132651592Y-72128269D01*
X132760580Y-71856812D01*
X132814514Y-71569308D01*
X132811323Y-71276807D01*
X132751129Y-70990548D01*
X132636245Y-70721532D01*
X132599290Y-70667511D01*
X132784071Y-70704266D01*
X133027345Y-70704266D01*
X133265944Y-70656806D01*
X133490700Y-70563709D01*
X133640432Y-70463661D01*
X133186371Y-75946221D01*
X132884667Y-79474028D01*
X132880958Y-79512314D01*
X132876934Y-79548546D01*
X132872541Y-79583033D01*
X132867751Y-79615875D01*
X132862536Y-79647213D01*
X132856852Y-79677277D01*
X132852181Y-79699147D01*
X132326670Y-81080122D01*
X131935000Y-81852508D01*
X131935000Y-81391229D01*
X131814524Y-80785554D01*
X131578201Y-80215021D01*
X131235114Y-79701554D01*
X130798446Y-79264886D01*
X130284979Y-78921799D01*
X129714446Y-78685476D01*
X129108771Y-78565000D01*
X128491229Y-78565000D01*
X127885554Y-78685476D01*
X127315021Y-78921799D01*
X126801554Y-79264886D01*
X126364886Y-79701554D01*
X126021799Y-80215021D01*
X125785476Y-80785554D01*
X125665000Y-81391229D01*
X125665000Y-82008771D01*
X125785476Y-82614446D01*
X126021799Y-83184979D01*
X126364886Y-83698446D01*
X126801554Y-84135114D01*
X127315021Y-84478201D01*
X127885554Y-84714524D01*
X128491229Y-84835000D01*
X129108771Y-84835000D01*
X129714446Y-84714524D01*
X130284979Y-84478201D01*
X130654328Y-84231410D01*
X130013449Y-85358945D01*
X128458918Y-87934756D01*
X126798995Y-90590455D01*
X125151153Y-93173636D01*
X123651266Y-95503577D01*
X123650890Y-95504052D01*
X123631400Y-95534436D01*
X123612497Y-95563800D01*
X123612230Y-95564322D01*
X122370891Y-97499502D01*
X121766714Y-98326145D01*
X121269096Y-98865539D01*
X121414524Y-98514446D01*
X121535000Y-97908771D01*
X121535000Y-97291229D01*
X121414524Y-96685554D01*
X121178201Y-96115021D01*
X120835114Y-95601554D01*
X120398446Y-95164886D01*
X119884979Y-94821799D01*
X119314446Y-94585476D01*
X118708771Y-94465000D01*
X118091229Y-94465000D01*
X117485554Y-94585476D01*
X116915021Y-94821799D01*
X116401554Y-95164886D01*
X115964886Y-95601554D01*
X115621799Y-96115021D01*
X115385476Y-96685554D01*
X115265000Y-97291229D01*
X115265000Y-97908771D01*
X115385476Y-98514446D01*
X115621799Y-99084979D01*
X115964886Y-99598446D01*
X116363882Y-99997442D01*
X115633383Y-99671454D01*
X114153562Y-98816976D01*
X114153432Y-98816883D01*
X114121402Y-98798406D01*
X114091160Y-98780944D01*
X114091022Y-98780881D01*
X112489167Y-97856843D01*
X112489163Y-97856840D01*
X110730558Y-96842363D01*
X108982563Y-95833105D01*
X107278185Y-94847222D01*
X105666205Y-93911969D01*
X104201104Y-93057891D01*
X102936145Y-92314837D01*
X102368837Y-91979830D01*
X111224517Y-91979830D01*
X111381631Y-92205755D01*
X111579802Y-92396687D01*
X111811414Y-92545289D01*
X112067566Y-92645851D01*
X112338416Y-92694508D01*
X112469827Y-92698810D01*
X112647879Y-92524375D01*
X112370435Y-91488940D01*
X112464141Y-91488940D01*
X112695346Y-91720145D01*
X112893224Y-92458635D01*
X113134639Y-92520674D01*
X113218064Y-92462658D01*
X113218064Y-92682783D01*
X113271750Y-92952681D01*
X113377059Y-93206918D01*
X113529944Y-93435726D01*
X113724529Y-93630311D01*
X113953337Y-93783196D01*
X114207574Y-93888505D01*
X114477472Y-93942191D01*
X114752656Y-93942191D01*
X115022554Y-93888505D01*
X115276791Y-93783196D01*
X115505599Y-93630311D01*
X115700184Y-93435726D01*
X115853069Y-93206918D01*
X115958378Y-92952681D01*
X116012064Y-92682783D01*
X116012064Y-92407599D01*
X115980200Y-92247409D01*
X116034823Y-92247409D01*
X116378328Y-92179081D01*
X116701904Y-92045052D01*
X116993114Y-91850472D01*
X117240768Y-91602818D01*
X117435348Y-91311608D01*
X117569377Y-90988032D01*
X117637705Y-90644527D01*
X117637705Y-90584045D01*
X117710934Y-90614377D01*
X118054439Y-90682705D01*
X118404675Y-90682705D01*
X118748180Y-90614377D01*
X119071756Y-90480348D01*
X119362966Y-90285768D01*
X119610620Y-90038114D01*
X119805200Y-89746904D01*
X119806596Y-89743533D01*
X119989399Y-89938710D01*
X120315237Y-90172202D01*
X120680366Y-90337640D01*
X121070754Y-90428665D01*
X121471398Y-90441781D01*
X121866903Y-90376482D01*
X122242070Y-90235280D01*
X122582481Y-90023599D01*
X122875055Y-89749574D01*
X123050036Y-89505389D01*
X123700005Y-88379611D01*
X123823985Y-88105980D01*
X123915010Y-87715592D01*
X123928126Y-87314947D01*
X123862827Y-86919442D01*
X123721625Y-86544275D01*
X123509944Y-86203864D01*
X123235919Y-85911290D01*
X122910081Y-85677798D01*
X122544952Y-85512360D01*
X122154564Y-85421335D01*
X121753919Y-85408219D01*
X121358414Y-85473518D01*
X120983248Y-85614720D01*
X120642837Y-85826401D01*
X120613263Y-85854100D01*
X120453061Y-85854100D01*
X120165988Y-85911202D01*
X119895571Y-86023212D01*
X119652203Y-86185826D01*
X119445235Y-86392794D01*
X119282621Y-86636162D01*
X119170611Y-86906579D01*
X119113509Y-87193652D01*
X119113509Y-87356960D01*
X119071756Y-87329062D01*
X118748180Y-87195033D01*
X118404675Y-87126705D01*
X118054439Y-87126705D01*
X117710934Y-87195033D01*
X117387358Y-87329062D01*
X117096148Y-87523642D01*
X116848494Y-87771296D01*
X116653914Y-88062506D01*
X116519885Y-88386082D01*
X116451557Y-88729587D01*
X116451557Y-88790069D01*
X116378328Y-88759737D01*
X116034823Y-88691409D01*
X115684587Y-88691409D01*
X115341082Y-88759737D01*
X115017506Y-88893766D01*
X114726296Y-89088346D01*
X114478642Y-89336000D01*
X114284062Y-89627210D01*
X114150033Y-89950786D01*
X114081705Y-90294291D01*
X114081705Y-90644527D01*
X114150033Y-90988032D01*
X114236248Y-91196173D01*
X114207574Y-91201877D01*
X113953337Y-91307186D01*
X113850324Y-91376017D01*
X113853619Y-91275364D01*
X113679184Y-91097312D01*
X112695348Y-91360931D01*
X112643749Y-91309332D01*
X112464141Y-91488940D01*
X112370435Y-91488940D01*
X112360197Y-91450734D01*
X111286556Y-91738415D01*
X111224517Y-91979830D01*
X102368837Y-91979830D01*
X100066108Y-90620023D01*
X100037293Y-90602736D01*
X100034974Y-90601638D01*
X100032776Y-90600340D01*
X100002467Y-90586247D01*
X96975181Y-89152904D01*
X96946630Y-89138967D01*
X96942511Y-89137436D01*
X96938556Y-89135563D01*
X96908765Y-89124890D01*
X93731399Y-87943606D01*
X93703824Y-87932795D01*
X93697547Y-87931021D01*
X93691442Y-87928751D01*
X93662857Y-87921215D01*
X90343079Y-86982825D01*
X90316956Y-86974762D01*
X90308320Y-86973000D01*
X90299853Y-86970607D01*
X90272993Y-86965794D01*
X86818033Y-86261008D01*
X86793722Y-86255278D01*
X86782703Y-86253801D01*
X86771793Y-86251575D01*
X86746918Y-86249002D01*
X83163909Y-85768582D01*
X83141485Y-85764741D01*
X83128126Y-85763784D01*
X83114870Y-85762007D01*
X83092159Y-85761209D01*
X79387821Y-85495961D01*
X79367356Y-85493625D01*
X79351839Y-85493385D01*
X79336356Y-85492276D01*
X79315760Y-85492826D01*
X75512914Y-85433929D01*
X75510351Y-85433655D01*
X75476760Y-85433369D01*
X75443282Y-85432851D01*
X75440722Y-85433063D01*
X71528368Y-85399810D01*
X71519608Y-85399083D01*
X71492290Y-85399503D01*
X71464959Y-85399271D01*
X71456200Y-85400059D01*
X67066629Y-85467594D01*
X67061092Y-85467218D01*
X67030537Y-85468149D01*
X66999978Y-85468619D01*
X66994465Y-85469248D01*
X62445059Y-85607843D01*
X62441240Y-85607624D01*
X62408911Y-85608945D01*
X62376694Y-85609926D01*
X62372914Y-85610415D01*
X57970898Y-85790222D01*
X57968116Y-85790083D01*
X57934828Y-85791695D01*
X57901531Y-85793055D01*
X57898773Y-85793441D01*
X53952550Y-85984532D01*
X53950439Y-85984439D01*
X53916554Y-85986275D01*
X53882544Y-85987922D01*
X53880446Y-85988232D01*
X50698911Y-86160627D01*
X50697262Y-86160562D01*
X50662855Y-86162581D01*
X50628456Y-86164445D01*
X50626825Y-86164695D01*
X48519182Y-86288375D01*
X48517952Y-86288330D01*
X48483029Y-86290496D01*
X48448317Y-86292533D01*
X48447109Y-86292724D01*
X47977662Y-86321841D01*
X48014446Y-86314524D01*
X48584979Y-86078201D01*
X49098446Y-85735114D01*
X49535114Y-85298446D01*
X49878201Y-84784979D01*
X50114524Y-84214446D01*
X50235000Y-83608771D01*
X50235000Y-82991229D01*
X50114524Y-82385554D01*
X49878201Y-81815021D01*
X49535114Y-81301554D01*
X49098446Y-80864886D01*
X48584979Y-80521799D01*
X48014446Y-80285476D01*
X47408771Y-80165000D01*
X46791229Y-80165000D01*
X46185554Y-80285476D01*
X45615021Y-80521799D01*
X45101554Y-80864886D01*
X44664886Y-81301554D01*
X44321799Y-81815021D01*
X44085476Y-82385554D01*
X43976144Y-82935204D01*
X43813217Y-80897580D01*
X43813217Y-80897575D01*
X43604338Y-78285262D01*
X43604338Y-78285257D01*
X43395459Y-75672943D01*
X43395459Y-75672938D01*
X43186529Y-73059999D01*
X42977700Y-70448305D01*
X42977700Y-70448300D01*
X42892936Y-69388212D01*
X49745000Y-69388212D01*
X49745000Y-69611788D01*
X49788617Y-69831067D01*
X49874176Y-70037624D01*
X49998388Y-70223520D01*
X50156480Y-70381612D01*
X50342376Y-70505824D01*
X50548933Y-70591383D01*
X50768212Y-70635000D01*
X50991788Y-70635000D01*
X51211067Y-70591383D01*
X51417624Y-70505824D01*
X51603520Y-70381612D01*
X51761612Y-70223520D01*
X51885824Y-70037624D01*
X51971383Y-69831067D01*
X52015000Y-69611788D01*
X52015000Y-69388212D01*
X51971383Y-69168933D01*
X51885824Y-68962376D01*
X51761612Y-68776480D01*
X51603520Y-68618388D01*
X51417624Y-68494176D01*
X51211067Y-68408617D01*
X50991788Y-68365000D01*
X50768212Y-68365000D01*
X50548933Y-68408617D01*
X50342376Y-68494176D01*
X50156480Y-68618388D01*
X49998388Y-68776480D01*
X49874176Y-68962376D01*
X49788617Y-69168933D01*
X49745000Y-69388212D01*
X42892936Y-69388212D01*
X42768821Y-67835987D01*
X42768821Y-67835982D01*
X42559942Y-65223668D01*
X42559942Y-65223663D01*
X42551220Y-65114588D01*
X42621799Y-65284979D01*
X42964886Y-65798446D01*
X43401554Y-66235114D01*
X43915021Y-66578201D01*
X44485554Y-66814524D01*
X45091229Y-66935000D01*
X45708771Y-66935000D01*
X46314446Y-66814524D01*
X46884979Y-66578201D01*
X47398446Y-66235114D01*
X47835114Y-65798446D01*
X48178201Y-65284979D01*
X48414524Y-64714446D01*
X48535000Y-64108771D01*
X48535000Y-63491229D01*
X48414524Y-62885554D01*
X48178201Y-62315021D01*
X47835114Y-61801554D01*
X47398446Y-61364886D01*
X46884979Y-61021799D01*
X46314446Y-60785476D01*
X45708771Y-60665000D01*
X45091229Y-60665000D01*
X44485554Y-60785476D01*
X43915021Y-61021799D01*
X43401554Y-61364886D01*
X42964886Y-61801554D01*
X42621799Y-62315021D01*
X42385476Y-62885554D01*
X42376569Y-62930334D01*
X42354550Y-62654958D01*
X42415356Y-62212784D01*
X42595618Y-61736337D01*
X42891312Y-61242318D01*
X43279987Y-60774143D01*
X43732191Y-60369541D01*
X44213376Y-60060767D01*
X44684281Y-59871899D01*
X45147038Y-59805739D01*
X46235217Y-59864408D01*
X49006904Y-60018987D01*
X52926705Y-60240953D01*
X57534365Y-60505843D01*
X62365644Y-60788969D01*
X66958151Y-61065738D01*
X70849805Y-61311579D01*
X73568261Y-61501183D01*
X73571276Y-61501674D01*
X73596673Y-61503287D01*
X73600147Y-61503819D01*
X73618443Y-61504806D01*
X73627133Y-61505439D01*
X73628764Y-61505673D01*
X73632803Y-61505852D01*
X73636463Y-61506119D01*
X73637959Y-61506081D01*
X73646987Y-61506482D01*
X73655637Y-61507031D01*
X73657267Y-61507249D01*
X73661265Y-61507388D01*
X73665229Y-61507640D01*
X73666862Y-61507583D01*
X73675601Y-61507888D01*
X73683922Y-61508336D01*
X73685485Y-61508531D01*
X73689396Y-61508632D01*
X73693892Y-61508874D01*
X73695703Y-61508794D01*
X73703759Y-61509001D01*
X73712110Y-61509371D01*
X73713568Y-61509540D01*
X73717358Y-61509604D01*
X73722422Y-61509829D01*
X73724381Y-61509723D01*
X73732016Y-61509853D01*
X73740090Y-61510134D01*
X73741475Y-61510283D01*
X73745338Y-61510317D01*
X73750962Y-61510513D01*
X73752987Y-61510385D01*
X73759974Y-61510446D01*
X73779335Y-61510944D01*
X73782553Y-61510710D01*
X73785924Y-61510768D01*
X76668003Y-61662515D01*
X80530516Y-62060229D01*
X85043530Y-62649782D01*
X89866788Y-63374930D01*
X94663985Y-64179469D01*
X99099041Y-65006995D01*
X102832446Y-65800061D01*
X105545562Y-66505324D01*
X106333857Y-66720702D01*
X106343103Y-66725004D01*
X106403602Y-66739757D01*
X106428676Y-66746608D01*
X106438663Y-66748307D01*
X106448516Y-66750710D01*
X106474274Y-66754366D01*
X106535641Y-66764808D01*
X106545832Y-66764524D01*
X107341846Y-66877522D01*
X107357879Y-66882344D01*
X107413386Y-66887678D01*
X107432684Y-66890417D01*
X107449315Y-66891130D01*
X107465884Y-66892722D01*
X107485372Y-66892676D01*
X107541087Y-66895064D01*
X107557635Y-66892504D01*
X108016323Y-66891412D01*
X108015000Y-66898061D01*
X108015000Y-67040000D01*
X98914802Y-67040000D01*
X97963804Y-66089003D01*
X97940001Y-66059999D01*
X97824276Y-65965026D01*
X97692247Y-65894454D01*
X97548986Y-65850997D01*
X97437333Y-65840000D01*
X97437322Y-65840000D01*
X97400000Y-65836324D01*
X97362678Y-65840000D01*
X93337322Y-65840000D01*
X93299999Y-65836324D01*
X93262676Y-65840000D01*
X93262667Y-65840000D01*
X93151014Y-65850997D01*
X93007753Y-65894454D01*
X92875724Y-65965026D01*
X92759999Y-66059999D01*
X92736201Y-66088997D01*
X91288998Y-67536201D01*
X91260000Y-67559999D01*
X91236202Y-67588997D01*
X91236201Y-67588998D01*
X91165026Y-67675724D01*
X91094454Y-67807754D01*
X91070812Y-67885695D01*
X91050998Y-67951014D01*
X91046173Y-67999999D01*
X91036324Y-68100000D01*
X91040001Y-68137332D01*
X91040000Y-69585197D01*
X89446481Y-71178717D01*
X89514524Y-71014446D01*
X89635000Y-70408771D01*
X89635000Y-69791229D01*
X89514524Y-69185554D01*
X89278201Y-68615021D01*
X88935114Y-68101554D01*
X88498446Y-67664886D01*
X87984979Y-67321799D01*
X87414446Y-67085476D01*
X86808771Y-66965000D01*
X86191229Y-66965000D01*
X85585554Y-67085476D01*
X85015021Y-67321799D01*
X84501554Y-67664886D01*
X84064886Y-68101554D01*
X83721799Y-68615021D01*
X83485476Y-69185554D01*
X83365000Y-69791229D01*
X83365000Y-70408771D01*
X83485476Y-71014446D01*
X83721799Y-71584979D01*
X84064886Y-72098446D01*
X84501554Y-72535114D01*
X85015021Y-72878201D01*
X85585554Y-73114524D01*
X86191229Y-73235000D01*
X86808771Y-73235000D01*
X87414446Y-73114524D01*
X87578718Y-73046480D01*
X83785199Y-76840000D01*
X81804041Y-76840000D01*
X81728364Y-76651511D01*
X81592732Y-76443650D01*
X81419154Y-76266243D01*
X81214301Y-76126109D01*
X80986046Y-76028632D01*
X80804379Y-75990432D01*
X80820142Y-75915467D01*
X80823171Y-75637738D01*
X80771961Y-75364754D01*
X80739940Y-75285000D01*
X80856109Y-75285000D01*
X81162327Y-75224089D01*
X81450779Y-75104609D01*
X81710379Y-74931150D01*
X81931150Y-74710379D01*
X82104609Y-74450779D01*
X82224089Y-74162327D01*
X82285000Y-73856109D01*
X82285000Y-73543891D01*
X82224089Y-73237673D01*
X82104609Y-72949221D01*
X81931150Y-72689621D01*
X81710379Y-72468850D01*
X81450779Y-72295391D01*
X81162327Y-72175911D01*
X80856109Y-72115000D01*
X80543891Y-72115000D01*
X80237673Y-72175911D01*
X80143303Y-72215000D01*
X80133740Y-72215000D01*
X79846842Y-72272068D01*
X79576589Y-72384010D01*
X79333368Y-72546525D01*
X79126525Y-72753368D01*
X78964010Y-72996589D01*
X78852068Y-73266842D01*
X78795000Y-73553740D01*
X78795000Y-73846260D01*
X78852068Y-74133158D01*
X78964010Y-74403411D01*
X78973585Y-74417741D01*
X78757525Y-74504487D01*
X78524920Y-74656266D01*
X78376141Y-74801833D01*
X77483613Y-75865508D01*
X77472100Y-75882339D01*
X77204750Y-75935518D01*
X76870801Y-76073844D01*
X76570256Y-76274662D01*
X76314662Y-76530256D01*
X76113844Y-76830801D01*
X75975518Y-77164750D01*
X75905000Y-77519268D01*
X75905000Y-77880732D01*
X75918778Y-77950000D01*
X75905955Y-78014466D01*
X75706081Y-77931675D01*
X75370883Y-77865000D01*
X75029117Y-77865000D01*
X74693919Y-77931675D01*
X74494045Y-78014466D01*
X74481222Y-77950000D01*
X74495000Y-77880732D01*
X74495000Y-77519268D01*
X74424482Y-77164750D01*
X74286156Y-76830801D01*
X74085338Y-76530256D01*
X73829744Y-76274662D01*
X73529199Y-76073844D01*
X73195250Y-75935518D01*
X72927901Y-75882339D01*
X72916387Y-75865507D01*
X72758960Y-75677893D01*
X72760000Y-75667333D01*
X72760000Y-75667324D01*
X72763676Y-75630001D01*
X72760000Y-75592678D01*
X72760000Y-74694907D01*
X72864893Y-74948141D01*
X73153262Y-75379715D01*
X73520285Y-75746738D01*
X73951859Y-76035107D01*
X74431399Y-76233739D01*
X74940475Y-76335000D01*
X75459525Y-76335000D01*
X75968601Y-76233739D01*
X76448141Y-76035107D01*
X76879715Y-75746738D01*
X77246738Y-75379715D01*
X77535107Y-74948141D01*
X77733739Y-74468601D01*
X77835000Y-73959525D01*
X77835000Y-73440475D01*
X77733739Y-72931399D01*
X77535107Y-72451859D01*
X77246738Y-72020285D01*
X76879715Y-71653262D01*
X76448141Y-71364893D01*
X75968601Y-71166261D01*
X75459525Y-71065000D01*
X74940475Y-71065000D01*
X74431399Y-71166261D01*
X73951859Y-71364893D01*
X73520285Y-71653262D01*
X73153262Y-72020285D01*
X72864893Y-72451859D01*
X72760000Y-72705093D01*
X72760000Y-69388212D01*
X79285000Y-69388212D01*
X79285000Y-69611788D01*
X79328617Y-69831067D01*
X79414176Y-70037624D01*
X79538388Y-70223520D01*
X79696480Y-70381612D01*
X79882376Y-70505824D01*
X80088933Y-70591383D01*
X80308212Y-70635000D01*
X80531788Y-70635000D01*
X80751067Y-70591383D01*
X80957624Y-70505824D01*
X81143520Y-70381612D01*
X81301612Y-70223520D01*
X81425824Y-70037624D01*
X81511383Y-69831067D01*
X81555000Y-69611788D01*
X81555000Y-69388212D01*
X81511383Y-69168933D01*
X81425824Y-68962376D01*
X81301612Y-68776480D01*
X81143520Y-68618388D01*
X80957624Y-68494176D01*
X80751067Y-68408617D01*
X80531788Y-68365000D01*
X80308212Y-68365000D01*
X80088933Y-68408617D01*
X79882376Y-68494176D01*
X79696480Y-68618388D01*
X79538388Y-68776480D01*
X79414176Y-68962376D01*
X79328617Y-69168933D01*
X79285000Y-69388212D01*
X72760000Y-69388212D01*
X72760000Y-67435150D01*
X72763676Y-67397827D01*
X72760000Y-67360504D01*
X72760000Y-67360495D01*
X72749003Y-67248842D01*
X72705546Y-67105581D01*
X72634974Y-66973552D01*
X72550338Y-66870423D01*
X72650518Y-66900812D01*
X72775000Y-66913072D01*
X74075000Y-66913072D01*
X74199482Y-66900812D01*
X74319180Y-66864502D01*
X74429494Y-66805537D01*
X74526185Y-66726185D01*
X74605537Y-66629494D01*
X74664502Y-66519180D01*
X74700812Y-66399482D01*
X74713072Y-66275000D01*
X74713072Y-65360000D01*
X75686928Y-65360000D01*
X75686928Y-66275000D01*
X75699188Y-66399482D01*
X75735498Y-66519180D01*
X75794463Y-66629494D01*
X75873815Y-66726185D01*
X75970506Y-66805537D01*
X76080820Y-66864502D01*
X76200518Y-66900812D01*
X76325000Y-66913072D01*
X77625000Y-66913072D01*
X77749482Y-66900812D01*
X77806109Y-66883634D01*
X77860315Y-66949685D01*
X77957006Y-67029037D01*
X78067320Y-67088002D01*
X78187018Y-67124312D01*
X78311500Y-67136572D01*
X79708500Y-67136572D01*
X79832982Y-67124312D01*
X79952680Y-67088002D01*
X80062994Y-67029037D01*
X80159685Y-66949685D01*
X80239037Y-66852994D01*
X80298002Y-66742680D01*
X80334312Y-66622982D01*
X80346572Y-66498500D01*
X80346572Y-65821373D01*
X81636200Y-67111002D01*
X81659999Y-67140001D01*
X81688997Y-67163799D01*
X81775723Y-67234974D01*
X81781586Y-67238108D01*
X81796063Y-67259774D01*
X81940226Y-67403937D01*
X82109744Y-67517205D01*
X82298102Y-67595226D01*
X82498061Y-67635000D01*
X82701939Y-67635000D01*
X82901898Y-67595226D01*
X83090256Y-67517205D01*
X83259774Y-67403937D01*
X83403937Y-67259774D01*
X83517205Y-67090256D01*
X83595226Y-66901898D01*
X83635000Y-66701939D01*
X83635000Y-66498061D01*
X83595226Y-66298102D01*
X83517205Y-66109744D01*
X83403937Y-65940226D01*
X83259774Y-65796063D01*
X83090256Y-65682795D01*
X82901898Y-65604774D01*
X82701939Y-65565000D01*
X82498061Y-65565000D01*
X82298102Y-65604774D01*
X82285002Y-65610200D01*
X80763804Y-64089003D01*
X80740001Y-64059999D01*
X80624276Y-63965026D01*
X80492247Y-63894454D01*
X80348986Y-63850997D01*
X80237333Y-63840000D01*
X80237322Y-63840000D01*
X80200000Y-63836324D01*
X80162678Y-63840000D01*
X70637333Y-63840000D01*
X70600000Y-63836323D01*
X70562667Y-63840000D01*
X70451014Y-63850997D01*
X70307753Y-63894454D01*
X70175724Y-63965026D01*
X70059999Y-64059999D01*
X70036201Y-64088997D01*
X63488998Y-70636201D01*
X63460000Y-70659999D01*
X63436202Y-70688997D01*
X63436201Y-70688998D01*
X63365026Y-70775724D01*
X63294454Y-70907754D01*
X63275244Y-70971083D01*
X63250998Y-71051014D01*
X63248458Y-71076804D01*
X63236324Y-71200000D01*
X63240001Y-71237332D01*
X63240000Y-74485198D01*
X61729487Y-75995711D01*
X61704379Y-75990432D01*
X61720142Y-75915467D01*
X61723171Y-75637738D01*
X61671961Y-75364754D01*
X61639940Y-75285000D01*
X61756109Y-75285000D01*
X62062327Y-75224089D01*
X62350779Y-75104609D01*
X62610379Y-74931150D01*
X62831150Y-74710379D01*
X63004609Y-74450779D01*
X63124089Y-74162327D01*
X63185000Y-73856109D01*
X63185000Y-73543891D01*
X63124089Y-73237673D01*
X63004609Y-72949221D01*
X62831150Y-72689621D01*
X62610379Y-72468850D01*
X62350779Y-72295391D01*
X62062327Y-72175911D01*
X61756109Y-72115000D01*
X61443891Y-72115000D01*
X61137673Y-72175911D01*
X61043303Y-72215000D01*
X61033740Y-72215000D01*
X60746842Y-72272068D01*
X60476589Y-72384010D01*
X60233368Y-72546525D01*
X60026525Y-72753368D01*
X59864010Y-72996589D01*
X59752068Y-73266842D01*
X59695000Y-73553740D01*
X59695000Y-73846260D01*
X59752068Y-74133158D01*
X59864010Y-74403411D01*
X59873585Y-74417741D01*
X59657525Y-74504487D01*
X59424920Y-74656266D01*
X59276141Y-74801833D01*
X58383613Y-75865508D01*
X58372100Y-75882339D01*
X58104750Y-75935518D01*
X57770801Y-76073844D01*
X57470256Y-76274662D01*
X57214662Y-76530256D01*
X57013844Y-76830801D01*
X56875518Y-77164750D01*
X56805000Y-77519268D01*
X56805000Y-77880732D01*
X56818778Y-77950000D01*
X56805955Y-78014466D01*
X56606081Y-77931675D01*
X56270883Y-77865000D01*
X55929117Y-77865000D01*
X55593919Y-77931675D01*
X55394045Y-78014466D01*
X55381222Y-77950000D01*
X55395000Y-77880732D01*
X55395000Y-77519268D01*
X55324482Y-77164750D01*
X55186156Y-76830801D01*
X54985338Y-76530256D01*
X54729744Y-76274662D01*
X54429199Y-76073844D01*
X54095250Y-75935518D01*
X53827901Y-75882339D01*
X53816387Y-75865507D01*
X53215468Y-75149359D01*
X53511002Y-74853825D01*
X53540001Y-74830027D01*
X53634974Y-74714302D01*
X53653600Y-74679456D01*
X53764893Y-74948141D01*
X54053262Y-75379715D01*
X54420285Y-75746738D01*
X54851859Y-76035107D01*
X55331399Y-76233739D01*
X55840475Y-76335000D01*
X56359525Y-76335000D01*
X56868601Y-76233739D01*
X57348141Y-76035107D01*
X57779715Y-75746738D01*
X58146738Y-75379715D01*
X58435107Y-74948141D01*
X58633739Y-74468601D01*
X58735000Y-73959525D01*
X58735000Y-73440475D01*
X58633739Y-72931399D01*
X58435107Y-72451859D01*
X58146738Y-72020285D01*
X57779715Y-71653262D01*
X57348141Y-71364893D01*
X56868601Y-71166261D01*
X56359525Y-71065000D01*
X55840475Y-71065000D01*
X55331399Y-71166261D01*
X54851859Y-71364893D01*
X54420285Y-71653262D01*
X54053262Y-72020285D01*
X53764893Y-72451859D01*
X53760000Y-72463672D01*
X53760000Y-69388212D01*
X60185000Y-69388212D01*
X60185000Y-69611788D01*
X60228617Y-69831067D01*
X60314176Y-70037624D01*
X60438388Y-70223520D01*
X60596480Y-70381612D01*
X60782376Y-70505824D01*
X60988933Y-70591383D01*
X61208212Y-70635000D01*
X61431788Y-70635000D01*
X61651067Y-70591383D01*
X61857624Y-70505824D01*
X62043520Y-70381612D01*
X62201612Y-70223520D01*
X62325824Y-70037624D01*
X62411383Y-69831067D01*
X62455000Y-69611788D01*
X62455000Y-69388212D01*
X62411383Y-69168933D01*
X62325824Y-68962376D01*
X62201612Y-68776480D01*
X62043520Y-68618388D01*
X61857624Y-68494176D01*
X61651067Y-68408617D01*
X61431788Y-68365000D01*
X61208212Y-68365000D01*
X60988933Y-68408617D01*
X60782376Y-68494176D01*
X60596480Y-68618388D01*
X60438388Y-68776480D01*
X60314176Y-68962376D01*
X60228617Y-69168933D01*
X60185000Y-69388212D01*
X53760000Y-69388212D01*
X53760000Y-67635150D01*
X53763676Y-67597828D01*
X53760000Y-67560505D01*
X53760000Y-67560495D01*
X53749003Y-67448842D01*
X53705546Y-67305581D01*
X53676370Y-67250997D01*
X53634974Y-67173551D01*
X53563799Y-67086825D01*
X53540001Y-67057827D01*
X53511004Y-67034030D01*
X53346116Y-66869142D01*
X53450518Y-66900812D01*
X53575000Y-66913072D01*
X54875000Y-66913072D01*
X54999482Y-66900812D01*
X55119180Y-66864502D01*
X55229494Y-66805537D01*
X55326185Y-66726185D01*
X55405537Y-66629494D01*
X55464502Y-66519180D01*
X55500812Y-66399482D01*
X55513072Y-66275000D01*
X55513072Y-65325000D01*
X56486928Y-65325000D01*
X56486928Y-66275000D01*
X56499188Y-66399482D01*
X56535498Y-66519180D01*
X56594463Y-66629494D01*
X56673815Y-66726185D01*
X56770506Y-66805537D01*
X56880820Y-66864502D01*
X57000518Y-66900812D01*
X57125000Y-66913072D01*
X58425000Y-66913072D01*
X58549482Y-66900812D01*
X58606109Y-66883634D01*
X58660315Y-66949685D01*
X58757006Y-67029037D01*
X58867320Y-67088002D01*
X58987018Y-67124312D01*
X59111500Y-67136572D01*
X60508500Y-67136572D01*
X60632982Y-67124312D01*
X60752680Y-67088002D01*
X60862994Y-67029037D01*
X60959685Y-66949685D01*
X61039037Y-66852994D01*
X61098002Y-66742680D01*
X61134312Y-66622982D01*
X61146572Y-66498500D01*
X61146572Y-65101500D01*
X61134312Y-64977018D01*
X61098002Y-64857320D01*
X61039037Y-64747006D01*
X60959685Y-64650315D01*
X60862994Y-64570963D01*
X60752680Y-64511998D01*
X60632982Y-64475688D01*
X60508500Y-64463428D01*
X59111500Y-64463428D01*
X58987018Y-64475688D01*
X58867320Y-64511998D01*
X58757006Y-64570963D01*
X58660315Y-64650315D01*
X58606109Y-64716366D01*
X58549482Y-64699188D01*
X58425000Y-64686928D01*
X57125000Y-64686928D01*
X57000518Y-64699188D01*
X56880820Y-64735498D01*
X56770506Y-64794463D01*
X56673815Y-64873815D01*
X56594463Y-64970506D01*
X56535498Y-65080820D01*
X56499188Y-65200518D01*
X56486928Y-65325000D01*
X55513072Y-65325000D01*
X55500812Y-65200518D01*
X55464502Y-65080820D01*
X55405537Y-64970506D01*
X55326185Y-64873815D01*
X55229494Y-64794463D01*
X55119180Y-64735498D01*
X54999482Y-64699188D01*
X54875000Y-64686928D01*
X53575000Y-64686928D01*
X53450518Y-64699188D01*
X53330820Y-64735498D01*
X53220506Y-64794463D01*
X53138015Y-64862161D01*
X53040057Y-64764203D01*
X52821649Y-64618268D01*
X52578968Y-64517746D01*
X52321338Y-64466500D01*
X52058662Y-64466500D01*
X51801032Y-64517746D01*
X51558351Y-64618268D01*
X51339943Y-64764203D01*
X51154203Y-64949943D01*
X51008268Y-65168351D01*
X50907746Y-65411032D01*
X50856500Y-65668662D01*
X50856500Y-65931338D01*
X50907746Y-66188968D01*
X51008268Y-66431649D01*
X51154203Y-66650057D01*
X51339943Y-66835797D01*
X51437467Y-66900960D01*
X51440998Y-66936814D01*
X51453772Y-66978925D01*
X51484454Y-67080074D01*
X51555026Y-67212104D01*
X51625235Y-67297653D01*
X51650000Y-67327829D01*
X51678998Y-67351627D01*
X52240000Y-67912630D01*
X52240001Y-72852931D01*
X52173475Y-72753368D01*
X51966632Y-72546525D01*
X51723411Y-72384010D01*
X51453158Y-72272068D01*
X51166260Y-72215000D01*
X51156697Y-72215000D01*
X51062327Y-72175911D01*
X50756109Y-72115000D01*
X50443891Y-72115000D01*
X50137673Y-72175911D01*
X49849221Y-72295391D01*
X49589621Y-72468850D01*
X49368850Y-72689621D01*
X49195391Y-72949221D01*
X49075911Y-73237673D01*
X49015000Y-73543891D01*
X49015000Y-73856109D01*
X49075911Y-74162327D01*
X49195391Y-74450779D01*
X49368850Y-74710379D01*
X49589621Y-74931150D01*
X49849221Y-75104609D01*
X50137673Y-75224089D01*
X50443891Y-75285000D01*
X50560060Y-75285000D01*
X50528039Y-75364754D01*
X50476829Y-75637738D01*
X50479858Y-75915466D01*
X50495621Y-75990432D01*
X50313954Y-76028632D01*
X50085699Y-76126110D01*
X49880846Y-76266244D01*
X49707268Y-76443650D01*
X49571636Y-76651512D01*
X49479162Y-76881839D01*
X49433398Y-77125782D01*
X49436106Y-77373964D01*
X49487179Y-77616851D01*
X49584657Y-77845106D01*
X49689676Y-77998628D01*
X50240968Y-78655631D01*
X50250998Y-78757469D01*
X50257277Y-78778169D01*
X50294454Y-78900729D01*
X50365026Y-79032759D01*
X50430667Y-79112742D01*
X50460000Y-79148484D01*
X50488998Y-79172282D01*
X53027722Y-81711008D01*
X53051516Y-81740001D01*
X53080509Y-81763795D01*
X53080513Y-81763799D01*
X53131780Y-81805872D01*
X53167241Y-81834974D01*
X53299270Y-81905546D01*
X53442531Y-81949003D01*
X53554184Y-81960000D01*
X53554193Y-81960000D01*
X53591516Y-81963676D01*
X53628839Y-81960000D01*
X57879734Y-81960000D01*
X57917056Y-81963676D01*
X57954378Y-81960000D01*
X57954389Y-81960000D01*
X58066042Y-81949003D01*
X58209303Y-81905546D01*
X58341332Y-81834974D01*
X58457057Y-81740001D01*
X58480859Y-81710998D01*
X59151004Y-81040854D01*
X59180001Y-81017057D01*
X59274974Y-80901332D01*
X59345546Y-80769303D01*
X59389003Y-80626042D01*
X59400000Y-80514389D01*
X59400000Y-80514380D01*
X59403676Y-80477057D01*
X59401103Y-80450931D01*
X59509199Y-80406156D01*
X59809744Y-80205338D01*
X60065338Y-79949744D01*
X60266156Y-79649199D01*
X60404482Y-79315250D01*
X60439432Y-79139543D01*
X60513954Y-79171368D01*
X60756841Y-79222441D01*
X61005023Y-79225149D01*
X61248966Y-79179385D01*
X61479293Y-79086911D01*
X61687155Y-78951279D01*
X61820107Y-78821196D01*
X62510324Y-77998628D01*
X62615344Y-77845107D01*
X62712821Y-77616851D01*
X62763894Y-77373965D01*
X62766602Y-77125782D01*
X62763825Y-77110977D01*
X64511004Y-75363798D01*
X64540001Y-75340001D01*
X64585139Y-75285000D01*
X64634974Y-75224277D01*
X64705546Y-75092247D01*
X64706228Y-75090000D01*
X64749003Y-74948986D01*
X64760000Y-74837333D01*
X64760000Y-74837323D01*
X64763676Y-74800000D01*
X64760000Y-74762677D01*
X64760000Y-71514801D01*
X66886589Y-69388212D01*
X68845000Y-69388212D01*
X68845000Y-69611788D01*
X68888617Y-69831067D01*
X68974176Y-70037624D01*
X69098388Y-70223520D01*
X69256480Y-70381612D01*
X69442376Y-70505824D01*
X69648933Y-70591383D01*
X69868212Y-70635000D01*
X70091788Y-70635000D01*
X70311067Y-70591383D01*
X70517624Y-70505824D01*
X70703520Y-70381612D01*
X70861612Y-70223520D01*
X70985824Y-70037624D01*
X71071383Y-69831067D01*
X71115000Y-69611788D01*
X71115000Y-69388212D01*
X71071383Y-69168933D01*
X70985824Y-68962376D01*
X70861612Y-68776480D01*
X70703520Y-68618388D01*
X70517624Y-68494176D01*
X70311067Y-68408617D01*
X70091788Y-68365000D01*
X69868212Y-68365000D01*
X69648933Y-68408617D01*
X69442376Y-68494176D01*
X69256480Y-68618388D01*
X69098388Y-68776480D01*
X68974176Y-68962376D01*
X68888617Y-69168933D01*
X68845000Y-69388212D01*
X66886589Y-69388212D01*
X70104111Y-66170691D01*
X70107746Y-66188968D01*
X70208268Y-66431649D01*
X70354203Y-66650057D01*
X70539943Y-66835797D01*
X70637467Y-66900960D01*
X70640998Y-66936814D01*
X70653772Y-66978925D01*
X70684454Y-67080074D01*
X70755026Y-67212104D01*
X70825235Y-67297653D01*
X70850000Y-67327829D01*
X70878998Y-67351627D01*
X71240000Y-67712630D01*
X71240001Y-72719894D01*
X71066632Y-72546525D01*
X70823411Y-72384010D01*
X70553158Y-72272068D01*
X70266260Y-72215000D01*
X70256697Y-72215000D01*
X70162327Y-72175911D01*
X69856109Y-72115000D01*
X69543891Y-72115000D01*
X69237673Y-72175911D01*
X68949221Y-72295391D01*
X68689621Y-72468850D01*
X68468850Y-72689621D01*
X68295391Y-72949221D01*
X68175911Y-73237673D01*
X68115000Y-73543891D01*
X68115000Y-73856109D01*
X68175911Y-74162327D01*
X68295391Y-74450779D01*
X68468850Y-74710379D01*
X68689621Y-74931150D01*
X68949221Y-75104609D01*
X69237673Y-75224089D01*
X69543891Y-75285000D01*
X69660060Y-75285000D01*
X69628039Y-75364754D01*
X69576829Y-75637738D01*
X69579858Y-75915466D01*
X69595621Y-75990432D01*
X69413954Y-76028632D01*
X69185699Y-76126110D01*
X68980846Y-76266244D01*
X68807268Y-76443650D01*
X68671636Y-76651512D01*
X68579162Y-76881839D01*
X68533398Y-77125782D01*
X68536106Y-77373964D01*
X68587179Y-77616851D01*
X68684657Y-77845106D01*
X68789676Y-77998628D01*
X69340968Y-78655631D01*
X69350998Y-78757469D01*
X69357277Y-78778169D01*
X69394454Y-78900729D01*
X69465026Y-79032759D01*
X69530667Y-79112742D01*
X69560000Y-79148484D01*
X69588998Y-79172282D01*
X72127722Y-81711008D01*
X72151516Y-81740001D01*
X72180509Y-81763795D01*
X72180513Y-81763799D01*
X72231780Y-81805872D01*
X72267241Y-81834974D01*
X72399270Y-81905546D01*
X72542531Y-81949003D01*
X72654184Y-81960000D01*
X72654193Y-81960000D01*
X72691516Y-81963676D01*
X72728839Y-81960000D01*
X76979734Y-81960000D01*
X77017056Y-81963676D01*
X77054378Y-81960000D01*
X77054389Y-81960000D01*
X77166042Y-81949003D01*
X77309303Y-81905546D01*
X77441332Y-81834974D01*
X77557057Y-81740001D01*
X77580859Y-81710998D01*
X78251004Y-81040854D01*
X78280001Y-81017057D01*
X78374974Y-80901332D01*
X78445546Y-80769303D01*
X78489003Y-80626042D01*
X78500000Y-80514389D01*
X78500000Y-80514380D01*
X78503676Y-80477057D01*
X78501103Y-80450931D01*
X78609199Y-80406156D01*
X78909744Y-80205338D01*
X79165338Y-79949744D01*
X79366156Y-79649199D01*
X79504482Y-79315250D01*
X79539432Y-79139543D01*
X79613954Y-79171368D01*
X79856841Y-79222441D01*
X80105023Y-79225149D01*
X80348966Y-79179385D01*
X80579293Y-79086911D01*
X80787155Y-78951279D01*
X80920107Y-78821196D01*
X81307097Y-78360000D01*
X84062678Y-78360000D01*
X84100000Y-78363676D01*
X84137322Y-78360000D01*
X84137333Y-78360000D01*
X84248986Y-78349003D01*
X84392247Y-78305546D01*
X84524276Y-78234974D01*
X84640001Y-78140001D01*
X84663804Y-78110997D01*
X91353215Y-71421588D01*
X91353524Y-71423143D01*
X91439083Y-71629700D01*
X91563295Y-71815596D01*
X91721387Y-71973688D01*
X91907283Y-72097900D01*
X92113840Y-72183459D01*
X92333119Y-72227076D01*
X92556695Y-72227076D01*
X92775974Y-72183459D01*
X92982531Y-72097900D01*
X93040001Y-72059500D01*
X93040001Y-72685197D01*
X92689002Y-73036197D01*
X92659999Y-73059999D01*
X92619147Y-73109778D01*
X92565026Y-73175724D01*
X92523218Y-73253941D01*
X92494454Y-73307754D01*
X92450997Y-73451015D01*
X92440000Y-73562668D01*
X92440000Y-73562678D01*
X92436324Y-73600000D01*
X92440000Y-73637323D01*
X92440000Y-74031995D01*
X92439729Y-74031724D01*
X92196508Y-73869209D01*
X92030741Y-73800546D01*
X91838187Y-73671886D01*
X91549735Y-73552406D01*
X91243517Y-73491495D01*
X90931299Y-73491495D01*
X90625081Y-73552406D01*
X90336629Y-73671886D01*
X90077029Y-73845345D01*
X89856258Y-74066116D01*
X89682799Y-74325716D01*
X89563319Y-74614168D01*
X89502408Y-74920386D01*
X89502408Y-75232604D01*
X89563319Y-75538822D01*
X89682799Y-75827274D01*
X89856258Y-76086874D01*
X90077029Y-76307645D01*
X90336629Y-76481104D01*
X90625081Y-76600584D01*
X90634604Y-76602478D01*
X90587029Y-76665900D01*
X90466910Y-76916328D01*
X90397955Y-77185377D01*
X90393779Y-77261868D01*
X90208413Y-77251748D01*
X89962706Y-77286827D01*
X89728564Y-77369166D01*
X89514985Y-77495603D01*
X89330176Y-77661277D01*
X89181240Y-77859823D01*
X89073899Y-78083609D01*
X89012280Y-78324037D01*
X88998750Y-78571865D01*
X89033829Y-78817572D01*
X89095536Y-78993043D01*
X89549338Y-79966224D01*
X89644093Y-80126285D01*
X89704385Y-80193540D01*
X89704385Y-81027052D01*
X89700708Y-81064384D01*
X89704385Y-81101717D01*
X89715382Y-81213370D01*
X89723682Y-81240733D01*
X89758838Y-81356630D01*
X89829410Y-81488660D01*
X89900585Y-81575386D01*
X89924384Y-81604385D01*
X89953382Y-81628183D01*
X92636201Y-84311003D01*
X92659999Y-84340001D01*
X92775724Y-84434974D01*
X92907753Y-84505546D01*
X93051014Y-84549003D01*
X93162667Y-84560000D01*
X93162676Y-84560000D01*
X93199999Y-84563676D01*
X93237322Y-84560000D01*
X95765633Y-84560000D01*
X95802955Y-84563676D01*
X95840277Y-84560000D01*
X95840288Y-84560000D01*
X95951941Y-84549003D01*
X96095202Y-84505546D01*
X96227231Y-84434974D01*
X96342956Y-84340001D01*
X96366758Y-84310998D01*
X96894202Y-83783555D01*
X97003401Y-83828786D01*
X97357919Y-83899304D01*
X97719383Y-83899304D01*
X98073901Y-83828786D01*
X98407850Y-83690460D01*
X98708395Y-83489642D01*
X98963989Y-83234048D01*
X99164807Y-82933503D01*
X99187007Y-82879909D01*
X99247458Y-82927351D01*
X99468850Y-83039548D01*
X99707876Y-83106398D01*
X99955350Y-83125331D01*
X100201763Y-83095621D01*
X100437646Y-83018408D01*
X100599737Y-82927168D01*
X101479330Y-82311269D01*
X101620506Y-82190160D01*
X101773738Y-81994910D01*
X101885935Y-81773520D01*
X101952785Y-81534494D01*
X101971718Y-81287019D01*
X101942008Y-81040605D01*
X101864795Y-80804723D01*
X101743048Y-80588436D01*
X101581445Y-80400057D01*
X101386196Y-80246825D01*
X101220607Y-80162908D01*
X101255236Y-80094578D01*
X101330043Y-79827096D01*
X101351231Y-79550160D01*
X101341042Y-79465651D01*
X101556483Y-79508505D01*
X101868701Y-79508505D01*
X102174919Y-79447594D01*
X102463371Y-79328114D01*
X102722971Y-79154655D01*
X102943742Y-78933884D01*
X103117201Y-78674284D01*
X103236681Y-78385832D01*
X103297592Y-78079614D01*
X103297592Y-77767396D01*
X103236681Y-77461178D01*
X103117201Y-77172726D01*
X102943742Y-76913126D01*
X102722971Y-76692355D01*
X102463371Y-76518896D01*
X102174919Y-76399416D01*
X101868701Y-76338505D01*
X101556483Y-76338505D01*
X101526702Y-76344429D01*
X101453163Y-76329801D01*
X101160643Y-76329801D01*
X100873745Y-76386869D01*
X100603492Y-76498811D01*
X100360271Y-76661326D01*
X100153428Y-76868169D01*
X99990913Y-77111390D01*
X99878971Y-77381643D01*
X99821903Y-77668541D01*
X99821903Y-77961061D01*
X99863357Y-78169464D01*
X99628091Y-78197830D01*
X99364127Y-78284234D01*
X99182742Y-78386334D01*
X98045327Y-79182761D01*
X98033426Y-79192970D01*
X97998907Y-79186104D01*
X97637443Y-79186104D01*
X97282925Y-79256622D01*
X96948976Y-79394948D01*
X96648431Y-79595766D01*
X96392837Y-79851360D01*
X96192019Y-80151905D01*
X96053693Y-80485854D01*
X95988430Y-80813956D01*
X95974263Y-80848157D01*
X95694799Y-80661425D01*
X95379049Y-80530637D01*
X95043851Y-80463962D01*
X94702085Y-80463962D01*
X94593892Y-80485483D01*
X94611608Y-80396414D01*
X94675754Y-80241553D01*
X94746272Y-79887035D01*
X94746272Y-79525571D01*
X94675754Y-79171053D01*
X94537428Y-78837104D01*
X94336610Y-78536559D01*
X94081016Y-78280965D01*
X93780471Y-78080147D01*
X93641416Y-78022549D01*
X93633724Y-78000676D01*
X93465232Y-77639343D01*
X93711003Y-77393572D01*
X93740001Y-77369774D01*
X93834974Y-77254049D01*
X93855666Y-77215337D01*
X93866261Y-77268601D01*
X94064893Y-77748141D01*
X94353262Y-78179715D01*
X94720285Y-78546738D01*
X95151859Y-78835107D01*
X95631399Y-79033739D01*
X96140475Y-79135000D01*
X96659525Y-79135000D01*
X97168601Y-79033739D01*
X97648141Y-78835107D01*
X98079715Y-78546738D01*
X98446738Y-78179715D01*
X98735107Y-77748141D01*
X98933739Y-77268601D01*
X99035000Y-76759525D01*
X99035000Y-76240475D01*
X98933739Y-75731399D01*
X98735107Y-75251859D01*
X98446738Y-74820285D01*
X98079715Y-74453262D01*
X97648141Y-74164893D01*
X97168601Y-73966261D01*
X96659525Y-73865000D01*
X96140475Y-73865000D01*
X95631399Y-73966261D01*
X95151859Y-74164893D01*
X94720285Y-74453262D01*
X94353262Y-74820285D01*
X94064893Y-75251859D01*
X93960000Y-75505093D01*
X93960000Y-73914801D01*
X94192442Y-73682359D01*
X101394173Y-73682359D01*
X101394173Y-73905935D01*
X101437790Y-74125214D01*
X101523349Y-74331771D01*
X101647561Y-74517667D01*
X101805653Y-74675759D01*
X101991549Y-74799971D01*
X102198106Y-74885530D01*
X102417385Y-74929147D01*
X102640961Y-74929147D01*
X102860240Y-74885530D01*
X103066797Y-74799971D01*
X103252693Y-74675759D01*
X103410785Y-74517667D01*
X103534997Y-74331771D01*
X103620556Y-74125214D01*
X103664173Y-73905935D01*
X103664173Y-73682359D01*
X103620556Y-73463080D01*
X103534997Y-73256523D01*
X103410785Y-73070627D01*
X103252693Y-72912535D01*
X103066797Y-72788323D01*
X102860240Y-72702764D01*
X102640961Y-72659147D01*
X102417385Y-72659147D01*
X102198106Y-72702764D01*
X101991549Y-72788323D01*
X101805653Y-72912535D01*
X101647561Y-73070627D01*
X101523349Y-73256523D01*
X101437790Y-73463080D01*
X101394173Y-73682359D01*
X94192442Y-73682359D01*
X94311002Y-73563800D01*
X94340001Y-73540001D01*
X94379809Y-73491495D01*
X94434974Y-73424277D01*
X94505546Y-73292247D01*
X94514213Y-73263675D01*
X94549003Y-73148986D01*
X94560000Y-73037333D01*
X94560000Y-73037324D01*
X94563676Y-73000001D01*
X94560000Y-72962678D01*
X94560000Y-69125748D01*
X94708791Y-69096152D01*
X94951472Y-68995630D01*
X94994193Y-68967085D01*
X95054963Y-69051888D01*
X95146257Y-69137395D01*
X95252479Y-69203447D01*
X95369546Y-69247508D01*
X96625250Y-69583973D01*
X96748663Y-69604349D01*
X96873680Y-69600256D01*
X96995496Y-69571853D01*
X97109431Y-69520230D01*
X97211105Y-69447371D01*
X97296612Y-69356077D01*
X97362664Y-69249855D01*
X97406725Y-69132788D01*
X97618862Y-68341080D01*
X97634484Y-68289581D01*
X97635543Y-68278827D01*
X97652603Y-68215159D01*
X97672979Y-68091746D01*
X97668886Y-67966729D01*
X97661880Y-67936682D01*
X98036201Y-68311003D01*
X98059999Y-68340001D01*
X98175724Y-68434974D01*
X98307753Y-68505546D01*
X98451014Y-68549003D01*
X98562667Y-68560000D01*
X98562676Y-68560000D01*
X98568265Y-68560550D01*
X98347397Y-69384841D01*
X98327021Y-69508254D01*
X98331114Y-69633271D01*
X98359517Y-69755087D01*
X98411140Y-69869022D01*
X98483999Y-69970696D01*
X98575293Y-70056203D01*
X98681515Y-70122255D01*
X98798582Y-70166316D01*
X100054286Y-70502781D01*
X100177699Y-70523157D01*
X100236841Y-70521221D01*
X100272106Y-70599052D01*
X100344965Y-70700726D01*
X100436259Y-70786233D01*
X100542481Y-70852285D01*
X100659548Y-70896346D01*
X102008946Y-71257916D01*
X102132359Y-71278292D01*
X102257376Y-71274199D01*
X102379193Y-71245796D01*
X102493127Y-71194173D01*
X102594801Y-71121314D01*
X102680308Y-71030020D01*
X102746360Y-70923798D01*
X102790421Y-70806731D01*
X103151991Y-69457333D01*
X103172367Y-69333920D01*
X103168274Y-69208903D01*
X103139871Y-69087086D01*
X103088248Y-68973152D01*
X103015389Y-68871478D01*
X102924095Y-68785971D01*
X102817873Y-68719919D01*
X102700806Y-68675858D01*
X102351007Y-68582130D01*
X102328877Y-68560000D01*
X105792462Y-68560000D01*
X105765000Y-68698061D01*
X105765000Y-68901939D01*
X105804774Y-69101898D01*
X105882795Y-69290256D01*
X105996063Y-69459774D01*
X106040001Y-69503712D01*
X106040000Y-73412667D01*
X106040000Y-73637332D01*
X106040001Y-73637342D01*
X106040000Y-85591267D01*
X105951898Y-85554774D01*
X105751939Y-85515000D01*
X105548061Y-85515000D01*
X105348102Y-85554774D01*
X105159744Y-85632795D01*
X104990226Y-85746063D01*
X104846063Y-85890226D01*
X104732795Y-86059744D01*
X104654774Y-86248102D01*
X104615000Y-86448061D01*
X104615000Y-86651939D01*
X104654774Y-86851898D01*
X104732795Y-87040256D01*
X104846063Y-87209774D01*
X104990226Y-87353937D01*
X105159744Y-87467205D01*
X105348102Y-87545226D01*
X105548061Y-87585000D01*
X105751939Y-87585000D01*
X105951898Y-87545226D01*
X106140256Y-87467205D01*
X106309774Y-87353937D01*
X106343456Y-87320255D01*
X106485199Y-87320255D01*
X108918564Y-89753621D01*
X108887936Y-89907599D01*
X108887936Y-90182783D01*
X108941622Y-90452681D01*
X109046931Y-90706918D01*
X109199816Y-90935726D01*
X109394401Y-91130311D01*
X109623209Y-91283196D01*
X109877446Y-91388505D01*
X110147344Y-91442191D01*
X110422528Y-91442191D01*
X110692426Y-91388505D01*
X110946663Y-91283196D01*
X111049676Y-91214365D01*
X111046381Y-91315018D01*
X111220816Y-91493070D01*
X112204652Y-91229451D01*
X112256251Y-91281050D01*
X112435859Y-91101442D01*
X112204654Y-90870237D01*
X112006776Y-90131747D01*
X111765361Y-90069708D01*
X111681936Y-90127724D01*
X111681936Y-90066007D01*
X112252121Y-90066007D01*
X112539803Y-91139648D01*
X113613444Y-90851967D01*
X113675483Y-90610552D01*
X113518369Y-90384627D01*
X113320198Y-90193695D01*
X113088586Y-90045093D01*
X112832434Y-89944531D01*
X112561584Y-89895874D01*
X112430173Y-89891572D01*
X112252121Y-90066007D01*
X111681936Y-90066007D01*
X111681936Y-89907599D01*
X111641861Y-89706126D01*
X111978918Y-89639081D01*
X112302494Y-89505052D01*
X112593704Y-89310472D01*
X112841358Y-89062818D01*
X113035938Y-88771608D01*
X113169967Y-88448032D01*
X113238295Y-88104527D01*
X113238295Y-87754291D01*
X113169967Y-87410786D01*
X113035938Y-87087210D01*
X112841358Y-86796000D01*
X112618348Y-86572990D01*
X112763852Y-86475768D01*
X113011506Y-86228114D01*
X113206086Y-85936904D01*
X113340115Y-85613328D01*
X113408443Y-85269823D01*
X113408443Y-84919587D01*
X113340115Y-84576082D01*
X113325616Y-84541076D01*
X113571100Y-84541076D01*
X113571100Y-85058924D01*
X113672127Y-85566822D01*
X113870299Y-86045251D01*
X114158000Y-86475826D01*
X114524174Y-86842000D01*
X114954749Y-87129701D01*
X115433178Y-87327873D01*
X115941076Y-87428900D01*
X116458924Y-87428900D01*
X116966822Y-87327873D01*
X117445251Y-87129701D01*
X117875826Y-86842000D01*
X118242000Y-86475826D01*
X118529701Y-86045251D01*
X118727873Y-85566822D01*
X118828900Y-85058924D01*
X118828900Y-84541076D01*
X118727873Y-84033178D01*
X118529701Y-83554749D01*
X118242000Y-83124174D01*
X117875826Y-82758000D01*
X117445251Y-82470299D01*
X116966822Y-82272127D01*
X116458924Y-82171100D01*
X115941076Y-82171100D01*
X115433178Y-82272127D01*
X114954749Y-82470299D01*
X114524174Y-82758000D01*
X114158000Y-83124174D01*
X113870299Y-83554749D01*
X113672127Y-84033178D01*
X113571100Y-84541076D01*
X113325616Y-84541076D01*
X113206086Y-84252506D01*
X113011506Y-83961296D01*
X112763852Y-83713642D01*
X112531732Y-83558545D01*
X112747797Y-83414174D01*
X112954765Y-83207206D01*
X113117379Y-82963838D01*
X113229389Y-82693421D01*
X113286491Y-82406348D01*
X113286491Y-82113652D01*
X113229389Y-81826579D01*
X113117379Y-81556162D01*
X113081199Y-81502015D01*
X113089692Y-81465592D01*
X113102808Y-81064947D01*
X113037509Y-80669442D01*
X112896307Y-80294275D01*
X112684626Y-79953864D01*
X112410601Y-79661290D01*
X112084763Y-79427798D01*
X111719634Y-79262360D01*
X111329246Y-79171335D01*
X110928601Y-79158219D01*
X110533096Y-79223518D01*
X110157930Y-79364720D01*
X109817519Y-79576401D01*
X109524945Y-79850426D01*
X109349964Y-80094611D01*
X108760000Y-81116458D01*
X108760000Y-75203711D01*
X108803937Y-75159774D01*
X108917205Y-74990256D01*
X108995226Y-74801898D01*
X109035000Y-74601939D01*
X109035000Y-74398061D01*
X108995226Y-74198102D01*
X108917205Y-74009744D01*
X108900674Y-73985003D01*
X109560202Y-73985003D01*
X115811201Y-80236003D01*
X115834999Y-80265001D01*
X115863997Y-80288799D01*
X115950723Y-80359974D01*
X116072836Y-80425245D01*
X116082753Y-80430546D01*
X116226014Y-80474003D01*
X116337667Y-80485000D01*
X116337677Y-80485000D01*
X116375000Y-80488676D01*
X116412323Y-80485000D01*
X120062678Y-80485000D01*
X120100000Y-80488676D01*
X120137322Y-80485000D01*
X120137333Y-80485000D01*
X120248986Y-80474003D01*
X120392247Y-80430546D01*
X120515639Y-80364591D01*
X120521750Y-80395312D01*
X120627059Y-80649549D01*
X120779944Y-80878357D01*
X120974529Y-81072942D01*
X121203337Y-81225827D01*
X121457574Y-81331136D01*
X121727472Y-81384822D01*
X122002656Y-81384822D01*
X122272554Y-81331136D01*
X122526791Y-81225827D01*
X122755599Y-81072942D01*
X122950184Y-80878357D01*
X123103069Y-80649549D01*
X123208378Y-80395312D01*
X123262064Y-80125414D01*
X123262064Y-79850230D01*
X123254062Y-79810000D01*
X123512678Y-79810000D01*
X123550000Y-79813676D01*
X123587322Y-79810000D01*
X123587333Y-79810000D01*
X123698986Y-79799003D01*
X123842247Y-79755546D01*
X123974276Y-79684974D01*
X124090001Y-79590001D01*
X124113804Y-79560998D01*
X124212237Y-79462564D01*
X124448995Y-79599256D01*
X124562930Y-79650879D01*
X124684746Y-79679282D01*
X124809763Y-79683375D01*
X124933176Y-79662999D01*
X125050243Y-79618938D01*
X125156465Y-79552885D01*
X125247759Y-79467379D01*
X125320618Y-79365705D01*
X126019118Y-78155867D01*
X126070741Y-78041932D01*
X126099144Y-77920116D01*
X126103237Y-77795099D01*
X126082861Y-77671686D01*
X126038800Y-77554619D01*
X125972747Y-77448397D01*
X125887241Y-77357103D01*
X125785567Y-77284244D01*
X124575729Y-76585744D01*
X124461794Y-76534121D01*
X124339978Y-76505718D01*
X124214961Y-76501625D01*
X124091548Y-76522001D01*
X124011578Y-76552100D01*
X123971127Y-76508910D01*
X123869453Y-76436051D01*
X122743619Y-75786051D01*
X122629685Y-75734428D01*
X122507868Y-75706025D01*
X122382851Y-75701932D01*
X122259438Y-75722308D01*
X122142371Y-75766369D01*
X122036149Y-75832421D01*
X121944855Y-75917928D01*
X121871996Y-76019602D01*
X121396996Y-76842326D01*
X121345373Y-76956261D01*
X121316970Y-77078077D01*
X121312877Y-77203094D01*
X121333253Y-77326507D01*
X121357984Y-77392215D01*
X119785199Y-78965000D01*
X116689802Y-78965000D01*
X115075032Y-77350230D01*
X116137936Y-77350230D01*
X116137936Y-77625414D01*
X116191622Y-77895312D01*
X116296931Y-78149549D01*
X116449816Y-78378357D01*
X116644401Y-78572942D01*
X116873209Y-78725827D01*
X117127446Y-78831136D01*
X117397344Y-78884822D01*
X117672528Y-78884822D01*
X117942426Y-78831136D01*
X118196663Y-78725827D01*
X118425471Y-78572942D01*
X118620056Y-78378357D01*
X118772941Y-78149549D01*
X118878250Y-77895312D01*
X118931936Y-77625414D01*
X118931936Y-77350230D01*
X118878250Y-77080332D01*
X118772941Y-76826095D01*
X118620056Y-76597287D01*
X118425471Y-76402702D01*
X118196663Y-76249817D01*
X117942426Y-76144508D01*
X117672528Y-76090822D01*
X117397344Y-76090822D01*
X117127446Y-76144508D01*
X116873209Y-76249817D01*
X116644401Y-76402702D01*
X116449816Y-76597287D01*
X116296931Y-76826095D01*
X116191622Y-77080332D01*
X116137936Y-77350230D01*
X115075032Y-77350230D01*
X114150302Y-76425500D01*
X114198061Y-76435000D01*
X114401939Y-76435000D01*
X114601898Y-76395226D01*
X114790256Y-76317205D01*
X114959774Y-76203937D01*
X115103937Y-76059774D01*
X115217205Y-75890256D01*
X115295226Y-75701898D01*
X115335000Y-75501939D01*
X115335000Y-75298061D01*
X115295226Y-75098102D01*
X115217205Y-74909744D01*
X115185000Y-74861546D01*
X115185000Y-74151162D01*
X116579748Y-74151162D01*
X116579748Y-74413838D01*
X116630994Y-74671468D01*
X116731516Y-74914149D01*
X116877451Y-75132557D01*
X117063191Y-75318297D01*
X117281599Y-75464232D01*
X117524280Y-75564754D01*
X117781910Y-75616000D01*
X118044586Y-75616000D01*
X118159622Y-75593118D01*
X118187471Y-75615973D01*
X118311410Y-75682221D01*
X118368977Y-75774796D01*
X118454483Y-75866090D01*
X118556157Y-75938949D01*
X119681991Y-76588949D01*
X119795925Y-76640572D01*
X119917742Y-76668975D01*
X120042759Y-76673068D01*
X120166172Y-76652692D01*
X120283239Y-76608631D01*
X120389461Y-76542579D01*
X120480755Y-76457072D01*
X120553614Y-76355398D01*
X121028614Y-75532674D01*
X121080237Y-75418739D01*
X121108640Y-75296923D01*
X121112733Y-75171906D01*
X121092357Y-75048493D01*
X121048296Y-74931426D01*
X120982243Y-74825204D01*
X120896737Y-74733910D01*
X120795063Y-74661051D01*
X119669229Y-74011051D01*
X119555295Y-73959428D01*
X119433478Y-73931025D01*
X119308461Y-73926932D01*
X119205526Y-73943927D01*
X119195502Y-73893532D01*
X119094980Y-73650851D01*
X118949045Y-73432443D01*
X118763305Y-73246703D01*
X118544897Y-73100768D01*
X118302216Y-73000246D01*
X118044586Y-72949000D01*
X117781910Y-72949000D01*
X117524280Y-73000246D01*
X117281599Y-73100768D01*
X117063191Y-73246703D01*
X116877451Y-73432443D01*
X116731516Y-73650851D01*
X116630994Y-73893532D01*
X116579748Y-74151162D01*
X115185000Y-74151162D01*
X115185000Y-73666578D01*
X115595044Y-73256535D01*
X115651898Y-73245226D01*
X115840256Y-73167205D01*
X116009774Y-73053937D01*
X116153937Y-72909774D01*
X116267205Y-72740256D01*
X116345226Y-72551898D01*
X116385000Y-72351939D01*
X116385000Y-72148061D01*
X116345226Y-71948102D01*
X116267205Y-71759744D01*
X116153937Y-71590226D01*
X116009774Y-71446063D01*
X115840256Y-71332795D01*
X115651898Y-71254774D01*
X115451939Y-71215000D01*
X115248061Y-71215000D01*
X115048102Y-71254774D01*
X114859744Y-71332795D01*
X114690226Y-71446063D01*
X114546063Y-71590226D01*
X114432795Y-71759744D01*
X114354774Y-71948102D01*
X114343465Y-72004956D01*
X113704951Y-72643471D01*
X113671184Y-72671183D01*
X113643471Y-72704951D01*
X113643468Y-72704954D01*
X113560590Y-72805941D01*
X113478412Y-72959687D01*
X113427805Y-73126510D01*
X113410719Y-73300000D01*
X113415001Y-73343479D01*
X113415000Y-74861545D01*
X113382795Y-74909744D01*
X113304774Y-75098102D01*
X113265000Y-75298061D01*
X113265000Y-75501939D01*
X113274500Y-75549698D01*
X110844258Y-73119457D01*
X110853937Y-73109778D01*
X110967205Y-72940260D01*
X111045226Y-72751902D01*
X111085000Y-72551943D01*
X111085000Y-72348065D01*
X111045226Y-72148106D01*
X110967205Y-71959748D01*
X110853937Y-71790230D01*
X110810000Y-71746293D01*
X110810000Y-69837076D01*
X113338843Y-69837076D01*
X113340207Y-69962153D01*
X113365947Y-70084560D01*
X113415073Y-70199593D01*
X113485695Y-70302832D01*
X113575103Y-70390310D01*
X113679858Y-70458665D01*
X113795936Y-70505269D01*
X113918875Y-70528332D01*
X114393581Y-70566779D01*
X114539179Y-70444607D01*
X114818596Y-70444607D01*
X114962906Y-70616589D01*
X115437076Y-70661157D01*
X115562153Y-70659793D01*
X115684560Y-70634053D01*
X115799593Y-70584927D01*
X115902832Y-70514305D01*
X115965465Y-70450290D01*
X116016032Y-70524209D01*
X116105439Y-70611687D01*
X116210194Y-70680041D01*
X116326272Y-70726645D01*
X116449212Y-70749708D01*
X117967413Y-70882533D01*
X118092489Y-70881168D01*
X118214896Y-70855429D01*
X118329930Y-70806304D01*
X118433169Y-70735680D01*
X118495800Y-70671668D01*
X118546365Y-70745584D01*
X118635772Y-70833062D01*
X118740527Y-70901416D01*
X118856605Y-70948020D01*
X118979545Y-70971083D01*
X120029260Y-71062921D01*
X120355693Y-71389354D01*
X120383406Y-71423122D01*
X120417174Y-71450835D01*
X120417176Y-71450837D01*
X120467633Y-71492246D01*
X120518164Y-71533716D01*
X120671910Y-71615894D01*
X120838733Y-71666500D01*
X120968746Y-71679305D01*
X120968756Y-71679305D01*
X121012222Y-71683586D01*
X121055688Y-71679305D01*
X122387730Y-71679305D01*
X122414611Y-71718601D01*
X122623697Y-71923175D01*
X122868678Y-72083027D01*
X123140135Y-72192015D01*
X123355593Y-72232434D01*
X124297893Y-72314874D01*
X124517096Y-72312482D01*
X124803355Y-72252288D01*
X125072371Y-72137404D01*
X125313804Y-71972246D01*
X125518377Y-71763160D01*
X125678230Y-71518179D01*
X125750584Y-71337965D01*
X126075372Y-71337965D01*
X126088008Y-71433492D01*
X126179442Y-71710990D01*
X126323257Y-71965319D01*
X126513926Y-72186703D01*
X126744121Y-72366635D01*
X127004996Y-72498202D01*
X127286525Y-72576346D01*
X127685003Y-72611208D01*
X127803360Y-71258376D01*
X126216268Y-71119523D01*
X126075372Y-71337965D01*
X125750584Y-71337965D01*
X125787218Y-71246722D01*
X125841152Y-70959218D01*
X125837961Y-70666717D01*
X125829589Y-70626901D01*
X126137582Y-70626901D01*
X126238405Y-70866490D01*
X127825498Y-71005342D01*
X127943856Y-69652510D01*
X127545378Y-69617648D01*
X127254556Y-69645718D01*
X126974798Y-69729985D01*
X126716855Y-69867211D01*
X126490640Y-70052123D01*
X126304846Y-70277614D01*
X126166614Y-70535018D01*
X126137582Y-70626901D01*
X125829589Y-70626901D01*
X125777767Y-70380458D01*
X125662883Y-70111442D01*
X125625929Y-70057421D01*
X125810708Y-70094176D01*
X126053982Y-70094176D01*
X126292581Y-70046716D01*
X126517337Y-69953619D01*
X126719612Y-69818463D01*
X126891632Y-69646443D01*
X127026788Y-69444168D01*
X127119885Y-69219412D01*
X127167345Y-68980813D01*
X127167345Y-68737539D01*
X127119885Y-68498940D01*
X127026788Y-68274184D01*
X126891632Y-68071909D01*
X126883490Y-68063767D01*
X127044155Y-67903102D01*
X127179311Y-67700827D01*
X127272408Y-67476071D01*
X127319868Y-67237472D01*
X127319868Y-66994198D01*
X127272408Y-66755599D01*
X127179311Y-66530843D01*
X127044155Y-66328568D01*
X126872135Y-66156548D01*
X126669860Y-66021392D01*
X126445104Y-65928295D01*
X126206505Y-65880835D01*
X125992891Y-65880835D01*
X126036953Y-65835801D01*
X126196806Y-65590820D01*
X126269160Y-65410606D01*
X126593949Y-65410606D01*
X126606585Y-65506133D01*
X126698019Y-65783631D01*
X126841834Y-66037960D01*
X127032503Y-66259344D01*
X127262698Y-66439276D01*
X127523573Y-66570843D01*
X127805102Y-66648987D01*
X128203580Y-66683849D01*
X128321937Y-65331017D01*
X126734845Y-65192164D01*
X126593949Y-65410606D01*
X126269160Y-65410606D01*
X126305794Y-65319363D01*
X126359728Y-65031859D01*
X126356537Y-64739358D01*
X126348165Y-64699542D01*
X126656159Y-64699542D01*
X126756982Y-64939131D01*
X128344075Y-65077983D01*
X128462433Y-63725151D01*
X128063955Y-63690289D01*
X127773133Y-63718359D01*
X127493375Y-63802626D01*
X127235432Y-63939852D01*
X127009217Y-64124764D01*
X126823423Y-64350255D01*
X126685191Y-64607659D01*
X126656159Y-64699542D01*
X126348165Y-64699542D01*
X126296343Y-64453099D01*
X126181459Y-64184083D01*
X126016300Y-63942650D01*
X125807214Y-63738076D01*
X125562234Y-63578224D01*
X125290777Y-63469236D01*
X125075319Y-63428817D01*
X124133018Y-63346377D01*
X123913816Y-63348769D01*
X123627557Y-63408963D01*
X123358541Y-63523847D01*
X123117108Y-63689005D01*
X122912534Y-63898091D01*
X122752682Y-64143072D01*
X122643694Y-64414529D01*
X122589760Y-64702033D01*
X122592665Y-64968298D01*
X122486204Y-64958984D01*
X122267002Y-64961376D01*
X121980743Y-65021570D01*
X121711727Y-65136454D01*
X121470294Y-65301612D01*
X121450252Y-65322096D01*
X121252030Y-65230043D01*
X120216555Y-66098910D01*
X120222630Y-66106149D01*
X120051774Y-66277005D01*
X121109108Y-67334339D01*
X121186133Y-67257314D01*
X121286373Y-67403849D01*
X121477762Y-67591108D01*
X121256762Y-67742289D01*
X121052188Y-67951375D01*
X120892336Y-68196356D01*
X120837710Y-68332413D01*
X120741793Y-68314419D01*
X119254377Y-68184287D01*
X119317207Y-68090256D01*
X119395228Y-67901898D01*
X119435002Y-67701939D01*
X119435002Y-67604137D01*
X119638326Y-67676903D01*
X119956904Y-67724182D01*
X120278584Y-67708401D01*
X120591005Y-67630167D01*
X120772403Y-67552701D01*
X120890846Y-67297653D01*
X120021979Y-66262178D01*
X120014740Y-66268253D01*
X119843884Y-66097397D01*
X119102497Y-66838784D01*
X119059776Y-66796063D01*
X119021246Y-66770318D01*
X119858711Y-66067602D01*
X118989844Y-65032127D01*
X118718103Y-65104483D01*
X118552508Y-65380717D01*
X118443986Y-65683949D01*
X118396707Y-66002527D01*
X118412488Y-66324207D01*
X118472785Y-66565000D01*
X118298063Y-66565000D01*
X118098104Y-66604774D01*
X117909746Y-66682795D01*
X117740228Y-66796063D01*
X117596065Y-66940226D01*
X117482797Y-67109744D01*
X117404776Y-67298102D01*
X117365002Y-67498061D01*
X117365002Y-67560198D01*
X116943121Y-67982079D01*
X116693259Y-67960219D01*
X116568183Y-67961584D01*
X116445776Y-67987323D01*
X116330742Y-68036448D01*
X116227503Y-68107072D01*
X116164870Y-68171086D01*
X116114305Y-68097168D01*
X116024897Y-68009690D01*
X115920142Y-67941335D01*
X115804064Y-67894731D01*
X115681125Y-67871668D01*
X115206419Y-67833221D01*
X115034437Y-67977531D01*
X114937586Y-69084552D01*
X114957510Y-69086295D01*
X114935372Y-69339329D01*
X114915448Y-69337586D01*
X114818596Y-70444607D01*
X114539179Y-70444607D01*
X114565563Y-70422469D01*
X114662414Y-69315448D01*
X113555393Y-69218596D01*
X113383411Y-69362906D01*
X113338843Y-69837076D01*
X110810000Y-69837076D01*
X110810000Y-69578711D01*
X110853937Y-69534774D01*
X110967205Y-69365256D01*
X111045226Y-69176898D01*
X111085000Y-68976939D01*
X111085000Y-68773061D01*
X111045226Y-68573102D01*
X111039799Y-68560000D01*
X113452139Y-68560000D01*
X113433221Y-68793581D01*
X113577531Y-68965563D01*
X114684552Y-69062414D01*
X114781404Y-67955393D01*
X114695940Y-67853541D01*
X115677144Y-66872338D01*
X115739281Y-66872338D01*
X115939240Y-66832564D01*
X116127598Y-66754543D01*
X116297116Y-66641275D01*
X116441279Y-66497112D01*
X116554547Y-66327594D01*
X116632568Y-66139236D01*
X116672342Y-65939277D01*
X116672342Y-65735399D01*
X116632568Y-65535440D01*
X116554547Y-65347082D01*
X116441279Y-65177564D01*
X116297116Y-65033401D01*
X116127598Y-64920133D01*
X116005319Y-64869483D01*
X116005943Y-64868859D01*
X119184420Y-64868859D01*
X120053287Y-65904334D01*
X121088762Y-65035467D01*
X121016406Y-64763726D01*
X120740172Y-64598131D01*
X120436940Y-64489609D01*
X120118362Y-64442330D01*
X119796682Y-64458111D01*
X119484261Y-64536345D01*
X119302863Y-64613811D01*
X119184420Y-64868859D01*
X116005943Y-64868859D01*
X118314802Y-62560000D01*
X120362678Y-62560000D01*
X120400000Y-62563676D01*
X120437322Y-62560000D01*
X120437333Y-62560000D01*
X120548986Y-62549003D01*
X120692247Y-62505546D01*
X120824276Y-62434974D01*
X120940001Y-62340001D01*
X120963803Y-62310998D01*
X121150887Y-62123915D01*
X121191262Y-62126699D01*
X121216148Y-62125969D01*
X121240413Y-62120398D01*
X121263125Y-62110201D01*
X121289803Y-62089803D01*
X122593814Y-60785792D01*
X123904423Y-62283630D01*
X123922575Y-62300669D01*
X123943702Y-62313840D01*
X123966993Y-62322636D01*
X123996033Y-62326938D01*
X129044858Y-62484714D01*
X129044858Y-62566971D01*
X129098544Y-62836869D01*
X129203853Y-63091106D01*
X129356738Y-63319914D01*
X129551323Y-63514499D01*
X129780131Y-63667384D01*
X130034368Y-63772693D01*
X130304266Y-63826379D01*
X130579450Y-63826379D01*
X130849348Y-63772693D01*
X131103585Y-63667384D01*
X131332393Y-63514499D01*
X131526978Y-63319914D01*
X131679863Y-63091106D01*
X131785172Y-62836869D01*
X131817355Y-62675072D01*
X131991566Y-62675072D01*
X132261464Y-62621386D01*
X132515701Y-62516077D01*
X132744509Y-62363192D01*
X132939094Y-62168607D01*
X133091979Y-61939799D01*
X133197288Y-61685562D01*
X133250974Y-61415664D01*
X133250974Y-61140480D01*
X133197288Y-60870582D01*
X133091979Y-60616345D01*
X132939094Y-60387537D01*
X132744509Y-60192952D01*
X132550229Y-60063138D01*
X132737077Y-59985743D01*
X132965885Y-59832858D01*
X133160470Y-59638273D01*
X133313355Y-59409465D01*
X133418664Y-59155228D01*
X133472350Y-58885330D01*
X133472350Y-58610146D01*
X133418664Y-58340248D01*
X133313355Y-58086011D01*
X133160470Y-57857203D01*
X132965885Y-57662618D01*
X132771605Y-57532804D01*
X132958453Y-57455408D01*
X133187261Y-57302523D01*
X133381846Y-57107938D01*
X133534731Y-56879130D01*
X133640040Y-56624893D01*
X133693726Y-56354995D01*
X133693726Y-56079811D01*
X133640040Y-55809913D01*
X133534731Y-55555676D01*
X133381846Y-55326868D01*
X133187261Y-55132283D01*
X132992981Y-55002469D01*
X133179828Y-54925074D01*
X133408636Y-54772189D01*
X133603221Y-54577604D01*
X133756106Y-54348796D01*
X133861415Y-54094559D01*
X133915101Y-53824661D01*
X133915101Y-53549477D01*
X133861415Y-53279579D01*
X133756106Y-53025342D01*
X133603221Y-52796534D01*
X133408636Y-52601949D01*
X133214356Y-52472135D01*
X133401204Y-52394739D01*
X133630012Y-52241854D01*
X133824597Y-52047269D01*
X133977482Y-51818461D01*
X134082791Y-51564224D01*
X134136477Y-51294326D01*
X134136477Y-51019142D01*
X134082791Y-50749244D01*
X133977482Y-50495007D01*
X133824597Y-50266199D01*
X133630012Y-50071614D01*
X133435732Y-49941800D01*
X133622579Y-49864405D01*
X133851387Y-49711520D01*
X134045972Y-49516935D01*
X134198857Y-49288127D01*
X134304166Y-49033890D01*
X134357852Y-48763992D01*
X134357852Y-48488808D01*
X134304166Y-48218910D01*
X134198857Y-47964673D01*
X134045972Y-47735865D01*
X133851387Y-47541280D01*
X133657107Y-47411466D01*
X133843955Y-47334070D01*
X134072763Y-47181185D01*
X134267348Y-46986600D01*
X134420233Y-46757792D01*
X134525542Y-46503555D01*
X134579228Y-46233657D01*
X134579228Y-45958473D01*
X134525542Y-45688575D01*
X134420233Y-45434338D01*
X134267348Y-45205530D01*
X134072763Y-45010945D01*
X133878483Y-44881131D01*
X134065331Y-44803736D01*
X134294139Y-44650851D01*
X134488724Y-44456266D01*
X134641609Y-44227458D01*
X134746918Y-43973221D01*
X134800604Y-43703323D01*
X134800604Y-43428139D01*
X134746918Y-43158241D01*
X134641609Y-42904004D01*
X134488724Y-42675196D01*
X134294139Y-42480611D01*
X134104183Y-42353686D01*
X134115226Y-42350765D01*
X134236143Y-42299127D01*
X134323793Y-42065788D01*
X133609325Y-41214318D01*
X133602086Y-41220393D01*
X133432743Y-41051050D01*
X133803901Y-41051050D01*
X134518369Y-41902520D01*
X134763384Y-41856720D01*
X134901742Y-41618846D01*
X134991035Y-41358551D01*
X135027831Y-41085837D01*
X135010716Y-40811185D01*
X134940348Y-40545149D01*
X134888710Y-40424232D01*
X134655371Y-40336582D01*
X133803901Y-41051050D01*
X133432743Y-41051050D01*
X133431230Y-41049537D01*
X133241291Y-41239476D01*
X133215238Y-41213423D01*
X133446057Y-41019742D01*
X133439982Y-41012503D01*
X133610838Y-40841647D01*
X133417726Y-40648535D01*
X133444057Y-40622204D01*
X133640633Y-40856474D01*
X134492103Y-40142006D01*
X134446303Y-39896991D01*
X134321529Y-39824417D01*
X134336602Y-39820430D01*
X134457519Y-39768792D01*
X134545169Y-39535453D01*
X133830701Y-38683983D01*
X133823462Y-38690058D01*
X133654119Y-38520715D01*
X134025277Y-38520715D01*
X134739745Y-39372185D01*
X134984760Y-39326385D01*
X135123118Y-39088511D01*
X135212411Y-38828216D01*
X135249207Y-38555502D01*
X135232092Y-38280850D01*
X135161724Y-38014814D01*
X135110086Y-37893897D01*
X134876747Y-37806247D01*
X134025277Y-38520715D01*
X133654119Y-38520715D01*
X133652606Y-38519202D01*
X133462667Y-38709142D01*
X133436613Y-38683088D01*
X133667433Y-38489407D01*
X133661358Y-38482168D01*
X133832214Y-38311312D01*
X132943986Y-37423084D01*
X132892784Y-37474286D01*
X132915220Y-37237844D01*
X133549004Y-37993158D01*
X133578049Y-37987729D01*
X133862009Y-38326139D01*
X134713479Y-37611671D01*
X134667679Y-37366656D01*
X134538811Y-37291701D01*
X134729457Y-37212732D01*
X134958265Y-37059847D01*
X135152850Y-36865262D01*
X135305735Y-36636454D01*
X135411044Y-36382217D01*
X135464730Y-36112319D01*
X135464730Y-35837135D01*
X135411044Y-35567237D01*
X135305735Y-35313000D01*
X135152850Y-35084192D01*
X134958265Y-34889607D01*
X134763985Y-34759793D01*
X134950833Y-34682397D01*
X135179641Y-34529512D01*
X135374226Y-34334927D01*
X135527111Y-34106119D01*
X135632420Y-33851882D01*
X135686106Y-33581984D01*
X135686106Y-33306800D01*
X135632420Y-33036902D01*
X135527111Y-32782665D01*
X135374226Y-32553857D01*
X135179641Y-32359272D01*
X134950833Y-32206387D01*
X134696596Y-32101078D01*
X134426698Y-32047392D01*
X134151514Y-32047392D01*
X133881616Y-32101078D01*
X133627379Y-32206387D01*
X133398571Y-32359272D01*
X133203986Y-32553857D01*
X133051101Y-32782665D01*
X132945792Y-33036902D01*
X132913609Y-33198699D01*
X132739397Y-33198699D01*
X132585419Y-33229327D01*
X130962976Y-31606885D01*
X130939173Y-31577881D01*
X130823448Y-31482908D01*
X130691419Y-31412336D01*
X130548158Y-31368879D01*
X130436505Y-31357882D01*
X130436494Y-31357882D01*
X130399172Y-31354206D01*
X130361850Y-31357882D01*
X120299364Y-31357882D01*
X120212143Y-31227347D01*
X120017558Y-31032762D01*
X119788750Y-30879877D01*
X119534513Y-30774568D01*
X119264615Y-30720882D01*
X118989431Y-30720882D01*
X118719533Y-30774568D01*
X118465296Y-30879877D01*
X118236488Y-31032762D01*
X118041903Y-31227347D01*
X117889018Y-31456155D01*
X117783709Y-31710392D01*
X117751872Y-31870446D01*
X117557390Y-31870446D01*
X117287492Y-31924132D01*
X117033255Y-32029441D01*
X116804447Y-32182326D01*
X116609862Y-32376911D01*
X116456977Y-32605719D01*
X116351668Y-32859956D01*
X116297982Y-33129854D01*
X116297982Y-33405038D01*
X116351668Y-33674936D01*
X116456977Y-33929173D01*
X116609862Y-34157981D01*
X116804447Y-34352566D01*
X116998727Y-34482380D01*
X116811880Y-34559775D01*
X116583072Y-34712660D01*
X116388487Y-34907245D01*
X116235602Y-35136053D01*
X116130293Y-35390290D01*
X116076607Y-35660188D01*
X116076607Y-35935372D01*
X116130293Y-36205270D01*
X116235602Y-36459507D01*
X116388487Y-36688315D01*
X116583072Y-36882900D01*
X116773028Y-37009825D01*
X116761984Y-37012746D01*
X116641067Y-37064384D01*
X116553417Y-37297723D01*
X117267885Y-38149193D01*
X117275124Y-38143118D01*
X117445980Y-38313974D01*
X117645010Y-38114945D01*
X117671858Y-38141793D01*
X117431153Y-38343769D01*
X117437228Y-38351008D01*
X117266372Y-38521864D01*
X117470318Y-38725810D01*
X117443039Y-38753088D01*
X117236577Y-38507037D01*
X116385107Y-39221505D01*
X116430907Y-39466520D01*
X116555680Y-39539093D01*
X116540608Y-39543080D01*
X116419691Y-39594718D01*
X116332041Y-39828057D01*
X117046509Y-40679527D01*
X117053748Y-40673452D01*
X117224604Y-40844308D01*
X117423634Y-40645279D01*
X117450482Y-40672127D01*
X117209777Y-40874103D01*
X117215852Y-40881342D01*
X117044996Y-41052198D01*
X117248942Y-41256144D01*
X117221663Y-41283422D01*
X117015201Y-41037371D01*
X116163731Y-41751839D01*
X116209531Y-41996854D01*
X116338400Y-42071810D01*
X116147753Y-42150779D01*
X115918945Y-42303664D01*
X115724360Y-42498249D01*
X115571475Y-42727057D01*
X115466166Y-42981294D01*
X115412480Y-43251192D01*
X115412480Y-43526376D01*
X115466166Y-43796274D01*
X115571475Y-44050511D01*
X115573366Y-44053341D01*
X115538198Y-44064009D01*
X115406169Y-44134581D01*
X115290444Y-44229554D01*
X115266647Y-44258551D01*
X115129742Y-44395455D01*
X115050408Y-44474789D01*
X114449930Y-45206474D01*
X114423407Y-45232998D01*
X114402568Y-45264186D01*
X114402565Y-45264189D01*
X114393317Y-45278030D01*
X114361075Y-45326283D01*
X114361073Y-45326287D01*
X114340234Y-45357475D01*
X114325880Y-45392128D01*
X113921316Y-46149013D01*
X113861995Y-46259994D01*
X113851103Y-46295899D01*
X113836748Y-46330556D01*
X113829428Y-46367354D01*
X113818538Y-46403255D01*
X113814861Y-46440587D01*
X113807541Y-46477387D01*
X113807541Y-46514908D01*
X113807542Y-56634681D01*
X112597180Y-57845044D01*
X112839694Y-55164287D01*
X112839694Y-55164284D01*
X113203480Y-51142970D01*
X113203480Y-51142968D01*
X113567267Y-47121653D01*
X113567267Y-47121650D01*
X113931053Y-43100336D01*
X113931053Y-43100334D01*
X114138427Y-40808008D01*
X115628003Y-40808008D01*
X115645118Y-41082660D01*
X115715486Y-41348696D01*
X115767124Y-41469613D01*
X116000463Y-41557263D01*
X116851933Y-40842795D01*
X116137465Y-39991325D01*
X115892450Y-40037125D01*
X115754092Y-40274999D01*
X115664799Y-40535294D01*
X115628003Y-40808008D01*
X114138427Y-40808008D01*
X114294840Y-39079018D01*
X114294840Y-39079015D01*
X114367332Y-38277674D01*
X115849379Y-38277674D01*
X115866494Y-38552326D01*
X115936862Y-38818362D01*
X115988500Y-38939279D01*
X116221839Y-39026929D01*
X117073309Y-38312461D01*
X116358841Y-37460991D01*
X116113826Y-37506791D01*
X115975468Y-37744665D01*
X115886175Y-38004960D01*
X115849379Y-38277674D01*
X114367332Y-38277674D01*
X114658626Y-35057701D01*
X114658626Y-35057699D01*
X115018795Y-31076373D01*
X115072111Y-30551634D01*
X115203939Y-30129304D01*
X115413005Y-29745395D01*
X115690480Y-29409460D01*
X116026414Y-29131988D01*
X116410330Y-28922922D01*
X116832669Y-28791092D01*
X117293460Y-28744274D01*
X119408331Y-28922730D01*
G37*
X119408331Y-28922730D02*
X119408336Y-28922730D01*
X121555325Y-29103896D01*
X121555329Y-29103896D01*
X123702320Y-29285063D01*
X123702325Y-29285063D01*
X125849314Y-29466229D01*
X125849319Y-29466229D01*
X127996309Y-29647395D01*
X127996314Y-29647395D01*
X130143303Y-29828561D01*
X130143307Y-29828561D01*
X132290298Y-30009728D01*
X132290303Y-30009728D01*
X134395106Y-30187334D01*
X134917602Y-30240422D01*
X135339941Y-30372252D01*
X135723847Y-30581313D01*
X136059784Y-30858787D01*
X136337254Y-31194718D01*
X136546320Y-31578629D01*
X136678148Y-32000965D01*
X136725139Y-32463451D01*
X136585708Y-34212014D01*
X136197757Y-39026929D01*
X135640371Y-45920967D01*
X134986977Y-53977899D01*
X134311285Y-62277881D01*
X133936266Y-66857407D01*
X133845498Y-66766639D01*
X133643223Y-66631483D01*
X133418467Y-66538386D01*
X133179868Y-66490926D01*
X132966253Y-66490926D01*
X133010316Y-66445891D01*
X133170169Y-66200910D01*
X133279157Y-65929453D01*
X133333091Y-65641949D01*
X133329900Y-65349448D01*
X133269706Y-65063189D01*
X133154822Y-64794173D01*
X132989663Y-64552740D01*
X132780577Y-64348166D01*
X132535597Y-64188314D01*
X132264140Y-64079326D01*
X132048682Y-64038907D01*
X131106381Y-63956467D01*
X131017311Y-63957439D01*
X131013843Y-63954593D01*
X130881814Y-63884021D01*
X130738553Y-63840564D01*
X130589567Y-63825890D01*
X130440582Y-63840564D01*
X130297321Y-63884021D01*
X130165292Y-63954593D01*
X130049566Y-64049566D01*
X129954593Y-64165291D01*
X129926388Y-64218058D01*
X129886543Y-64171794D01*
X129656348Y-63991862D01*
X129395473Y-63860295D01*
X129113944Y-63782151D01*
X128715466Y-63747289D01*
X128597109Y-65100121D01*
X128617033Y-65101864D01*
X128594895Y-65354898D01*
X128574971Y-65353155D01*
X128456613Y-66705987D01*
X128855091Y-66740849D01*
X129145913Y-66712779D01*
X129425671Y-66628512D01*
X129683614Y-66491286D01*
X129866064Y-66342148D01*
X129906550Y-66401332D01*
X130115636Y-66605906D01*
X130360617Y-66765758D01*
X130565267Y-66847924D01*
X130298155Y-69901031D01*
X130082343Y-69946412D01*
X129813327Y-70061296D01*
X129571894Y-70226454D01*
X129521747Y-70277707D01*
X129367966Y-70099153D01*
X129137771Y-69919221D01*
X128876896Y-69787654D01*
X128595367Y-69709510D01*
X128196889Y-69674648D01*
X128078532Y-71027480D01*
X128098456Y-71029223D01*
X128076318Y-71282257D01*
X128056394Y-71280514D01*
X127938036Y-72633346D01*
X128336514Y-72668208D01*
X128627336Y-72640138D01*
X128907094Y-72555871D01*
X129165037Y-72418645D01*
X129347487Y-72269507D01*
X129387973Y-72328691D01*
X129597059Y-72533265D01*
X129842040Y-72693117D01*
X130113497Y-72802105D01*
X130328955Y-72842524D01*
X131271255Y-72924964D01*
X131490458Y-72922572D01*
X131776717Y-72862378D01*
X132045733Y-72747494D01*
X132287166Y-72582336D01*
X132491739Y-72373250D01*
X132651592Y-72128269D01*
X132760580Y-71856812D01*
X132814514Y-71569308D01*
X132811323Y-71276807D01*
X132751129Y-70990548D01*
X132636245Y-70721532D01*
X132599290Y-70667511D01*
X132784071Y-70704266D01*
X133027345Y-70704266D01*
X133265944Y-70656806D01*
X133490700Y-70563709D01*
X133640432Y-70463661D01*
X133186371Y-75946221D01*
X132884667Y-79474028D01*
X132880958Y-79512314D01*
X132876934Y-79548546D01*
X132872541Y-79583033D01*
X132867751Y-79615875D01*
X132862536Y-79647213D01*
X132856852Y-79677277D01*
X132852181Y-79699147D01*
X132326670Y-81080122D01*
X131935000Y-81852508D01*
X131935000Y-81391229D01*
X131814524Y-80785554D01*
X131578201Y-80215021D01*
X131235114Y-79701554D01*
X130798446Y-79264886D01*
X130284979Y-78921799D01*
X129714446Y-78685476D01*
X129108771Y-78565000D01*
X128491229Y-78565000D01*
X127885554Y-78685476D01*
X127315021Y-78921799D01*
X126801554Y-79264886D01*
X126364886Y-79701554D01*
X126021799Y-80215021D01*
X125785476Y-80785554D01*
X125665000Y-81391229D01*
X125665000Y-82008771D01*
X125785476Y-82614446D01*
X126021799Y-83184979D01*
X126364886Y-83698446D01*
X126801554Y-84135114D01*
X127315021Y-84478201D01*
X127885554Y-84714524D01*
X128491229Y-84835000D01*
X129108771Y-84835000D01*
X129714446Y-84714524D01*
X130284979Y-84478201D01*
X130654328Y-84231410D01*
X130013449Y-85358945D01*
X128458918Y-87934756D01*
X126798995Y-90590455D01*
X125151153Y-93173636D01*
X123651266Y-95503577D01*
X123650890Y-95504052D01*
X123631400Y-95534436D01*
X123612497Y-95563800D01*
X123612230Y-95564322D01*
X122370891Y-97499502D01*
X121766714Y-98326145D01*
X121269096Y-98865539D01*
X121414524Y-98514446D01*
X121535000Y-97908771D01*
X121535000Y-97291229D01*
X121414524Y-96685554D01*
X121178201Y-96115021D01*
X120835114Y-95601554D01*
X120398446Y-95164886D01*
X119884979Y-94821799D01*
X119314446Y-94585476D01*
X118708771Y-94465000D01*
X118091229Y-94465000D01*
X117485554Y-94585476D01*
X116915021Y-94821799D01*
X116401554Y-95164886D01*
X115964886Y-95601554D01*
X115621799Y-96115021D01*
X115385476Y-96685554D01*
X115265000Y-97291229D01*
X115265000Y-97908771D01*
X115385476Y-98514446D01*
X115621799Y-99084979D01*
X115964886Y-99598446D01*
X116363882Y-99997442D01*
X115633383Y-99671454D01*
X114153562Y-98816976D01*
X114153432Y-98816883D01*
X114121402Y-98798406D01*
X114091160Y-98780944D01*
X114091022Y-98780881D01*
X112489167Y-97856843D01*
X112489163Y-97856840D01*
X110730558Y-96842363D01*
X108982563Y-95833105D01*
X107278185Y-94847222D01*
X105666205Y-93911969D01*
X104201104Y-93057891D01*
X102936145Y-92314837D01*
X102368837Y-91979830D01*
X111224517Y-91979830D01*
X111381631Y-92205755D01*
X111579802Y-92396687D01*
X111811414Y-92545289D01*
X112067566Y-92645851D01*
X112338416Y-92694508D01*
X112469827Y-92698810D01*
X112647879Y-92524375D01*
X112370435Y-91488940D01*
X112464141Y-91488940D01*
X112695346Y-91720145D01*
X112893224Y-92458635D01*
X113134639Y-92520674D01*
X113218064Y-92462658D01*
X113218064Y-92682783D01*
X113271750Y-92952681D01*
X113377059Y-93206918D01*
X113529944Y-93435726D01*
X113724529Y-93630311D01*
X113953337Y-93783196D01*
X114207574Y-93888505D01*
X114477472Y-93942191D01*
X114752656Y-93942191D01*
X115022554Y-93888505D01*
X115276791Y-93783196D01*
X115505599Y-93630311D01*
X115700184Y-93435726D01*
X115853069Y-93206918D01*
X115958378Y-92952681D01*
X116012064Y-92682783D01*
X116012064Y-92407599D01*
X115980200Y-92247409D01*
X116034823Y-92247409D01*
X116378328Y-92179081D01*
X116701904Y-92045052D01*
X116993114Y-91850472D01*
X117240768Y-91602818D01*
X117435348Y-91311608D01*
X117569377Y-90988032D01*
X117637705Y-90644527D01*
X117637705Y-90584045D01*
X117710934Y-90614377D01*
X118054439Y-90682705D01*
X118404675Y-90682705D01*
X118748180Y-90614377D01*
X119071756Y-90480348D01*
X119362966Y-90285768D01*
X119610620Y-90038114D01*
X119805200Y-89746904D01*
X119806596Y-89743533D01*
X119989399Y-89938710D01*
X120315237Y-90172202D01*
X120680366Y-90337640D01*
X121070754Y-90428665D01*
X121471398Y-90441781D01*
X121866903Y-90376482D01*
X122242070Y-90235280D01*
X122582481Y-90023599D01*
X122875055Y-89749574D01*
X123050036Y-89505389D01*
X123700005Y-88379611D01*
X123823985Y-88105980D01*
X123915010Y-87715592D01*
X123928126Y-87314947D01*
X123862827Y-86919442D01*
X123721625Y-86544275D01*
X123509944Y-86203864D01*
X123235919Y-85911290D01*
X122910081Y-85677798D01*
X122544952Y-85512360D01*
X122154564Y-85421335D01*
X121753919Y-85408219D01*
X121358414Y-85473518D01*
X120983248Y-85614720D01*
X120642837Y-85826401D01*
X120613263Y-85854100D01*
X120453061Y-85854100D01*
X120165988Y-85911202D01*
X119895571Y-86023212D01*
X119652203Y-86185826D01*
X119445235Y-86392794D01*
X119282621Y-86636162D01*
X119170611Y-86906579D01*
X119113509Y-87193652D01*
X119113509Y-87356960D01*
X119071756Y-87329062D01*
X118748180Y-87195033D01*
X118404675Y-87126705D01*
X118054439Y-87126705D01*
X117710934Y-87195033D01*
X117387358Y-87329062D01*
X117096148Y-87523642D01*
X116848494Y-87771296D01*
X116653914Y-88062506D01*
X116519885Y-88386082D01*
X116451557Y-88729587D01*
X116451557Y-88790069D01*
X116378328Y-88759737D01*
X116034823Y-88691409D01*
X115684587Y-88691409D01*
X115341082Y-88759737D01*
X115017506Y-88893766D01*
X114726296Y-89088346D01*
X114478642Y-89336000D01*
X114284062Y-89627210D01*
X114150033Y-89950786D01*
X114081705Y-90294291D01*
X114081705Y-90644527D01*
X114150033Y-90988032D01*
X114236248Y-91196173D01*
X114207574Y-91201877D01*
X113953337Y-91307186D01*
X113850324Y-91376017D01*
X113853619Y-91275364D01*
X113679184Y-91097312D01*
X112695348Y-91360931D01*
X112643749Y-91309332D01*
X112464141Y-91488940D01*
X112370435Y-91488940D01*
X112360197Y-91450734D01*
X111286556Y-91738415D01*
X111224517Y-91979830D01*
X102368837Y-91979830D01*
X100066108Y-90620023D01*
X100037293Y-90602736D01*
X100034974Y-90601638D01*
X100032776Y-90600340D01*
X100002467Y-90586247D01*
X96975181Y-89152904D01*
X96946630Y-89138967D01*
X96942511Y-89137436D01*
X96938556Y-89135563D01*
X96908765Y-89124890D01*
X93731399Y-87943606D01*
X93703824Y-87932795D01*
X93697547Y-87931021D01*
X93691442Y-87928751D01*
X93662857Y-87921215D01*
X90343079Y-86982825D01*
X90316956Y-86974762D01*
X90308320Y-86973000D01*
X90299853Y-86970607D01*
X90272993Y-86965794D01*
X86818033Y-86261008D01*
X86793722Y-86255278D01*
X86782703Y-86253801D01*
X86771793Y-86251575D01*
X86746918Y-86249002D01*
X83163909Y-85768582D01*
X83141485Y-85764741D01*
X83128126Y-85763784D01*
X83114870Y-85762007D01*
X83092159Y-85761209D01*
X79387821Y-85495961D01*
X79367356Y-85493625D01*
X79351839Y-85493385D01*
X79336356Y-85492276D01*
X79315760Y-85492826D01*
X75512914Y-85433929D01*
X75510351Y-85433655D01*
X75476760Y-85433369D01*
X75443282Y-85432851D01*
X75440722Y-85433063D01*
X71528368Y-85399810D01*
X71519608Y-85399083D01*
X71492290Y-85399503D01*
X71464959Y-85399271D01*
X71456200Y-85400059D01*
X67066629Y-85467594D01*
X67061092Y-85467218D01*
X67030537Y-85468149D01*
X66999978Y-85468619D01*
X66994465Y-85469248D01*
X62445059Y-85607843D01*
X62441240Y-85607624D01*
X62408911Y-85608945D01*
X62376694Y-85609926D01*
X62372914Y-85610415D01*
X57970898Y-85790222D01*
X57968116Y-85790083D01*
X57934828Y-85791695D01*
X57901531Y-85793055D01*
X57898773Y-85793441D01*
X53952550Y-85984532D01*
X53950439Y-85984439D01*
X53916554Y-85986275D01*
X53882544Y-85987922D01*
X53880446Y-85988232D01*
X50698911Y-86160627D01*
X50697262Y-86160562D01*
X50662855Y-86162581D01*
X50628456Y-86164445D01*
X50626825Y-86164695D01*
X48519182Y-86288375D01*
X48517952Y-86288330D01*
X48483029Y-86290496D01*
X48448317Y-86292533D01*
X48447109Y-86292724D01*
X47977662Y-86321841D01*
X48014446Y-86314524D01*
X48584979Y-86078201D01*
X49098446Y-85735114D01*
X49535114Y-85298446D01*
X49878201Y-84784979D01*
X50114524Y-84214446D01*
X50235000Y-83608771D01*
X50235000Y-82991229D01*
X50114524Y-82385554D01*
X49878201Y-81815021D01*
X49535114Y-81301554D01*
X49098446Y-80864886D01*
X48584979Y-80521799D01*
X48014446Y-80285476D01*
X47408771Y-80165000D01*
X46791229Y-80165000D01*
X46185554Y-80285476D01*
X45615021Y-80521799D01*
X45101554Y-80864886D01*
X44664886Y-81301554D01*
X44321799Y-81815021D01*
X44085476Y-82385554D01*
X43976144Y-82935204D01*
X43813217Y-80897580D01*
X43813217Y-80897575D01*
X43604338Y-78285262D01*
X43604338Y-78285257D01*
X43395459Y-75672943D01*
X43395459Y-75672938D01*
X43186529Y-73059999D01*
X42977700Y-70448305D01*
X42977700Y-70448300D01*
X42892936Y-69388212D01*
X49745000Y-69388212D01*
X49745000Y-69611788D01*
X49788617Y-69831067D01*
X49874176Y-70037624D01*
X49998388Y-70223520D01*
X50156480Y-70381612D01*
X50342376Y-70505824D01*
X50548933Y-70591383D01*
X50768212Y-70635000D01*
X50991788Y-70635000D01*
X51211067Y-70591383D01*
X51417624Y-70505824D01*
X51603520Y-70381612D01*
X51761612Y-70223520D01*
X51885824Y-70037624D01*
X51971383Y-69831067D01*
X52015000Y-69611788D01*
X52015000Y-69388212D01*
X51971383Y-69168933D01*
X51885824Y-68962376D01*
X51761612Y-68776480D01*
X51603520Y-68618388D01*
X51417624Y-68494176D01*
X51211067Y-68408617D01*
X50991788Y-68365000D01*
X50768212Y-68365000D01*
X50548933Y-68408617D01*
X50342376Y-68494176D01*
X50156480Y-68618388D01*
X49998388Y-68776480D01*
X49874176Y-68962376D01*
X49788617Y-69168933D01*
X49745000Y-69388212D01*
X42892936Y-69388212D01*
X42768821Y-67835987D01*
X42768821Y-67835982D01*
X42559942Y-65223668D01*
X42559942Y-65223663D01*
X42551220Y-65114588D01*
X42621799Y-65284979D01*
X42964886Y-65798446D01*
X43401554Y-66235114D01*
X43915021Y-66578201D01*
X44485554Y-66814524D01*
X45091229Y-66935000D01*
X45708771Y-66935000D01*
X46314446Y-66814524D01*
X46884979Y-66578201D01*
X47398446Y-66235114D01*
X47835114Y-65798446D01*
X48178201Y-65284979D01*
X48414524Y-64714446D01*
X48535000Y-64108771D01*
X48535000Y-63491229D01*
X48414524Y-62885554D01*
X48178201Y-62315021D01*
X47835114Y-61801554D01*
X47398446Y-61364886D01*
X46884979Y-61021799D01*
X46314446Y-60785476D01*
X45708771Y-60665000D01*
X45091229Y-60665000D01*
X44485554Y-60785476D01*
X43915021Y-61021799D01*
X43401554Y-61364886D01*
X42964886Y-61801554D01*
X42621799Y-62315021D01*
X42385476Y-62885554D01*
X42376569Y-62930334D01*
X42354550Y-62654958D01*
X42415356Y-62212784D01*
X42595618Y-61736337D01*
X42891312Y-61242318D01*
X43279987Y-60774143D01*
X43732191Y-60369541D01*
X44213376Y-60060767D01*
X44684281Y-59871899D01*
X45147038Y-59805739D01*
X46235217Y-59864408D01*
X49006904Y-60018987D01*
X52926705Y-60240953D01*
X57534365Y-60505843D01*
X62365644Y-60788969D01*
X66958151Y-61065738D01*
X70849805Y-61311579D01*
X73568261Y-61501183D01*
X73571276Y-61501674D01*
X73596673Y-61503287D01*
X73600147Y-61503819D01*
X73618443Y-61504806D01*
X73627133Y-61505439D01*
X73628764Y-61505673D01*
X73632803Y-61505852D01*
X73636463Y-61506119D01*
X73637959Y-61506081D01*
X73646987Y-61506482D01*
X73655637Y-61507031D01*
X73657267Y-61507249D01*
X73661265Y-61507388D01*
X73665229Y-61507640D01*
X73666862Y-61507583D01*
X73675601Y-61507888D01*
X73683922Y-61508336D01*
X73685485Y-61508531D01*
X73689396Y-61508632D01*
X73693892Y-61508874D01*
X73695703Y-61508794D01*
X73703759Y-61509001D01*
X73712110Y-61509371D01*
X73713568Y-61509540D01*
X73717358Y-61509604D01*
X73722422Y-61509829D01*
X73724381Y-61509723D01*
X73732016Y-61509853D01*
X73740090Y-61510134D01*
X73741475Y-61510283D01*
X73745338Y-61510317D01*
X73750962Y-61510513D01*
X73752987Y-61510385D01*
X73759974Y-61510446D01*
X73779335Y-61510944D01*
X73782553Y-61510710D01*
X73785924Y-61510768D01*
X76668003Y-61662515D01*
X80530516Y-62060229D01*
X85043530Y-62649782D01*
X89866788Y-63374930D01*
X94663985Y-64179469D01*
X99099041Y-65006995D01*
X102832446Y-65800061D01*
X105545562Y-66505324D01*
X106333857Y-66720702D01*
X106343103Y-66725004D01*
X106403602Y-66739757D01*
X106428676Y-66746608D01*
X106438663Y-66748307D01*
X106448516Y-66750710D01*
X106474274Y-66754366D01*
X106535641Y-66764808D01*
X106545832Y-66764524D01*
X107341846Y-66877522D01*
X107357879Y-66882344D01*
X107413386Y-66887678D01*
X107432684Y-66890417D01*
X107449315Y-66891130D01*
X107465884Y-66892722D01*
X107485372Y-66892676D01*
X107541087Y-66895064D01*
X107557635Y-66892504D01*
X108016323Y-66891412D01*
X108015000Y-66898061D01*
X108015000Y-67040000D01*
X98914802Y-67040000D01*
X97963804Y-66089003D01*
X97940001Y-66059999D01*
X97824276Y-65965026D01*
X97692247Y-65894454D01*
X97548986Y-65850997D01*
X97437333Y-65840000D01*
X97437322Y-65840000D01*
X97400000Y-65836324D01*
X97362678Y-65840000D01*
X93337322Y-65840000D01*
X93299999Y-65836324D01*
X93262676Y-65840000D01*
X93262667Y-65840000D01*
X93151014Y-65850997D01*
X93007753Y-65894454D01*
X92875724Y-65965026D01*
X92759999Y-66059999D01*
X92736201Y-66088997D01*
X91288998Y-67536201D01*
X91260000Y-67559999D01*
X91236202Y-67588997D01*
X91236201Y-67588998D01*
X91165026Y-67675724D01*
X91094454Y-67807754D01*
X91070812Y-67885695D01*
X91050998Y-67951014D01*
X91046173Y-67999999D01*
X91036324Y-68100000D01*
X91040001Y-68137332D01*
X91040000Y-69585197D01*
X89446481Y-71178717D01*
X89514524Y-71014446D01*
X89635000Y-70408771D01*
X89635000Y-69791229D01*
X89514524Y-69185554D01*
X89278201Y-68615021D01*
X88935114Y-68101554D01*
X88498446Y-67664886D01*
X87984979Y-67321799D01*
X87414446Y-67085476D01*
X86808771Y-66965000D01*
X86191229Y-66965000D01*
X85585554Y-67085476D01*
X85015021Y-67321799D01*
X84501554Y-67664886D01*
X84064886Y-68101554D01*
X83721799Y-68615021D01*
X83485476Y-69185554D01*
X83365000Y-69791229D01*
X83365000Y-70408771D01*
X83485476Y-71014446D01*
X83721799Y-71584979D01*
X84064886Y-72098446D01*
X84501554Y-72535114D01*
X85015021Y-72878201D01*
X85585554Y-73114524D01*
X86191229Y-73235000D01*
X86808771Y-73235000D01*
X87414446Y-73114524D01*
X87578718Y-73046480D01*
X83785199Y-76840000D01*
X81804041Y-76840000D01*
X81728364Y-76651511D01*
X81592732Y-76443650D01*
X81419154Y-76266243D01*
X81214301Y-76126109D01*
X80986046Y-76028632D01*
X80804379Y-75990432D01*
X80820142Y-75915467D01*
X80823171Y-75637738D01*
X80771961Y-75364754D01*
X80739940Y-75285000D01*
X80856109Y-75285000D01*
X81162327Y-75224089D01*
X81450779Y-75104609D01*
X81710379Y-74931150D01*
X81931150Y-74710379D01*
X82104609Y-74450779D01*
X82224089Y-74162327D01*
X82285000Y-73856109D01*
X82285000Y-73543891D01*
X82224089Y-73237673D01*
X82104609Y-72949221D01*
X81931150Y-72689621D01*
X81710379Y-72468850D01*
X81450779Y-72295391D01*
X81162327Y-72175911D01*
X80856109Y-72115000D01*
X80543891Y-72115000D01*
X80237673Y-72175911D01*
X80143303Y-72215000D01*
X80133740Y-72215000D01*
X79846842Y-72272068D01*
X79576589Y-72384010D01*
X79333368Y-72546525D01*
X79126525Y-72753368D01*
X78964010Y-72996589D01*
X78852068Y-73266842D01*
X78795000Y-73553740D01*
X78795000Y-73846260D01*
X78852068Y-74133158D01*
X78964010Y-74403411D01*
X78973585Y-74417741D01*
X78757525Y-74504487D01*
X78524920Y-74656266D01*
X78376141Y-74801833D01*
X77483613Y-75865508D01*
X77472100Y-75882339D01*
X77204750Y-75935518D01*
X76870801Y-76073844D01*
X76570256Y-76274662D01*
X76314662Y-76530256D01*
X76113844Y-76830801D01*
X75975518Y-77164750D01*
X75905000Y-77519268D01*
X75905000Y-77880732D01*
X75918778Y-77950000D01*
X75905955Y-78014466D01*
X75706081Y-77931675D01*
X75370883Y-77865000D01*
X75029117Y-77865000D01*
X74693919Y-77931675D01*
X74494045Y-78014466D01*
X74481222Y-77950000D01*
X74495000Y-77880732D01*
X74495000Y-77519268D01*
X74424482Y-77164750D01*
X74286156Y-76830801D01*
X74085338Y-76530256D01*
X73829744Y-76274662D01*
X73529199Y-76073844D01*
X73195250Y-75935518D01*
X72927901Y-75882339D01*
X72916387Y-75865507D01*
X72758960Y-75677893D01*
X72760000Y-75667333D01*
X72760000Y-75667324D01*
X72763676Y-75630001D01*
X72760000Y-75592678D01*
X72760000Y-74694907D01*
X72864893Y-74948141D01*
X73153262Y-75379715D01*
X73520285Y-75746738D01*
X73951859Y-76035107D01*
X74431399Y-76233739D01*
X74940475Y-76335000D01*
X75459525Y-76335000D01*
X75968601Y-76233739D01*
X76448141Y-76035107D01*
X76879715Y-75746738D01*
X77246738Y-75379715D01*
X77535107Y-74948141D01*
X77733739Y-74468601D01*
X77835000Y-73959525D01*
X77835000Y-73440475D01*
X77733739Y-72931399D01*
X77535107Y-72451859D01*
X77246738Y-72020285D01*
X76879715Y-71653262D01*
X76448141Y-71364893D01*
X75968601Y-71166261D01*
X75459525Y-71065000D01*
X74940475Y-71065000D01*
X74431399Y-71166261D01*
X73951859Y-71364893D01*
X73520285Y-71653262D01*
X73153262Y-72020285D01*
X72864893Y-72451859D01*
X72760000Y-72705093D01*
X72760000Y-69388212D01*
X79285000Y-69388212D01*
X79285000Y-69611788D01*
X79328617Y-69831067D01*
X79414176Y-70037624D01*
X79538388Y-70223520D01*
X79696480Y-70381612D01*
X79882376Y-70505824D01*
X80088933Y-70591383D01*
X80308212Y-70635000D01*
X80531788Y-70635000D01*
X80751067Y-70591383D01*
X80957624Y-70505824D01*
X81143520Y-70381612D01*
X81301612Y-70223520D01*
X81425824Y-70037624D01*
X81511383Y-69831067D01*
X81555000Y-69611788D01*
X81555000Y-69388212D01*
X81511383Y-69168933D01*
X81425824Y-68962376D01*
X81301612Y-68776480D01*
X81143520Y-68618388D01*
X80957624Y-68494176D01*
X80751067Y-68408617D01*
X80531788Y-68365000D01*
X80308212Y-68365000D01*
X80088933Y-68408617D01*
X79882376Y-68494176D01*
X79696480Y-68618388D01*
X79538388Y-68776480D01*
X79414176Y-68962376D01*
X79328617Y-69168933D01*
X79285000Y-69388212D01*
X72760000Y-69388212D01*
X72760000Y-67435150D01*
X72763676Y-67397827D01*
X72760000Y-67360504D01*
X72760000Y-67360495D01*
X72749003Y-67248842D01*
X72705546Y-67105581D01*
X72634974Y-66973552D01*
X72550338Y-66870423D01*
X72650518Y-66900812D01*
X72775000Y-66913072D01*
X74075000Y-66913072D01*
X74199482Y-66900812D01*
X74319180Y-66864502D01*
X74429494Y-66805537D01*
X74526185Y-66726185D01*
X74605537Y-66629494D01*
X74664502Y-66519180D01*
X74700812Y-66399482D01*
X74713072Y-66275000D01*
X74713072Y-65360000D01*
X75686928Y-65360000D01*
X75686928Y-66275000D01*
X75699188Y-66399482D01*
X75735498Y-66519180D01*
X75794463Y-66629494D01*
X75873815Y-66726185D01*
X75970506Y-66805537D01*
X76080820Y-66864502D01*
X76200518Y-66900812D01*
X76325000Y-66913072D01*
X77625000Y-66913072D01*
X77749482Y-66900812D01*
X77806109Y-66883634D01*
X77860315Y-66949685D01*
X77957006Y-67029037D01*
X78067320Y-67088002D01*
X78187018Y-67124312D01*
X78311500Y-67136572D01*
X79708500Y-67136572D01*
X79832982Y-67124312D01*
X79952680Y-67088002D01*
X80062994Y-67029037D01*
X80159685Y-66949685D01*
X80239037Y-66852994D01*
X80298002Y-66742680D01*
X80334312Y-66622982D01*
X80346572Y-66498500D01*
X80346572Y-65821373D01*
X81636200Y-67111002D01*
X81659999Y-67140001D01*
X81688997Y-67163799D01*
X81775723Y-67234974D01*
X81781586Y-67238108D01*
X81796063Y-67259774D01*
X81940226Y-67403937D01*
X82109744Y-67517205D01*
X82298102Y-67595226D01*
X82498061Y-67635000D01*
X82701939Y-67635000D01*
X82901898Y-67595226D01*
X83090256Y-67517205D01*
X83259774Y-67403937D01*
X83403937Y-67259774D01*
X83517205Y-67090256D01*
X83595226Y-66901898D01*
X83635000Y-66701939D01*
X83635000Y-66498061D01*
X83595226Y-66298102D01*
X83517205Y-66109744D01*
X83403937Y-65940226D01*
X83259774Y-65796063D01*
X83090256Y-65682795D01*
X82901898Y-65604774D01*
X82701939Y-65565000D01*
X82498061Y-65565000D01*
X82298102Y-65604774D01*
X82285002Y-65610200D01*
X80763804Y-64089003D01*
X80740001Y-64059999D01*
X80624276Y-63965026D01*
X80492247Y-63894454D01*
X80348986Y-63850997D01*
X80237333Y-63840000D01*
X80237322Y-63840000D01*
X80200000Y-63836324D01*
X80162678Y-63840000D01*
X70637333Y-63840000D01*
X70600000Y-63836323D01*
X70562667Y-63840000D01*
X70451014Y-63850997D01*
X70307753Y-63894454D01*
X70175724Y-63965026D01*
X70059999Y-64059999D01*
X70036201Y-64088997D01*
X63488998Y-70636201D01*
X63460000Y-70659999D01*
X63436202Y-70688997D01*
X63436201Y-70688998D01*
X63365026Y-70775724D01*
X63294454Y-70907754D01*
X63275244Y-70971083D01*
X63250998Y-71051014D01*
X63248458Y-71076804D01*
X63236324Y-71200000D01*
X63240001Y-71237332D01*
X63240000Y-74485198D01*
X61729487Y-75995711D01*
X61704379Y-75990432D01*
X61720142Y-75915467D01*
X61723171Y-75637738D01*
X61671961Y-75364754D01*
X61639940Y-75285000D01*
X61756109Y-75285000D01*
X62062327Y-75224089D01*
X62350779Y-75104609D01*
X62610379Y-74931150D01*
X62831150Y-74710379D01*
X63004609Y-74450779D01*
X63124089Y-74162327D01*
X63185000Y-73856109D01*
X63185000Y-73543891D01*
X63124089Y-73237673D01*
X63004609Y-72949221D01*
X62831150Y-72689621D01*
X62610379Y-72468850D01*
X62350779Y-72295391D01*
X62062327Y-72175911D01*
X61756109Y-72115000D01*
X61443891Y-72115000D01*
X61137673Y-72175911D01*
X61043303Y-72215000D01*
X61033740Y-72215000D01*
X60746842Y-72272068D01*
X60476589Y-72384010D01*
X60233368Y-72546525D01*
X60026525Y-72753368D01*
X59864010Y-72996589D01*
X59752068Y-73266842D01*
X59695000Y-73553740D01*
X59695000Y-73846260D01*
X59752068Y-74133158D01*
X59864010Y-74403411D01*
X59873585Y-74417741D01*
X59657525Y-74504487D01*
X59424920Y-74656266D01*
X59276141Y-74801833D01*
X58383613Y-75865508D01*
X58372100Y-75882339D01*
X58104750Y-75935518D01*
X57770801Y-76073844D01*
X57470256Y-76274662D01*
X57214662Y-76530256D01*
X57013844Y-76830801D01*
X56875518Y-77164750D01*
X56805000Y-77519268D01*
X56805000Y-77880732D01*
X56818778Y-77950000D01*
X56805955Y-78014466D01*
X56606081Y-77931675D01*
X56270883Y-77865000D01*
X55929117Y-77865000D01*
X55593919Y-77931675D01*
X55394045Y-78014466D01*
X55381222Y-77950000D01*
X55395000Y-77880732D01*
X55395000Y-77519268D01*
X55324482Y-77164750D01*
X55186156Y-76830801D01*
X54985338Y-76530256D01*
X54729744Y-76274662D01*
X54429199Y-76073844D01*
X54095250Y-75935518D01*
X53827901Y-75882339D01*
X53816387Y-75865507D01*
X53215468Y-75149359D01*
X53511002Y-74853825D01*
X53540001Y-74830027D01*
X53634974Y-74714302D01*
X53653600Y-74679456D01*
X53764893Y-74948141D01*
X54053262Y-75379715D01*
X54420285Y-75746738D01*
X54851859Y-76035107D01*
X55331399Y-76233739D01*
X55840475Y-76335000D01*
X56359525Y-76335000D01*
X56868601Y-76233739D01*
X57348141Y-76035107D01*
X57779715Y-75746738D01*
X58146738Y-75379715D01*
X58435107Y-74948141D01*
X58633739Y-74468601D01*
X58735000Y-73959525D01*
X58735000Y-73440475D01*
X58633739Y-72931399D01*
X58435107Y-72451859D01*
X58146738Y-72020285D01*
X57779715Y-71653262D01*
X57348141Y-71364893D01*
X56868601Y-71166261D01*
X56359525Y-71065000D01*
X55840475Y-71065000D01*
X55331399Y-71166261D01*
X54851859Y-71364893D01*
X54420285Y-71653262D01*
X54053262Y-72020285D01*
X53764893Y-72451859D01*
X53760000Y-72463672D01*
X53760000Y-69388212D01*
X60185000Y-69388212D01*
X60185000Y-69611788D01*
X60228617Y-69831067D01*
X60314176Y-70037624D01*
X60438388Y-70223520D01*
X60596480Y-70381612D01*
X60782376Y-70505824D01*
X60988933Y-70591383D01*
X61208212Y-70635000D01*
X61431788Y-70635000D01*
X61651067Y-70591383D01*
X61857624Y-70505824D01*
X62043520Y-70381612D01*
X62201612Y-70223520D01*
X62325824Y-70037624D01*
X62411383Y-69831067D01*
X62455000Y-69611788D01*
X62455000Y-69388212D01*
X62411383Y-69168933D01*
X62325824Y-68962376D01*
X62201612Y-68776480D01*
X62043520Y-68618388D01*
X61857624Y-68494176D01*
X61651067Y-68408617D01*
X61431788Y-68365000D01*
X61208212Y-68365000D01*
X60988933Y-68408617D01*
X60782376Y-68494176D01*
X60596480Y-68618388D01*
X60438388Y-68776480D01*
X60314176Y-68962376D01*
X60228617Y-69168933D01*
X60185000Y-69388212D01*
X53760000Y-69388212D01*
X53760000Y-67635150D01*
X53763676Y-67597828D01*
X53760000Y-67560505D01*
X53760000Y-67560495D01*
X53749003Y-67448842D01*
X53705546Y-67305581D01*
X53676370Y-67250997D01*
X53634974Y-67173551D01*
X53563799Y-67086825D01*
X53540001Y-67057827D01*
X53511004Y-67034030D01*
X53346116Y-66869142D01*
X53450518Y-66900812D01*
X53575000Y-66913072D01*
X54875000Y-66913072D01*
X54999482Y-66900812D01*
X55119180Y-66864502D01*
X55229494Y-66805537D01*
X55326185Y-66726185D01*
X55405537Y-66629494D01*
X55464502Y-66519180D01*
X55500812Y-66399482D01*
X55513072Y-66275000D01*
X55513072Y-65325000D01*
X56486928Y-65325000D01*
X56486928Y-66275000D01*
X56499188Y-66399482D01*
X56535498Y-66519180D01*
X56594463Y-66629494D01*
X56673815Y-66726185D01*
X56770506Y-66805537D01*
X56880820Y-66864502D01*
X57000518Y-66900812D01*
X57125000Y-66913072D01*
X58425000Y-66913072D01*
X58549482Y-66900812D01*
X58606109Y-66883634D01*
X58660315Y-66949685D01*
X58757006Y-67029037D01*
X58867320Y-67088002D01*
X58987018Y-67124312D01*
X59111500Y-67136572D01*
X60508500Y-67136572D01*
X60632982Y-67124312D01*
X60752680Y-67088002D01*
X60862994Y-67029037D01*
X60959685Y-66949685D01*
X61039037Y-66852994D01*
X61098002Y-66742680D01*
X61134312Y-66622982D01*
X61146572Y-66498500D01*
X61146572Y-65101500D01*
X61134312Y-64977018D01*
X61098002Y-64857320D01*
X61039037Y-64747006D01*
X60959685Y-64650315D01*
X60862994Y-64570963D01*
X60752680Y-64511998D01*
X60632982Y-64475688D01*
X60508500Y-64463428D01*
X59111500Y-64463428D01*
X58987018Y-64475688D01*
X58867320Y-64511998D01*
X58757006Y-64570963D01*
X58660315Y-64650315D01*
X58606109Y-64716366D01*
X58549482Y-64699188D01*
X58425000Y-64686928D01*
X57125000Y-64686928D01*
X57000518Y-64699188D01*
X56880820Y-64735498D01*
X56770506Y-64794463D01*
X56673815Y-64873815D01*
X56594463Y-64970506D01*
X56535498Y-65080820D01*
X56499188Y-65200518D01*
X56486928Y-65325000D01*
X55513072Y-65325000D01*
X55500812Y-65200518D01*
X55464502Y-65080820D01*
X55405537Y-64970506D01*
X55326185Y-64873815D01*
X55229494Y-64794463D01*
X55119180Y-64735498D01*
X54999482Y-64699188D01*
X54875000Y-64686928D01*
X53575000Y-64686928D01*
X53450518Y-64699188D01*
X53330820Y-64735498D01*
X53220506Y-64794463D01*
X53138015Y-64862161D01*
X53040057Y-64764203D01*
X52821649Y-64618268D01*
X52578968Y-64517746D01*
X52321338Y-64466500D01*
X52058662Y-64466500D01*
X51801032Y-64517746D01*
X51558351Y-64618268D01*
X51339943Y-64764203D01*
X51154203Y-64949943D01*
X51008268Y-65168351D01*
X50907746Y-65411032D01*
X50856500Y-65668662D01*
X50856500Y-65931338D01*
X50907746Y-66188968D01*
X51008268Y-66431649D01*
X51154203Y-66650057D01*
X51339943Y-66835797D01*
X51437467Y-66900960D01*
X51440998Y-66936814D01*
X51453772Y-66978925D01*
X51484454Y-67080074D01*
X51555026Y-67212104D01*
X51625235Y-67297653D01*
X51650000Y-67327829D01*
X51678998Y-67351627D01*
X52240000Y-67912630D01*
X52240001Y-72852931D01*
X52173475Y-72753368D01*
X51966632Y-72546525D01*
X51723411Y-72384010D01*
X51453158Y-72272068D01*
X51166260Y-72215000D01*
X51156697Y-72215000D01*
X51062327Y-72175911D01*
X50756109Y-72115000D01*
X50443891Y-72115000D01*
X50137673Y-72175911D01*
X49849221Y-72295391D01*
X49589621Y-72468850D01*
X49368850Y-72689621D01*
X49195391Y-72949221D01*
X49075911Y-73237673D01*
X49015000Y-73543891D01*
X49015000Y-73856109D01*
X49075911Y-74162327D01*
X49195391Y-74450779D01*
X49368850Y-74710379D01*
X49589621Y-74931150D01*
X49849221Y-75104609D01*
X50137673Y-75224089D01*
X50443891Y-75285000D01*
X50560060Y-75285000D01*
X50528039Y-75364754D01*
X50476829Y-75637738D01*
X50479858Y-75915466D01*
X50495621Y-75990432D01*
X50313954Y-76028632D01*
X50085699Y-76126110D01*
X49880846Y-76266244D01*
X49707268Y-76443650D01*
X49571636Y-76651512D01*
X49479162Y-76881839D01*
X49433398Y-77125782D01*
X49436106Y-77373964D01*
X49487179Y-77616851D01*
X49584657Y-77845106D01*
X49689676Y-77998628D01*
X50240968Y-78655631D01*
X50250998Y-78757469D01*
X50257277Y-78778169D01*
X50294454Y-78900729D01*
X50365026Y-79032759D01*
X50430667Y-79112742D01*
X50460000Y-79148484D01*
X50488998Y-79172282D01*
X53027722Y-81711008D01*
X53051516Y-81740001D01*
X53080509Y-81763795D01*
X53080513Y-81763799D01*
X53131780Y-81805872D01*
X53167241Y-81834974D01*
X53299270Y-81905546D01*
X53442531Y-81949003D01*
X53554184Y-81960000D01*
X53554193Y-81960000D01*
X53591516Y-81963676D01*
X53628839Y-81960000D01*
X57879734Y-81960000D01*
X57917056Y-81963676D01*
X57954378Y-81960000D01*
X57954389Y-81960000D01*
X58066042Y-81949003D01*
X58209303Y-81905546D01*
X58341332Y-81834974D01*
X58457057Y-81740001D01*
X58480859Y-81710998D01*
X59151004Y-81040854D01*
X59180001Y-81017057D01*
X59274974Y-80901332D01*
X59345546Y-80769303D01*
X59389003Y-80626042D01*
X59400000Y-80514389D01*
X59400000Y-80514380D01*
X59403676Y-80477057D01*
X59401103Y-80450931D01*
X59509199Y-80406156D01*
X59809744Y-80205338D01*
X60065338Y-79949744D01*
X60266156Y-79649199D01*
X60404482Y-79315250D01*
X60439432Y-79139543D01*
X60513954Y-79171368D01*
X60756841Y-79222441D01*
X61005023Y-79225149D01*
X61248966Y-79179385D01*
X61479293Y-79086911D01*
X61687155Y-78951279D01*
X61820107Y-78821196D01*
X62510324Y-77998628D01*
X62615344Y-77845107D01*
X62712821Y-77616851D01*
X62763894Y-77373965D01*
X62766602Y-77125782D01*
X62763825Y-77110977D01*
X64511004Y-75363798D01*
X64540001Y-75340001D01*
X64585139Y-75285000D01*
X64634974Y-75224277D01*
X64705546Y-75092247D01*
X64706228Y-75090000D01*
X64749003Y-74948986D01*
X64760000Y-74837333D01*
X64760000Y-74837323D01*
X64763676Y-74800000D01*
X64760000Y-74762677D01*
X64760000Y-71514801D01*
X66886589Y-69388212D01*
X68845000Y-69388212D01*
X68845000Y-69611788D01*
X68888617Y-69831067D01*
X68974176Y-70037624D01*
X69098388Y-70223520D01*
X69256480Y-70381612D01*
X69442376Y-70505824D01*
X69648933Y-70591383D01*
X69868212Y-70635000D01*
X70091788Y-70635000D01*
X70311067Y-70591383D01*
X70517624Y-70505824D01*
X70703520Y-70381612D01*
X70861612Y-70223520D01*
X70985824Y-70037624D01*
X71071383Y-69831067D01*
X71115000Y-69611788D01*
X71115000Y-69388212D01*
X71071383Y-69168933D01*
X70985824Y-68962376D01*
X70861612Y-68776480D01*
X70703520Y-68618388D01*
X70517624Y-68494176D01*
X70311067Y-68408617D01*
X70091788Y-68365000D01*
X69868212Y-68365000D01*
X69648933Y-68408617D01*
X69442376Y-68494176D01*
X69256480Y-68618388D01*
X69098388Y-68776480D01*
X68974176Y-68962376D01*
X68888617Y-69168933D01*
X68845000Y-69388212D01*
X66886589Y-69388212D01*
X70104111Y-66170691D01*
X70107746Y-66188968D01*
X70208268Y-66431649D01*
X70354203Y-66650057D01*
X70539943Y-66835797D01*
X70637467Y-66900960D01*
X70640998Y-66936814D01*
X70653772Y-66978925D01*
X70684454Y-67080074D01*
X70755026Y-67212104D01*
X70825235Y-67297653D01*
X70850000Y-67327829D01*
X70878998Y-67351627D01*
X71240000Y-67712630D01*
X71240001Y-72719894D01*
X71066632Y-72546525D01*
X70823411Y-72384010D01*
X70553158Y-72272068D01*
X70266260Y-72215000D01*
X70256697Y-72215000D01*
X70162327Y-72175911D01*
X69856109Y-72115000D01*
X69543891Y-72115000D01*
X69237673Y-72175911D01*
X68949221Y-72295391D01*
X68689621Y-72468850D01*
X68468850Y-72689621D01*
X68295391Y-72949221D01*
X68175911Y-73237673D01*
X68115000Y-73543891D01*
X68115000Y-73856109D01*
X68175911Y-74162327D01*
X68295391Y-74450779D01*
X68468850Y-74710379D01*
X68689621Y-74931150D01*
X68949221Y-75104609D01*
X69237673Y-75224089D01*
X69543891Y-75285000D01*
X69660060Y-75285000D01*
X69628039Y-75364754D01*
X69576829Y-75637738D01*
X69579858Y-75915466D01*
X69595621Y-75990432D01*
X69413954Y-76028632D01*
X69185699Y-76126110D01*
X68980846Y-76266244D01*
X68807268Y-76443650D01*
X68671636Y-76651512D01*
X68579162Y-76881839D01*
X68533398Y-77125782D01*
X68536106Y-77373964D01*
X68587179Y-77616851D01*
X68684657Y-77845106D01*
X68789676Y-77998628D01*
X69340968Y-78655631D01*
X69350998Y-78757469D01*
X69357277Y-78778169D01*
X69394454Y-78900729D01*
X69465026Y-79032759D01*
X69530667Y-79112742D01*
X69560000Y-79148484D01*
X69588998Y-79172282D01*
X72127722Y-81711008D01*
X72151516Y-81740001D01*
X72180509Y-81763795D01*
X72180513Y-81763799D01*
X72231780Y-81805872D01*
X72267241Y-81834974D01*
X72399270Y-81905546D01*
X72542531Y-81949003D01*
X72654184Y-81960000D01*
X72654193Y-81960000D01*
X72691516Y-81963676D01*
X72728839Y-81960000D01*
X76979734Y-81960000D01*
X77017056Y-81963676D01*
X77054378Y-81960000D01*
X77054389Y-81960000D01*
X77166042Y-81949003D01*
X77309303Y-81905546D01*
X77441332Y-81834974D01*
X77557057Y-81740001D01*
X77580859Y-81710998D01*
X78251004Y-81040854D01*
X78280001Y-81017057D01*
X78374974Y-80901332D01*
X78445546Y-80769303D01*
X78489003Y-80626042D01*
X78500000Y-80514389D01*
X78500000Y-80514380D01*
X78503676Y-80477057D01*
X78501103Y-80450931D01*
X78609199Y-80406156D01*
X78909744Y-80205338D01*
X79165338Y-79949744D01*
X79366156Y-79649199D01*
X79504482Y-79315250D01*
X79539432Y-79139543D01*
X79613954Y-79171368D01*
X79856841Y-79222441D01*
X80105023Y-79225149D01*
X80348966Y-79179385D01*
X80579293Y-79086911D01*
X80787155Y-78951279D01*
X80920107Y-78821196D01*
X81307097Y-78360000D01*
X84062678Y-78360000D01*
X84100000Y-78363676D01*
X84137322Y-78360000D01*
X84137333Y-78360000D01*
X84248986Y-78349003D01*
X84392247Y-78305546D01*
X84524276Y-78234974D01*
X84640001Y-78140001D01*
X84663804Y-78110997D01*
X91353215Y-71421588D01*
X91353524Y-71423143D01*
X91439083Y-71629700D01*
X91563295Y-71815596D01*
X91721387Y-71973688D01*
X91907283Y-72097900D01*
X92113840Y-72183459D01*
X92333119Y-72227076D01*
X92556695Y-72227076D01*
X92775974Y-72183459D01*
X92982531Y-72097900D01*
X93040001Y-72059500D01*
X93040001Y-72685197D01*
X92689002Y-73036197D01*
X92659999Y-73059999D01*
X92619147Y-73109778D01*
X92565026Y-73175724D01*
X92523218Y-73253941D01*
X92494454Y-73307754D01*
X92450997Y-73451015D01*
X92440000Y-73562668D01*
X92440000Y-73562678D01*
X92436324Y-73600000D01*
X92440000Y-73637323D01*
X92440000Y-74031995D01*
X92439729Y-74031724D01*
X92196508Y-73869209D01*
X92030741Y-73800546D01*
X91838187Y-73671886D01*
X91549735Y-73552406D01*
X91243517Y-73491495D01*
X90931299Y-73491495D01*
X90625081Y-73552406D01*
X90336629Y-73671886D01*
X90077029Y-73845345D01*
X89856258Y-74066116D01*
X89682799Y-74325716D01*
X89563319Y-74614168D01*
X89502408Y-74920386D01*
X89502408Y-75232604D01*
X89563319Y-75538822D01*
X89682799Y-75827274D01*
X89856258Y-76086874D01*
X90077029Y-76307645D01*
X90336629Y-76481104D01*
X90625081Y-76600584D01*
X90634604Y-76602478D01*
X90587029Y-76665900D01*
X90466910Y-76916328D01*
X90397955Y-77185377D01*
X90393779Y-77261868D01*
X90208413Y-77251748D01*
X89962706Y-77286827D01*
X89728564Y-77369166D01*
X89514985Y-77495603D01*
X89330176Y-77661277D01*
X89181240Y-77859823D01*
X89073899Y-78083609D01*
X89012280Y-78324037D01*
X88998750Y-78571865D01*
X89033829Y-78817572D01*
X89095536Y-78993043D01*
X89549338Y-79966224D01*
X89644093Y-80126285D01*
X89704385Y-80193540D01*
X89704385Y-81027052D01*
X89700708Y-81064384D01*
X89704385Y-81101717D01*
X89715382Y-81213370D01*
X89723682Y-81240733D01*
X89758838Y-81356630D01*
X89829410Y-81488660D01*
X89900585Y-81575386D01*
X89924384Y-81604385D01*
X89953382Y-81628183D01*
X92636201Y-84311003D01*
X92659999Y-84340001D01*
X92775724Y-84434974D01*
X92907753Y-84505546D01*
X93051014Y-84549003D01*
X93162667Y-84560000D01*
X93162676Y-84560000D01*
X93199999Y-84563676D01*
X93237322Y-84560000D01*
X95765633Y-84560000D01*
X95802955Y-84563676D01*
X95840277Y-84560000D01*
X95840288Y-84560000D01*
X95951941Y-84549003D01*
X96095202Y-84505546D01*
X96227231Y-84434974D01*
X96342956Y-84340001D01*
X96366758Y-84310998D01*
X96894202Y-83783555D01*
X97003401Y-83828786D01*
X97357919Y-83899304D01*
X97719383Y-83899304D01*
X98073901Y-83828786D01*
X98407850Y-83690460D01*
X98708395Y-83489642D01*
X98963989Y-83234048D01*
X99164807Y-82933503D01*
X99187007Y-82879909D01*
X99247458Y-82927351D01*
X99468850Y-83039548D01*
X99707876Y-83106398D01*
X99955350Y-83125331D01*
X100201763Y-83095621D01*
X100437646Y-83018408D01*
X100599737Y-82927168D01*
X101479330Y-82311269D01*
X101620506Y-82190160D01*
X101773738Y-81994910D01*
X101885935Y-81773520D01*
X101952785Y-81534494D01*
X101971718Y-81287019D01*
X101942008Y-81040605D01*
X101864795Y-80804723D01*
X101743048Y-80588436D01*
X101581445Y-80400057D01*
X101386196Y-80246825D01*
X101220607Y-80162908D01*
X101255236Y-80094578D01*
X101330043Y-79827096D01*
X101351231Y-79550160D01*
X101341042Y-79465651D01*
X101556483Y-79508505D01*
X101868701Y-79508505D01*
X102174919Y-79447594D01*
X102463371Y-79328114D01*
X102722971Y-79154655D01*
X102943742Y-78933884D01*
X103117201Y-78674284D01*
X103236681Y-78385832D01*
X103297592Y-78079614D01*
X103297592Y-77767396D01*
X103236681Y-77461178D01*
X103117201Y-77172726D01*
X102943742Y-76913126D01*
X102722971Y-76692355D01*
X102463371Y-76518896D01*
X102174919Y-76399416D01*
X101868701Y-76338505D01*
X101556483Y-76338505D01*
X101526702Y-76344429D01*
X101453163Y-76329801D01*
X101160643Y-76329801D01*
X100873745Y-76386869D01*
X100603492Y-76498811D01*
X100360271Y-76661326D01*
X100153428Y-76868169D01*
X99990913Y-77111390D01*
X99878971Y-77381643D01*
X99821903Y-77668541D01*
X99821903Y-77961061D01*
X99863357Y-78169464D01*
X99628091Y-78197830D01*
X99364127Y-78284234D01*
X99182742Y-78386334D01*
X98045327Y-79182761D01*
X98033426Y-79192970D01*
X97998907Y-79186104D01*
X97637443Y-79186104D01*
X97282925Y-79256622D01*
X96948976Y-79394948D01*
X96648431Y-79595766D01*
X96392837Y-79851360D01*
X96192019Y-80151905D01*
X96053693Y-80485854D01*
X95988430Y-80813956D01*
X95974263Y-80848157D01*
X95694799Y-80661425D01*
X95379049Y-80530637D01*
X95043851Y-80463962D01*
X94702085Y-80463962D01*
X94593892Y-80485483D01*
X94611608Y-80396414D01*
X94675754Y-80241553D01*
X94746272Y-79887035D01*
X94746272Y-79525571D01*
X94675754Y-79171053D01*
X94537428Y-78837104D01*
X94336610Y-78536559D01*
X94081016Y-78280965D01*
X93780471Y-78080147D01*
X93641416Y-78022549D01*
X93633724Y-78000676D01*
X93465232Y-77639343D01*
X93711003Y-77393572D01*
X93740001Y-77369774D01*
X93834974Y-77254049D01*
X93855666Y-77215337D01*
X93866261Y-77268601D01*
X94064893Y-77748141D01*
X94353262Y-78179715D01*
X94720285Y-78546738D01*
X95151859Y-78835107D01*
X95631399Y-79033739D01*
X96140475Y-79135000D01*
X96659525Y-79135000D01*
X97168601Y-79033739D01*
X97648141Y-78835107D01*
X98079715Y-78546738D01*
X98446738Y-78179715D01*
X98735107Y-77748141D01*
X98933739Y-77268601D01*
X99035000Y-76759525D01*
X99035000Y-76240475D01*
X98933739Y-75731399D01*
X98735107Y-75251859D01*
X98446738Y-74820285D01*
X98079715Y-74453262D01*
X97648141Y-74164893D01*
X97168601Y-73966261D01*
X96659525Y-73865000D01*
X96140475Y-73865000D01*
X95631399Y-73966261D01*
X95151859Y-74164893D01*
X94720285Y-74453262D01*
X94353262Y-74820285D01*
X94064893Y-75251859D01*
X93960000Y-75505093D01*
X93960000Y-73914801D01*
X94192442Y-73682359D01*
X101394173Y-73682359D01*
X101394173Y-73905935D01*
X101437790Y-74125214D01*
X101523349Y-74331771D01*
X101647561Y-74517667D01*
X101805653Y-74675759D01*
X101991549Y-74799971D01*
X102198106Y-74885530D01*
X102417385Y-74929147D01*
X102640961Y-74929147D01*
X102860240Y-74885530D01*
X103066797Y-74799971D01*
X103252693Y-74675759D01*
X103410785Y-74517667D01*
X103534997Y-74331771D01*
X103620556Y-74125214D01*
X103664173Y-73905935D01*
X103664173Y-73682359D01*
X103620556Y-73463080D01*
X103534997Y-73256523D01*
X103410785Y-73070627D01*
X103252693Y-72912535D01*
X103066797Y-72788323D01*
X102860240Y-72702764D01*
X102640961Y-72659147D01*
X102417385Y-72659147D01*
X102198106Y-72702764D01*
X101991549Y-72788323D01*
X101805653Y-72912535D01*
X101647561Y-73070627D01*
X101523349Y-73256523D01*
X101437790Y-73463080D01*
X101394173Y-73682359D01*
X94192442Y-73682359D01*
X94311002Y-73563800D01*
X94340001Y-73540001D01*
X94379809Y-73491495D01*
X94434974Y-73424277D01*
X94505546Y-73292247D01*
X94514213Y-73263675D01*
X94549003Y-73148986D01*
X94560000Y-73037333D01*
X94560000Y-73037324D01*
X94563676Y-73000001D01*
X94560000Y-72962678D01*
X94560000Y-69125748D01*
X94708791Y-69096152D01*
X94951472Y-68995630D01*
X94994193Y-68967085D01*
X95054963Y-69051888D01*
X95146257Y-69137395D01*
X95252479Y-69203447D01*
X95369546Y-69247508D01*
X96625250Y-69583973D01*
X96748663Y-69604349D01*
X96873680Y-69600256D01*
X96995496Y-69571853D01*
X97109431Y-69520230D01*
X97211105Y-69447371D01*
X97296612Y-69356077D01*
X97362664Y-69249855D01*
X97406725Y-69132788D01*
X97618862Y-68341080D01*
X97634484Y-68289581D01*
X97635543Y-68278827D01*
X97652603Y-68215159D01*
X97672979Y-68091746D01*
X97668886Y-67966729D01*
X97661880Y-67936682D01*
X98036201Y-68311003D01*
X98059999Y-68340001D01*
X98175724Y-68434974D01*
X98307753Y-68505546D01*
X98451014Y-68549003D01*
X98562667Y-68560000D01*
X98562676Y-68560000D01*
X98568265Y-68560550D01*
X98347397Y-69384841D01*
X98327021Y-69508254D01*
X98331114Y-69633271D01*
X98359517Y-69755087D01*
X98411140Y-69869022D01*
X98483999Y-69970696D01*
X98575293Y-70056203D01*
X98681515Y-70122255D01*
X98798582Y-70166316D01*
X100054286Y-70502781D01*
X100177699Y-70523157D01*
X100236841Y-70521221D01*
X100272106Y-70599052D01*
X100344965Y-70700726D01*
X100436259Y-70786233D01*
X100542481Y-70852285D01*
X100659548Y-70896346D01*
X102008946Y-71257916D01*
X102132359Y-71278292D01*
X102257376Y-71274199D01*
X102379193Y-71245796D01*
X102493127Y-71194173D01*
X102594801Y-71121314D01*
X102680308Y-71030020D01*
X102746360Y-70923798D01*
X102790421Y-70806731D01*
X103151991Y-69457333D01*
X103172367Y-69333920D01*
X103168274Y-69208903D01*
X103139871Y-69087086D01*
X103088248Y-68973152D01*
X103015389Y-68871478D01*
X102924095Y-68785971D01*
X102817873Y-68719919D01*
X102700806Y-68675858D01*
X102351007Y-68582130D01*
X102328877Y-68560000D01*
X105792462Y-68560000D01*
X105765000Y-68698061D01*
X105765000Y-68901939D01*
X105804774Y-69101898D01*
X105882795Y-69290256D01*
X105996063Y-69459774D01*
X106040001Y-69503712D01*
X106040000Y-73412667D01*
X106040000Y-73637332D01*
X106040001Y-73637342D01*
X106040000Y-85591267D01*
X105951898Y-85554774D01*
X105751939Y-85515000D01*
X105548061Y-85515000D01*
X105348102Y-85554774D01*
X105159744Y-85632795D01*
X104990226Y-85746063D01*
X104846063Y-85890226D01*
X104732795Y-86059744D01*
X104654774Y-86248102D01*
X104615000Y-86448061D01*
X104615000Y-86651939D01*
X104654774Y-86851898D01*
X104732795Y-87040256D01*
X104846063Y-87209774D01*
X104990226Y-87353937D01*
X105159744Y-87467205D01*
X105348102Y-87545226D01*
X105548061Y-87585000D01*
X105751939Y-87585000D01*
X105951898Y-87545226D01*
X106140256Y-87467205D01*
X106309774Y-87353937D01*
X106343456Y-87320255D01*
X106485199Y-87320255D01*
X108918564Y-89753621D01*
X108887936Y-89907599D01*
X108887936Y-90182783D01*
X108941622Y-90452681D01*
X109046931Y-90706918D01*
X109199816Y-90935726D01*
X109394401Y-91130311D01*
X109623209Y-91283196D01*
X109877446Y-91388505D01*
X110147344Y-91442191D01*
X110422528Y-91442191D01*
X110692426Y-91388505D01*
X110946663Y-91283196D01*
X111049676Y-91214365D01*
X111046381Y-91315018D01*
X111220816Y-91493070D01*
X112204652Y-91229451D01*
X112256251Y-91281050D01*
X112435859Y-91101442D01*
X112204654Y-90870237D01*
X112006776Y-90131747D01*
X111765361Y-90069708D01*
X111681936Y-90127724D01*
X111681936Y-90066007D01*
X112252121Y-90066007D01*
X112539803Y-91139648D01*
X113613444Y-90851967D01*
X113675483Y-90610552D01*
X113518369Y-90384627D01*
X113320198Y-90193695D01*
X113088586Y-90045093D01*
X112832434Y-89944531D01*
X112561584Y-89895874D01*
X112430173Y-89891572D01*
X112252121Y-90066007D01*
X111681936Y-90066007D01*
X111681936Y-89907599D01*
X111641861Y-89706126D01*
X111978918Y-89639081D01*
X112302494Y-89505052D01*
X112593704Y-89310472D01*
X112841358Y-89062818D01*
X113035938Y-88771608D01*
X113169967Y-88448032D01*
X113238295Y-88104527D01*
X113238295Y-87754291D01*
X113169967Y-87410786D01*
X113035938Y-87087210D01*
X112841358Y-86796000D01*
X112618348Y-86572990D01*
X112763852Y-86475768D01*
X113011506Y-86228114D01*
X113206086Y-85936904D01*
X113340115Y-85613328D01*
X113408443Y-85269823D01*
X113408443Y-84919587D01*
X113340115Y-84576082D01*
X113325616Y-84541076D01*
X113571100Y-84541076D01*
X113571100Y-85058924D01*
X113672127Y-85566822D01*
X113870299Y-86045251D01*
X114158000Y-86475826D01*
X114524174Y-86842000D01*
X114954749Y-87129701D01*
X115433178Y-87327873D01*
X115941076Y-87428900D01*
X116458924Y-87428900D01*
X116966822Y-87327873D01*
X117445251Y-87129701D01*
X117875826Y-86842000D01*
X118242000Y-86475826D01*
X118529701Y-86045251D01*
X118727873Y-85566822D01*
X118828900Y-85058924D01*
X118828900Y-84541076D01*
X118727873Y-84033178D01*
X118529701Y-83554749D01*
X118242000Y-83124174D01*
X117875826Y-82758000D01*
X117445251Y-82470299D01*
X116966822Y-82272127D01*
X116458924Y-82171100D01*
X115941076Y-82171100D01*
X115433178Y-82272127D01*
X114954749Y-82470299D01*
X114524174Y-82758000D01*
X114158000Y-83124174D01*
X113870299Y-83554749D01*
X113672127Y-84033178D01*
X113571100Y-84541076D01*
X113325616Y-84541076D01*
X113206086Y-84252506D01*
X113011506Y-83961296D01*
X112763852Y-83713642D01*
X112531732Y-83558545D01*
X112747797Y-83414174D01*
X112954765Y-83207206D01*
X113117379Y-82963838D01*
X113229389Y-82693421D01*
X113286491Y-82406348D01*
X113286491Y-82113652D01*
X113229389Y-81826579D01*
X113117379Y-81556162D01*
X113081199Y-81502015D01*
X113089692Y-81465592D01*
X113102808Y-81064947D01*
X113037509Y-80669442D01*
X112896307Y-80294275D01*
X112684626Y-79953864D01*
X112410601Y-79661290D01*
X112084763Y-79427798D01*
X111719634Y-79262360D01*
X111329246Y-79171335D01*
X110928601Y-79158219D01*
X110533096Y-79223518D01*
X110157930Y-79364720D01*
X109817519Y-79576401D01*
X109524945Y-79850426D01*
X109349964Y-80094611D01*
X108760000Y-81116458D01*
X108760000Y-75203711D01*
X108803937Y-75159774D01*
X108917205Y-74990256D01*
X108995226Y-74801898D01*
X109035000Y-74601939D01*
X109035000Y-74398061D01*
X108995226Y-74198102D01*
X108917205Y-74009744D01*
X108900674Y-73985003D01*
X109560202Y-73985003D01*
X115811201Y-80236003D01*
X115834999Y-80265001D01*
X115863997Y-80288799D01*
X115950723Y-80359974D01*
X116072836Y-80425245D01*
X116082753Y-80430546D01*
X116226014Y-80474003D01*
X116337667Y-80485000D01*
X116337677Y-80485000D01*
X116375000Y-80488676D01*
X116412323Y-80485000D01*
X120062678Y-80485000D01*
X120100000Y-80488676D01*
X120137322Y-80485000D01*
X120137333Y-80485000D01*
X120248986Y-80474003D01*
X120392247Y-80430546D01*
X120515639Y-80364591D01*
X120521750Y-80395312D01*
X120627059Y-80649549D01*
X120779944Y-80878357D01*
X120974529Y-81072942D01*
X121203337Y-81225827D01*
X121457574Y-81331136D01*
X121727472Y-81384822D01*
X122002656Y-81384822D01*
X122272554Y-81331136D01*
X122526791Y-81225827D01*
X122755599Y-81072942D01*
X122950184Y-80878357D01*
X123103069Y-80649549D01*
X123208378Y-80395312D01*
X123262064Y-80125414D01*
X123262064Y-79850230D01*
X123254062Y-79810000D01*
X123512678Y-79810000D01*
X123550000Y-79813676D01*
X123587322Y-79810000D01*
X123587333Y-79810000D01*
X123698986Y-79799003D01*
X123842247Y-79755546D01*
X123974276Y-79684974D01*
X124090001Y-79590001D01*
X124113804Y-79560998D01*
X124212237Y-79462564D01*
X124448995Y-79599256D01*
X124562930Y-79650879D01*
X124684746Y-79679282D01*
X124809763Y-79683375D01*
X124933176Y-79662999D01*
X125050243Y-79618938D01*
X125156465Y-79552885D01*
X125247759Y-79467379D01*
X125320618Y-79365705D01*
X126019118Y-78155867D01*
X126070741Y-78041932D01*
X126099144Y-77920116D01*
X126103237Y-77795099D01*
X126082861Y-77671686D01*
X126038800Y-77554619D01*
X125972747Y-77448397D01*
X125887241Y-77357103D01*
X125785567Y-77284244D01*
X124575729Y-76585744D01*
X124461794Y-76534121D01*
X124339978Y-76505718D01*
X124214961Y-76501625D01*
X124091548Y-76522001D01*
X124011578Y-76552100D01*
X123971127Y-76508910D01*
X123869453Y-76436051D01*
X122743619Y-75786051D01*
X122629685Y-75734428D01*
X122507868Y-75706025D01*
X122382851Y-75701932D01*
X122259438Y-75722308D01*
X122142371Y-75766369D01*
X122036149Y-75832421D01*
X121944855Y-75917928D01*
X121871996Y-76019602D01*
X121396996Y-76842326D01*
X121345373Y-76956261D01*
X121316970Y-77078077D01*
X121312877Y-77203094D01*
X121333253Y-77326507D01*
X121357984Y-77392215D01*
X119785199Y-78965000D01*
X116689802Y-78965000D01*
X115075032Y-77350230D01*
X116137936Y-77350230D01*
X116137936Y-77625414D01*
X116191622Y-77895312D01*
X116296931Y-78149549D01*
X116449816Y-78378357D01*
X116644401Y-78572942D01*
X116873209Y-78725827D01*
X117127446Y-78831136D01*
X117397344Y-78884822D01*
X117672528Y-78884822D01*
X117942426Y-78831136D01*
X118196663Y-78725827D01*
X118425471Y-78572942D01*
X118620056Y-78378357D01*
X118772941Y-78149549D01*
X118878250Y-77895312D01*
X118931936Y-77625414D01*
X118931936Y-77350230D01*
X118878250Y-77080332D01*
X118772941Y-76826095D01*
X118620056Y-76597287D01*
X118425471Y-76402702D01*
X118196663Y-76249817D01*
X117942426Y-76144508D01*
X117672528Y-76090822D01*
X117397344Y-76090822D01*
X117127446Y-76144508D01*
X116873209Y-76249817D01*
X116644401Y-76402702D01*
X116449816Y-76597287D01*
X116296931Y-76826095D01*
X116191622Y-77080332D01*
X116137936Y-77350230D01*
X115075032Y-77350230D01*
X114150302Y-76425500D01*
X114198061Y-76435000D01*
X114401939Y-76435000D01*
X114601898Y-76395226D01*
X114790256Y-76317205D01*
X114959774Y-76203937D01*
X115103937Y-76059774D01*
X115217205Y-75890256D01*
X115295226Y-75701898D01*
X115335000Y-75501939D01*
X115335000Y-75298061D01*
X115295226Y-75098102D01*
X115217205Y-74909744D01*
X115185000Y-74861546D01*
X115185000Y-74151162D01*
X116579748Y-74151162D01*
X116579748Y-74413838D01*
X116630994Y-74671468D01*
X116731516Y-74914149D01*
X116877451Y-75132557D01*
X117063191Y-75318297D01*
X117281599Y-75464232D01*
X117524280Y-75564754D01*
X117781910Y-75616000D01*
X118044586Y-75616000D01*
X118159622Y-75593118D01*
X118187471Y-75615973D01*
X118311410Y-75682221D01*
X118368977Y-75774796D01*
X118454483Y-75866090D01*
X118556157Y-75938949D01*
X119681991Y-76588949D01*
X119795925Y-76640572D01*
X119917742Y-76668975D01*
X120042759Y-76673068D01*
X120166172Y-76652692D01*
X120283239Y-76608631D01*
X120389461Y-76542579D01*
X120480755Y-76457072D01*
X120553614Y-76355398D01*
X121028614Y-75532674D01*
X121080237Y-75418739D01*
X121108640Y-75296923D01*
X121112733Y-75171906D01*
X121092357Y-75048493D01*
X121048296Y-74931426D01*
X120982243Y-74825204D01*
X120896737Y-74733910D01*
X120795063Y-74661051D01*
X119669229Y-74011051D01*
X119555295Y-73959428D01*
X119433478Y-73931025D01*
X119308461Y-73926932D01*
X119205526Y-73943927D01*
X119195502Y-73893532D01*
X119094980Y-73650851D01*
X118949045Y-73432443D01*
X118763305Y-73246703D01*
X118544897Y-73100768D01*
X118302216Y-73000246D01*
X118044586Y-72949000D01*
X117781910Y-72949000D01*
X117524280Y-73000246D01*
X117281599Y-73100768D01*
X117063191Y-73246703D01*
X116877451Y-73432443D01*
X116731516Y-73650851D01*
X116630994Y-73893532D01*
X116579748Y-74151162D01*
X115185000Y-74151162D01*
X115185000Y-73666578D01*
X115595044Y-73256535D01*
X115651898Y-73245226D01*
X115840256Y-73167205D01*
X116009774Y-73053937D01*
X116153937Y-72909774D01*
X116267205Y-72740256D01*
X116345226Y-72551898D01*
X116385000Y-72351939D01*
X116385000Y-72148061D01*
X116345226Y-71948102D01*
X116267205Y-71759744D01*
X116153937Y-71590226D01*
X116009774Y-71446063D01*
X115840256Y-71332795D01*
X115651898Y-71254774D01*
X115451939Y-71215000D01*
X115248061Y-71215000D01*
X115048102Y-71254774D01*
X114859744Y-71332795D01*
X114690226Y-71446063D01*
X114546063Y-71590226D01*
X114432795Y-71759744D01*
X114354774Y-71948102D01*
X114343465Y-72004956D01*
X113704951Y-72643471D01*
X113671184Y-72671183D01*
X113643471Y-72704951D01*
X113643468Y-72704954D01*
X113560590Y-72805941D01*
X113478412Y-72959687D01*
X113427805Y-73126510D01*
X113410719Y-73300000D01*
X113415001Y-73343479D01*
X113415000Y-74861545D01*
X113382795Y-74909744D01*
X113304774Y-75098102D01*
X113265000Y-75298061D01*
X113265000Y-75501939D01*
X113274500Y-75549698D01*
X110844258Y-73119457D01*
X110853937Y-73109778D01*
X110967205Y-72940260D01*
X111045226Y-72751902D01*
X111085000Y-72551943D01*
X111085000Y-72348065D01*
X111045226Y-72148106D01*
X110967205Y-71959748D01*
X110853937Y-71790230D01*
X110810000Y-71746293D01*
X110810000Y-69837076D01*
X113338843Y-69837076D01*
X113340207Y-69962153D01*
X113365947Y-70084560D01*
X113415073Y-70199593D01*
X113485695Y-70302832D01*
X113575103Y-70390310D01*
X113679858Y-70458665D01*
X113795936Y-70505269D01*
X113918875Y-70528332D01*
X114393581Y-70566779D01*
X114539179Y-70444607D01*
X114818596Y-70444607D01*
X114962906Y-70616589D01*
X115437076Y-70661157D01*
X115562153Y-70659793D01*
X115684560Y-70634053D01*
X115799593Y-70584927D01*
X115902832Y-70514305D01*
X115965465Y-70450290D01*
X116016032Y-70524209D01*
X116105439Y-70611687D01*
X116210194Y-70680041D01*
X116326272Y-70726645D01*
X116449212Y-70749708D01*
X117967413Y-70882533D01*
X118092489Y-70881168D01*
X118214896Y-70855429D01*
X118329930Y-70806304D01*
X118433169Y-70735680D01*
X118495800Y-70671668D01*
X118546365Y-70745584D01*
X118635772Y-70833062D01*
X118740527Y-70901416D01*
X118856605Y-70948020D01*
X118979545Y-70971083D01*
X120029260Y-71062921D01*
X120355693Y-71389354D01*
X120383406Y-71423122D01*
X120417174Y-71450835D01*
X120417176Y-71450837D01*
X120467633Y-71492246D01*
X120518164Y-71533716D01*
X120671910Y-71615894D01*
X120838733Y-71666500D01*
X120968746Y-71679305D01*
X120968756Y-71679305D01*
X121012222Y-71683586D01*
X121055688Y-71679305D01*
X122387730Y-71679305D01*
X122414611Y-71718601D01*
X122623697Y-71923175D01*
X122868678Y-72083027D01*
X123140135Y-72192015D01*
X123355593Y-72232434D01*
X124297893Y-72314874D01*
X124517096Y-72312482D01*
X124803355Y-72252288D01*
X125072371Y-72137404D01*
X125313804Y-71972246D01*
X125518377Y-71763160D01*
X125678230Y-71518179D01*
X125750584Y-71337965D01*
X126075372Y-71337965D01*
X126088008Y-71433492D01*
X126179442Y-71710990D01*
X126323257Y-71965319D01*
X126513926Y-72186703D01*
X126744121Y-72366635D01*
X127004996Y-72498202D01*
X127286525Y-72576346D01*
X127685003Y-72611208D01*
X127803360Y-71258376D01*
X126216268Y-71119523D01*
X126075372Y-71337965D01*
X125750584Y-71337965D01*
X125787218Y-71246722D01*
X125841152Y-70959218D01*
X125837961Y-70666717D01*
X125829589Y-70626901D01*
X126137582Y-70626901D01*
X126238405Y-70866490D01*
X127825498Y-71005342D01*
X127943856Y-69652510D01*
X127545378Y-69617648D01*
X127254556Y-69645718D01*
X126974798Y-69729985D01*
X126716855Y-69867211D01*
X126490640Y-70052123D01*
X126304846Y-70277614D01*
X126166614Y-70535018D01*
X126137582Y-70626901D01*
X125829589Y-70626901D01*
X125777767Y-70380458D01*
X125662883Y-70111442D01*
X125625929Y-70057421D01*
X125810708Y-70094176D01*
X126053982Y-70094176D01*
X126292581Y-70046716D01*
X126517337Y-69953619D01*
X126719612Y-69818463D01*
X126891632Y-69646443D01*
X127026788Y-69444168D01*
X127119885Y-69219412D01*
X127167345Y-68980813D01*
X127167345Y-68737539D01*
X127119885Y-68498940D01*
X127026788Y-68274184D01*
X126891632Y-68071909D01*
X126883490Y-68063767D01*
X127044155Y-67903102D01*
X127179311Y-67700827D01*
X127272408Y-67476071D01*
X127319868Y-67237472D01*
X127319868Y-66994198D01*
X127272408Y-66755599D01*
X127179311Y-66530843D01*
X127044155Y-66328568D01*
X126872135Y-66156548D01*
X126669860Y-66021392D01*
X126445104Y-65928295D01*
X126206505Y-65880835D01*
X125992891Y-65880835D01*
X126036953Y-65835801D01*
X126196806Y-65590820D01*
X126269160Y-65410606D01*
X126593949Y-65410606D01*
X126606585Y-65506133D01*
X126698019Y-65783631D01*
X126841834Y-66037960D01*
X127032503Y-66259344D01*
X127262698Y-66439276D01*
X127523573Y-66570843D01*
X127805102Y-66648987D01*
X128203580Y-66683849D01*
X128321937Y-65331017D01*
X126734845Y-65192164D01*
X126593949Y-65410606D01*
X126269160Y-65410606D01*
X126305794Y-65319363D01*
X126359728Y-65031859D01*
X126356537Y-64739358D01*
X126348165Y-64699542D01*
X126656159Y-64699542D01*
X126756982Y-64939131D01*
X128344075Y-65077983D01*
X128462433Y-63725151D01*
X128063955Y-63690289D01*
X127773133Y-63718359D01*
X127493375Y-63802626D01*
X127235432Y-63939852D01*
X127009217Y-64124764D01*
X126823423Y-64350255D01*
X126685191Y-64607659D01*
X126656159Y-64699542D01*
X126348165Y-64699542D01*
X126296343Y-64453099D01*
X126181459Y-64184083D01*
X126016300Y-63942650D01*
X125807214Y-63738076D01*
X125562234Y-63578224D01*
X125290777Y-63469236D01*
X125075319Y-63428817D01*
X124133018Y-63346377D01*
X123913816Y-63348769D01*
X123627557Y-63408963D01*
X123358541Y-63523847D01*
X123117108Y-63689005D01*
X122912534Y-63898091D01*
X122752682Y-64143072D01*
X122643694Y-64414529D01*
X122589760Y-64702033D01*
X122592665Y-64968298D01*
X122486204Y-64958984D01*
X122267002Y-64961376D01*
X121980743Y-65021570D01*
X121711727Y-65136454D01*
X121470294Y-65301612D01*
X121450252Y-65322096D01*
X121252030Y-65230043D01*
X120216555Y-66098910D01*
X120222630Y-66106149D01*
X120051774Y-66277005D01*
X121109108Y-67334339D01*
X121186133Y-67257314D01*
X121286373Y-67403849D01*
X121477762Y-67591108D01*
X121256762Y-67742289D01*
X121052188Y-67951375D01*
X120892336Y-68196356D01*
X120837710Y-68332413D01*
X120741793Y-68314419D01*
X119254377Y-68184287D01*
X119317207Y-68090256D01*
X119395228Y-67901898D01*
X119435002Y-67701939D01*
X119435002Y-67604137D01*
X119638326Y-67676903D01*
X119956904Y-67724182D01*
X120278584Y-67708401D01*
X120591005Y-67630167D01*
X120772403Y-67552701D01*
X120890846Y-67297653D01*
X120021979Y-66262178D01*
X120014740Y-66268253D01*
X119843884Y-66097397D01*
X119102497Y-66838784D01*
X119059776Y-66796063D01*
X119021246Y-66770318D01*
X119858711Y-66067602D01*
X118989844Y-65032127D01*
X118718103Y-65104483D01*
X118552508Y-65380717D01*
X118443986Y-65683949D01*
X118396707Y-66002527D01*
X118412488Y-66324207D01*
X118472785Y-66565000D01*
X118298063Y-66565000D01*
X118098104Y-66604774D01*
X117909746Y-66682795D01*
X117740228Y-66796063D01*
X117596065Y-66940226D01*
X117482797Y-67109744D01*
X117404776Y-67298102D01*
X117365002Y-67498061D01*
X117365002Y-67560198D01*
X116943121Y-67982079D01*
X116693259Y-67960219D01*
X116568183Y-67961584D01*
X116445776Y-67987323D01*
X116330742Y-68036448D01*
X116227503Y-68107072D01*
X116164870Y-68171086D01*
X116114305Y-68097168D01*
X116024897Y-68009690D01*
X115920142Y-67941335D01*
X115804064Y-67894731D01*
X115681125Y-67871668D01*
X115206419Y-67833221D01*
X115034437Y-67977531D01*
X114937586Y-69084552D01*
X114957510Y-69086295D01*
X114935372Y-69339329D01*
X114915448Y-69337586D01*
X114818596Y-70444607D01*
X114539179Y-70444607D01*
X114565563Y-70422469D01*
X114662414Y-69315448D01*
X113555393Y-69218596D01*
X113383411Y-69362906D01*
X113338843Y-69837076D01*
X110810000Y-69837076D01*
X110810000Y-69578711D01*
X110853937Y-69534774D01*
X110967205Y-69365256D01*
X111045226Y-69176898D01*
X111085000Y-68976939D01*
X111085000Y-68773061D01*
X111045226Y-68573102D01*
X111039799Y-68560000D01*
X113452139Y-68560000D01*
X113433221Y-68793581D01*
X113577531Y-68965563D01*
X114684552Y-69062414D01*
X114781404Y-67955393D01*
X114695940Y-67853541D01*
X115677144Y-66872338D01*
X115739281Y-66872338D01*
X115939240Y-66832564D01*
X116127598Y-66754543D01*
X116297116Y-66641275D01*
X116441279Y-66497112D01*
X116554547Y-66327594D01*
X116632568Y-66139236D01*
X116672342Y-65939277D01*
X116672342Y-65735399D01*
X116632568Y-65535440D01*
X116554547Y-65347082D01*
X116441279Y-65177564D01*
X116297116Y-65033401D01*
X116127598Y-64920133D01*
X116005319Y-64869483D01*
X116005943Y-64868859D01*
X119184420Y-64868859D01*
X120053287Y-65904334D01*
X121088762Y-65035467D01*
X121016406Y-64763726D01*
X120740172Y-64598131D01*
X120436940Y-64489609D01*
X120118362Y-64442330D01*
X119796682Y-64458111D01*
X119484261Y-64536345D01*
X119302863Y-64613811D01*
X119184420Y-64868859D01*
X116005943Y-64868859D01*
X118314802Y-62560000D01*
X120362678Y-62560000D01*
X120400000Y-62563676D01*
X120437322Y-62560000D01*
X120437333Y-62560000D01*
X120548986Y-62549003D01*
X120692247Y-62505546D01*
X120824276Y-62434974D01*
X120940001Y-62340001D01*
X120963803Y-62310998D01*
X121150887Y-62123915D01*
X121191262Y-62126699D01*
X121216148Y-62125969D01*
X121240413Y-62120398D01*
X121263125Y-62110201D01*
X121289803Y-62089803D01*
X122593814Y-60785792D01*
X123904423Y-62283630D01*
X123922575Y-62300669D01*
X123943702Y-62313840D01*
X123966993Y-62322636D01*
X123996033Y-62326938D01*
X129044858Y-62484714D01*
X129044858Y-62566971D01*
X129098544Y-62836869D01*
X129203853Y-63091106D01*
X129356738Y-63319914D01*
X129551323Y-63514499D01*
X129780131Y-63667384D01*
X130034368Y-63772693D01*
X130304266Y-63826379D01*
X130579450Y-63826379D01*
X130849348Y-63772693D01*
X131103585Y-63667384D01*
X131332393Y-63514499D01*
X131526978Y-63319914D01*
X131679863Y-63091106D01*
X131785172Y-62836869D01*
X131817355Y-62675072D01*
X131991566Y-62675072D01*
X132261464Y-62621386D01*
X132515701Y-62516077D01*
X132744509Y-62363192D01*
X132939094Y-62168607D01*
X133091979Y-61939799D01*
X133197288Y-61685562D01*
X133250974Y-61415664D01*
X133250974Y-61140480D01*
X133197288Y-60870582D01*
X133091979Y-60616345D01*
X132939094Y-60387537D01*
X132744509Y-60192952D01*
X132550229Y-60063138D01*
X132737077Y-59985743D01*
X132965885Y-59832858D01*
X133160470Y-59638273D01*
X133313355Y-59409465D01*
X133418664Y-59155228D01*
X133472350Y-58885330D01*
X133472350Y-58610146D01*
X133418664Y-58340248D01*
X133313355Y-58086011D01*
X133160470Y-57857203D01*
X132965885Y-57662618D01*
X132771605Y-57532804D01*
X132958453Y-57455408D01*
X133187261Y-57302523D01*
X133381846Y-57107938D01*
X133534731Y-56879130D01*
X133640040Y-56624893D01*
X133693726Y-56354995D01*
X133693726Y-56079811D01*
X133640040Y-55809913D01*
X133534731Y-55555676D01*
X133381846Y-55326868D01*
X133187261Y-55132283D01*
X132992981Y-55002469D01*
X133179828Y-54925074D01*
X133408636Y-54772189D01*
X133603221Y-54577604D01*
X133756106Y-54348796D01*
X133861415Y-54094559D01*
X133915101Y-53824661D01*
X133915101Y-53549477D01*
X133861415Y-53279579D01*
X133756106Y-53025342D01*
X133603221Y-52796534D01*
X133408636Y-52601949D01*
X133214356Y-52472135D01*
X133401204Y-52394739D01*
X133630012Y-52241854D01*
X133824597Y-52047269D01*
X133977482Y-51818461D01*
X134082791Y-51564224D01*
X134136477Y-51294326D01*
X134136477Y-51019142D01*
X134082791Y-50749244D01*
X133977482Y-50495007D01*
X133824597Y-50266199D01*
X133630012Y-50071614D01*
X133435732Y-49941800D01*
X133622579Y-49864405D01*
X133851387Y-49711520D01*
X134045972Y-49516935D01*
X134198857Y-49288127D01*
X134304166Y-49033890D01*
X134357852Y-48763992D01*
X134357852Y-48488808D01*
X134304166Y-48218910D01*
X134198857Y-47964673D01*
X134045972Y-47735865D01*
X133851387Y-47541280D01*
X133657107Y-47411466D01*
X133843955Y-47334070D01*
X134072763Y-47181185D01*
X134267348Y-46986600D01*
X134420233Y-46757792D01*
X134525542Y-46503555D01*
X134579228Y-46233657D01*
X134579228Y-45958473D01*
X134525542Y-45688575D01*
X134420233Y-45434338D01*
X134267348Y-45205530D01*
X134072763Y-45010945D01*
X133878483Y-44881131D01*
X134065331Y-44803736D01*
X134294139Y-44650851D01*
X134488724Y-44456266D01*
X134641609Y-44227458D01*
X134746918Y-43973221D01*
X134800604Y-43703323D01*
X134800604Y-43428139D01*
X134746918Y-43158241D01*
X134641609Y-42904004D01*
X134488724Y-42675196D01*
X134294139Y-42480611D01*
X134104183Y-42353686D01*
X134115226Y-42350765D01*
X134236143Y-42299127D01*
X134323793Y-42065788D01*
X133609325Y-41214318D01*
X133602086Y-41220393D01*
X133432743Y-41051050D01*
X133803901Y-41051050D01*
X134518369Y-41902520D01*
X134763384Y-41856720D01*
X134901742Y-41618846D01*
X134991035Y-41358551D01*
X135027831Y-41085837D01*
X135010716Y-40811185D01*
X134940348Y-40545149D01*
X134888710Y-40424232D01*
X134655371Y-40336582D01*
X133803901Y-41051050D01*
X133432743Y-41051050D01*
X133431230Y-41049537D01*
X133241291Y-41239476D01*
X133215238Y-41213423D01*
X133446057Y-41019742D01*
X133439982Y-41012503D01*
X133610838Y-40841647D01*
X133417726Y-40648535D01*
X133444057Y-40622204D01*
X133640633Y-40856474D01*
X134492103Y-40142006D01*
X134446303Y-39896991D01*
X134321529Y-39824417D01*
X134336602Y-39820430D01*
X134457519Y-39768792D01*
X134545169Y-39535453D01*
X133830701Y-38683983D01*
X133823462Y-38690058D01*
X133654119Y-38520715D01*
X134025277Y-38520715D01*
X134739745Y-39372185D01*
X134984760Y-39326385D01*
X135123118Y-39088511D01*
X135212411Y-38828216D01*
X135249207Y-38555502D01*
X135232092Y-38280850D01*
X135161724Y-38014814D01*
X135110086Y-37893897D01*
X134876747Y-37806247D01*
X134025277Y-38520715D01*
X133654119Y-38520715D01*
X133652606Y-38519202D01*
X133462667Y-38709142D01*
X133436613Y-38683088D01*
X133667433Y-38489407D01*
X133661358Y-38482168D01*
X133832214Y-38311312D01*
X132943986Y-37423084D01*
X132892784Y-37474286D01*
X132915220Y-37237844D01*
X133549004Y-37993158D01*
X133578049Y-37987729D01*
X133862009Y-38326139D01*
X134713479Y-37611671D01*
X134667679Y-37366656D01*
X134538811Y-37291701D01*
X134729457Y-37212732D01*
X134958265Y-37059847D01*
X135152850Y-36865262D01*
X135305735Y-36636454D01*
X135411044Y-36382217D01*
X135464730Y-36112319D01*
X135464730Y-35837135D01*
X135411044Y-35567237D01*
X135305735Y-35313000D01*
X135152850Y-35084192D01*
X134958265Y-34889607D01*
X134763985Y-34759793D01*
X134950833Y-34682397D01*
X135179641Y-34529512D01*
X135374226Y-34334927D01*
X135527111Y-34106119D01*
X135632420Y-33851882D01*
X135686106Y-33581984D01*
X135686106Y-33306800D01*
X135632420Y-33036902D01*
X135527111Y-32782665D01*
X135374226Y-32553857D01*
X135179641Y-32359272D01*
X134950833Y-32206387D01*
X134696596Y-32101078D01*
X134426698Y-32047392D01*
X134151514Y-32047392D01*
X133881616Y-32101078D01*
X133627379Y-32206387D01*
X133398571Y-32359272D01*
X133203986Y-32553857D01*
X133051101Y-32782665D01*
X132945792Y-33036902D01*
X132913609Y-33198699D01*
X132739397Y-33198699D01*
X132585419Y-33229327D01*
X130962976Y-31606885D01*
X130939173Y-31577881D01*
X130823448Y-31482908D01*
X130691419Y-31412336D01*
X130548158Y-31368879D01*
X130436505Y-31357882D01*
X130436494Y-31357882D01*
X130399172Y-31354206D01*
X130361850Y-31357882D01*
X120299364Y-31357882D01*
X120212143Y-31227347D01*
X120017558Y-31032762D01*
X119788750Y-30879877D01*
X119534513Y-30774568D01*
X119264615Y-30720882D01*
X118989431Y-30720882D01*
X118719533Y-30774568D01*
X118465296Y-30879877D01*
X118236488Y-31032762D01*
X118041903Y-31227347D01*
X117889018Y-31456155D01*
X117783709Y-31710392D01*
X117751872Y-31870446D01*
X117557390Y-31870446D01*
X117287492Y-31924132D01*
X117033255Y-32029441D01*
X116804447Y-32182326D01*
X116609862Y-32376911D01*
X116456977Y-32605719D01*
X116351668Y-32859956D01*
X116297982Y-33129854D01*
X116297982Y-33405038D01*
X116351668Y-33674936D01*
X116456977Y-33929173D01*
X116609862Y-34157981D01*
X116804447Y-34352566D01*
X116998727Y-34482380D01*
X116811880Y-34559775D01*
X116583072Y-34712660D01*
X116388487Y-34907245D01*
X116235602Y-35136053D01*
X116130293Y-35390290D01*
X116076607Y-35660188D01*
X116076607Y-35935372D01*
X116130293Y-36205270D01*
X116235602Y-36459507D01*
X116388487Y-36688315D01*
X116583072Y-36882900D01*
X116773028Y-37009825D01*
X116761984Y-37012746D01*
X116641067Y-37064384D01*
X116553417Y-37297723D01*
X117267885Y-38149193D01*
X117275124Y-38143118D01*
X117445980Y-38313974D01*
X117645010Y-38114945D01*
X117671858Y-38141793D01*
X117431153Y-38343769D01*
X117437228Y-38351008D01*
X117266372Y-38521864D01*
X117470318Y-38725810D01*
X117443039Y-38753088D01*
X117236577Y-38507037D01*
X116385107Y-39221505D01*
X116430907Y-39466520D01*
X116555680Y-39539093D01*
X116540608Y-39543080D01*
X116419691Y-39594718D01*
X116332041Y-39828057D01*
X117046509Y-40679527D01*
X117053748Y-40673452D01*
X117224604Y-40844308D01*
X117423634Y-40645279D01*
X117450482Y-40672127D01*
X117209777Y-40874103D01*
X117215852Y-40881342D01*
X117044996Y-41052198D01*
X117248942Y-41256144D01*
X117221663Y-41283422D01*
X117015201Y-41037371D01*
X116163731Y-41751839D01*
X116209531Y-41996854D01*
X116338400Y-42071810D01*
X116147753Y-42150779D01*
X115918945Y-42303664D01*
X115724360Y-42498249D01*
X115571475Y-42727057D01*
X115466166Y-42981294D01*
X115412480Y-43251192D01*
X115412480Y-43526376D01*
X115466166Y-43796274D01*
X115571475Y-44050511D01*
X115573366Y-44053341D01*
X115538198Y-44064009D01*
X115406169Y-44134581D01*
X115290444Y-44229554D01*
X115266647Y-44258551D01*
X115129742Y-44395455D01*
X115050408Y-44474789D01*
X114449930Y-45206474D01*
X114423407Y-45232998D01*
X114402568Y-45264186D01*
X114402565Y-45264189D01*
X114393317Y-45278030D01*
X114361075Y-45326283D01*
X114361073Y-45326287D01*
X114340234Y-45357475D01*
X114325880Y-45392128D01*
X113921316Y-46149013D01*
X113861995Y-46259994D01*
X113851103Y-46295899D01*
X113836748Y-46330556D01*
X113829428Y-46367354D01*
X113818538Y-46403255D01*
X113814861Y-46440587D01*
X113807541Y-46477387D01*
X113807541Y-46514908D01*
X113807542Y-56634681D01*
X112597180Y-57845044D01*
X112839694Y-55164287D01*
X112839694Y-55164284D01*
X113203480Y-51142970D01*
X113203480Y-51142968D01*
X113567267Y-47121653D01*
X113567267Y-47121650D01*
X113931053Y-43100336D01*
X113931053Y-43100334D01*
X114138427Y-40808008D01*
X115628003Y-40808008D01*
X115645118Y-41082660D01*
X115715486Y-41348696D01*
X115767124Y-41469613D01*
X116000463Y-41557263D01*
X116851933Y-40842795D01*
X116137465Y-39991325D01*
X115892450Y-40037125D01*
X115754092Y-40274999D01*
X115664799Y-40535294D01*
X115628003Y-40808008D01*
X114138427Y-40808008D01*
X114294840Y-39079018D01*
X114294840Y-39079015D01*
X114367332Y-38277674D01*
X115849379Y-38277674D01*
X115866494Y-38552326D01*
X115936862Y-38818362D01*
X115988500Y-38939279D01*
X116221839Y-39026929D01*
X117073309Y-38312461D01*
X116358841Y-37460991D01*
X116113826Y-37506791D01*
X115975468Y-37744665D01*
X115886175Y-38004960D01*
X115849379Y-38277674D01*
X114367332Y-38277674D01*
X114658626Y-35057701D01*
X114658626Y-35057699D01*
X115018795Y-31076373D01*
X115072111Y-30551634D01*
X115203939Y-30129304D01*
X115413005Y-29745395D01*
X115690480Y-29409460D01*
X116026414Y-29131988D01*
X116410330Y-28922922D01*
X116832669Y-28791092D01*
X117293460Y-28744274D01*
X119408331Y-28922730D01*
M02*
